<svg width="24" height="24" viewBox="0 0 24 24" fill="none" xmlns="http://www.w3.org/2000/svg">
<path d="M22.5006 2.66634H19.0006V1.49967C19.0006 1.19026 18.8777 0.893509 18.6589 0.674716C18.4401 0.455924 18.1434 0.333008 17.834 0.333008H6.16732C5.8579 0.333008 5.56115 0.455924 5.34236 0.674716C5.12357 0.893509 5.00065 1.19026 5.00065 1.49967V2.66634H1.50065C1.19123 2.66634 0.894485 2.78926 0.675693 3.00805C0.456901 3.22684 0.333984 3.52359 0.333984 3.83301V7.33301C0.333984 8.57068 0.82565 9.75767 1.70082 10.6328C2.57599 11.508 3.76297 11.9997 5.00065 11.9997H6.79732C7.85261 13.177 9.27539 13.9624 10.834 14.228V16.6663H9.66732C8.73906 16.6663 7.84882 17.0351 7.19244 17.6915C6.53607 18.3478 6.16732 19.2381 6.16732 20.1663V22.4997C6.16732 22.8091 6.29023 23.1058 6.50903 23.3246C6.72782 23.5434 7.02456 23.6663 7.33398 23.6663H16.6673C16.9767 23.6663 17.2735 23.5434 17.4923 23.3246C17.7111 23.1058 17.834 22.8091 17.834 22.4997V20.1663C17.834 19.2381 17.4652 18.3478 16.8089 17.6915C16.1525 17.0351 15.2622 16.6663 14.334 16.6663H13.1673V14.228C14.7259 13.9624 16.1487 13.177 17.204 11.9997H19.0006C20.2383 11.9997 21.4253 11.508 22.3005 10.6328C23.1756 9.75767 23.6673 8.57068 23.6673 7.33301V3.83301C23.6673 3.52359 23.5444 3.22684 23.3256 3.00805C23.1068 2.78926 22.8101 2.66634 22.5006 2.66634ZM5.00065 9.66634C4.38181 9.66634 3.78832 9.42051 3.35073 8.98292C2.91315 8.54534 2.66732 7.95185 2.66732 7.33301V4.99967H5.00065V7.33301C5.00322 8.12833 5.14131 8.91741 5.40898 9.66634H5.00065ZM14.334 18.9997C14.6434 18.9997 14.9401 19.1226 15.1589 19.3414C15.3777 19.5602 15.5006 19.8569 15.5006 20.1663V21.333H8.50065V20.1663C8.50065 19.8569 8.62357 19.5602 8.84236 19.3414C9.06115 19.1226 9.3579 18.9997 9.66732 18.9997H14.334ZM16.6673 7.33301C16.6673 8.57068 16.1757 9.75767 15.3005 10.6328C14.4253 11.508 13.2383 11.9997 12.0006 11.9997C10.763 11.9997 9.57599 11.508 8.70082 10.6328C7.82565 9.75767 7.33398 8.57068 7.33398 7.33301V2.66634H16.6673V7.33301ZM21.334 7.33301C21.334 7.95185 21.0881 8.54534 20.6506 8.98292C20.213 9.42051 19.6195 9.66634 19.0006 9.66634H18.5923C18.86 8.91741 18.9981 8.12833 19.0006 7.33301V4.99967H21.334V7.33301Z" fill="#261D37"/>
</svg>
