<svg width="24" height="24" viewBox="0 0 24 24" fill="none" xmlns="http://www.w3.org/2000/svg">
<path d="M7.03289 10.5C6.80214 10.5 6.57658 10.5684 6.38472 10.6966C6.19286 10.8248 6.04333 11.007 5.95503 11.2202C5.86672 11.4334 5.84362 11.668 5.88864 11.8943C5.93365 12.1206 6.04477 12.3285 6.20793 12.4916C6.37109 12.6548 6.57897 12.7659 6.80528 12.8109C7.03159 12.8559 7.26617 12.8328 7.47935 12.7445C7.69253 12.6562 7.87474 12.5067 8.00293 12.3148C8.13113 12.123 8.19955 11.8974 8.19955 11.6667C8.19955 11.3572 8.07664 11.0605 7.85784 10.8417C7.63905 10.6229 7.3423 10.5 7.03289 10.5ZM11.6996 10.5C11.4688 10.5 11.2432 10.5684 11.0514 10.6966C10.8595 10.8248 10.71 11.007 10.6217 11.2202C10.5334 11.4334 10.5103 11.668 10.5553 11.8943C10.6003 12.1206 10.7114 12.3285 10.8746 12.4916C11.0378 12.6548 11.2456 12.7659 11.4719 12.8109C11.6983 12.8559 11.9328 12.8328 12.146 12.7445C12.3592 12.6562 12.5414 12.5067 12.6696 12.3148C12.7978 12.123 12.8662 11.8974 12.8662 11.6667C12.8662 11.3572 12.7433 11.0605 12.5245 10.8417C12.3057 10.6229 12.009 10.5 11.6996 10.5ZM16.3662 10.5C16.1355 10.5 15.9099 10.5684 15.7181 10.6966C15.5262 10.8248 15.3767 11.007 15.2884 11.2202C15.2001 11.4334 15.177 11.668 15.222 11.8943C15.267 12.1206 15.3781 12.3285 15.5413 12.4916C15.7044 12.6548 15.9123 12.7659 16.1386 12.8109C16.3649 12.8559 16.5995 12.8328 16.8127 12.7445C17.0259 12.6562 17.2081 12.5067 17.3363 12.3148C17.4645 12.123 17.5329 11.8974 17.5329 11.6667C17.5329 11.3572 17.41 11.0605 17.1912 10.8417C16.9724 10.6229 16.6756 10.5 16.3662 10.5ZM11.6996 0C10.1675 0 8.65038 0.301767 7.23491 0.888072C5.81945 1.47438 4.53332 2.33374 3.44997 3.41709C1.26205 5.60501 0.0328841 8.57247 0.0328841 11.6667C0.0226849 14.3607 0.955475 16.9733 2.66955 19.0517L0.336217 21.385C0.174334 21.5491 0.0646712 21.7574 0.0210681 21.9837C-0.0225351 22.21 0.00187472 22.4442 0.0912174 22.6567C0.188118 22.8666 0.345206 23.043 0.542539 23.1635C0.739872 23.2839 0.968552 23.3431 1.19955 23.3333H11.6996C14.7937 23.3333 17.7612 22.1042 19.9491 19.9162C22.1371 17.7283 23.3662 14.7609 23.3662 11.6667C23.3662 8.57247 22.1371 5.60501 19.9491 3.41709C17.7612 1.22916 14.7937 0 11.6996 0ZM11.6996 21H4.01122L5.09622 19.915C5.20645 19.8069 5.29415 19.6781 5.35423 19.5359C5.41431 19.3937 5.44558 19.241 5.44622 19.0867C5.44183 18.7789 5.31604 18.4854 5.09622 18.27C3.56857 16.744 2.61725 14.7356 2.40436 12.5869C2.19146 10.4382 2.73015 8.28217 3.92865 6.48611C5.12715 4.69004 6.91131 3.36509 8.97715 2.73697C11.043 2.10885 13.2627 2.21644 15.2581 3.0414C17.2536 3.86636 18.9012 5.35765 19.9204 7.26121C20.9396 9.16476 21.2672 11.3628 20.8475 13.4808C20.4278 15.5989 19.2867 17.5059 17.6187 18.8769C15.9506 20.248 13.8588 20.9983 11.6996 21Z" fill="white"/>
</svg>
