<svg width="22" height="24" viewBox="0 0 22 24" fill="none" xmlns="http://www.w3.org/2000/svg">
<path d="M20.3333 7.33359L13.3333 1.19692C12.6916 0.622971 11.8609 0.305664 11 0.305664C10.1391 0.305664 9.30835 0.622971 8.66665 1.19692L1.66665 7.33359C1.29608 7.66501 1.00037 8.07157 0.799206 8.52621C0.59804 8.98084 0.496037 9.47312 0.499989 9.97025V20.1669C0.499989 21.0952 0.868737 21.9854 1.52511 22.6418C2.18149 23.2982 3.07173 23.6669 3.99999 23.6669H18C18.9282 23.6669 19.8185 23.2982 20.4749 22.6418C21.1312 21.9854 21.5 21.0952 21.5 20.1669V9.95859C21.5023 9.46341 21.3995 8.97338 21.1984 8.52088C20.9973 8.06838 20.7024 7.6637 20.3333 7.33359ZM13.3333 21.3336H8.66665V15.5003C8.66665 15.1908 8.78957 14.8941 9.00836 14.6753C9.22716 14.4565 9.5239 14.3336 9.83332 14.3336H12.1667C12.4761 14.3336 12.7728 14.4565 12.9916 14.6753C13.2104 14.8941 13.3333 15.1908 13.3333 15.5003V21.3336ZM19.1667 20.1669C19.1667 20.4763 19.0437 20.7731 18.8249 20.9919C18.6062 21.2107 18.3094 21.3336 18 21.3336H15.6667V15.5003C15.6667 14.572 15.2979 13.6818 14.6415 13.0254C13.9851 12.369 13.0949 12.0003 12.1667 12.0003H9.83332C8.90506 12.0003 8.01482 12.369 7.35845 13.0254C6.70207 13.6818 6.33332 14.572 6.33332 15.5003V21.3336H3.99999C3.69057 21.3336 3.39382 21.2107 3.17503 20.9919C2.95624 20.7731 2.83332 20.4763 2.83332 20.1669V9.95859C2.83353 9.79294 2.86901 9.62923 2.93741 9.47836C3.0058 9.32749 3.10554 9.19292 3.22999 9.08359L10.23 2.95859C10.4429 2.77155 10.7166 2.6684 11 2.6684C11.2834 2.6684 11.5571 2.77155 11.77 2.95859L18.77 9.08359C18.8944 9.19292 18.9942 9.32749 19.0626 9.47836C19.131 9.62923 19.1664 9.79294 19.1667 9.95859V20.1669Z" fill="#261D37"/>
</svg>
