<svg width="24" height="24" viewBox="0 0 24 24" fill="none" xmlns="http://www.w3.org/2000/svg">
<path d="M9.33333 12.8333H1.16667C0.857247 12.8333 0.560501 12.9562 0.341709 13.175C0.122916 13.3938 0 13.6906 0 14V22.1667C0 22.4761 0.122916 22.7728 0.341709 22.9916C0.560501 23.2104 0.857247 23.3333 1.16667 23.3333H9.33333C9.64275 23.3333 9.9395 23.2104 10.1583 22.9916C10.3771 22.7728 10.5 22.4761 10.5 22.1667V14C10.5 13.6906 10.3771 13.3938 10.1583 13.175C9.9395 12.9562 9.64275 12.8333 9.33333 12.8333ZM8.16667 21H2.33333V15.1667H8.16667V21ZM22.1667 0H14C13.6906 0 13.3938 0.122916 13.175 0.341709C12.9562 0.560501 12.8333 0.857247 12.8333 1.16667V9.33333C12.8333 9.64275 12.9562 9.9395 13.175 10.1583C13.3938 10.3771 13.6906 10.5 14 10.5H22.1667C22.4761 10.5 22.7728 10.3771 22.9916 10.1583C23.2104 9.9395 23.3333 9.64275 23.3333 9.33333V1.16667C23.3333 0.857247 23.2104 0.560501 22.9916 0.341709C22.7728 0.122916 22.4761 0 22.1667 0ZM21 8.16667H15.1667V2.33333H21V8.16667ZM22.1667 12.8333H14C13.6906 12.8333 13.3938 12.9562 13.175 13.175C12.9562 13.3938 12.8333 13.6906 12.8333 14V22.1667C12.8333 22.4761 12.9562 22.7728 13.175 22.9916C13.3938 23.2104 13.6906 23.3333 14 23.3333H22.1667C22.4761 23.3333 22.7728 23.2104 22.9916 22.9916C23.2104 22.7728 23.3333 22.4761 23.3333 22.1667V14C23.3333 13.6906 23.2104 13.3938 22.9916 13.175C22.7728 12.9562 22.4761 12.8333 22.1667 12.8333ZM21 21H15.1667V15.1667H21V21ZM9.33333 0H1.16667C0.857247 0 0.560501 0.122916 0.341709 0.341709C0.122916 0.560501 0 0.857247 0 1.16667V9.33333C0 9.64275 0.122916 9.9395 0.341709 10.1583C0.560501 10.3771 0.857247 10.5 1.16667 10.5H9.33333C9.64275 10.5 9.9395 10.3771 10.1583 10.1583C10.3771 9.9395 10.5 9.64275 10.5 9.33333V1.16667C10.5 0.857247 10.3771 0.560501 10.1583 0.341709C9.9395 0.122916 9.64275 0 9.33333 0ZM8.16667 8.16667H2.33333V2.33333H8.16667V8.16667Z" fill="white"/>
</svg>
