<svg width="113" height="113" viewBox="0 0 113 113" fill="none" xmlns="http://www.w3.org/2000/svg">
<g filter="url(#filter0_dddd_106_22)">
<circle cx="56.1791" cy="56.1791" r="40" transform="rotate(-38.2727 56.1791 56.1791)" fill="#261D37"/>
</g>
<circle cx="56" cy="56" r="30" fill="url(#paint0_linear_106_22)"/>
<path d="M74.4071 62.8984C74.4079 62.8912 74.4079 62.8838 74.4071 62.8766L71.8462 49.725V49.6969C71.4509 47.5376 70.3113 45.5851 68.6256 44.1789C66.94 42.7727 64.8148 42.0017 62.6196 42H48.8524C46.6511 41.9992 44.52 42.7745 42.8338 44.1897C41.1477 45.6049 40.0146 47.5694 39.6337 49.7375L37.0853 62.8766C37.0845 62.8838 37.0845 62.8912 37.0853 62.8984C36.8778 64.0763 37.0512 65.2896 37.5802 66.3622C38.1093 67.4348 38.9664 68.3109 40.0272 68.8632C41.088 69.4156 42.2972 69.6154 43.4793 69.4338C44.6614 69.2522 45.7549 68.6985 46.6009 67.8531L46.6556 67.7953L52.8571 60.75H58.6384L64.8431 67.7953C64.8603 67.8156 64.879 67.8344 64.8978 67.8531C65.9522 68.9053 67.3801 69.4973 68.8696 69.5C69.6907 69.4995 70.5017 69.3192 71.2456 68.9719C71.9896 68.6245 72.6485 68.1185 73.1761 67.4894C73.7037 66.8602 74.0871 66.1232 74.2995 65.3301C74.5119 64.537 74.5481 63.707 74.4056 62.8984H74.4071ZM51.9946 53.25H50.7446V54.5C50.7446 54.8315 50.6129 55.1495 50.3785 55.3839C50.1441 55.6183 49.8262 55.75 49.4946 55.75C49.1631 55.75 48.8452 55.6183 48.6107 55.3839C48.3763 55.1495 48.2446 54.8315 48.2446 54.5V53.25H46.9946C46.6631 53.25 46.3452 53.1183 46.1107 52.8839C45.8763 52.6495 45.7446 52.3315 45.7446 52C45.7446 51.6685 45.8763 51.3505 46.1107 51.1161C46.3452 50.8817 46.6631 50.75 46.9946 50.75H48.2446V49.5C48.2446 49.1685 48.3763 48.8505 48.6107 48.6161C48.8452 48.3817 49.1631 48.25 49.4946 48.25C49.8262 48.25 50.1441 48.3817 50.3785 48.6161C50.6129 48.8505 50.7446 49.1685 50.7446 49.5V50.75H51.9946C52.3262 50.75 52.6441 50.8817 52.8785 51.1161C53.1129 51.3505 53.2446 51.6685 53.2446 52C53.2446 52.3315 53.1129 52.6495 52.8785 52.8839C52.6441 53.1183 52.3262 53.25 51.9946 53.25ZM58.2446 52C58.2446 51.6685 58.3763 51.3505 58.6107 51.1161C58.8452 50.8817 59.1631 50.75 59.4946 50.75H63.2446C63.5762 50.75 63.8941 50.8817 64.1285 51.1161C64.3629 51.3505 64.4946 51.6685 64.4946 52C64.4946 52.3315 64.3629 52.6495 64.1285 52.8839C63.8941 53.1183 63.5762 53.25 63.2446 53.25H59.4946C59.1631 53.25 58.8452 53.1183 58.6107 52.8839C58.3763 52.6495 58.2446 52.3315 58.2446 52ZM71.4274 65.6672C71.1933 66.0043 70.8946 66.2915 70.5486 66.5123C70.2026 66.733 69.8162 66.8829 69.4118 66.9531C68.9226 67.0387 68.4202 67.0069 67.9456 66.8605C67.4711 66.7141 67.0381 66.4572 66.6821 66.1109L61.9634 60.75H62.6196C64.2155 60.7502 65.785 60.343 67.1795 59.567C68.574 58.791 69.7474 57.6719 70.5884 56.3156L71.954 63.3469C72.0235 63.7492 72.0128 64.1614 71.9225 64.5596C71.8321 64.9578 71.6639 65.3342 71.4274 65.6672Z" fill="#D1CBD8"/>
<defs>
<filter id="filter0_dddd_106_22" x="10.1775" y="10.1774" width="92.0032" height="92.0033" filterUnits="userSpaceOnUse" color-interpolation-filters="sRGB">
<feFlood flood-opacity="0" result="BackgroundImageFix"/>
<feColorMatrix in="SourceAlpha" type="matrix" values="0 0 0 0 0 0 0 0 0 0 0 0 0 0 0 0 0 0 127 0" result="hardAlpha"/>
<feOffset dy="4"/>
<feGaussianBlur stdDeviation="1"/>
<feComposite in2="hardAlpha" operator="out"/>
<feColorMatrix type="matrix" values="0 0 0 0 0.270588 0 0 0 0 0.0901961 0 0 0 0 0.945098 0 0 0 0.2 0"/>
<feBlend mode="normal" in2="BackgroundImageFix" result="effect1_dropShadow_106_22"/>
<feColorMatrix in="SourceAlpha" type="matrix" values="0 0 0 0 0 0 0 0 0 0 0 0 0 0 0 0 0 0 127 0" result="hardAlpha"/>
<feOffset dx="4"/>
<feGaussianBlur stdDeviation="1"/>
<feComposite in2="hardAlpha" operator="out"/>
<feColorMatrix type="matrix" values="0 0 0 0 0.266667 0 0 0 0 0.0980392 0 0 0 0 0.945098 0 0 0 0.2 0"/>
<feBlend mode="normal" in2="effect1_dropShadow_106_22" result="effect2_dropShadow_106_22"/>
<feColorMatrix in="SourceAlpha" type="matrix" values="0 0 0 0 0 0 0 0 0 0 0 0 0 0 0 0 0 0 127 0" result="hardAlpha"/>
<feOffset dx="-4"/>
<feGaussianBlur stdDeviation="1"/>
<feComposite in2="hardAlpha" operator="out"/>
<feColorMatrix type="matrix" values="0 0 0 0 0.27451 0 0 0 0 0.0745098 0 0 0 0 0.937255 0 0 0 0.2 0"/>
<feBlend mode="normal" in2="effect2_dropShadow_106_22" result="effect3_dropShadow_106_22"/>
<feColorMatrix in="SourceAlpha" type="matrix" values="0 0 0 0 0 0 0 0 0 0 0 0 0 0 0 0 0 0 127 0" result="hardAlpha"/>
<feOffset dy="-4"/>
<feGaussianBlur stdDeviation="1"/>
<feComposite in2="hardAlpha" operator="out"/>
<feColorMatrix type="matrix" values="0 0 0 0 0.282353 0 0 0 0 0.0431373 0 0 0 0 0.92549 0 0 0 0.2 0"/>
<feBlend mode="normal" in2="effect3_dropShadow_106_22" result="effect4_dropShadow_106_22"/>
<feBlend mode="normal" in="SourceGraphic" in2="effect4_dropShadow_106_22" result="shape"/>
</filter>
<linearGradient id="paint0_linear_106_22" x1="56" y1="26" x2="56" y2="86" gradientUnits="userSpaceOnUse">
<stop stop-color="#4A00E8"/>
<stop offset="1" stop-color="#3B3EFF"/>
</linearGradient>
</defs>
</svg>
