<svg width="24" height="24" viewBox="0 0 24 24" fill="none" xmlns="http://www.w3.org/2000/svg">
<path d="M7.33342 10.833C7.10268 10.833 6.87711 10.9014 6.68526 11.0296C6.4934 11.1578 6.34387 11.34 6.25556 11.5532C6.16726 11.7664 6.14416 12.001 6.18917 12.2273C6.23419 12.4536 6.3453 12.6615 6.50846 12.8246C6.67163 12.9878 6.87951 13.0989 7.10582 13.1439C7.33213 13.1889 7.56671 13.1658 7.77989 13.0775C7.99307 12.9892 8.17528 12.8397 8.30347 12.6478C8.43167 12.456 8.50009 12.2304 8.50009 11.9997C8.50009 11.6903 8.37717 11.3935 8.15838 11.1747C7.93959 10.9559 7.64284 10.833 7.33342 10.833ZM12.0001 10.833C11.7693 10.833 11.5438 10.9014 11.3519 11.0296C11.1601 11.1578 11.0105 11.34 10.9222 11.5532C10.8339 11.7664 10.8108 12.001 10.8558 12.2273C10.9009 12.4536 11.012 12.6615 11.1751 12.8246C11.3383 12.9878 11.5462 13.0989 11.7725 13.1439C11.9988 13.1889 12.2334 13.1658 12.4466 13.0775C12.6597 12.9892 12.8419 12.8397 12.9701 12.6478C13.0983 12.456 13.1668 12.2304 13.1668 11.9997C13.1668 11.6903 13.0438 11.3935 12.825 11.1747C12.6063 10.9559 12.3095 10.833 12.0001 10.833ZM16.6668 10.833C16.436 10.833 16.2104 10.9014 16.0186 11.0296C15.8267 11.1578 15.6772 11.34 15.5889 11.5532C15.5006 11.7664 15.4775 12.001 15.5225 12.2273C15.5675 12.4536 15.6786 12.6615 15.8418 12.8246C16.005 12.9878 16.2128 13.0989 16.4392 13.1439C16.6655 13.1889 16.9 13.1658 17.1132 13.0775C17.3264 12.9892 17.5086 12.8397 17.6368 12.6478C17.765 12.456 17.8334 12.2304 17.8334 11.9997C17.8334 11.6903 17.7105 11.3935 17.4917 11.1747C17.2729 10.9559 16.9762 10.833 16.6668 10.833ZM12.0001 0.333008C10.468 0.333008 8.95091 0.634775 7.53545 1.22108C6.11998 1.80738 4.83386 2.66675 3.75051 3.7501C1.56258 5.93802 0.333421 8.90548 0.333421 11.9997C0.323222 14.6937 1.25601 17.3063 2.97009 19.3847L0.636755 21.718C0.474871 21.8821 0.365208 22.0904 0.321605 22.3167C0.278002 22.543 0.302412 22.7772 0.391755 22.9897C0.488655 23.1996 0.645743 23.376 0.843076 23.4965C1.04041 23.6169 1.26909 23.6761 1.50009 23.6663H12.0001C15.0943 23.6663 18.0617 22.4372 20.2497 20.2493C22.4376 18.0613 23.6668 15.0939 23.6668 11.9997C23.6668 8.90548 22.4376 5.93802 20.2497 3.7501C18.0617 1.56217 15.0943 0.333008 12.0001 0.333008ZM12.0001 21.333H4.31176L5.39676 20.248C5.50699 20.14 5.59469 20.0111 5.65477 19.8689C5.71485 19.7267 5.74611 19.574 5.74676 19.4197C5.74237 19.1119 5.61657 18.8184 5.39676 18.603C3.86911 17.0771 2.91779 15.0686 2.70489 12.9199C2.492 10.7712 3.03069 8.61518 4.22919 6.81912C5.42769 5.02305 7.21185 3.69809 9.27769 3.06998C11.3435 2.44186 13.5633 2.54945 15.5587 3.37441C17.5541 4.19937 19.2018 5.69066 20.2209 7.59421C21.2401 9.49777 21.5678 11.6958 21.1481 13.8138C20.7284 15.9319 19.5873 17.8389 17.9192 19.21C16.2512 20.581 14.1593 21.3313 12.0001 21.333Z" fill="#261D37"/>
</svg>
