<svg width="24" height="24" viewBox="0 0 24 24" fill="none" xmlns="http://www.w3.org/2000/svg">
<path d="M9.66732 13.1693H1.50065C1.19123 13.1693 0.894485 13.2922 0.675693 13.511C0.456901 13.7298 0.333984 14.0265 0.333984 14.3359V22.5026C0.333984 22.812 0.456901 23.1088 0.675693 23.3276C0.894485 23.5464 1.19123 23.6693 1.50065 23.6693H9.66732C9.97674 23.6693 10.2735 23.5464 10.4923 23.3276C10.7111 23.1088 10.834 22.812 10.834 22.5026V14.3359C10.834 14.0265 10.7111 13.7298 10.4923 13.511C10.2735 13.2922 9.97674 13.1693 9.66732 13.1693ZM8.50065 21.3359H2.66732V15.5026H8.50065V21.3359ZM22.5006 0.335938H14.334C14.0246 0.335938 13.7278 0.458854 13.509 0.677646C13.2902 0.896439 13.1673 1.19318 13.1673 1.5026V9.66927C13.1673 9.97869 13.2902 10.2754 13.509 10.4942C13.7278 10.713 14.0246 10.8359 14.334 10.8359H22.5006C22.8101 10.8359 23.1068 10.713 23.3256 10.4942C23.5444 10.2754 23.6673 9.97869 23.6673 9.66927V1.5026C23.6673 1.19318 23.5444 0.896439 23.3256 0.677646C23.1068 0.458854 22.8101 0.335938 22.5006 0.335938ZM21.334 8.5026H15.5006V2.66927H21.334V8.5026ZM22.5006 13.1693H14.334C14.0246 13.1693 13.7278 13.2922 13.509 13.511C13.2902 13.7298 13.1673 14.0265 13.1673 14.3359V22.5026C13.1673 22.812 13.2902 23.1088 13.509 23.3276C13.7278 23.5464 14.0246 23.6693 14.334 23.6693H22.5006C22.8101 23.6693 23.1068 23.5464 23.3256 23.3276C23.5444 23.1088 23.6673 22.812 23.6673 22.5026V14.3359C23.6673 14.0265 23.5444 13.7298 23.3256 13.511C23.1068 13.2922 22.8101 13.1693 22.5006 13.1693ZM21.334 21.3359H15.5006V15.5026H21.334V21.3359ZM9.66732 0.335938H1.50065C1.19123 0.335938 0.894485 0.458854 0.675693 0.677646C0.456901 0.896439 0.333984 1.19318 0.333984 1.5026V9.66927C0.333984 9.97869 0.456901 10.2754 0.675693 10.4942C0.894485 10.713 1.19123 10.8359 1.50065 10.8359H9.66732C9.97674 10.8359 10.2735 10.713 10.4923 10.4942C10.7111 10.2754 10.834 9.97869 10.834 9.66927V1.5026C10.834 1.19318 10.7111 0.896439 10.4923 0.677646C10.2735 0.458854 9.97674 0.335938 9.66732 0.335938ZM8.50065 8.5026H2.66732V2.66927H8.50065V8.5026Z" fill="#261D37"/>
</svg>
