<svg width="22" height="24" viewBox="0 0 22 24" fill="none" xmlns="http://www.w3.org/2000/svg">
<path d="M20.3334 7.33261L13.3334 1.19594C12.6917 0.621994 11.861 0.304688 11.0001 0.304688C10.1392 0.304688 9.30847 0.621994 8.66678 1.19594L1.66678 7.33261C1.29621 7.66403 1.00049 8.07059 0.799328 8.52523C0.598162 8.97986 0.496159 9.47214 0.500111 9.96928V20.1659C0.500111 21.0942 0.86886 21.9844 1.52524 22.6408C2.18161 23.2972 3.07185 23.6659 4.00011 23.6659H18.0001C18.9284 23.6659 19.8186 23.2972 20.475 22.6408C21.1314 21.9844 21.5001 21.0942 21.5001 20.1659V9.95761C21.5024 9.46243 21.3996 8.97241 21.1985 8.51991C20.9974 8.0674 20.7025 7.66273 20.3334 7.33261ZM13.3334 21.3326H8.66678V15.4993C8.66678 15.1899 8.78969 14.8931 9.00848 14.6743C9.22728 14.4555 9.52402 14.3326 9.83344 14.3326H12.1668C12.4762 14.3326 12.7729 14.4555 12.9917 14.6743C13.2105 14.8931 13.3334 15.1899 13.3334 15.4993V21.3326ZM19.1668 20.1659C19.1668 20.4754 19.0439 20.7721 18.8251 20.9909C18.6063 21.2097 18.3095 21.3326 18.0001 21.3326H15.6668V15.4993C15.6668 14.571 15.298 13.6808 14.6416 13.0244C13.9853 12.368 13.095 11.9993 12.1668 11.9993H9.83344C8.90518 11.9993 8.01495 12.368 7.35857 13.0244C6.70219 13.6808 6.33344 14.571 6.33344 15.4993V21.3326H4.00011C3.69069 21.3326 3.39394 21.2097 3.17515 20.9909C2.95636 20.7721 2.83344 20.4754 2.83344 20.1659V9.95761C2.83365 9.79196 2.86914 9.62826 2.93753 9.47739C3.00592 9.32652 3.10566 9.19194 3.23011 9.08261L10.2301 2.95761C10.443 2.77057 10.7167 2.66742 11.0001 2.66742C11.2835 2.66742 11.5572 2.77057 11.7701 2.95761L18.7701 9.08261C18.8946 9.19194 18.9943 9.32652 19.0627 9.47739C19.1311 9.62826 19.1666 9.79196 19.1668 9.95761V20.1659Z" fill="white"/>
</svg>
