<svg width="14" height="14" viewBox="0 0 14 14" fill="none" xmlns="http://www.w3.org/2000/svg">
<path d="M8.99967 5.0026H7.66634V3.66927C7.66634 3.49246 7.5961 3.32289 7.47108 3.19787C7.34605 3.07284 7.17649 3.0026 6.99967 3.0026C6.82286 3.0026 6.65329 3.07284 6.52827 3.19787C6.40325 3.32289 6.33301 3.49246 6.33301 3.66927V5.0026H4.99967C4.82286 5.0026 4.65329 5.07284 4.52827 5.19787C4.40325 5.32289 4.33301 5.49246 4.33301 5.66927C4.33301 5.84608 4.40325 6.01565 4.52827 6.14068C4.65329 6.2657 4.82286 6.33594 4.99967 6.33594H6.33301V7.66927C6.33301 7.84608 6.40325 8.01565 6.52827 8.14068C6.65329 8.2657 6.82286 8.33594 6.99967 8.33594C7.17649 8.33594 7.34605 8.2657 7.47108 8.14068C7.5961 8.01565 7.66634 7.84608 7.66634 7.66927V6.33594H8.99967C9.17649 6.33594 9.34605 6.2657 9.47108 6.14068C9.5961 6.01565 9.66634 5.84608 9.66634 5.66927C9.66634 5.49246 9.5961 5.32289 9.47108 5.19787C9.34605 5.07284 9.17649 5.0026 8.99967 5.0026ZM11.6663 0.335938H2.33301C1.80257 0.335938 1.29387 0.546651 0.918794 0.921724C0.543722 1.2968 0.333008 1.8055 0.333008 2.33594V9.0026C0.333008 9.53304 0.543722 10.0417 0.918794 10.4168C1.29387 10.7919 1.80257 11.0026 2.33301 11.0026H10.0597L12.5263 13.4759C12.5886 13.5377 12.6625 13.5866 12.7437 13.6198C12.825 13.653 12.9119 13.6698 12.9997 13.6693C13.0871 13.6715 13.1739 13.6533 13.253 13.6159C13.3748 13.5659 13.479 13.481 13.5525 13.3718C13.6261 13.2627 13.6657 13.1342 13.6663 13.0026V2.33594C13.6663 1.8055 13.4556 1.2968 13.0806 0.921724C12.7055 0.546651 12.1968 0.335938 11.6663 0.335938ZM12.333 11.3959L10.8063 9.86261C10.744 9.80082 10.6702 9.75193 10.5889 9.71876C10.5077 9.68558 10.4207 9.66876 10.333 9.66927H2.33301C2.1562 9.66927 1.98663 9.59903 1.8616 9.47401C1.73658 9.34898 1.66634 9.17942 1.66634 9.0026V2.33594C1.66634 2.15913 1.73658 1.98956 1.8616 1.86453C1.98663 1.73951 2.1562 1.66927 2.33301 1.66927H11.6663C11.8432 1.66927 12.0127 1.73951 12.1377 1.86453C12.2628 1.98956 12.333 2.15913 12.333 2.33594V11.3959Z" fill="#FFC107"/>
</svg>
