<svg width="32" height="32" viewBox="0 0 32 32" fill="none" xmlns="http://www.w3.org/2000/svg">
<path d="M11.2799 15.0537L18.8266 7.52037C18.9506 7.3954 19.098 7.29621 19.2605 7.22852C19.423 7.16083 19.5973 7.12598 19.7733 7.12598C19.9493 7.12598 20.1236 7.16083 20.286 7.22852C20.4485 7.29621 20.596 7.3954 20.7199 7.52037C20.9683 7.77019 21.1077 8.10813 21.1077 8.46037C21.1077 8.81262 20.9683 9.15056 20.7199 9.40037L14.1199 16.067L20.7199 22.667C20.9683 22.9169 21.1077 23.2548 21.1077 23.607C21.1077 23.9593 20.9683 24.2972 20.7199 24.547C20.5965 24.673 20.4492 24.7733 20.2867 24.8419C20.1242 24.9106 19.9497 24.9463 19.7733 24.947C19.5969 24.9463 19.4224 24.9106 19.2599 24.8419C19.0974 24.7733 18.9501 24.673 18.8266 24.547L11.2799 17.0137C11.1446 16.8889 11.0366 16.7373 10.9627 16.5686C10.8888 16.4 10.8507 16.2178 10.8507 16.0337C10.8507 15.8496 10.8888 15.6674 10.9627 15.4988C11.0366 15.3301 11.1446 15.1786 11.2799 15.0537Z" fill="#D1CBD8"/>
</svg>
