<svg width="12" height="18" viewBox="0 0 12 18" fill="none" xmlns="http://www.w3.org/2000/svg">
<path d="M1.27995 8.05371L8.82661 0.520374C8.95056 0.395403 9.09803 0.296211 9.26051 0.228519C9.42299 0.160828 9.59726 0.125977 9.77328 0.125977C9.94929 0.125977 10.1236 0.160828 10.286 0.228519C10.4485 0.296211 10.596 0.395403 10.7199 0.520374C10.9683 0.770191 11.1077 1.10813 11.1077 1.46037C11.1077 1.81262 10.9683 2.15056 10.7199 2.40037L4.11994 9.06704L10.7199 15.667C10.9683 15.9169 11.1077 16.2548 11.1077 16.607C11.1077 16.9593 10.9683 17.2972 10.7199 17.547C10.5965 17.673 10.4492 17.7733 10.2867 17.8419C10.1242 17.9106 9.94969 17.9463 9.77328 17.947C9.59687 17.9463 9.42236 17.9106 9.25986 17.8419C9.09736 17.7733 8.9501 17.673 8.82661 17.547L1.27995 10.0137C1.14461 9.88885 1.03659 9.73732 0.962718 9.56865C0.888842 9.39998 0.850701 9.21784 0.850701 9.03371C0.850701 8.84957 0.888842 8.66743 0.962718 8.49876C1.03659 8.3301 1.14461 8.17856 1.27995 8.05371Z" fill="#D1CBD8"/>
</svg>
