<svg width="21" height="24" viewBox="0 0 21 24" fill="none" xmlns="http://www.w3.org/2000/svg">
<path d="M10.5025 24C11.2334 24.0003 11.9392 23.7337 12.4875 23.2503C13.0357 22.767 13.3886 22.1001 13.48 21.375C13.5055 21.1695 13.3345 21 13.1275 21H7.8775C7.6705 21 7.4995 21.1695 7.525 21.375C7.61636 22.1001 7.9693 22.767 8.51755 23.2503C9.06579 23.7337 9.77162 24.0003 10.5025 24ZM3.0025 7.5C3.0025 5.51088 3.79268 3.60322 5.1992 2.1967C6.60573 0.790176 8.51338 0 10.5025 0C12.4916 0 14.3993 0.790176 15.8058 2.1967C17.2123 3.60322 18.0025 5.51088 18.0025 7.5V11.9205C18.0025 11.9955 18.025 12.0675 18.0655 12.129L20.62 15.9615C20.8477 16.3045 20.9781 16.7028 20.9976 17.114C21.017 17.5252 20.9246 17.934 20.7303 18.297C20.536 18.6599 20.247 18.9634 19.894 19.1752C19.541 19.3871 19.1372 19.4993 18.7255 19.5H2.27951C1.86697 19.501 1.46194 19.3898 1.10779 19.1782C0.753641 18.9666 0.463713 18.6627 0.269061 18.299C0.0744082 17.9353 -0.0176351 17.5254 0.00278924 17.1134C0.0232135 16.7014 0.155336 16.3027 0.385005 15.96L2.93951 12.129C2.98027 12.0671 3.00215 11.9946 3.0025 11.9205V7.5ZM10.5025 2.25C9.11012 2.25 7.77476 2.80312 6.79019 3.78769C5.80563 4.77226 5.2525 6.10761 5.2525 7.5V11.9205C5.2525 12.4395 5.0995 12.945 4.8115 13.3755L2.25701 17.2095C2.25397 17.2139 2.25239 17.2192 2.25251 17.2245L2.25401 17.2335C2.25401 17.2365 2.25701 17.2395 2.26001 17.2425L2.26901 17.2485L2.27951 17.25H18.7255L18.736 17.2485L18.745 17.2425L18.751 17.2335L18.7525 17.223C18.7526 17.2177 18.751 17.2124 18.748 17.208L16.1935 13.377C15.9058 12.9463 15.7523 12.44 15.7525 11.922V7.5C15.7525 6.10761 15.1994 4.77226 14.2148 3.78769C13.2302 2.80312 11.8949 2.25 10.5025 2.25Z" fill="#212B36"/>
</svg>
