<svg width="22" height="24" viewBox="0 0 22 24" fill="none" xmlns="http://www.w3.org/2000/svg">
<path d="M11.0001 24C11.7309 24.0003 12.4368 23.7337 12.985 23.2503C13.5333 22.767 13.8862 22.1001 13.9776 21.375C14.0031 21.1695 13.8321 21 13.6251 21H8.37506C8.16806 21 7.99706 21.1695 8.02256 21.375C8.11392 22.1001 8.46686 22.767 9.01511 23.2503C9.56335 23.7337 10.2692 24.0003 11.0001 24ZM3.50006 7.5C3.50006 5.51088 4.29024 3.60322 5.69676 2.1967C7.10329 0.790176 9.01094 0 11.0001 0C12.9892 0 14.8968 0.790176 16.3034 2.1967C17.7099 3.60322 18.5001 5.51088 18.5001 7.5V11.9205C18.5001 11.9955 18.5226 12.0675 18.5631 12.129L21.1176 15.9615C21.3452 16.3045 21.4757 16.7028 21.4951 17.114C21.5145 17.5252 21.4222 17.934 21.2279 18.297C21.0336 18.6599 20.7445 18.9634 20.3915 19.1752C20.0385 19.3871 19.6347 19.4993 19.2231 19.5H2.77706C2.36453 19.501 1.9595 19.3898 1.60535 19.1782C1.2512 18.9666 0.961271 18.6627 0.766619 18.299C0.571967 17.9353 0.479924 17.5254 0.500348 17.1134C0.520772 16.7014 0.652895 16.3027 0.882564 15.96L3.43706 12.129C3.47783 12.0671 3.49971 11.9946 3.50006 11.9205V7.5ZM11.0001 2.25C9.60768 2.25 8.27232 2.80312 7.28775 3.78769C6.30319 4.77226 5.75006 6.10761 5.75006 7.5V11.9205C5.75006 12.4395 5.59706 12.945 5.30906 13.3755L2.75456 17.2095C2.75153 17.2139 2.74995 17.2192 2.75006 17.2245L2.75156 17.2335C2.75156 17.2365 2.75456 17.2395 2.75756 17.2425L2.76656 17.2485L2.77706 17.25H19.2231L19.2336 17.2485L19.2426 17.2425L19.2486 17.2335L19.2501 17.223C19.2502 17.2177 19.2486 17.2124 19.2456 17.208L16.6911 13.377C16.4033 12.9463 16.2499 12.4399 16.2501 11.922V7.5C16.2501 6.10761 15.6969 4.77226 14.7124 3.78769C13.7278 2.80312 12.3924 2.25 11.0001 2.25Z" fill="#D1CBD8"/>
</svg>
