<svg width="19" height="17" viewBox="0 0 19 17" fill="none" xmlns="http://www.w3.org/2000/svg">
<path d="M16.1497 2.84996H14.9337L14.6297 1.89998C14.4326 1.34256 14.0671 0.860231 13.5837 0.519813C13.1003 0.179395 12.523 -0.00225801 11.9318 2.1188e-05H7.06785C6.47084 0.00113809 5.88925 0.189716 5.40517 0.53914C4.92109 0.888564 4.55896 1.38119 4.36991 1.94748L4.06592 2.89746H2.84994C2.09409 2.89746 1.3692 3.19772 0.834728 3.73219C0.300261 4.26666 0 4.99155 0 5.7474V13.3472C0 14.1031 0.300261 14.828 0.834728 15.3625C1.3692 15.8969 2.09409 16.1972 2.84994 16.1972H16.1497C16.9055 16.1972 17.6304 15.8969 18.1649 15.3625C18.6993 14.828 18.9996 14.1031 18.9996 13.3472V5.7474C19.0059 5.36916 18.9369 4.99346 18.7965 4.64218C18.6561 4.29091 18.4471 3.97111 18.1819 3.70141C17.9166 3.43172 17.6003 3.21754 17.2514 3.07135C16.9025 2.92517 16.528 2.84991 16.1497 2.84996ZM17.0996 13.2997C17.0996 13.5517 16.9996 13.7933 16.8214 13.9715C16.6432 14.1496 16.4016 14.2497 16.1497 14.2497H2.84994C2.59799 14.2497 2.35636 14.1496 2.1782 13.9715C2.00005 13.7933 1.89996 13.5517 1.89996 13.2997V5.6999C1.89996 5.44795 2.00005 5.20632 2.1782 5.02816C2.35636 4.85001 2.59799 4.74992 2.84994 4.74992H4.7499C4.95706 4.76073 5.16206 4.70344 5.3336 4.5868C5.50514 4.47015 5.63378 4.30056 5.69988 4.10394L6.21287 2.54597C6.2766 2.35728 6.39802 2.1934 6.55997 2.07748C6.72191 1.96156 6.91619 1.89947 7.11535 1.89998H11.9793C12.1784 1.89947 12.3727 1.96156 12.5346 2.07748C12.6966 2.1934 12.818 2.35728 12.8817 2.54597L13.3947 4.10394C13.4557 4.28514 13.5699 4.44373 13.7224 4.55899C13.875 4.67424 14.0587 4.74078 14.2497 4.74992H16.1497C16.4016 4.74992 16.6432 4.85001 16.8214 5.02816C16.9996 5.20632 17.0996 5.44795 17.0996 5.6999V13.2997ZM9.4998 4.74992C8.74825 4.74992 8.01357 4.97278 7.38868 5.39032C6.76379 5.80786 6.27674 6.40133 5.98913 7.09568C5.70153 7.79002 5.62627 8.55406 5.7729 9.29117C5.91952 10.0283 6.28142 10.7054 6.81285 11.2368C7.34428 11.7682 8.02136 12.1301 8.75847 12.2767C9.49559 12.4234 10.2596 12.3481 10.954 12.0605C11.6483 11.7729 12.2418 11.2859 12.6593 10.661C13.0769 10.0361 13.2997 9.30139 13.2997 8.54984C13.2997 7.54204 12.8994 6.57552 12.1868 5.86289C11.4741 5.15027 10.5076 4.74992 9.4998 4.74992V4.74992ZM9.4998 10.4498C9.12403 10.4498 8.75669 10.3384 8.44424 10.1296C8.13179 9.92083 7.88827 9.6241 7.74447 9.27692C7.60066 8.92975 7.56304 8.54773 7.63635 8.17918C7.70966 7.81062 7.89061 7.47208 8.15633 7.20637C8.42204 6.94065 8.76058 6.7597 9.12914 6.68639C9.49769 6.61308 9.87971 6.6507 10.2269 6.79451C10.5741 6.93831 10.8708 7.18183 11.0796 7.49428C11.2883 7.80673 11.3998 8.17406 11.3998 8.54984C11.3998 9.05374 11.1996 9.537 10.8433 9.89332C10.487 10.2496 10.0037 10.4498 9.4998 10.4498Z" fill="#212B36"/>
</svg>
