<svg width="100" height="99" viewBox="0 0 100 99" fill="none" xmlns="http://www.w3.org/2000/svg">
<rect width="100" height="99" rx="49.5" fill="#EAEAEB"/>
<path d="M72.5 45.5H70V43C70 42.337 69.7366 41.7011 69.2678 41.2322C68.7989 40.7634 68.163 40.5 67.5 40.5C66.837 40.5 66.2011 40.7634 65.7322 41.2322C65.2634 41.7011 65 42.337 65 43V45.5H62.5C61.837 45.5 61.2011 45.7634 60.7322 46.2322C60.2634 46.7011 60 47.337 60 48C60 48.663 60.2634 49.2989 60.7322 49.7678C61.2011 50.2366 61.837 50.5 62.5 50.5H65V53C65 53.663 65.2634 54.2989 65.7322 54.7678C66.2011 55.2366 66.837 55.5 67.5 55.5C68.163 55.5 68.7989 55.2366 69.2678 54.7678C69.7366 54.2989 70 53.663 70 53V50.5H72.5C73.163 50.5 73.7989 50.2366 74.2678 49.7678C74.7366 49.2989 75 48.663 75 48C75 47.337 74.7366 46.7011 74.2678 46.2322C73.7989 45.7634 73.163 45.5 72.5 45.5ZM53.25 49.8C54.5839 48.6453 55.6539 47.2172 56.3872 45.6126C57.1205 44.0079 57.5 42.2643 57.5 40.5C57.5 37.1848 56.183 34.0054 53.8388 31.6612C51.4946 29.317 48.3152 28 45 28C41.6848 28 38.5054 29.317 36.1612 31.6612C33.817 34.0054 32.5 37.1848 32.5 40.5C32.5 42.2643 32.8795 44.0079 33.6128 45.6126C34.3461 47.2172 35.4161 48.6453 36.75 49.8C33.2503 51.3847 30.2812 53.9438 28.1975 57.1714C26.1137 60.3989 25.0037 64.1583 25 68C25 68.6631 25.2634 69.2989 25.7322 69.7678C26.2011 70.2366 26.837 70.5 27.5 70.5C28.163 70.5 28.7989 70.2366 29.2678 69.7678C29.7366 69.2989 30 68.6631 30 68C30 64.0218 31.5804 60.2065 34.3934 57.3934C37.2064 54.5804 41.0218 53 45 53C48.9782 53 52.7936 54.5804 55.6066 57.3934C58.4196 60.2065 60 64.0218 60 68C60 68.6631 60.2634 69.2989 60.7322 69.7678C61.2011 70.2366 61.837 70.5 62.5 70.5C63.163 70.5 63.7989 70.2366 64.2678 69.7678C64.7366 69.2989 65 68.6631 65 68C64.9963 64.1583 63.8863 60.3989 61.8025 57.1714C59.7188 53.9438 56.7497 51.3847 53.25 49.8V49.8ZM45 48C43.5166 48 42.0666 47.5601 40.8332 46.736C39.5999 45.9119 38.6386 44.7406 38.0709 43.3701C37.5032 41.9997 37.3547 40.4917 37.6441 39.0368C37.9335 37.582 38.6478 36.2456 39.6967 35.1967C40.7456 34.1478 42.082 33.4335 43.5368 33.1441C44.9917 32.8547 46.4997 33.0032 47.8701 33.5709C49.2406 34.1386 50.4119 35.0999 51.236 36.3332C52.0601 37.5666 52.5 39.0166 52.5 40.5C52.5 42.4891 51.7098 44.3968 50.3033 45.8033C48.8968 47.2098 46.9891 48 45 48Z" fill="url(#paint0_linear_141_20)"/>
<defs>
<linearGradient id="paint0_linear_141_20" x1="50" y1="28" x2="50" y2="70.5" gradientUnits="userSpaceOnUse">
<stop stop-color="#4A00E8"/>
<stop offset="1" stop-color="#3B3EFF"/>
</linearGradient>
</defs>
</svg>
