<svg width="100" height="99" viewBox="0 0 100 99" fill="none" xmlns="http://www.w3.org/2000/svg">
<rect width="100" height="99" rx="49.5" fill="#0B0711"/>
<path d="M72.5 46.25H70V43.75C70 43.087 69.7366 42.4511 69.2678 41.9822C68.7989 41.5134 68.163 41.25 67.5 41.25C66.837 41.25 66.2011 41.5134 65.7322 41.9822C65.2634 42.4511 65 43.087 65 43.75V46.25H62.5C61.837 46.25 61.2011 46.5134 60.7322 46.9822C60.2634 47.4511 60 48.087 60 48.75C60 49.413 60.2634 50.0489 60.7322 50.5178C61.2011 50.9866 61.837 51.25 62.5 51.25H65V53.75C65 54.413 65.2634 55.0489 65.7322 55.5178C66.2011 55.9866 66.837 56.25 67.5 56.25C68.163 56.25 68.7989 55.9866 69.2678 55.5178C69.7366 55.0489 70 54.413 70 53.75V51.25H72.5C73.163 51.25 73.7989 50.9866 74.2678 50.5178C74.7366 50.0489 75 49.413 75 48.75C75 48.087 74.7366 47.4511 74.2678 46.9822C73.7989 46.5134 73.163 46.25 72.5 46.25ZM53.25 50.55C54.5839 49.3953 55.6539 47.9672 56.3872 46.3626C57.1205 44.7579 57.5 43.0143 57.5 41.25C57.5 37.9348 56.183 34.7554 53.8388 32.4112C51.4946 30.067 48.3152 28.75 45 28.75C41.6848 28.75 38.5054 30.067 36.1612 32.4112C33.817 34.7554 32.5 37.9348 32.5 41.25C32.5 43.0143 32.8795 44.7579 33.6128 46.3626C34.3461 47.9672 35.4161 49.3953 36.75 50.55C33.2503 52.1347 30.2812 54.6938 28.1975 57.9214C26.1137 61.1489 25.0037 64.9083 25 68.75C25 69.4131 25.2634 70.0489 25.7322 70.5178C26.2011 70.9866 26.837 71.25 27.5 71.25C28.163 71.25 28.7989 70.9866 29.2678 70.5178C29.7366 70.0489 30 69.4131 30 68.75C30 64.7718 31.5804 60.9565 34.3934 58.1434C37.2064 55.3304 41.0218 53.75 45 53.75C48.9782 53.75 52.7936 55.3304 55.6066 58.1434C58.4196 60.9565 60 64.7718 60 68.75C60 69.4131 60.2634 70.0489 60.7322 70.5178C61.2011 70.9866 61.837 71.25 62.5 71.25C63.163 71.25 63.7989 70.9866 64.2678 70.5178C64.7366 70.0489 65 69.4131 65 68.75C64.9963 64.9083 63.8863 61.1489 61.8026 57.9214C59.7188 54.6938 56.7497 52.1347 53.25 50.55ZM45 48.75C43.5166 48.75 42.0666 48.3101 40.8332 47.486C39.5999 46.6619 38.6386 45.4906 38.0709 44.1201C37.5032 42.7497 37.3547 41.2417 37.6441 39.7868C37.9335 38.332 38.6478 36.9956 39.6967 35.9467C40.7456 34.8978 42.082 34.1835 43.5368 33.8941C44.9917 33.6047 46.4997 33.7532 47.8701 34.3209C49.2406 34.8886 50.4119 35.8499 51.236 37.0832C52.0601 38.3166 52.5 39.7666 52.5 41.25C52.5 43.2391 51.7098 45.1468 50.3033 46.5533C48.8968 47.9598 46.9891 48.75 45 48.75Z" fill="url(#paint0_linear_179_3572)"/>
<defs>
<linearGradient id="paint0_linear_179_3572" x1="50" y1="28.75" x2="50" y2="71.25" gradientUnits="userSpaceOnUse">
<stop stop-color="#4A00E8"/>
<stop offset="1" stop-color="#3B3EFF"/>
</linearGradient>
</defs>
</svg>
