<svg width="28" height="28" viewBox="0 0 28 28" fill="none" xmlns="http://www.w3.org/2000/svg">
<path d="M9.3333 12.833C9.10256 12.833 8.87699 12.9014 8.68513 13.0296C8.49328 13.1578 8.34374 13.34 8.25544 13.5532C8.16714 13.7664 8.14403 14.001 8.18905 14.2273C8.23407 14.4536 8.34518 14.6615 8.50834 14.8246C8.6715 14.9878 8.87938 15.0989 9.10569 15.1439C9.33201 15.1889 9.56658 15.1658 9.77976 15.0775C9.99295 14.9892 10.1752 14.8397 10.3033 14.6478C10.4315 14.456 10.5 14.2304 10.5 13.9997C10.5 13.6903 10.3771 13.3935 10.1583 13.1747C9.93947 12.9559 9.64272 12.833 9.3333 12.833ZM14 12.833C13.7692 12.833 13.5437 12.9014 13.3518 13.0296C13.1599 13.1578 13.0104 13.34 12.9221 13.5532C12.8338 13.7664 12.8107 14.001 12.8557 14.2273C12.9007 14.4536 13.0118 14.6615 13.175 14.8246C13.3382 14.9878 13.5461 15.0989 13.7724 15.1439C13.9987 15.1889 14.2333 15.1658 14.4464 15.0775C14.6596 14.9892 14.8418 14.8397 14.97 14.6478C15.0982 14.456 15.1666 14.2304 15.1666 13.9997C15.1666 13.6903 15.0437 13.3935 14.8249 13.1747C14.6061 12.9559 14.3094 12.833 14 12.833ZM18.6666 12.833C18.4359 12.833 18.2103 12.9014 18.0185 13.0296C17.8266 13.1578 17.6771 13.34 17.5888 13.5532C17.5005 13.7664 17.4774 14.001 17.5224 14.2273C17.5674 14.4536 17.6785 14.6615 17.8417 14.8246C18.0048 14.9878 18.2127 15.0989 18.439 15.1439C18.6653 15.1889 18.8999 15.1658 19.1131 15.0775C19.3263 14.9892 19.5085 14.8397 19.6367 14.6478C19.7649 14.456 19.8333 14.2304 19.8333 13.9997C19.8333 13.6903 19.7104 13.3935 19.4916 13.1747C19.2728 12.9559 18.9761 12.833 18.6666 12.833ZM14 2.33301C12.4679 2.33301 10.9508 2.63478 9.53533 3.22108C8.11986 3.80738 6.83374 4.66675 5.75039 5.7501C3.56246 7.93802 2.3333 10.9055 2.3333 13.9997C2.3231 16.6937 3.25589 19.3063 4.96997 21.3847L2.63663 23.718C2.47475 23.8821 2.36509 24.0904 2.32148 24.3167C2.27788 24.543 2.30229 24.7772 2.39163 24.9897C2.48853 25.1996 2.64562 25.376 2.84295 25.4965C3.04029 25.6169 3.26897 25.6761 3.49997 25.6663H14C17.0942 25.6663 20.0616 24.4372 22.2495 22.2493C24.4375 20.0613 25.6666 17.0939 25.6666 13.9997C25.6666 10.9055 24.4375 7.93802 22.2495 5.7501C20.0616 3.56217 17.0942 2.33301 14 2.33301ZM14 23.333H6.31163L7.39663 22.248C7.50687 22.14 7.59457 22.0111 7.65465 21.8689C7.71473 21.7267 7.74599 21.574 7.74663 21.4197C7.74225 21.1119 7.61645 20.8184 7.39663 20.603C5.86898 19.0771 4.91767 17.0686 4.70477 14.9199C4.49188 12.7712 5.03057 10.6152 6.22906 8.81912C7.42756 7.02305 9.21172 5.69809 11.2776 5.06998C13.3434 4.44186 15.5631 4.54945 17.5586 5.37441C19.554 6.19937 21.2016 7.69066 22.2208 9.59421C23.24 11.4978 23.5677 13.6958 23.148 15.8138C22.7283 17.9319 21.5872 19.8389 19.9191 21.21C18.251 22.581 16.1592 23.3313 14 23.333Z" fill="#D1CBD8"/>
</svg>
