<svg width="24" height="24" viewBox="0 0 24 24" fill="none" xmlns="http://www.w3.org/2000/svg">
<path d="M7.33367 10.833C7.10292 10.833 6.87736 10.9014 6.6855 11.0296C6.49364 11.1578 6.34411 11.34 6.25581 11.5532C6.1675 11.7664 6.1444 12.001 6.18942 12.2273C6.23443 12.4536 6.34555 12.6615 6.50871 12.8246C6.67187 12.9878 6.87975 13.0989 7.10606 13.1439C7.33237 13.1889 7.56695 13.1658 7.78013 13.0775C7.99331 12.9892 8.17552 12.8397 8.30371 12.6478C8.43191 12.456 8.50033 12.2304 8.50033 11.9997C8.50033 11.6903 8.37742 11.3935 8.15862 11.1747C7.93983 10.9559 7.64309 10.833 7.33367 10.833ZM12.0003 10.833C11.7696 10.833 11.544 10.9014 11.3522 11.0296C11.1603 11.1578 11.0108 11.34 10.9225 11.5532C10.8342 11.7664 10.8111 12.001 10.8561 12.2273C10.9011 12.4536 11.0122 12.6615 11.1754 12.8246C11.3385 12.9878 11.5464 13.0989 11.7727 13.1439C11.999 13.1889 12.2336 13.1658 12.4468 13.0775C12.66 12.9892 12.8422 12.8397 12.9704 12.6478C13.0986 12.456 13.167 12.2304 13.167 11.9997C13.167 11.6903 13.0441 11.3935 12.8253 11.1747C12.6065 10.9559 12.3098 10.833 12.0003 10.833ZM16.667 10.833C16.4363 10.833 16.2107 10.9014 16.0188 11.0296C15.827 11.1578 15.6774 11.34 15.5891 11.5532C15.5008 11.7664 15.4777 12.001 15.5228 12.2273C15.5678 12.4536 15.6789 12.6615 15.842 12.8246C16.0052 12.9878 16.2131 13.0989 16.4394 13.1439C16.6657 13.1889 16.9003 13.1658 17.1135 13.0775C17.3266 12.9892 17.5089 12.8397 17.6371 12.6478C17.7652 12.456 17.8337 12.2304 17.8337 11.9997C17.8337 11.6903 17.7108 11.3935 17.492 11.1747C17.2732 10.9559 16.9764 10.833 16.667 10.833ZM12.0003 0.333008C10.4682 0.333008 8.95116 0.634775 7.53569 1.22108C6.12023 1.80738 4.8341 2.66675 3.75075 3.7501C1.56283 5.93802 0.333665 8.90548 0.333665 11.9997C0.323466 14.6937 1.25626 17.3063 2.97033 19.3847L0.636999 21.718C0.475115 21.8821 0.365452 22.0904 0.321849 22.3167C0.278246 22.543 0.302656 22.7772 0.391999 22.9897C0.488899 23.1996 0.645987 23.376 0.84332 23.4965C1.04065 23.6169 1.26933 23.6761 1.50033 23.6663H12.0003C15.0945 23.6663 18.062 22.4372 20.2499 20.2493C22.4378 18.0613 23.667 15.0939 23.667 11.9997C23.667 8.90548 22.4378 5.93802 20.2499 3.7501C18.062 1.56217 15.0945 0.333008 12.0003 0.333008ZM12.0003 21.333H4.312L5.397 20.248C5.50724 20.14 5.59493 20.0111 5.65501 19.8689C5.71509 19.7267 5.74636 19.574 5.747 19.4197C5.74262 19.1119 5.61682 18.8184 5.397 18.603C3.86935 17.0771 2.91804 15.0686 2.70514 12.9199C2.49224 10.7712 3.03093 8.61518 4.22943 6.81912C5.42793 5.02305 7.21209 3.69809 9.27794 3.06998C11.3438 2.44186 13.5635 2.54945 15.5589 3.37441C17.5543 4.19937 19.202 5.69066 20.2212 7.59421C21.2404 9.49777 21.568 11.6958 21.1483 13.8138C20.7286 15.9319 19.5875 17.8389 17.9195 19.21C16.2514 20.581 14.1596 21.3313 12.0003 21.333Z" fill="#D1CBD8"/>
</svg>
