<svg width="28" height="24" viewBox="0 0 28 24" fill="none" xmlns="http://www.w3.org/2000/svg">
<path d="M24.6665 13.5733V10.6667C24.6665 7.83769 23.5427 5.12458 21.5423 3.12419C19.5419 1.12381 16.8288 0 13.9998 0C11.1709 0 8.45775 1.12381 6.45736 3.12419C4.45698 5.12458 3.33317 7.83769 3.33317 10.6667V13.5733C2.5551 13.8484 1.88117 14.3574 1.40376 15.0306C0.926342 15.7037 0.668823 16.5081 0.666504 17.3333V20C0.666504 21.0609 1.08793 22.0783 1.83808 22.8284C2.58822 23.5786 3.60564 24 4.6665 24H8.6665C9.02013 24 9.35926 23.8595 9.60931 23.6095C9.85936 23.3594 9.99984 23.0203 9.99984 22.6667V14.6667C9.99984 14.313 9.85936 13.9739 9.60931 13.7239C9.35926 13.4738 9.02013 13.3333 8.6665 13.3333H5.99984V10.6667C5.99984 8.54494 6.84269 6.5101 8.34298 5.00981C9.84327 3.50952 11.8781 2.66667 13.9998 2.66667C16.1216 2.66667 18.1564 3.50952 19.6567 5.00981C21.157 6.5101 21.9998 8.54494 21.9998 10.6667V13.3333H19.3332C18.9795 13.3333 18.6404 13.4738 18.3904 13.7239C18.1403 13.9739 17.9998 14.313 17.9998 14.6667V22.6667C17.9998 23.0203 18.1403 23.3594 18.3904 23.6095C18.6404 23.8595 18.9795 24 19.3332 24H23.3332C24.394 24 25.4115 23.5786 26.1616 22.8284C26.9117 22.0783 27.3332 21.0609 27.3332 20V17.3333C27.3308 16.5081 27.0733 15.7037 26.5959 15.0306C26.1185 14.3574 25.4446 13.8484 24.6665 13.5733ZM7.33317 16V21.3333H4.6665C4.31288 21.3333 3.97374 21.1929 3.7237 20.9428C3.47365 20.6928 3.33317 20.3536 3.33317 20V17.3333C3.33317 16.9797 3.47365 16.6406 3.7237 16.3905C3.97374 16.1405 4.31288 16 4.6665 16H7.33317ZM24.6665 20C24.6665 20.3536 24.526 20.6928 24.276 20.9428C24.0259 21.1929 23.6868 21.3333 23.3332 21.3333H20.6665V16H23.3332C23.6868 16 24.0259 16.1405 24.276 16.3905C24.526 16.6406 24.6665 16.9797 24.6665 17.3333V20Z" fill="#D1CBD8"/>
</svg>
