<svg width="24" height="22" viewBox="0 0 24 22" fill="none" xmlns="http://www.w3.org/2000/svg">
<path d="M21.332 12.3767V9.83333C21.332 7.35798 20.3487 4.98401 18.5984 3.23367C16.848 1.48333 14.474 0.5 11.9987 0.5C9.52334 0.5 7.14937 1.48333 5.39903 3.23367C3.64869 4.98401 2.66536 7.35798 2.66536 9.83333V12.3767C1.98456 12.6174 1.39486 13.0627 0.977126 13.6518C0.55939 14.2408 0.334061 14.9446 0.332031 15.6667V18C0.332031 18.9283 0.70078 19.8185 1.35716 20.4749C2.01353 21.1313 2.90377 21.5 3.83203 21.5H7.33203C7.64145 21.5 7.93819 21.3771 8.15699 21.1583C8.37578 20.9395 8.4987 20.6428 8.4987 20.3333V13.3333C8.4987 13.0239 8.37578 12.7272 8.15699 12.5084C7.93819 12.2896 7.64145 12.1667 7.33203 12.1667H4.9987V9.83333C4.9987 7.97682 5.73619 6.19634 7.04895 4.88359C8.3617 3.57083 10.1422 2.83333 11.9987 2.83333C13.8552 2.83333 15.6357 3.57083 16.9484 4.88359C18.2612 6.19634 18.9987 7.97682 18.9987 9.83333V12.1667H16.6654C16.3559 12.1667 16.0592 12.2896 15.8404 12.5084C15.6216 12.7272 15.4987 13.0239 15.4987 13.3333V20.3333C15.4987 20.6428 15.6216 20.9395 15.8404 21.1583C16.0592 21.3771 16.3559 21.5 16.6654 21.5H20.1654C21.0936 21.5 21.9839 21.1313 22.6402 20.4749C23.2966 19.8185 23.6654 18.9283 23.6654 18V15.6667C23.6633 14.9446 23.438 14.2408 23.0203 13.6518C22.6025 13.0627 22.0128 12.6174 21.332 12.3767ZM6.16536 14.5V19.1667H3.83203C3.52261 19.1667 3.22587 19.0438 3.00707 18.825C2.78828 18.6062 2.66536 18.3094 2.66536 18V15.6667C2.66536 15.3572 2.78828 15.0605 3.00707 14.8417C3.22587 14.6229 3.52261 14.5 3.83203 14.5H6.16536ZM21.332 18C21.332 18.3094 21.2091 18.6062 20.9903 18.825C20.7715 19.0438 20.4748 19.1667 20.1654 19.1667H17.832V14.5H20.1654C20.4748 14.5 20.7715 14.6229 20.9903 14.8417C21.2091 15.0605 21.332 15.3572 21.332 15.6667V18Z" fill="#D1CBD8"/>
</svg>
