<svg width="24" height="24" viewBox="0 0 24 24" fill="none" xmlns="http://www.w3.org/2000/svg">
<path d="M22.5003 2.66634H19.0003V1.49967C19.0003 1.19026 18.8774 0.893509 18.6586 0.674716C18.4398 0.455924 18.143 0.333008 17.8336 0.333008H6.16695C5.85753 0.333008 5.56079 0.455924 5.34199 0.674716C5.1232 0.893509 5.00028 1.19026 5.00028 1.49967V2.66634H1.50028C1.19087 2.66634 0.894119 2.78926 0.675327 3.00805C0.456534 3.22684 0.333618 3.52359 0.333618 3.83301V7.33301C0.333618 8.57068 0.825283 9.75767 1.70045 10.6328C2.57562 11.508 3.76261 11.9997 5.00028 11.9997H6.79695C7.85224 13.177 9.27502 13.9624 10.8336 14.228V16.6663H9.66695C8.73869 16.6663 7.84845 17.0351 7.19208 17.6915C6.5357 18.3478 6.16695 19.2381 6.16695 20.1663V22.4997C6.16695 22.8091 6.28987 23.1058 6.50866 23.3246C6.72745 23.5434 7.0242 23.6663 7.33362 23.6663H16.667C16.9764 23.6663 17.2731 23.5434 17.4919 23.3246C17.7107 23.1058 17.8336 22.8091 17.8336 22.4997V20.1663C17.8336 19.2381 17.4649 18.3478 16.8085 17.6915C16.1521 17.0351 15.2619 16.6663 14.3336 16.6663H13.167V14.228C14.7255 13.9624 16.1483 13.177 17.2036 11.9997H19.0003C20.238 11.9997 21.4249 11.508 22.3001 10.6328C23.1753 9.75767 23.6669 8.57068 23.6669 7.33301V3.83301C23.6669 3.52359 23.544 3.22684 23.3252 3.00805C23.1064 2.78926 22.8097 2.66634 22.5003 2.66634ZM5.00028 9.66634C4.38145 9.66634 3.78795 9.42051 3.35037 8.98292C2.91278 8.54534 2.66695 7.95185 2.66695 7.33301V4.99967H5.00028V7.33301C5.00285 8.12833 5.14094 8.91741 5.40862 9.66634H5.00028ZM14.3336 18.9997C14.643 18.9997 14.9398 19.1226 15.1586 19.3414C15.3774 19.5602 15.5003 19.8569 15.5003 20.1663V21.333H8.50028V20.1663C8.50028 19.8569 8.6232 19.5602 8.84199 19.3414C9.06079 19.1226 9.35753 18.9997 9.66695 18.9997H14.3336ZM16.667 7.33301C16.6669 8.57068 16.1753 9.75767 15.3001 10.6328C14.4249 11.508 13.238 11.9997 12.0003 11.9997C10.7626 11.9997 9.57562 11.508 8.70045 10.6328C7.82528 9.75767 7.33362 8.57068 7.33362 7.33301V2.66634H16.667V7.33301ZM21.3336 7.33301C21.3336 7.95185 21.0878 8.54534 20.6502 8.98292C20.2126 9.42051 19.6191 9.66634 19.0003 9.66634H18.5919C18.8596 8.91741 18.9977 8.12833 19.0003 7.33301V4.99967H21.3336V7.33301Z" fill="#D1CBD8"/>
</svg>
