<svg width="24" height="24" viewBox="0 0 24 24" fill="none" xmlns="http://www.w3.org/2000/svg">
<path d="M22.1667 2.33333H18.6667V1.16667C18.6667 0.857247 18.5437 0.560501 18.325 0.341709C18.1062 0.122916 17.8094 0 17.5 0H5.83333C5.52391 0 5.22717 0.122916 5.00838 0.341709C4.78958 0.560501 4.66667 0.857247 4.66667 1.16667V2.33333H1.16667C0.857247 2.33333 0.560501 2.45625 0.341709 2.67504C0.122916 2.89383 0 3.19058 0 3.5V7C0 8.23768 0.491665 9.42466 1.36683 10.2998C2.242 11.175 3.42899 11.6667 4.66667 11.6667H6.46333C7.51862 12.844 8.9414 13.6294 10.5 13.895V16.3333H9.33333C8.40507 16.3333 7.51484 16.7021 6.85846 17.3585C6.20208 18.0148 5.83333 18.9051 5.83333 19.8333V22.1667C5.83333 22.4761 5.95625 22.7728 6.17504 22.9916C6.39383 23.2104 6.69058 23.3333 7 23.3333H16.3333C16.6428 23.3333 16.9395 23.2104 17.1583 22.9916C17.3771 22.7728 17.5 22.4761 17.5 22.1667V19.8333C17.5 18.9051 17.1312 18.0148 16.4749 17.3585C15.8185 16.7021 14.9283 16.3333 14 16.3333H12.8333V13.895C14.3919 13.6294 15.8147 12.844 16.87 11.6667H18.6667C19.9043 11.6667 21.0913 11.175 21.9665 10.2998C22.8417 9.42466 23.3333 8.23768 23.3333 7V3.5C23.3333 3.19058 23.2104 2.89383 22.9916 2.67504C22.7728 2.45625 22.4761 2.33333 22.1667 2.33333ZM4.66667 9.33333C4.04783 9.33333 3.45434 9.0875 3.01675 8.64991C2.57917 8.21233 2.33333 7.61884 2.33333 7V4.66667H4.66667V7C4.66923 7.79533 4.80732 8.5844 5.075 9.33333H4.66667ZM14 18.6667C14.3094 18.6667 14.6062 18.7896 14.825 19.0084C15.0437 19.2272 15.1667 19.5239 15.1667 19.8333V21H8.16667V19.8333C8.16667 19.5239 8.28958 19.2272 8.50837 19.0084C8.72717 18.7896 9.02391 18.6667 9.33333 18.6667H14ZM16.3333 7C16.3333 8.23768 15.8417 9.42466 14.9665 10.2998C14.0913 11.175 12.9043 11.6667 11.6667 11.6667C10.429 11.6667 9.242 11.175 8.36683 10.2998C7.49166 9.42466 7 8.23768 7 7V2.33333H16.3333V7ZM21 7C21 7.61884 20.7542 8.21233 20.3166 8.64991C19.879 9.0875 19.2855 9.33333 18.6667 9.33333H18.2583C18.526 8.5844 18.6641 7.79533 18.6667 7V4.66667H21V7Z" fill="#261D37"/>
</svg>
