<svg width="24" height="24" viewBox="0 0 24 24" fill="none" xmlns="http://www.w3.org/2000/svg">
<path d="M23.0321 14.5139C22.9283 14.4104 22.7974 14.3385 22.6544 14.3064C22.5114 14.2743 22.3623 14.2833 22.2243 14.3325C20.3693 14.9939 18.3648 15.1153 16.4436 14.6827C14.5224 14.2501 12.7634 13.2813 11.3709 11.8887C9.97847 10.4962 9.00973 8.73712 8.57725 6.8159C8.14478 4.89467 8.26633 2.89017 8.92779 1.03528C8.97694 0.897226 8.98595 0.748067 8.95379 0.605097C8.92162 0.462127 8.8496 0.331201 8.74605 0.227498C8.64251 0.123794 8.5117 0.0515615 8.36878 0.0191726C8.22586 -0.0132163 8.07669 -0.00443445 7.93856 0.0445C6.26624 0.635044 4.74863 1.59511 3.49865 2.85326C1.25786 5.09575 -0.000599093 8.13637 2.13955e-07 11.3065C0.000599521 14.4767 1.2602 17.5168 3.50184 19.7585C5.74348 22.0001 8.78363 23.2597 11.9538 23.2603C15.1239 23.2609 18.1646 22.0025 20.407 19.7617C21.6653 18.5115 22.6254 16.9936 23.2158 15.321C23.2646 15.1828 23.2732 15.0337 23.2407 14.8909C23.2081 14.7481 23.1358 14.6174 23.0321 14.5139ZM19.3108 18.6654C18.2537 19.7196 16.9821 20.5339 15.5825 21.0532C14.1828 21.5724 12.6878 21.7844 11.1989 21.6747C9.71005 21.565 8.26223 21.1362 6.95375 20.4175C5.64526 19.6988 4.50675 18.7069 3.61552 17.5092C2.72429 16.3115 2.10121 14.9361 1.78858 13.4763C1.47595 12.0165 1.48109 10.5066 1.80366 9.04895C2.12623 7.59132 2.75867 6.22018 3.65804 5.0286C4.55741 3.83703 5.70265 2.85293 7.016 2.14313C6.6272 4.07874 6.72086 6.08031 7.28872 7.97116C7.85659 9.86201 8.88119 11.584 10.2721 12.9851C11.6731 14.3763 13.395 15.401 15.2859 15.9689C17.1768 16.5368 19.1785 16.6303 21.1141 16.2412C20.6348 17.1331 20.0272 17.9499 19.3108 18.6654Z" fill="black"/>
</svg>
