<svg width="24" height="24" viewBox="0 0 24 24" fill="none" xmlns="http://www.w3.org/2000/svg">
<path d="M9.66732 13.1663H1.50065C1.19123 13.1663 0.894485 13.2893 0.675693 13.508C0.456901 13.7268 0.333984 14.0236 0.333984 14.333V22.4997C0.333984 22.8091 0.456901 23.1058 0.675693 23.3246C0.894485 23.5434 1.19123 23.6663 1.50065 23.6663H9.66732C9.97674 23.6663 10.2735 23.5434 10.4923 23.3246C10.7111 23.1058 10.834 22.8091 10.834 22.4997V14.333C10.834 14.0236 10.7111 13.7268 10.4923 13.508C10.2735 13.2893 9.97674 13.1663 9.66732 13.1663ZM8.50065 21.333H2.66732V15.4997H8.50065V21.333ZM22.5006 0.333008H14.334C14.0246 0.333008 13.7278 0.455924 13.509 0.674716C13.2902 0.893509 13.1673 1.19026 13.1673 1.49967V9.66634C13.1673 9.97576 13.2902 10.2725 13.509 10.4913C13.7278 10.7101 14.0246 10.833 14.334 10.833H22.5006C22.8101 10.833 23.1068 10.7101 23.3256 10.4913C23.5444 10.2725 23.6673 9.97576 23.6673 9.66634V1.49967C23.6673 1.19026 23.5444 0.893509 23.3256 0.674716C23.1068 0.455924 22.8101 0.333008 22.5006 0.333008ZM21.334 8.49967H15.5006V2.66634H21.334V8.49967ZM22.5006 13.1663H14.334C14.0246 13.1663 13.7278 13.2893 13.509 13.508C13.2902 13.7268 13.1673 14.0236 13.1673 14.333V22.4997C13.1673 22.8091 13.2902 23.1058 13.509 23.3246C13.7278 23.5434 14.0246 23.6663 14.334 23.6663H22.5006C22.8101 23.6663 23.1068 23.5434 23.3256 23.3246C23.5444 23.1058 23.6673 22.8091 23.6673 22.4997V14.333C23.6673 14.0236 23.5444 13.7268 23.3256 13.508C23.1068 13.2893 22.8101 13.1663 22.5006 13.1663ZM21.334 21.333H15.5006V15.4997H21.334V21.333ZM9.66732 0.333008H1.50065C1.19123 0.333008 0.894485 0.455924 0.675693 0.674716C0.456901 0.893509 0.333984 1.19026 0.333984 1.49967V9.66634C0.333984 9.97576 0.456901 10.2725 0.675693 10.4913C0.894485 10.7101 1.19123 10.833 1.50065 10.833H9.66732C9.97674 10.833 10.2735 10.7101 10.4923 10.4913C10.7111 10.2725 10.834 9.97576 10.834 9.66634V1.49967C10.834 1.19026 10.7111 0.893509 10.4923 0.674716C10.2735 0.455924 9.97674 0.333008 9.66732 0.333008ZM8.50065 8.49967H2.66732V2.66634H8.50065V8.49967Z" fill="#D1CBD8"/>
</svg>
