<svg width="21" height="21" viewBox="0 0 21 21" fill="none" xmlns="http://www.w3.org/2000/svg">
<path d="M8.41732 11.5423H1.12565C0.849384 11.5423 0.584432 11.6521 0.389081 11.8474C0.193731 12.0428 0.0839844 12.3077 0.0839844 12.584V19.8756C0.0839844 20.1519 0.193731 20.4169 0.389081 20.6122C0.584432 20.8076 0.849384 20.9173 1.12565 20.9173H8.41732C8.69358 20.9173 8.95853 20.8076 9.15388 20.6122C9.34923 20.4169 9.45898 20.1519 9.45898 19.8756V12.584C9.45898 12.3077 9.34923 12.0428 9.15388 11.8474C8.95853 11.6521 8.69358 11.5423 8.41732 11.5423ZM7.37565 18.834H2.16732V13.6256H7.37565V18.834ZM19.8756 0.0839844H12.584C12.3077 0.0839844 12.0428 0.193731 11.8474 0.389081C11.6521 0.584432 11.5423 0.849384 11.5423 1.12565V8.41732C11.5423 8.69358 11.6521 8.95853 11.8474 9.15388C12.0428 9.34923 12.3077 9.45898 12.584 9.45898H19.8756C20.1519 9.45898 20.4169 9.34923 20.6122 9.15388C20.8076 8.95853 20.9173 8.69358 20.9173 8.41732V1.12565C20.9173 0.849384 20.8076 0.584432 20.6122 0.389081C20.4169 0.193731 20.1519 0.0839844 19.8756 0.0839844ZM18.834 7.37565H13.6256V2.16732H18.834V7.37565ZM19.8756 11.5423H12.584C12.3077 11.5423 12.0428 11.6521 11.8474 11.8474C11.6521 12.0428 11.5423 12.3077 11.5423 12.584V19.8756C11.5423 20.1519 11.6521 20.4169 11.8474 20.6122C12.0428 20.8076 12.3077 20.9173 12.584 20.9173H19.8756C20.1519 20.9173 20.4169 20.8076 20.6122 20.6122C20.8076 20.4169 20.9173 20.1519 20.9173 19.8756V12.584C20.9173 12.3077 20.8076 12.0428 20.6122 11.8474C20.4169 11.6521 20.1519 11.5423 19.8756 11.5423ZM18.834 18.834H13.6256V13.6256H18.834V18.834ZM8.41732 0.0839844H1.12565C0.849384 0.0839844 0.584432 0.193731 0.389081 0.389081C0.193731 0.584432 0.0839844 0.849384 0.0839844 1.12565V8.41732C0.0839844 8.69358 0.193731 8.95853 0.389081 9.15388C0.584432 9.34923 0.849384 9.45898 1.12565 9.45898H8.41732C8.69358 9.45898 8.95853 9.34923 9.15388 9.15388C9.34923 8.95853 9.45898 8.69358 9.45898 8.41732V1.12565C9.45898 0.849384 9.34923 0.584432 9.15388 0.389081C8.95853 0.193731 8.69358 0.0839844 8.41732 0.0839844ZM7.37565 7.37565H2.16732V2.16732H7.37565V7.37565Z" fill="#D1CBD8"/>
</svg>
