<svg width="21" height="21" viewBox="0 0 21 21" fill="none" xmlns="http://www.w3.org/2000/svg">
<path d="M8.33333 11.4583H1.04167C0.765399 11.4583 0.500447 11.5681 0.305097 11.7634C0.109747 11.9588 0 12.2237 0 12.5V19.7917C0 20.0679 0.109747 20.3329 0.305097 20.5282C0.500447 20.7236 0.765399 20.8333 1.04167 20.8333H8.33333C8.6096 20.8333 8.87455 20.7236 9.0699 20.5282C9.26525 20.3329 9.375 20.0679 9.375 19.7917V12.5C9.375 12.2237 9.26525 11.9588 9.0699 11.7634C8.87455 11.5681 8.6096 11.4583 8.33333 11.4583ZM7.29166 18.75H2.08333V13.5417H7.29166V18.75ZM19.7917 0H12.5C12.2237 0 11.9588 0.109747 11.7634 0.305097C11.5681 0.500447 11.4583 0.765399 11.4583 1.04167V8.33333C11.4583 8.6096 11.5681 8.87455 11.7634 9.0699C11.9588 9.26525 12.2237 9.375 12.5 9.375H19.7917C20.0679 9.375 20.3329 9.26525 20.5282 9.0699C20.7236 8.87455 20.8333 8.6096 20.8333 8.33333V1.04167C20.8333 0.765399 20.7236 0.500447 20.5282 0.305097C20.3329 0.109747 20.0679 0 19.7917 0V0ZM18.75 7.29166H13.5417V2.08333H18.75V7.29166ZM19.7917 11.4583H12.5C12.2237 11.4583 11.9588 11.5681 11.7634 11.7634C11.5681 11.9588 11.4583 12.2237 11.4583 12.5V19.7917C11.4583 20.0679 11.5681 20.3329 11.7634 20.5282C11.9588 20.7236 12.2237 20.8333 12.5 20.8333H19.7917C20.0679 20.8333 20.3329 20.7236 20.5282 20.5282C20.7236 20.3329 20.8333 20.0679 20.8333 19.7917V12.5C20.8333 12.2237 20.7236 11.9588 20.5282 11.7634C20.3329 11.5681 20.0679 11.4583 19.7917 11.4583ZM18.75 18.75H13.5417V13.5417H18.75V18.75ZM8.33333 0H1.04167C0.765399 0 0.500447 0.109747 0.305097 0.305097C0.109747 0.500447 0 0.765399 0 1.04167V8.33333C0 8.6096 0.109747 8.87455 0.305097 9.0699C0.500447 9.26525 0.765399 9.375 1.04167 9.375H8.33333C8.6096 9.375 8.87455 9.26525 9.0699 9.0699C9.26525 8.87455 9.375 8.6096 9.375 8.33333V1.04167C9.375 0.765399 9.26525 0.500447 9.0699 0.305097C8.87455 0.109747 8.6096 0 8.33333 0V0ZM7.29166 7.29166H2.08333V2.08333H7.29166V7.29166Z" fill="#212B36"/>
</svg>
