<svg width="18" height="20" viewBox="0 0 18 20" fill="none" xmlns="http://www.w3.org/2000/svg">
<path d="M15.9847 10.6381L9.869 16.7637C9.06725 17.4762 8.02356 17.8555 6.95141 17.8239C5.87927 17.7924 4.85969 17.3524 4.10125 16.5939C3.3428 15.8355 2.90279 14.8159 2.87123 13.7438C2.83967 12.6716 3.21894 11.6279 3.93146 10.8262L11.8482 2.90945C12.3208 2.46047 12.9478 2.21013 13.5998 2.21013C14.2517 2.21013 14.8787 2.46047 15.3513 2.90945C15.8118 3.37613 16.07 4.00539 16.07 4.66102C16.07 5.31665 15.8118 5.94591 15.3513 6.4126L8.52316 13.2309C8.45558 13.3036 8.37433 13.3624 8.28405 13.4038C8.19377 13.4451 8.09622 13.4683 7.99698 13.472C7.89773 13.4757 7.79874 13.4598 7.70564 13.4252C7.61255 13.3906 7.52717 13.338 7.4544 13.2705C7.38163 13.2029 7.32287 13.1216 7.2815 13.0313C7.24012 12.9411 7.21694 12.8435 7.21326 12.7443C7.20959 12.645 7.22549 12.546 7.26008 12.4529C7.29466 12.3598 7.34724 12.2745 7.41482 12.2017L12.4914 7.135C12.6778 6.94865 12.7824 6.69592 12.7824 6.43239C12.7824 6.16886 12.6778 5.91612 12.4914 5.72978C12.3051 5.54344 12.0523 5.43875 11.7888 5.43875C11.5253 5.43875 11.2725 5.54344 11.0862 5.72978L6.0096 10.8163C5.75557 11.0683 5.55396 11.3682 5.41637 11.6985C5.27878 12.0289 5.20795 12.3832 5.20795 12.741C5.20795 13.0989 5.27878 13.4532 5.41637 13.7835C5.55396 14.1139 5.75557 14.4137 6.0096 14.6658C6.52851 15.1601 7.2177 15.4358 7.93435 15.4358C8.651 15.4358 9.34019 15.1601 9.8591 14.6658L16.6774 7.83761C17.464 6.99344 17.8922 5.8769 17.8719 4.72323C17.8515 3.56956 17.3842 2.46883 16.5683 1.65293C15.7524 0.837037 14.6516 0.369682 13.498 0.349327C12.3443 0.328971 11.2278 0.757206 10.3836 1.54381L2.46687 9.46053C1.39929 10.6429 0.829122 12.1917 0.875143 13.784C0.921164 15.3764 1.57983 16.8896 2.71391 18.0084C3.84798 19.1272 5.37 19.7652 6.96285 19.7896C8.55571 19.8139 10.0965 19.2228 11.2643 18.1392L17.3899 12.0236C17.4822 11.9313 17.5553 11.8218 17.6053 11.7012C17.6552 11.5807 17.6809 11.4514 17.6809 11.321C17.6809 11.1905 17.6552 11.0613 17.6053 10.9407C17.5553 10.8202 17.4822 10.7106 17.3899 10.6184C17.2976 10.5261 17.1881 10.4529 17.0675 10.403C16.947 10.353 16.8178 10.3273 16.6873 10.3273C16.5568 10.3273 16.4276 10.353 16.307 10.403C16.1865 10.4529 16.0769 10.5261 15.9847 10.6184V10.6381Z" fill="#D1CBD8"/>
</svg>
