<svg width="17" height="20" viewBox="0 0 17 20" fill="none" xmlns="http://www.w3.org/2000/svg">
<path d="M15.1121 10.2895L8.99644 16.4151C8.19469 17.1276 7.151 17.5069 6.07885 17.4753C5.00671 17.4437 3.98714 17.0037 3.22869 16.2453C2.47024 15.4868 2.03023 14.4673 1.99867 13.3951C1.96711 12.323 2.34638 11.2793 3.0589 10.4775L10.9756 2.56081C11.4483 2.11184 12.0753 1.8615 12.7272 1.8615C13.3791 1.8615 14.0061 2.11184 14.4788 2.56081C14.9393 3.02749 15.1975 3.65675 15.1975 4.31239C15.1975 4.96802 14.9393 5.59728 14.4788 6.06396L7.6506 12.8822C7.58302 12.955 7.50177 13.0138 7.41149 13.0551C7.32121 13.0965 7.22366 13.1197 7.12442 13.1234C7.02518 13.1271 6.92618 13.1111 6.83308 13.0766C6.73999 13.042 6.65462 12.9894 6.58184 12.9218C6.50907 12.8542 6.45032 12.773 6.40894 12.6827C6.36757 12.5924 6.34438 12.4949 6.3407 12.3956C6.33703 12.2964 6.35293 12.1974 6.38752 12.1043C6.4221 12.0112 6.47468 11.9258 6.54226 11.8531L11.6189 6.78636C11.8052 6.60002 11.9099 6.34728 11.9099 6.08375C11.9099 5.82023 11.8052 5.56749 11.6189 5.38115C11.4325 5.1948 11.1798 5.09012 10.9162 5.09012C10.6527 5.09012 10.4 5.1948 10.2136 5.38115L5.13704 10.4676C4.88302 10.7197 4.6814 11.0195 4.54381 11.3499C4.40622 11.6802 4.33539 12.0345 4.33539 12.3924C4.33539 12.7502 4.40622 13.1046 4.54381 13.4349C4.6814 13.7652 4.88302 14.0651 5.13704 14.3171C5.65595 14.8114 6.34514 15.0871 7.06179 15.0871C7.77845 15.0871 8.46763 14.8114 8.98655 14.3171L15.8048 7.48897C16.5914 6.6448 17.0197 5.52827 16.9993 4.3746C16.979 3.22093 16.5116 2.1202 15.6957 1.3043C14.8798 0.488404 13.7791 0.021049 12.6254 0.000693784C11.4717 -0.0196614 10.3552 0.408573 9.51103 1.19518L1.59431 9.1119C0.526736 10.2943 -0.0434369 11.843 0.00258406 13.4354C0.048605 15.0278 0.707271 16.541 1.84135 17.6597C2.97542 18.7785 4.49744 19.4166 6.0903 19.4409C7.68315 19.4653 9.22398 18.8741 10.3918 17.7906L16.5173 11.6749C16.6096 11.5827 16.6828 11.4731 16.7327 11.3526C16.7827 11.232 16.8084 11.1028 16.8084 10.9723C16.8084 10.8418 16.7827 10.7126 16.7327 10.5921C16.6828 10.4715 16.6096 10.362 16.5173 10.2697C16.4251 10.1775 16.3155 10.1043 16.195 10.0543C16.0744 10.0044 15.9452 9.97869 15.8147 9.97869C15.6842 9.97869 15.555 10.0044 15.4345 10.0543C15.3139 10.1043 15.2044 10.1775 15.1121 10.2697V10.2895Z" fill="#212B36"/>
</svg>
