<svg width="27" height="16" viewBox="0 0 27 16" fill="none" xmlns="http://www.w3.org/2000/svg">
<path d="M1.33333 2.66667H25.3333C25.687 2.66667 26.0261 2.52619 26.2761 2.27614C26.5262 2.02609 26.6667 1.68696 26.6667 1.33333C26.6667 0.979711 26.5262 0.640573 26.2761 0.390525C26.0261 0.140476 25.687 0 25.3333 0H1.33333C0.979712 0 0.640573 0.140476 0.390524 0.390525C0.140476 0.640573 0 0.979711 0 1.33333C0 1.68696 0.140476 2.02609 0.390524 2.27614C0.640573 2.52619 0.979712 2.66667 1.33333 2.66667V2.66667ZM25.3333 13.3333H1.33333C0.979712 13.3333 0.640573 13.4738 0.390524 13.7239C0.140476 13.9739 0 14.313 0 14.6667C0 15.0203 0.140476 15.3594 0.390524 15.6095C0.640573 15.8595 0.979712 16 1.33333 16H25.3333C25.687 16 26.0261 15.8595 26.2761 15.6095C26.5262 15.3594 26.6667 15.0203 26.6667 14.6667C26.6667 14.313 26.5262 13.9739 26.2761 13.7239C26.0261 13.4738 25.687 13.3333 25.3333 13.3333ZM25.3333 6.66667H1.33333C0.979712 6.66667 0.640573 6.80714 0.390524 7.05719C0.140476 7.30724 0 7.64638 0 8C0 8.35362 0.140476 8.69276 0.390524 8.94281C0.640573 9.19286 0.979712 9.33333 1.33333 9.33333H25.3333C25.687 9.33333 26.0261 9.19286 26.2761 8.94281C26.5262 8.69276 26.6667 8.35362 26.6667 8C26.6667 7.64638 26.5262 7.30724 26.2761 7.05719C26.0261 6.80714 25.687 6.66667 25.3333 6.66667Z" fill="white"/>
</svg>
