<svg width="60" height="46" viewBox="0 0 60 46" fill="none" xmlns="http://www.w3.org/2000/svg">
<mask id="mask0_269_11307" style="mask-type:luminance" maskUnits="userSpaceOnUse" x="8" y="1" width="43" height="44">
<path d="M8.00684 23.2248C8.00684 35.1667 17.5904 44.8437 29.4172 44.8437C41.2439 44.8437 50.8275 35.1667 50.8275 23.2248C50.8275 11.2828 41.2439 1.59668 29.4172 1.59668C17.5904 1.59668 8.00684 11.2828 8.00684 23.2248Z" fill="white"/>
</mask>
<g mask="url(#mask0_269_11307)">
<path d="M50.8361 1.59668H8.00635V44.8437H50.8361V1.59668Z" fill="url(#paint0_linear_269_11307)"/>
</g>
<mask id="mask1_269_11307" style="mask-type:luminance" maskUnits="userSpaceOnUse" x="9" y="2" width="41" height="42">
<path d="M10.1216 23.0006C10.1216 12.2188 18.8024 3.45339 29.4802 3.45339C40.1581 3.45339 48.8389 12.2188 48.8389 23.0006C48.8389 33.7825 40.1581 42.5479 29.4802 42.5479C18.8024 42.5571 10.1216 33.7825 10.1216 23.0006ZM9.39209 23.0006C9.39209 34.1876 18.4012 43.2845 29.4802 43.2845C40.5593 43.2845 49.5684 34.1876 49.5684 23.0006C49.5684 11.8137 40.5593 2.7168 29.4802 2.7168C18.4012 2.726 9.39209 11.8229 9.39209 23.0006Z" fill="white"/>
</mask>
<g mask="url(#mask1_269_11307)">
<path d="M9.40125 43.7718L8.91797 2.7253L49.5593 2.2373L50.0426 43.2838L9.40125 43.7718Z" fill="url(#paint1_linear_269_11307)"/>
</g>
<path d="M45.0277 17.6518C44.818 16.639 44.5079 15.2487 44.1888 13.8676C43.5231 10.9673 40.9699 8.92325 38.0247 8.92325C37.9335 8.55496 37.6052 8.27874 37.2131 8.27874H34.9426C34.5505 8.27874 34.2222 8.55496 34.131 8.92325H30.0915C30.0915 8.92325 30.0915 8.92326 30.0915 8.93246C30.1006 8.95088 30.1189 8.96008 30.128 8.9785C30.1736 9.05216 29.3894 11.9709 28.5687 14.9357L28.5505 14.9265C28.4867 14.908 28.4228 14.8804 28.359 14.862C28.1219 14.7883 27.8757 14.7147 27.6386 14.6226C27.2374 14.4753 28.4228 9.43887 28.5414 8.96008V8.95088C28.5414 8.94167 28.5505 8.92325 28.5505 8.91405H24.9213C24.8301 8.54575 24.5019 8.26953 24.1098 8.26953H21.8392C21.4471 8.26953 21.1189 8.54575 21.0277 8.91405H20.8818C17.9365 8.91405 15.3742 10.9673 14.7177 13.8584C14.3985 15.2395 14.0885 16.6298 13.8788 17.6426C12.9304 22.1819 12.7389 27.0157 15.5566 28.7651C17.6265 29.5754 17.9183 29.115 18.5566 27.2459C19.1949 25.3768 20.2344 20.5614 23.59 20.856C23.59 20.856 23.59 20.856 23.5991 20.856C24.6386 20.9941 25.7146 21.0862 26.8271 21.1506C26.8271 21.1506 26.8271 21.1506 26.8362 21.1506C26.8544 21.1506 26.8818 21.1506 26.9 21.1506C26.9 21.1506 26.9 21.1506 26.9 21.1414C27.7116 21.123 34.6782 20.9297 35.3347 20.8468H35.3438C38.6994 20.5429 39.7389 25.3584 40.3772 27.2367C41.0155 29.1058 41.6812 29.5662 43.7602 28.7559C46.5505 27.0249 45.976 22.1911 45.0277 17.6518ZM19.7967 12.2747C19.7967 11.9801 20.0338 11.7315 20.3256 11.7315H21.6022C21.894 11.7315 22.1402 11.9709 22.1402 12.2747V13.5177C22.1402 13.6743 22.0763 13.8308 21.9578 13.9321L21.2101 14.6134C21.0733 14.7423 20.8636 14.7423 20.7359 14.6134L19.9882 13.9321C19.8696 13.8216 19.8058 13.6743 19.8058 13.5177V12.2747H19.7967ZM19.0581 16.6298H17.8271C17.5353 16.6298 17.2891 16.3904 17.2891 16.0866V14.7976C17.2891 14.5029 17.5262 14.2543 17.8271 14.2543H19.0581C19.2131 14.2543 19.3681 14.3188 19.4684 14.4385L20.1432 15.1935C20.2709 15.3316 20.2709 15.5434 20.1432 15.6723L19.4684 16.4273C19.359 16.5654 19.2131 16.6298 19.0581 16.6298ZM22.1402 18.6278C22.1402 18.9225 21.9031 19.1711 21.6022 19.1711H20.3256C20.0338 19.1711 19.7967 18.9317 19.7967 18.6278V17.3848C19.7967 17.2283 19.8605 17.0718 19.9791 16.9705L20.7268 16.2891C20.8636 16.1602 21.0733 16.1602 21.2009 16.2891L21.9487 16.9705C22.0672 17.081 22.131 17.2283 22.131 17.3848V18.6278H22.1402ZM24.6478 16.0958C24.6478 16.3904 24.4107 16.639 24.1098 16.639H22.8879C22.7329 16.639 22.5778 16.5746 22.4775 16.4549L21.8028 15.6999C21.6751 15.5618 21.6751 15.35 21.8028 15.2211L22.4775 14.4661C22.587 14.3464 22.7329 14.2819 22.8879 14.2819H24.1189C24.4107 14.2819 24.6569 14.5213 24.6569 14.8252V16.0958H24.6478ZM27.0459 20.3404C27.0459 20.2207 27.0459 20.101 27.0368 19.9721C26.9821 19.4012 27.1189 18.8764 27.4563 18.416C27.5475 18.2871 27.5748 18.1122 27.6113 17.9096V17.8912C27.6295 17.7992 27.6478 17.7071 27.666 17.615C27.6933 17.5045 27.7207 17.394 27.7572 17.2835L27.7936 17.1454C27.894 16.7587 28.0034 16.326 28.1493 15.9116C28.2313 15.6538 28.3499 15.4144 28.4684 15.1751L28.4775 15.1566C28.5049 15.1106 28.5231 15.0646 28.5414 15.0185C27.9578 17.127 27.3651 19.2171 27.0459 20.3404ZM38.6356 11.6763C39.3195 11.6763 39.8848 12.2379 39.8848 12.9377C39.8848 13.6282 39.3286 14.1991 38.6356 14.1991C37.9426 14.1991 37.3864 13.6374 37.3864 12.9377C37.3864 12.2379 37.9517 11.6763 38.6356 11.6763ZM36.1462 16.7035C35.4532 16.7035 34.897 16.1418 34.897 15.4421C34.897 14.7515 35.4532 14.1807 36.1462 14.1807C36.8301 14.1807 37.3955 14.7423 37.3955 15.4421C37.3955 16.1418 36.8393 16.7035 36.1462 16.7035ZM38.6356 19.2171C37.9426 19.2171 37.3864 18.6554 37.3864 17.9557C37.3864 17.2559 37.9426 16.6943 38.6356 16.6943C39.3195 16.6943 39.8848 17.2559 39.8848 17.9557C39.8848 18.6554 39.3286 19.2171 38.6356 19.2171ZM41.125 16.7035C40.4411 16.7035 39.8757 16.1418 39.8757 15.4421C39.8757 14.7515 40.4411 14.1807 41.125 14.1807C41.818 14.1807 42.3742 14.7423 42.3742 15.4421C42.3742 16.1418 41.8089 16.7035 41.125 16.7035ZM20.973 12.4221L20.5444 12.8548H21.3924L20.973 12.4221ZM18.4015 15.8748V15.0185L17.973 15.4513L18.4015 15.8748ZM20.973 18.4713L21.4016 18.0385H20.5535L20.973 18.4713ZM23.5353 15.8748L23.9639 15.4421L23.5353 15.0093V15.8748Z" fill="white"/>
<mask id="mask2_269_11307" style="mask-type:luminance" maskUnits="userSpaceOnUse" x="25" y="5" width="9" height="18">
<path d="M28.0387 5.31585C27.9019 5.36188 27.7834 5.43554 27.7013 5.52761C27.6283 5.61048 27.5736 5.69335 27.5554 5.79463C27.5554 5.80384 27.5554 5.80384 27.5554 5.81304C27.4095 6.41152 27.3274 7.03762 27.7286 7.60848C27.984 7.96757 27.9748 8.05964 27.601 8.3819C27.5372 8.43714 27.4824 8.49239 27.4095 8.54763L27.3913 8.56605C27.0995 8.81465 26.7985 9.07245 26.6527 9.41313C26.4065 9.99319 26.2423 10.6193 26.0782 11.2178V11.227C26.0235 11.4295 25.9779 11.6229 25.9232 11.807C25.7864 12.3042 25.9505 12.6265 26.4429 12.8106C26.7347 12.9211 27.0356 13.0132 27.3274 13.1053C27.4004 13.1329 27.4824 13.1513 27.5645 13.1789L27.601 13.1881L27.5554 13.2802C27.528 13.3355 27.5007 13.3907 27.4733 13.446L27.4642 13.4644C27.3183 13.759 27.1724 14.0628 27.0721 14.3759C26.8989 14.8823 26.7621 15.4255 26.6344 15.9043L26.5979 16.0516C26.5615 16.1897 26.525 16.3371 26.4885 16.4752C26.4612 16.5857 26.4338 16.7054 26.4156 16.8159L26.4065 16.8435C26.37 17.0737 26.3244 17.2946 26.215 17.4512C25.8046 18.0312 25.6314 18.6757 25.7043 19.3847C25.7682 20.0108 25.6587 20.5817 25.3761 21.1894C25.3669 21.1986 25.3669 21.217 25.3578 21.2262C25.3487 21.2354 25.3487 21.2538 25.3396 21.263V21.2722C25.2758 21.3919 25.1937 21.5484 25.2484 21.7142C25.2849 21.8155 25.3761 21.8983 25.522 21.9536C25.7499 22.0456 26.0144 22.0456 26.2332 21.9536C26.3973 21.8799 26.5159 21.7602 26.5706 21.6037L26.5797 21.5853C26.6527 21.3919 26.7165 21.2262 26.7621 21.042L26.7712 21.0052L26.7986 21.0328C26.8441 21.0789 26.8989 21.1065 26.9627 21.1249C27.1086 21.1617 27.2727 21.1065 27.4004 20.9592C27.446 20.9131 27.4916 20.8579 27.5372 20.7934C27.6192 20.6737 27.6922 20.554 27.7651 20.4343L27.7742 20.4251C27.8289 20.3239 27.8928 20.2226 27.9566 20.1213C28.0022 20.0568 28.0478 19.9832 28.0934 19.9095L28.1207 19.8727C28.2484 19.6609 28.3761 19.4492 28.5493 19.311C29.3609 18.6942 30.0265 17.9944 30.601 17.1841C30.683 17.0737 30.7651 16.9632 30.8654 16.8527C31.1481 16.512 31.4399 16.1621 31.449 15.6189C31.449 15.4716 31.4855 15.3243 31.522 15.1769C31.5402 15.0941 31.5584 15.0112 31.5767 14.9191C31.5949 14.8086 31.6131 14.7074 31.6405 14.6061L31.6587 14.5232C31.7682 14.0168 31.8776 13.5012 31.6678 12.9211C31.4855 12.3871 31.3943 11.7978 31.3122 11.2362V11.2178C31.2849 11.0244 31.2575 10.8311 31.221 10.6377C31.2028 10.518 31.2028 10.3891 31.2119 10.2418V10.1589L31.2484 10.1773C31.2575 10.1865 31.2666 10.1865 31.2758 10.1958L31.2849 10.205C31.4308 10.2694 31.5493 10.3339 31.5949 10.4075C31.8137 10.7666 31.9779 11.1717 32.1147 11.5584C32.1238 11.5953 32.142 11.6321 32.1511 11.6689L32.1603 11.6966C32.297 12.0556 32.4247 12.4055 32.2879 12.783C32.215 12.9764 32.1967 13.1789 32.1694 13.3723L32.1603 13.446C32.1511 13.5104 32.142 13.5749 32.1329 13.6393L32.1147 13.7314L32.3882 13.8879L32.7803 13.3815L33.3457 14.4864L33.4733 14.2746C33.5189 14.1918 33.5736 14.1273 33.6192 14.0628C33.7286 13.9063 33.8289 13.7774 33.8289 13.6209C33.8289 13.492 33.8198 13.0316 33.5827 12.7922C33.1815 12.3779 33.0812 11.8807 33.0448 11.2638C33.0083 10.4351 32.6709 9.64331 32.0144 8.86068C31.832 8.63971 31.5949 8.42794 31.2849 8.19775C31.1116 8.07806 30.8837 7.98598 30.6648 7.94915C30.3821 7.90312 30.0995 7.87549 29.7803 7.85708C29.7074 7.84787 29.6344 7.84787 29.5615 7.83867H29.5341V7.81104C29.5432 7.765 29.5432 7.71897 29.5523 7.68214L29.5615 7.6361C29.5797 7.47037 29.5979 7.32305 29.5979 7.17573C29.5979 7.06525 29.5888 6.96397 29.5797 6.87189V6.86268C29.5615 6.72457 29.5523 6.58646 29.5797 6.47597C29.6435 6.22737 29.6253 6.02481 29.5068 5.84066C29.4429 5.73938 29.3609 5.64731 29.2514 5.55524C29.2241 5.52761 29.1967 5.5092 29.1694 5.49079C28.987 5.35268 28.7226 5.26981 28.4581 5.26981C28.3213 5.24219 28.1754 5.26981 28.0387 5.31585Z" fill="white"/>
</mask>
<g mask="url(#mask2_269_11307)">
<path d="M33.8293 5.24219H25.1758V22.0364H33.8293V5.24219Z" fill="url(#paint2_linear_269_11307)"/>
</g>
<mask id="mask3_269_11307" style="mask-type:luminance" maskUnits="userSpaceOnUse" x="28" y="19" width="3" height="3">
<path d="M28.6226 19.5145C28.3672 19.7723 28.2305 20.1222 28.2305 20.4905C28.2305 20.5641 28.2396 20.647 28.2578 20.7299C28.2669 20.7943 28.2852 20.8404 28.3034 20.8956C28.4767 21.4573 29.0147 21.844 29.5983 21.844H29.6165C30.2274 21.8348 30.7654 21.3928 30.9113 20.7943C30.9204 20.7851 30.9204 20.7759 30.9204 20.7667C30.9204 20.7575 30.9204 20.7575 30.9204 20.7483C30.9387 20.6562 30.9478 20.5733 30.9478 20.4813C30.9478 20.113 30.811 19.7723 30.5557 19.5145C30.3004 19.2567 29.9539 19.1094 29.58 19.1094C29.2153 19.1186 28.8779 19.2567 28.6226 19.5145Z" fill="white"/>
</mask>
<g mask="url(#mask3_269_11307)">
<path d="M30.9574 19.1094H28.231V21.844H30.9574V19.1094Z" fill="url(#paint3_linear_269_11307)"/>
</g>
<path d="M27.5108 11.6114C27.5017 11.4917 27.4469 11.3812 27.3922 11.2063C27.2737 11.418 27.1825 11.5838 27.0366 11.8416C27.1916 11.9429 27.3375 12.0533 27.4925 12.1546C27.5016 11.9705 27.5199 11.7863 27.5108 11.6114ZM27.3466 11.8508L27.2554 11.7863L27.3466 11.6114V11.6206C27.3558 11.6943 27.3558 11.7679 27.3466 11.8508ZM27.5108 11.6114C27.5017 11.4917 27.4469 11.3812 27.3922 11.2063C27.2737 11.418 27.1825 11.5838 27.0366 11.8416C27.1916 11.9429 27.3375 12.0533 27.4925 12.1546C27.5016 11.9705 27.5199 11.7863 27.5108 11.6114ZM27.3466 11.8508L27.2554 11.7863L27.3466 11.6114V11.6206C27.3558 11.6943 27.3558 11.7679 27.3466 11.8508ZM27.5108 11.6114C27.5017 11.4917 27.4469 11.3812 27.3922 11.2063C27.2737 11.418 27.1825 11.5838 27.0366 11.8416C27.1916 11.9429 27.3375 12.0533 27.4925 12.1546C27.5016 11.9705 27.5199 11.7863 27.5108 11.6114ZM27.3466 11.8508L27.2554 11.7863L27.3466 11.6114V11.6206C27.3558 11.6943 27.3558 11.7679 27.3466 11.8508ZM27.5108 11.6114C27.5017 11.4917 27.4469 11.3812 27.3922 11.2063C27.2737 11.418 27.1825 11.5838 27.0366 11.8416C27.1916 11.9429 27.3375 12.0533 27.4925 12.1546C27.5016 11.9705 27.5199 11.7863 27.5108 11.6114ZM27.3466 11.8508L27.2554 11.7863L27.3466 11.6114V11.6206C27.3558 11.6943 27.3558 11.7679 27.3466 11.8508ZM27.5108 11.6114C27.5017 11.4917 27.4469 11.3812 27.3922 11.2063C27.2737 11.418 27.1825 11.5838 27.0366 11.8416C27.1916 11.9429 27.3375 12.0533 27.4925 12.1546C27.5016 11.9705 27.5199 11.7863 27.5108 11.6114ZM27.3466 11.8508L27.2554 11.7863L27.3466 11.6114V11.6206C27.3558 11.6943 27.3558 11.7679 27.3466 11.8508ZM27.5108 11.6114C27.5017 11.4917 27.4469 11.3812 27.3922 11.2063C27.2737 11.418 27.1825 11.5838 27.0366 11.8416C27.1916 11.9429 27.3375 12.0533 27.4925 12.1546C27.5016 11.9705 27.5199 11.7863 27.5108 11.6114ZM27.3466 11.8508L27.2554 11.7863L27.3466 11.6114V11.6206C27.3558 11.6943 27.3558 11.7679 27.3466 11.8508ZM27.5108 11.6114C27.5017 11.4917 27.4469 11.3812 27.3922 11.2063C27.2737 11.418 27.1825 11.5838 27.0366 11.8416C27.1916 11.9429 27.3375 12.0533 27.4925 12.1546C27.5016 11.9705 27.5199 11.7863 27.5108 11.6114ZM27.3466 11.8508L27.2554 11.7863L27.3466 11.6114V11.6206C27.3558 11.6943 27.3558 11.7679 27.3466 11.8508ZM27.5108 11.6114C27.5017 11.4917 27.4469 11.3812 27.3922 11.2063C27.2737 11.418 27.1825 11.5838 27.0366 11.8416C27.1916 11.9429 27.3375 12.0533 27.4925 12.1546C27.5016 11.9705 27.5199 11.7863 27.5108 11.6114ZM27.3466 11.8508L27.2554 11.7863L27.3466 11.6114V11.6206C27.3558 11.6943 27.3558 11.7679 27.3466 11.8508ZM27.5108 11.6114C27.5017 11.4917 27.4469 11.3812 27.3922 11.2063C27.2737 11.418 27.1825 11.5838 27.0366 11.8416C27.1916 11.9429 27.3375 12.0533 27.4925 12.1546C27.5016 11.9705 27.5199 11.7863 27.5108 11.6114ZM27.3466 11.8508L27.2554 11.7863L27.3466 11.6114V11.6206C27.3558 11.6943 27.3558 11.7679 27.3466 11.8508ZM27.5108 11.6114C27.5017 11.4917 27.4469 11.3812 27.3922 11.2063C27.2737 11.418 27.1825 11.5838 27.0366 11.8416C27.1916 11.9429 27.3375 12.0533 27.4925 12.1546C27.5016 11.9705 27.5199 11.7863 27.5108 11.6114ZM27.3466 11.8508L27.2554 11.7863L27.3466 11.6114V11.6206C27.3558 11.6943 27.3558 11.7679 27.3466 11.8508ZM27.5108 11.6114C27.5017 11.4917 27.4469 11.3812 27.3922 11.2063C27.2737 11.418 27.1825 11.5838 27.0366 11.8416C27.1916 11.9429 27.3375 12.0533 27.4925 12.1546C27.5016 11.9705 27.5199 11.7863 27.5108 11.6114ZM27.3466 11.8508L27.2554 11.7863L27.3466 11.6114V11.6206C27.3558 11.6943 27.3558 11.7679 27.3466 11.8508ZM27.5108 11.6114C27.5017 11.4917 27.4469 11.3812 27.3922 11.2063C27.2737 11.418 27.1825 11.5838 27.0366 11.8416C27.1916 11.9429 27.3375 12.0533 27.4925 12.1546C27.5016 11.9705 27.5199 11.7863 27.5108 11.6114ZM27.3466 11.8508L27.2554 11.7863L27.3466 11.6114V11.6206C27.3558 11.6943 27.3558 11.7679 27.3466 11.8508ZM27.5108 11.6114C27.5017 11.4917 27.4469 11.3812 27.3922 11.2063C27.2737 11.418 27.1825 11.5838 27.0366 11.8416C27.1916 11.9429 27.3375 12.0533 27.4925 12.1546C27.5016 11.9705 27.5199 11.7863 27.5108 11.6114ZM27.3466 11.8508L27.2554 11.7863L27.3466 11.6114V11.6206C27.3558 11.6943 27.3558 11.7679 27.3466 11.8508ZM27.5108 11.6114C27.5017 11.4917 27.4469 11.3812 27.3922 11.2063C27.2737 11.418 27.1825 11.5838 27.0366 11.8416C27.1916 11.9429 27.3375 12.0533 27.4925 12.1546C27.5016 11.9705 27.5199 11.7863 27.5108 11.6114ZM27.3466 11.8508L27.2554 11.7863L27.3466 11.6114V11.6206C27.3558 11.6943 27.3558 11.7679 27.3466 11.8508ZM27.5108 11.6114C27.5017 11.4917 27.4469 11.3812 27.3922 11.2063C27.2737 11.418 27.1825 11.5838 27.0366 11.8416C27.1916 11.9429 27.3375 12.0533 27.4925 12.1546C27.5016 11.9705 27.5199 11.7863 27.5108 11.6114ZM27.3466 11.8508L27.2554 11.7863L27.3466 11.6114V11.6206C27.3558 11.6943 27.3558 11.7679 27.3466 11.8508ZM27.5108 11.6114C27.5017 11.4917 27.4469 11.3812 27.3922 11.2063C27.2737 11.418 27.1825 11.5838 27.0366 11.8416C27.1916 11.9429 27.3375 12.0533 27.4925 12.1546C27.5016 11.9705 27.5199 11.7863 27.5108 11.6114ZM27.3466 11.8508L27.2554 11.7863L27.3466 11.6114V11.6206C27.3558 11.6943 27.3558 11.7679 27.3466 11.8508ZM27.5108 11.6114C27.5017 11.4917 27.4469 11.3812 27.3922 11.2063C27.2737 11.418 27.1825 11.5838 27.0366 11.8416C27.1916 11.9429 27.3375 12.0533 27.4925 12.1546C27.5016 11.9705 27.5199 11.7863 27.5108 11.6114ZM27.3466 11.8508L27.2554 11.7863L27.3466 11.6114V11.6206C27.3558 11.6943 27.3558 11.7679 27.3466 11.8508ZM27.5108 11.6114C27.5017 11.4917 27.4469 11.3812 27.3922 11.2063C27.2737 11.418 27.1825 11.5838 27.0366 11.8416C27.1916 11.9429 27.3375 12.0533 27.4925 12.1546C27.5016 11.9705 27.5199 11.7863 27.5108 11.6114ZM27.3466 11.8508L27.2554 11.7863L27.3466 11.6114V11.6206C27.3558 11.6943 27.3558 11.7679 27.3466 11.8508ZM27.5108 11.6114C27.5017 11.4917 27.4469 11.3812 27.3922 11.2063C27.2737 11.418 27.1825 11.5838 27.0366 11.8416C27.1916 11.9429 27.3375 12.0533 27.4925 12.1546C27.5016 11.9705 27.5199 11.7863 27.5108 11.6114ZM27.3466 11.8508L27.2554 11.7863L27.3466 11.6114V11.6206C27.3558 11.6943 27.3558 11.7679 27.3466 11.8508ZM27.5108 11.6114C27.5017 11.4917 27.4469 11.3812 27.3922 11.2063C27.2737 11.418 27.1825 11.5838 27.0366 11.8416C27.1916 11.9429 27.3375 12.0533 27.4925 12.1546C27.5016 11.9705 27.5199 11.7863 27.5108 11.6114ZM27.3466 11.8508L27.2554 11.7863L27.3466 11.6114V11.6206C27.3558 11.6943 27.3558 11.7679 27.3466 11.8508ZM33.1916 13.858C33.2463 13.9593 33.301 14.0605 33.3558 14.1802C33.4196 14.0698 33.4925 13.9777 33.5564 13.8948C33.4561 14.0145 33.2646 13.9961 33.1916 13.858ZM32.3983 13.5173C32.5442 13.4621 32.6172 13.3332 32.7722 13.1398C32.6354 13.3148 32.4895 13.4621 32.3983 13.5173ZM32.3345 13.5357C32.2889 13.5265 32.2615 13.4989 32.2433 13.4713C32.2433 13.4805 32.2433 13.4805 32.2524 13.4897C32.2615 13.5173 32.298 13.5449 32.3345 13.5357ZM32.371 12.8728C32.2889 13.0662 32.1612 13.2135 32.2068 13.3976C32.1977 13.2503 32.298 13.0385 32.371 12.8728ZM27.5108 11.6114C27.5017 11.4917 27.4469 11.3812 27.3922 11.2063C27.2737 11.418 27.1825 11.5838 27.0366 11.8416C27.1916 11.9429 27.3375 12.0533 27.4925 12.1546C27.5016 11.9705 27.5199 11.7863 27.5108 11.6114ZM27.3466 11.8508L27.2554 11.7863L27.3466 11.6114V11.6206C27.3558 11.6943 27.3558 11.7679 27.3466 11.8508ZM27.5108 11.6114C27.5017 11.4917 27.4469 11.3812 27.3922 11.2063C27.2737 11.418 27.1825 11.5838 27.0366 11.8416C27.1916 11.9429 27.3375 12.0533 27.4925 12.1546C27.5016 11.9705 27.5199 11.7863 27.5108 11.6114ZM27.3466 11.8508L27.2554 11.7863L27.3466 11.6114V11.6206C27.3558 11.6943 27.3558 11.7679 27.3466 11.8508ZM33.1916 13.858C33.2463 13.9593 33.301 14.0605 33.3558 14.1802C33.4196 14.0698 33.4925 13.9777 33.5564 13.8948C33.4561 14.0145 33.2646 13.9961 33.1916 13.858ZM32.3983 13.5173C32.5442 13.4621 32.6172 13.3332 32.7722 13.1398C32.6354 13.3148 32.4895 13.4621 32.3983 13.5173ZM32.3345 13.5357C32.2889 13.5265 32.2615 13.4989 32.2433 13.4713C32.2433 13.4805 32.2433 13.4805 32.2524 13.4897C32.2615 13.5173 32.298 13.5449 32.3345 13.5357ZM32.371 12.8728C32.2889 13.0662 32.1612 13.2135 32.2068 13.3976C32.1977 13.2503 32.298 13.0385 32.371 12.8728ZM27.5108 11.6114C27.5017 11.4917 27.4469 11.3812 27.3922 11.2063C27.2737 11.418 27.1825 11.5838 27.0366 11.8416C27.1916 11.9429 27.3375 12.0533 27.4925 12.1546C27.5016 11.9705 27.5199 11.7863 27.5108 11.6114ZM27.3466 11.8508L27.2554 11.7863L27.3466 11.6114V11.6206C27.3558 11.6943 27.3558 11.7679 27.3466 11.8508ZM27.5108 11.6114C27.5017 11.4917 27.4469 11.3812 27.3922 11.2063C27.2737 11.418 27.1825 11.5838 27.0366 11.8416C27.1916 11.9429 27.3375 12.0533 27.4925 12.1546C27.5016 11.9705 27.5199 11.7863 27.5108 11.6114ZM27.3466 11.8508L27.2554 11.7863L27.3466 11.6114V11.6206C27.3558 11.6943 27.3558 11.7679 27.3466 11.8508ZM33.1916 13.858C33.2463 13.9593 33.301 14.0605 33.3558 14.1802C33.4196 14.0698 33.4925 13.9777 33.5564 13.8948C33.4561 14.0145 33.2646 13.9961 33.1916 13.858ZM32.3983 13.5173C32.5442 13.4621 32.6172 13.3332 32.7722 13.1398C32.6354 13.3148 32.4895 13.4621 32.3983 13.5173ZM32.3345 13.5357C32.2889 13.5265 32.2615 13.4989 32.2433 13.4713C32.2433 13.4805 32.2433 13.4805 32.2524 13.4897C32.2615 13.5173 32.298 13.5449 32.3345 13.5357ZM32.371 12.8728C32.2889 13.0662 32.1612 13.2135 32.2068 13.3976C32.1977 13.2503 32.298 13.0385 32.371 12.8728ZM27.5108 11.6114C27.5017 11.4917 27.4469 11.3812 27.3922 11.2063C27.2737 11.418 27.1825 11.5838 27.0366 11.8416C27.1916 11.9429 27.3375 12.0533 27.4925 12.1546C27.5016 11.9705 27.5199 11.7863 27.5108 11.6114ZM27.3466 11.8508L27.2554 11.7863L27.3466 11.6114V11.6206C27.3558 11.6943 27.3558 11.7679 27.3466 11.8508ZM27.5108 11.6114C27.5017 11.4917 27.4469 11.3812 27.3922 11.2063C27.2737 11.418 27.1825 11.5838 27.0366 11.8416C27.1916 11.9429 27.3375 12.0533 27.4925 12.1546C27.5016 11.9705 27.5199 11.7863 27.5108 11.6114ZM27.3466 11.8508L27.2554 11.7863L27.3466 11.6114V11.6206C27.3558 11.6943 27.3558 11.7679 27.3466 11.8508ZM33.1916 13.858C33.2463 13.9593 33.301 14.0605 33.3558 14.1802C33.4196 14.0698 33.4925 13.9777 33.5564 13.8948C33.4561 14.0145 33.2646 13.9961 33.1916 13.858ZM32.3983 13.5173C32.5442 13.4621 32.6172 13.3332 32.7722 13.1398C32.6354 13.3148 32.4895 13.4621 32.3983 13.5173ZM32.3345 13.5357C32.2889 13.5265 32.2615 13.4989 32.2433 13.4713C32.2433 13.4805 32.2433 13.4805 32.2524 13.4897C32.2615 13.5173 32.298 13.5449 32.3345 13.5357ZM32.371 12.8728C32.2889 13.0662 32.1612 13.2135 32.2068 13.3976C32.1977 13.2503 32.298 13.0385 32.371 12.8728ZM27.5108 11.6114C27.5017 11.4917 27.4469 11.3812 27.3922 11.2063C27.2737 11.418 27.1825 11.5838 27.0366 11.8416C27.1916 11.9429 27.3375 12.0533 27.4925 12.1546C27.5016 11.9705 27.5199 11.7863 27.5108 11.6114ZM27.3466 11.8508L27.2554 11.7863L27.3466 11.6114V11.6206C27.3558 11.6943 27.3558 11.7679 27.3466 11.8508ZM27.5108 11.6114C27.5017 11.4917 27.4469 11.3812 27.3922 11.2063C27.2737 11.418 27.1825 11.5838 27.0366 11.8416C27.1916 11.9429 27.3375 12.0533 27.4925 12.1546C27.5016 11.9705 27.5199 11.7863 27.5108 11.6114ZM27.3466 11.8508L27.2554 11.7863L27.3466 11.6114V11.6206C27.3558 11.6943 27.3558 11.7679 27.3466 11.8508ZM33.1916 13.858C33.2463 13.9593 33.301 14.0605 33.3558 14.1802C33.4196 14.0698 33.4925 13.9777 33.5564 13.8948C33.4561 14.0145 33.2646 13.9961 33.1916 13.858ZM32.3983 13.5173C32.5442 13.4621 32.6172 13.3332 32.7722 13.1398C32.6354 13.3148 32.4895 13.4621 32.3983 13.5173ZM32.3345 13.5357C32.2889 13.5265 32.2615 13.4989 32.2433 13.4713C32.2433 13.4805 32.2433 13.4805 32.2524 13.4897C32.2615 13.5173 32.298 13.5449 32.3345 13.5357ZM32.371 12.8728C32.2889 13.0662 32.1612 13.2135 32.2068 13.3976C32.1977 13.2503 32.298 13.0385 32.371 12.8728ZM27.5108 11.6114C27.5017 11.4917 27.4469 11.3812 27.3922 11.2063C27.2737 11.418 27.1825 11.5838 27.0366 11.8416C27.1916 11.9429 27.3375 12.0533 27.4925 12.1546C27.5016 11.9705 27.5199 11.7863 27.5108 11.6114ZM27.3466 11.8508L27.2554 11.7863L27.3466 11.6114V11.6206C27.3558 11.6943 27.3558 11.7679 27.3466 11.8508ZM27.5108 11.6114C27.5017 11.4917 27.4469 11.3812 27.3922 11.2063C27.2737 11.418 27.1825 11.5838 27.0366 11.8416C27.1916 11.9429 27.3375 12.0533 27.4925 12.1546C27.5016 11.9705 27.5199 11.7863 27.5108 11.6114ZM27.3466 11.8508L27.2554 11.7863L27.3466 11.6114V11.6206C27.3558 11.6943 27.3558 11.7679 27.3466 11.8508ZM33.1916 13.858C33.2463 13.9593 33.301 14.0605 33.3558 14.1802C33.4196 14.0698 33.4925 13.9777 33.5564 13.8948C33.4561 14.0145 33.2646 13.9961 33.1916 13.858ZM32.3983 13.5173C32.5442 13.4621 32.6172 13.3332 32.7722 13.1398C32.6354 13.3148 32.4895 13.4621 32.3983 13.5173ZM32.2342 13.4713C32.2342 13.4805 32.2342 13.4805 32.2433 13.4897C32.2615 13.5173 32.298 13.5449 32.3345 13.5449C32.2889 13.5173 32.2615 13.4989 32.2342 13.4713ZM32.2159 13.3976C32.1977 13.2595 32.3071 13.0477 32.3801 12.8728C32.2889 13.0569 32.1703 13.2135 32.2159 13.3976ZM27.3922 11.2063C27.2737 11.418 27.1825 11.5838 27.0366 11.8416C27.1916 11.9429 27.3375 12.0533 27.4925 12.1546C27.5016 11.9705 27.529 11.7955 27.5108 11.6114C27.5017 11.4917 27.4469 11.372 27.3922 11.2063ZM27.3466 11.8508L27.2554 11.7863L27.3466 11.6114V11.6206C27.3558 11.6943 27.3558 11.7679 27.3466 11.8508ZM33.6111 12.7439C33.2099 12.3388 33.1096 11.8508 33.0822 11.2339C33.0457 10.396 32.6992 9.60418 32.0427 8.81235C31.8603 8.59137 31.6141 8.37039 31.3132 8.14942C31.1399 8.02051 30.912 7.92844 30.684 7.89161C30.3922 7.84558 30.1096 7.81795 29.7995 7.79954C29.7266 7.79033 29.6536 7.79033 29.5807 7.78112C29.5898 7.73509 29.5898 7.68905 29.5989 7.65222C29.6172 7.46807 29.6354 7.31155 29.6445 7.14581C29.6445 7.04453 29.6354 6.93404 29.6263 6.84197C29.608 6.70386 29.5898 6.56575 29.6263 6.45526C29.6992 6.17904 29.6536 5.96727 29.5533 5.80154C29.4895 5.69105 29.3892 5.59898 29.2889 5.51611C29.2615 5.49769 29.2342 5.47007 29.2068 5.45166C28.915 5.22148 28.4317 5.16623 28.0396 5.30434C27.8937 5.35959 27.7752 5.43324 27.6931 5.51611C27.6111 5.59898 27.5655 5.69105 27.5381 5.79233C27.5381 5.80154 27.5381 5.80154 27.5381 5.80154C27.3922 6.40922 27.3102 7.04453 27.7205 7.61539C27.9667 7.96527 27.9576 8.03893 27.602 8.36119C27.5381 8.41643 27.4652 8.48088 27.4013 8.53613C27.1004 8.79393 26.7904 9.05174 26.6445 9.40162C26.3983 9.99089 26.2251 10.617 26.07 11.2155C26.0153 11.4088 25.9697 11.6022 25.915 11.7955C25.7691 12.3111 25.9424 12.6426 26.453 12.8268C26.7448 12.9372 27.0275 13.0293 27.3375 13.1214C27.4196 13.149 27.5016 13.1766 27.5746 13.1951C27.5381 13.2687 27.5017 13.3516 27.4652 13.4252C27.3193 13.7199 27.1734 14.0329 27.064 14.3552C26.8998 14.8616 26.763 15.3772 26.6263 15.8836C26.5716 16.077 26.526 16.2611 26.4713 16.4545C26.4348 16.5742 26.4165 16.6939 26.3983 16.8136C26.3618 17.0437 26.3162 17.2647 26.2159 17.4212C25.7965 18.0013 25.6232 18.655 25.6962 19.3732C25.76 19.9993 25.6597 20.561 25.3679 21.1686C25.3588 21.1778 25.3588 21.1871 25.3497 21.2055C25.3406 21.2147 25.3406 21.2331 25.3314 21.2423C25.2676 21.3712 25.1764 21.5369 25.2311 21.7119C25.2676 21.8224 25.3679 21.9144 25.5138 21.9697C25.6323 22.0157 25.76 22.0433 25.8877 22.0433C26.0153 22.0433 26.1339 22.0157 26.2433 21.9697C26.4165 21.896 26.5351 21.7671 26.5989 21.6106L26.608 21.5922C26.6719 21.4172 26.7448 21.2331 26.7904 21.0489C26.8451 21.095 26.8998 21.1318 26.9637 21.141C27.1187 21.1778 27.2919 21.1226 27.4287 20.9661C27.4743 20.9108 27.5199 20.8556 27.5655 20.8003C27.6475 20.6806 27.7296 20.5517 27.8026 20.432C27.8664 20.3216 27.9211 20.2295 27.9849 20.1282C28.0396 20.0453 28.0944 19.9625 28.1491 19.8704C28.2767 19.6586 28.4044 19.4469 28.5776 19.318C29.3892 18.6919 30.064 17.9921 30.6293 17.1818C30.7114 17.0714 30.7934 16.9609 30.8937 16.8504C31.1764 16.5097 31.4773 16.1506 31.4773 15.5982C31.4773 15.4601 31.5138 15.3128 31.5412 15.1654C31.5594 15.0826 31.5776 14.9905 31.5959 14.9076C31.6141 14.7695 31.6506 14.6406 31.6779 14.5025C31.7874 13.9961 31.8968 13.4713 31.6871 12.882C31.5047 12.348 31.4135 11.7679 31.3406 11.1971C31.3132 10.9945 31.2858 10.7919 31.2494 10.5986C31.2311 10.4697 31.2311 10.3316 31.2402 10.175C31.2402 10.175 31.2402 10.175 31.2402 10.1658C31.2494 10.175 31.2585 10.175 31.2767 10.1842C31.4226 10.2487 31.5412 10.3131 31.5868 10.3868C31.8147 10.7459 31.9697 11.1694 32.1065 11.5285C32.1247 11.5746 32.143 11.6206 32.1612 11.6666C32.298 12.0257 32.4257 12.3664 32.2889 12.7347C32.2159 12.928 32.1977 13.1398 32.1703 13.3424C32.1612 13.4252 32.1521 13.5081 32.143 13.6002L32.1247 13.7107L32.4348 13.8856L32.8178 13.3884L33.3831 14.4933L33.529 14.2447C33.5746 14.1618 33.6293 14.0974 33.6749 14.0329C33.7843 13.8764 33.8846 13.7475 33.8846 13.5818C33.8573 13.4529 33.8482 12.9925 33.6111 12.7439ZM33.6658 13.7107C33.6384 13.7659 33.602 13.8212 33.5655 13.8764L33.5564 13.8856C33.4652 14.0145 33.2646 13.9961 33.2007 13.858C33.064 13.591 32.9454 13.3608 32.8086 13.0938C32.7995 13.1122 32.7904 13.1214 32.7722 13.1398C32.6354 13.3148 32.4895 13.4621 32.3983 13.5173C32.3709 13.5265 32.3527 13.5357 32.3345 13.5357C32.2889 13.5265 32.2615 13.4989 32.2433 13.4713V13.4621C32.2342 13.4437 32.2251 13.4252 32.2251 13.3976V13.3884C32.2068 13.2503 32.3162 13.0385 32.3892 12.8636C32.3983 12.836 32.4074 12.8176 32.4165 12.7899C32.5989 12.3019 32.3892 11.8876 32.2342 11.4641C32.0883 11.0589 31.9241 10.6538 31.7053 10.2855C31.5959 10.1106 31.3314 10.0461 31.067 9.88961C31.067 10.175 31.0396 10.396 31.0761 10.6078C31.2038 11.3812 31.2676 12.1822 31.5229 12.9188C31.7691 13.6186 31.532 14.2171 31.4226 14.8616C31.3861 15.101 31.3041 15.3404 31.295 15.5798C31.295 16.2335 30.8026 16.6018 30.4743 17.0714C29.9089 17.8816 29.2342 18.5722 28.4591 19.1706C28.1947 19.3732 28.0305 19.7231 27.839 20.0177C27.6658 20.2755 27.529 20.5702 27.3284 20.8003L27.301 20.8372C27.146 21.0121 26.9637 21.0121 26.8542 20.8648C26.8178 20.8188 26.7904 20.7543 26.7722 20.6714C26.7448 20.561 26.7083 20.4136 26.7539 20.3308C27.064 19.7783 27.0184 19.0049 27.7387 18.6826C27.9211 18.5998 28.0396 18.3512 28.1673 18.167C28.532 17.6422 28.9333 17.1358 29.2342 16.5742C29.3618 16.3348 29.2798 15.9849 29.298 15.6718C29.1977 15.681 29.1521 15.6718 29.143 15.681C28.8694 16.2887 28.3588 16.7031 27.9393 17.1818C27.2463 17.9737 27.0548 19.0325 26.6354 19.9717C26.6172 20.0177 26.5989 20.0914 26.6172 20.1374C26.6992 20.3952 26.6992 20.653 26.6445 20.8924C26.5989 21.1042 26.5168 21.316 26.4439 21.5369C26.3345 21.8224 25.9424 21.9513 25.5685 21.8039C25.2129 21.6658 25.4226 21.408 25.5047 21.2331C25.5229 21.1963 25.532 21.1686 25.5503 21.1318C25.8056 20.561 25.915 19.9901 25.8512 19.3548C25.7874 18.7011 25.9333 18.0842 26.3436 17.5133C26.5351 17.2463 26.5351 16.832 26.6263 16.4913C26.8178 15.7915 26.9819 15.0826 27.2099 14.4012C27.3558 13.9501 27.602 13.5265 27.7934 13.0846C27.3375 12.9372 26.9089 12.8083 26.4986 12.661C26.07 12.5045 25.9424 12.2559 26.0609 11.8324C26.2889 11.0313 26.4621 10.2119 26.7904 9.45686C26.9545 9.07016 27.374 8.77552 27.7023 8.47167C28.1126 8.10338 28.1582 7.94686 27.8482 7.5049C27.4652 6.97087 27.5564 6.3724 27.6931 5.81075C27.6931 5.80154 27.7023 5.79233 27.7023 5.78312C27.7387 5.66343 27.839 5.56215 27.9576 5.4977C28.2494 5.34117 28.6962 5.32276 29.0062 5.4977C29.0427 5.51611 29.07 5.53452 29.1065 5.56215C29.1977 5.6358 29.2798 5.70946 29.3436 5.78312C29.4713 5.93965 29.5351 6.133 29.4621 6.40002C29.3983 6.62099 29.4804 6.88801 29.4804 7.1274C29.4713 7.35758 29.4348 7.58777 29.4074 7.91923C29.8451 7.96527 30.2554 7.98368 30.6567 8.04814C30.8573 8.08496 31.0579 8.15862 31.222 8.27832C31.4773 8.46247 31.7235 8.67424 31.9241 8.91363C32.4804 9.58577 32.8816 10.3408 32.9272 11.2339C32.9545 11.8324 33.0548 12.3848 33.5017 12.8544C33.6567 13.0109 33.7114 13.3332 33.7023 13.5818C33.7023 13.6094 33.6931 13.6462 33.684 13.6738C33.6749 13.6923 33.6658 13.7015 33.6658 13.7107ZM27.219 18.8576C27.4287 18.2867 27.6475 17.7527 28.0488 17.3015C28.1582 17.1726 28.2767 17.0529 28.3953 16.9332C28.6597 16.657 28.9241 16.3808 29.1339 16.0401C29.143 16.2243 29.143 16.39 29.0883 16.5005C28.8603 16.9148 28.5776 17.3108 28.3041 17.6883C28.2129 17.8172 28.1217 17.9461 28.0305 18.075C27.9941 18.121 27.9667 18.1762 27.9302 18.2315C27.8482 18.3604 27.757 18.4985 27.6658 18.5445C27.4743 18.6274 27.3284 18.7379 27.219 18.8576ZM27.3922 11.2063C27.2737 11.418 27.1825 11.5838 27.0366 11.8416C27.1916 11.9429 27.3375 12.0533 27.4925 12.1546C27.5016 11.9705 27.529 11.7955 27.5108 11.6114C27.5017 11.4917 27.4469 11.372 27.3922 11.2063ZM27.3466 11.8508L27.2554 11.7863L27.3466 11.6114V11.6206C27.3558 11.6943 27.3558 11.7679 27.3466 11.8508ZM27.5108 11.6114C27.5017 11.4917 27.4469 11.3812 27.3922 11.2063C27.2737 11.418 27.1825 11.5838 27.0366 11.8416C27.1916 11.9429 27.3375 12.0533 27.4925 12.1546C27.5016 11.9705 27.5199 11.7863 27.5108 11.6114ZM27.3466 11.8508L27.2554 11.7863L27.3466 11.6114V11.6206C27.3558 11.6943 27.3558 11.7679 27.3466 11.8508ZM32.371 12.8728C32.2889 13.0662 32.1612 13.2135 32.2068 13.3976C32.1977 13.2503 32.298 13.0385 32.371 12.8728ZM32.3345 13.5357C32.2889 13.5265 32.2615 13.4989 32.2433 13.4713C32.2433 13.4805 32.2433 13.4805 32.2524 13.4897C32.2615 13.5173 32.298 13.5449 32.3345 13.5357ZM32.3983 13.5173C32.5442 13.4621 32.6172 13.3332 32.7722 13.1398C32.6354 13.3148 32.4895 13.4621 32.3983 13.5173ZM33.1916 13.858C33.2463 13.9593 33.301 14.0605 33.3558 14.1802C33.4196 14.0698 33.4925 13.9777 33.5564 13.8948C33.4561 14.0145 33.2646 13.9961 33.1916 13.858ZM27.5108 11.6114C27.5017 11.4917 27.4469 11.3812 27.3922 11.2063C27.2737 11.418 27.1825 11.5838 27.0366 11.8416C27.1916 11.9429 27.3375 12.0533 27.4925 12.1546C27.5016 11.9705 27.5199 11.7863 27.5108 11.6114ZM27.3466 11.8508L27.2554 11.7863L27.3466 11.6114V11.6206C27.3558 11.6943 27.3558 11.7679 27.3466 11.8508ZM27.5108 11.6114C27.5017 11.4917 27.4469 11.3812 27.3922 11.2063C27.2737 11.418 27.1825 11.5838 27.0366 11.8416C27.1916 11.9429 27.3375 12.0533 27.4925 12.1546C27.5016 11.9705 27.5199 11.7863 27.5108 11.6114ZM27.3466 11.8508L27.2554 11.7863L27.3466 11.6114V11.6206C27.3558 11.6943 27.3558 11.7679 27.3466 11.8508ZM32.371 12.8728C32.2889 13.0662 32.1612 13.2135 32.2068 13.3976C32.1977 13.2503 32.298 13.0385 32.371 12.8728ZM32.3345 13.5357C32.2889 13.5265 32.2615 13.4989 32.2433 13.4713C32.2433 13.4805 32.2433 13.4805 32.2524 13.4897C32.2615 13.5173 32.298 13.5449 32.3345 13.5357ZM32.3983 13.5173C32.5442 13.4621 32.6172 13.3332 32.7722 13.1398C32.6354 13.3148 32.4895 13.4621 32.3983 13.5173ZM33.1916 13.858C33.2463 13.9593 33.301 14.0605 33.3558 14.1802C33.4196 14.0698 33.4925 13.9777 33.5564 13.8948C33.4561 14.0145 33.2646 13.9961 33.1916 13.858ZM27.5108 11.6114C27.5017 11.4917 27.4469 11.3812 27.3922 11.2063C27.2737 11.418 27.1825 11.5838 27.0366 11.8416C27.1916 11.9429 27.3375 12.0533 27.4925 12.1546C27.5016 11.9705 27.5199 11.7863 27.5108 11.6114ZM27.3466 11.8508L27.2554 11.7863L27.3466 11.6114V11.6206C27.3558 11.6943 27.3558 11.7679 27.3466 11.8508ZM27.5108 11.6114C27.5017 11.4917 27.4469 11.3812 27.3922 11.2063C27.2737 11.418 27.1825 11.5838 27.0366 11.8416C27.1916 11.9429 27.3375 12.0533 27.4925 12.1546C27.5016 11.9705 27.5199 11.7863 27.5108 11.6114ZM27.3466 11.8508L27.2554 11.7863L27.3466 11.6114V11.6206C27.3558 11.6943 27.3558 11.7679 27.3466 11.8508ZM32.371 12.8728C32.2889 13.0662 32.1612 13.2135 32.2068 13.3976C32.1977 13.2503 32.298 13.0385 32.371 12.8728ZM32.3345 13.5357C32.2889 13.5265 32.2615 13.4989 32.2433 13.4713C32.2433 13.4805 32.2433 13.4805 32.2524 13.4897C32.2615 13.5173 32.298 13.5449 32.3345 13.5357ZM32.3983 13.5173C32.5442 13.4621 32.6172 13.3332 32.7722 13.1398C32.6354 13.3148 32.4895 13.4621 32.3983 13.5173ZM33.1916 13.858C33.2463 13.9593 33.301 14.0605 33.3558 14.1802C33.4196 14.0698 33.4925 13.9777 33.5564 13.8948C33.4561 14.0145 33.2646 13.9961 33.1916 13.858ZM27.5108 11.6114C27.5017 11.4917 27.4469 11.3812 27.3922 11.2063C27.2737 11.418 27.1825 11.5838 27.0366 11.8416C27.1916 11.9429 27.3375 12.0533 27.4925 12.1546C27.5016 11.9705 27.5199 11.7863 27.5108 11.6114ZM27.3466 11.8508L27.2554 11.7863L27.3466 11.6114V11.6206C27.3558 11.6943 27.3558 11.7679 27.3466 11.8508ZM27.5108 11.6114C27.5017 11.4917 27.4469 11.3812 27.3922 11.2063C27.2737 11.418 27.1825 11.5838 27.0366 11.8416C27.1916 11.9429 27.3375 12.0533 27.4925 12.1546C27.5016 11.9705 27.5199 11.7863 27.5108 11.6114ZM27.3466 11.8508L27.2554 11.7863L27.3466 11.6114V11.6206C27.3558 11.6943 27.3558 11.7679 27.3466 11.8508ZM32.371 12.8728C32.2889 13.0662 32.1612 13.2135 32.2068 13.3976C32.1977 13.2503 32.298 13.0385 32.371 12.8728ZM32.3345 13.5357C32.2889 13.5265 32.2615 13.4989 32.2433 13.4713C32.2433 13.4805 32.2433 13.4805 32.2524 13.4897C32.2615 13.5173 32.298 13.5449 32.3345 13.5357ZM32.3983 13.5173C32.5442 13.4621 32.6172 13.3332 32.7722 13.1398C32.6354 13.3148 32.4895 13.4621 32.3983 13.5173ZM33.1916 13.858C33.2463 13.9593 33.301 14.0605 33.3558 14.1802C33.4196 14.0698 33.4925 13.9777 33.5564 13.8948C33.4561 14.0145 33.2646 13.9961 33.1916 13.858ZM27.5108 11.6114C27.5017 11.4917 27.4469 11.3812 27.3922 11.2063C27.2737 11.418 27.1825 11.5838 27.0366 11.8416C27.1916 11.9429 27.3375 12.0533 27.4925 12.1546C27.5016 11.9705 27.5199 11.7863 27.5108 11.6114ZM27.3466 11.8508L27.2554 11.7863L27.3466 11.6114V11.6206C27.3558 11.6943 27.3558 11.7679 27.3466 11.8508ZM27.5108 11.6114C27.5017 11.4917 27.4469 11.3812 27.3922 11.2063C27.2737 11.418 27.1825 11.5838 27.0366 11.8416C27.1916 11.9429 27.3375 12.0533 27.4925 12.1546C27.5016 11.9705 27.5199 11.7863 27.5108 11.6114ZM27.3466 11.8508L27.2554 11.7863L27.3466 11.6114V11.6206C27.3558 11.6943 27.3558 11.7679 27.3466 11.8508ZM32.371 12.8728C32.2889 13.0662 32.1612 13.2135 32.2068 13.3976C32.1977 13.2503 32.298 13.0385 32.371 12.8728ZM32.3345 13.5357C32.2889 13.5265 32.2615 13.4989 32.2433 13.4713C32.2433 13.4805 32.2433 13.4805 32.2524 13.4897C32.2615 13.5173 32.298 13.5449 32.3345 13.5357ZM32.3983 13.5173C32.5442 13.4621 32.6172 13.3332 32.7722 13.1398C32.6354 13.3148 32.4895 13.4621 32.3983 13.5173ZM33.1916 13.858C33.2463 13.9593 33.301 14.0605 33.3558 14.1802C33.4196 14.0698 33.4925 13.9777 33.5564 13.8948C33.4561 14.0145 33.2646 13.9961 33.1916 13.858ZM27.5108 11.6114C27.5017 11.4917 27.4469 11.3812 27.3922 11.2063C27.2737 11.418 27.1825 11.5838 27.0366 11.8416C27.1916 11.9429 27.3375 12.0533 27.4925 12.1546C27.5016 11.9705 27.5199 11.7863 27.5108 11.6114ZM27.3466 11.8508L27.2554 11.7863L27.3466 11.6114V11.6206C27.3558 11.6943 27.3558 11.7679 27.3466 11.8508ZM27.5108 11.6114C27.5017 11.4917 27.4469 11.3812 27.3922 11.2063C27.2737 11.418 27.1825 11.5838 27.0366 11.8416C27.1916 11.9429 27.3375 12.0533 27.4925 12.1546C27.5016 11.9705 27.5199 11.7863 27.5108 11.6114ZM27.3466 11.8508L27.2554 11.7863L27.3466 11.6114V11.6206C27.3558 11.6943 27.3558 11.7679 27.3466 11.8508ZM32.371 12.8728C32.2889 13.0662 32.1612 13.2135 32.2068 13.3976C32.1977 13.2503 32.298 13.0385 32.371 12.8728ZM32.3345 13.5357C32.2889 13.5265 32.2615 13.4989 32.2433 13.4713C32.2433 13.4805 32.2433 13.4805 32.2524 13.4897C32.2615 13.5173 32.298 13.5449 32.3345 13.5357ZM32.3983 13.5173C32.5442 13.4621 32.6172 13.3332 32.7722 13.1398C32.6354 13.3148 32.4895 13.4621 32.3983 13.5173ZM33.1916 13.858C33.2463 13.9593 33.301 14.0605 33.3558 14.1802C33.4196 14.0698 33.4925 13.9777 33.5564 13.8948C33.4561 14.0145 33.2646 13.9961 33.1916 13.858Z" fill="white"/>
<path d="M30.5744 19.4925C30.31 19.2254 29.9635 19.0781 29.5805 19.0781C28.8054 19.0781 28.2036 19.7042 28.2036 20.4869C28.2036 20.5697 28.2127 20.6526 28.231 20.7262C28.2401 20.7815 28.2583 20.8367 28.2766 20.892C28.4498 21.4536 28.9787 21.8587 29.5988 21.8587H29.617C30.2462 21.8495 30.7933 21.38 30.9392 20.7907C30.9483 20.7723 30.9483 20.7631 30.9483 20.7447C30.9665 20.6526 30.9757 20.5697 30.9757 20.4776C30.9848 20.1093 30.8389 19.7595 30.5744 19.4925ZM29.617 21.7022C29.079 21.7114 28.6139 21.3708 28.4407 20.892C28.4225 20.8367 28.4042 20.7815 28.3951 20.7262C28.3769 20.6526 28.3677 20.5697 28.3677 20.4869C28.3677 19.7963 28.8966 19.2439 29.5805 19.2439C30.2553 19.2439 30.8115 19.7963 30.8115 20.4776C30.8115 20.5697 30.8024 20.6526 30.7842 20.7355C30.7842 20.7631 30.775 20.7815 30.7659 20.8091C30.6291 21.3155 30.1641 21.7022 29.617 21.7022Z" fill="white"/>
<mask id="mask4_269_11307" style="mask-type:luminance" maskUnits="userSpaceOnUse" x="6" y="0" width="47" height="46">
<path d="M7.29437 23C7.29437 10.6437 17.2518 0.598479 29.4798 0.598479C41.7077 0.598479 51.6652 10.6529 51.6652 23C51.6652 35.3563 41.7077 45.4015 29.4798 45.4015C17.2518 45.4015 7.29437 35.3563 7.29437 23ZM6.70166 23C6.70166 35.6878 16.9235 46 29.4798 46C42.0451 46 52.2579 35.6785 52.2579 23C52.2579 10.3215 42.036 0 29.4798 0C16.9144 0 6.70166 10.3215 6.70166 23Z" fill="white"/>
</mask>
<g mask="url(#mask4_269_11307)">
<path d="M6.70239 46.5517L6.15527 0.0084967L52.2586 -0.543945L52.8057 45.9993L6.70239 46.5517Z" fill="url(#paint4_linear_269_11307)"/>
</g>
<path d="M60 31.4246H51.8024V29.8594H7.92401V31.5627H0L3.90274 35.5311L0 39.4995H8.62614V37.8422H51.0912V39.5916H60L55.9514 35.5035L60 31.4246Z" fill="white"/>
<mask id="mask5_269_11307" style="mask-type:luminance" maskUnits="userSpaceOnUse" x="1" y="32" width="8" height="7">
<path d="M1.38574 32.1387L4.71401 35.527L1.38574 38.9061H8.0514V32.1387H1.38574Z" fill="white"/>
</mask>
<g mask="url(#mask5_269_11307)">
<path d="M8.04228 32.1387H1.38574V38.9061H8.04228V32.1387Z" fill="url(#paint5_linear_269_11307)"/>
</g>
<mask id="mask6_269_11307" style="mask-type:luminance" maskUnits="userSpaceOnUse" x="51" y="32" width="8" height="8">
<path d="M51.6738 32.0029V39.0005H58.6039L55.1389 35.5017L58.6039 32.0029H51.6738Z" fill="white"/>
</mask>
<g mask="url(#mask6_269_11307)">
<path d="M58.6039 32.0029H51.6738V39.0097H58.6039V32.0029Z" fill="url(#paint6_linear_269_11307)"/>
</g>
<path d="M51.228 30.4502H8.49854V37.2636H51.228V30.4502Z" fill="url(#paint7_linear_269_11307)"/>
<path d="M19.4772 34.0375H20.7902V33.5495H19.4772V32.905H21.7203V32.417H18.8115V35.2805H21.7477V34.7465H19.4772V34.0375Z" fill="white"/>
<path d="M25.0122 35.2805H25.6779V34.0375H26.9909V33.5495H25.6779V32.905H27.921V32.417H25.0122V35.2805Z" fill="white"/>
<path d="M32.2069 32.5643C32.1066 32.4722 31.9242 32.417 31.6506 32.417H29.5625C29.2889 32.417 29.0974 32.463 29.0062 32.5643C28.9059 32.6564 28.8604 32.8405 28.8604 33.0983V34.6084C28.8604 34.8754 28.9059 35.0503 29.0062 35.1424C29.1066 35.2345 29.2889 35.2805 29.5625 35.2805H31.6415C31.9151 35.2805 32.1066 35.2345 32.1977 35.1424C32.298 35.0503 32.3436 34.8662 32.3436 34.6084V33.0983C32.3528 32.8313 32.298 32.6564 32.2069 32.5643ZM31.6871 34.7465H29.5078V32.9326H31.6871V34.7465Z" fill="white"/>
<path d="M36.5926 32.5643C36.4923 32.4722 36.3099 32.417 36.0364 32.417H33.9482C33.6747 32.417 33.4832 32.463 33.392 32.5643C33.2917 32.6564 33.2461 32.8405 33.2461 33.0983V34.6084C33.2461 34.8754 33.2917 35.0503 33.392 35.1424C33.4923 35.2345 33.6747 35.2805 33.9482 35.2805H36.0364C36.3099 35.2805 36.5014 35.2345 36.5926 35.1424C36.6929 35.0503 36.7385 34.8662 36.7385 34.6084V33.0983C36.7385 32.8313 36.6838 32.6564 36.5926 32.5643ZM36.082 34.7465H33.9026V32.9326H36.082V34.7465Z" fill="white"/>
<path d="M37.6411 32.9326H38.9451V35.2805H39.6016V32.9326H40.9147V32.417H37.6411V32.9326Z" fill="white"/>
<path d="M23.8265 33.4189H22.8782C22.7688 33.4189 22.7049 33.4282 22.6776 33.4558C22.6502 33.4834 22.6411 33.5386 22.6411 33.6215V34.0727C22.6411 34.1555 22.6502 34.2016 22.6685 34.2384C22.6867 34.266 22.7232 34.2844 22.7688 34.2844H23.7171C23.8265 34.2844 23.8995 34.2752 23.9177 34.2476C23.9359 34.22 23.9542 34.1647 23.9542 34.0819V33.6307C23.9542 33.5478 23.9451 33.4926 23.9268 33.465C23.9086 33.4374 23.8721 33.4189 23.8265 33.4189Z" fill="white"/>
<defs>
<linearGradient id="paint0_linear_269_11307" x1="29.4212" y1="1.59668" x2="29.4212" y2="44.8437" gradientUnits="userSpaceOnUse">
<stop stop-color="#4A00E8"/>
<stop offset="1" stop-color="#3B3EFF"/>
</linearGradient>
<linearGradient id="paint1_linear_269_11307" x1="29.4803" y1="2.2373" x2="29.4803" y2="43.7718" gradientUnits="userSpaceOnUse">
<stop stop-color="#4A00E8"/>
<stop offset="1" stop-color="#3B3EFF"/>
</linearGradient>
<linearGradient id="paint2_linear_269_11307" x1="29.5025" y1="5.24219" x2="29.5025" y2="22.0364" gradientUnits="userSpaceOnUse">
<stop stop-color="#4A00E8"/>
<stop offset="1" stop-color="#3B3EFF"/>
</linearGradient>
<linearGradient id="paint3_linear_269_11307" x1="29.5942" y1="19.1094" x2="29.5942" y2="21.844" gradientUnits="userSpaceOnUse">
<stop stop-color="#4A00E8"/>
<stop offset="1" stop-color="#3B3EFF"/>
</linearGradient>
<linearGradient id="paint4_linear_269_11307" x1="29.4805" y1="-0.543945" x2="29.4805" y2="46.5517" gradientUnits="userSpaceOnUse">
<stop stop-color="#4A00E8"/>
<stop offset="1" stop-color="#3B3EFF"/>
</linearGradient>
<linearGradient id="paint5_linear_269_11307" x1="4.71401" y1="32.1387" x2="4.71401" y2="38.9061" gradientUnits="userSpaceOnUse">
<stop stop-color="#4A00E8"/>
<stop offset="1" stop-color="#3B3EFF"/>
</linearGradient>
<linearGradient id="paint6_linear_269_11307" x1="55.1389" y1="32.0029" x2="55.1389" y2="39.0097" gradientUnits="userSpaceOnUse">
<stop stop-color="#4A00E8"/>
<stop offset="1" stop-color="#3B3EFF"/>
</linearGradient>
<linearGradient id="paint7_linear_269_11307" x1="29.8633" y1="30.4502" x2="29.8633" y2="37.2636" gradientUnits="userSpaceOnUse">
<stop stop-color="#4A00E8"/>
<stop offset="1" stop-color="#3B3EFF"/>
</linearGradient>
</defs>
</svg>
