<svg width="34" height="34" viewBox="0 0 34 34" fill="none" xmlns="http://www.w3.org/2000/svg">
<path d="M32.0002 16.9996C31.5581 16.9996 31.1342 17.1752 30.8216 17.4877C30.5091 17.8003 30.3335 18.2242 30.3335 18.6662V28.6662C30.3335 29.1083 30.1579 29.5322 29.8453 29.8447C29.5328 30.1573 29.1089 30.3329 28.6668 30.3329H5.3335C4.89147 30.3329 4.46755 30.1573 4.15498 29.8447C3.84242 29.5322 3.66683 29.1083 3.66683 28.6662V5.33291C3.66683 4.89088 3.84242 4.46696 4.15498 4.15439C4.46755 3.84183 4.89147 3.66624 5.3335 3.66624H15.3335C15.7755 3.66624 16.1994 3.49064 16.512 3.17808C16.8246 2.86552 17.0002 2.4416 17.0002 1.99957C17.0002 1.55755 16.8246 1.13362 16.512 0.821061C16.1994 0.508501 15.7755 0.332906 15.3335 0.332906H5.3335C4.00741 0.332906 2.73564 0.85969 1.79796 1.79737C0.86028 2.73505 0.333496 4.00682 0.333496 5.33291V28.6662C0.333496 29.9923 0.86028 31.2641 1.79796 32.2018C2.73564 33.1395 4.00741 33.6662 5.3335 33.6662H28.6668C29.9929 33.6662 31.2647 33.1395 32.2024 32.2018C33.14 31.2641 33.6668 29.9923 33.6668 28.6662V18.6662C33.6668 18.2242 33.4912 17.8003 33.1787 17.4877C32.8661 17.1752 32.4422 16.9996 32.0002 16.9996ZM7.00016 18.2662V25.3329C7.00016 25.7749 7.17576 26.1989 7.48832 26.5114C7.80088 26.824 8.2248 26.9996 8.66683 26.9996H15.7335C15.9528 27.0008 16.1703 26.9588 16.3733 26.8759C16.5764 26.7929 16.7611 26.6707 16.9168 26.5162L28.4502 14.9662L33.1835 10.3329C33.3397 10.178 33.4637 9.99363 33.5483 9.79053C33.6329 9.58743 33.6765 9.36959 33.6765 9.14957C33.6765 8.92955 33.6329 8.71171 33.5483 8.50861C33.4637 8.30551 33.3397 8.12118 33.1835 7.96624L26.1168 0.816239C25.9619 0.660025 25.7776 0.536035 25.5745 0.45142C25.3714 0.366806 25.1535 0.323242 24.9335 0.323242C24.7135 0.323242 24.4956 0.366806 24.2925 0.45142C24.0894 0.536035 23.9051 0.660025 23.7502 0.816239L19.0502 5.53291L7.48349 17.0829C7.32903 17.2386 7.20682 17.4233 7.12388 17.6264C7.04094 17.8295 6.99889 18.0469 7.00016 18.2662ZM24.9335 4.34957L29.6502 9.06624L27.2835 11.4329L22.5668 6.71624L24.9335 4.34957ZM10.3335 18.9496L20.2168 9.06624L24.9335 13.7829L15.0502 23.6662H10.3335V18.9496Z" fill="#D1CBD8"/>
</svg>
