<svg width="23" height="23" viewBox="0 0 23 23" fill="none" xmlns="http://www.w3.org/2000/svg">
<path d="M14.214 14.0645C13.4452 14.6843 12.4875 15.0223 11.5 15.0223C10.5125 15.0223 9.55476 14.6843 8.786 14.0645C8.55115 13.8693 8.24838 13.7754 7.94429 13.8034C7.6402 13.8315 7.3597 13.9791 7.1645 14.214C6.9693 14.4488 6.87539 14.7516 6.90343 15.0557C6.93147 15.3598 7.07915 15.6403 7.314 15.8355C8.48854 16.816 9.97 17.3531 11.5 17.3531C13.03 17.3531 14.5115 16.816 15.686 15.8355C15.9209 15.6403 16.0685 15.3598 16.0966 15.0557C16.1246 14.7516 16.0307 14.4488 15.8355 14.214C15.7388 14.0977 15.6202 14.0016 15.4864 13.9312C15.3526 13.8607 15.2063 13.8173 15.0557 13.8034C14.7516 13.7754 14.4489 13.8693 14.214 14.0645ZM8.05 10.35C8.27745 10.35 8.49979 10.2826 8.68891 10.1562C8.87803 10.0298 9.02542 9.85022 9.11246 9.64008C9.19951 9.42995 9.22228 9.19872 9.17791 8.97564C9.13353 8.75257 9.02401 8.54766 8.86318 8.38683C8.70235 8.226 8.49744 8.11647 8.27436 8.07209C8.05128 8.02772 7.82005 8.0505 7.60992 8.13754C7.39978 8.22458 7.22018 8.37198 7.09381 8.56109C6.96745 8.75021 6.9 8.97255 6.9 9.2C6.9 9.505 7.02116 9.7975 7.23683 10.0132C7.4525 10.2288 7.745 10.35 8.05 10.35ZM14.95 8.05C14.7226 8.05 14.5002 8.11744 14.3111 8.24381C14.122 8.37017 13.9746 8.54978 13.8875 8.75991C13.8005 8.97005 13.7777 9.20127 13.8221 9.42435C13.8665 9.64743 13.976 9.85234 14.1368 10.0132C14.2977 10.174 14.5026 10.2835 14.7256 10.3279C14.9487 10.3723 15.18 10.3495 15.3901 10.2625C15.6002 10.1754 15.7798 10.028 15.9062 9.8389C16.0326 9.64979 16.1 9.42745 16.1 9.2C16.1 8.895 15.9788 8.60249 15.7632 8.38683C15.5475 8.17116 15.255 8.05 14.95 8.05ZM11.5 0C9.22552 0 7.00211 0.674463 5.11095 1.9381C3.21978 3.20174 1.7458 4.99779 0.87539 7.09914C0.00498274 9.20049 -0.222756 11.5128 0.220974 13.7435C0.664704 15.9743 1.75997 18.0234 3.36828 19.6317C4.97658 21.24 7.02568 22.3353 9.25647 22.779C11.4872 23.2228 13.7995 22.995 15.9009 22.1246C18.0022 21.2542 19.7983 19.7802 21.0619 17.8891C22.3255 15.9979 23 13.7745 23 11.5C23 9.9898 22.7025 8.49438 22.1246 7.09914C21.5467 5.70389 20.6996 4.43614 19.6317 3.36827C18.5639 2.3004 17.2961 1.45331 15.9009 0.875385C14.5056 0.297456 13.0102 0 11.5 0ZM11.5 20.7C9.68042 20.7 7.90169 20.1604 6.38876 19.1495C4.87583 18.1386 3.69664 16.7018 3.00031 15.0207C2.30399 13.3396 2.1218 11.4898 2.47678 9.70517C2.83176 7.92054 3.70798 6.28126 4.99462 4.99462C6.28126 3.70797 7.92055 2.83176 9.70517 2.47678C11.4898 2.12179 13.3396 2.30398 15.0207 3.00031C16.7018 3.69663 18.1386 4.87582 19.1495 6.38875C20.1604 7.90168 20.7 9.68041 20.7 11.5C20.7 13.94 19.7307 16.28 18.0054 18.0054C16.2801 19.7307 13.94 20.7 11.5 20.7Z" fill="#D1CBD8"/>
</svg>
