<svg width="24" height="24" viewBox="0 0 24 24" fill="none" xmlns="http://www.w3.org/2000/svg">
<path d="M14.8806 14.7311C14.1119 15.3509 13.1541 15.6889 12.1666 15.6889C11.1791 15.6889 10.2214 15.3509 9.45263 14.7311C9.21778 14.5359 8.91501 14.442 8.61092 14.47C8.30683 14.4981 8.02633 14.6458 7.83113 14.8806C7.63593 15.1155 7.54202 15.4182 7.57006 15.7223C7.59809 16.0264 7.74578 16.3069 7.98063 16.5021C9.15517 17.4826 10.6366 18.0197 12.1666 18.0197C13.6966 18.0197 15.1781 17.4826 16.3526 16.5021C16.5875 16.3069 16.7352 16.0264 16.7632 15.7223C16.7912 15.4182 16.6973 15.1155 16.5021 14.8806C16.4055 14.7643 16.2869 14.6682 16.1531 14.5978C16.0193 14.5273 15.8729 14.4839 15.7223 14.47C15.4183 14.442 15.1155 14.5359 14.8806 14.7311V14.7311ZM8.71663 11.0166C8.94408 11.0166 9.16642 10.9492 9.35554 10.8228C9.54465 10.6964 9.69205 10.5168 9.77909 10.3067C9.86613 10.0966 9.8889 9.86535 9.84453 9.64227C9.80016 9.41919 9.69063 9.21428 9.5298 9.05345C9.36897 8.89262 9.16406 8.78309 8.94098 8.73872C8.7179 8.69435 8.48668 8.71712 8.27654 8.80416C8.06641 8.8912 7.8868 9.0386 7.76044 9.22772C7.63408 9.41683 7.56663 9.63917 7.56663 9.86662C7.56663 10.1716 7.68779 10.4641 7.90346 10.6798C8.11912 10.8955 8.41163 11.0166 8.71663 11.0166ZM15.6166 8.71662C15.3892 8.71662 15.1668 8.78407 14.9777 8.91043C14.7886 9.0368 14.6412 9.2164 14.5542 9.42654C14.4671 9.63667 14.4444 9.8679 14.4887 10.091C14.5331 10.3141 14.6426 10.519 14.8035 10.6798C14.9643 10.8406 15.1692 10.9502 15.3923 10.9945C15.6154 11.0389 15.8466 11.0161 16.0567 10.9291C16.2668 10.842 16.4465 10.6946 16.5728 10.5055C16.6992 10.3164 16.7666 10.0941 16.7666 9.86662C16.7666 9.56162 16.6455 9.26912 16.4298 9.05345C16.2141 8.83778 15.9216 8.71662 15.6166 8.71662ZM12.1666 0.666626C9.89214 0.666626 7.66874 1.34109 5.77757 2.60472C3.88641 3.86836 2.41242 5.66441 1.54202 7.76576C0.671609 9.86711 0.44387 12.1794 0.8876 14.4102C1.33133 16.6409 2.4266 18.69 4.0349 20.2983C5.64321 21.9067 7.69231 23.0019 9.92309 23.4457C12.1539 23.8894 14.4661 23.6616 16.5675 22.7912C18.6688 21.9208 20.4649 20.4468 21.7285 18.5557C22.9922 16.6645 23.6666 14.4411 23.6666 12.1666C23.6666 10.6564 23.3692 9.16101 22.7912 7.76576C22.2133 6.37052 21.3662 5.10277 20.2984 4.0349C19.2305 2.96702 17.9627 2.11994 16.5675 1.54201C15.1722 0.964082 13.6768 0.666626 12.1666 0.666626V0.666626ZM12.1666 21.3666C10.347 21.3666 8.56832 20.827 7.05538 19.8161C5.54245 18.8052 4.36327 17.3684 3.66694 15.6873C2.97061 14.0062 2.78842 12.1564 3.14341 10.3718C3.49839 8.58717 4.3746 6.94788 5.66125 5.66124C6.94789 4.3746 8.58717 3.49838 10.3718 3.1434C12.1564 2.78842 14.0062 2.97061 15.6873 3.66693C17.3684 4.36326 18.8052 5.54245 19.8161 7.05538C20.8271 8.56831 21.3666 10.347 21.3666 12.1666C21.3666 14.6066 20.3973 16.9467 18.672 18.672C16.9467 20.3973 14.6066 21.3666 12.1666 21.3666V21.3666Z" fill="#221122" fill-opacity="0.701961"/>
</svg>
