<svg width="24" height="18" viewBox="0 0 24 18" fill="none" xmlns="http://www.w3.org/2000/svg">
<path d="M16.5 7.3125H14.25C14.1008 7.3125 13.9577 7.25324 13.8522 7.14775C13.7467 7.04226 13.6875 6.89918 13.6875 6.75C13.6875 6.60082 13.7467 6.45774 13.8522 6.35225C13.9577 6.24676 14.1008 6.1875 14.25 6.1875H16.5C16.6492 6.1875 16.7922 6.24676 16.8977 6.35225C17.0032 6.45774 17.0625 6.60082 17.0625 6.75C17.0625 6.89918 17.0032 7.04226 16.8977 7.14775C16.7922 7.25324 16.6492 7.3125 16.5 7.3125ZM9.74997 6.1875H8.81247V5.25C8.81247 5.10082 8.75321 4.95774 8.64772 4.85225C8.54223 4.74676 8.39916 4.6875 8.24997 4.6875C8.10079 4.6875 7.95772 4.74676 7.85223 4.85225C7.74674 4.95774 7.68747 5.10082 7.68747 5.25V6.1875H6.74997C6.60079 6.1875 6.45772 6.24676 6.35223 6.35225C6.24674 6.45774 6.18747 6.60082 6.18747 6.75C6.18747 6.89918 6.24674 7.04226 6.35223 7.14775C6.45772 7.25324 6.60079 7.3125 6.74997 7.3125H7.68747V8.25C7.68747 8.39918 7.74674 8.54226 7.85223 8.64775C7.95772 8.75324 8.10079 8.8125 8.24997 8.8125C8.39916 8.8125 8.54223 8.75324 8.64772 8.64775C8.75321 8.54226 8.81247 8.39918 8.81247 8.25V7.3125H9.74997C9.89916 7.3125 10.0422 7.25324 10.1477 7.14775C10.2532 7.04226 10.3125 6.89918 10.3125 6.75C10.3125 6.60082 10.2532 6.45774 10.1477 6.35225C10.0422 6.24676 9.89916 6.1875 9.74997 6.1875ZM22.485 15.7031C22.1912 16.1228 21.8006 16.4654 21.3462 16.702C20.8919 16.9387 20.3872 17.0623 19.875 17.0625C19.0313 17.0606 18.2226 16.7253 17.625 16.1297L17.6006 16.1034L13.8168 11.8125H10.1831L6.40404 16.1025L6.37497 16.125C5.7788 16.7232 4.96956 17.0604 4.12497 17.0625C3.65965 17.0622 3.20004 16.96 2.77842 16.7631C2.3568 16.5662 1.9834 16.2794 1.68445 15.9229C1.3855 15.5663 1.16824 15.1486 1.04794 14.6991C0.927641 14.2496 0.907215 13.7792 0.988099 13.3209C0.988099 13.3209 0.988099 13.3153 0.988099 13.3116L2.52185 5.42625C2.74252 4.16928 3.39909 3.03028 4.3762 2.20936C5.35332 1.38844 6.58847 0.938117 7.86466 0.9375H16.125C17.3979 0.939118 18.63 1.38672 19.6071 2.2025C20.5842 3.01828 21.2446 4.15066 21.4734 5.40281V5.42062L23.0118 13.3125V13.3228C23.0858 13.7347 23.0773 14.1572 22.9869 14.5658C22.8964 14.9743 22.7258 15.3609 22.485 15.7031ZM16.125 10.6875C17.2687 10.6875 18.3656 10.2331 19.1744 9.4244C19.9831 8.61565 20.4375 7.51875 20.4375 6.375C20.4375 5.23125 19.9831 4.13435 19.1744 3.3256C18.3656 2.51685 17.2687 2.0625 16.125 2.0625H7.86466C6.8524 2.06327 5.87281 2.42088 5.09813 3.07245C4.32344 3.72402 3.80326 4.62784 3.62904 5.625C3.6286 5.62811 3.6286 5.63127 3.62904 5.63437L2.09341 13.5216C2.01845 13.952 2.08212 14.3951 2.27522 14.787C2.46833 15.1789 2.7809 15.4994 3.16787 15.7022C3.55485 15.905 3.99623 15.9797 4.4284 15.9155C4.86056 15.8513 5.26117 15.6516 5.57247 15.345L9.50997 10.8778C9.56303 10.8185 9.62807 10.7711 9.70079 10.7388C9.77351 10.7065 9.85227 10.6899 9.93185 10.6903L16.125 10.6875ZM21.9065 13.5216L20.9887 8.80125C20.5373 9.70511 19.8433 10.4655 18.9843 10.9973C18.1253 11.5291 17.1353 11.8114 16.125 11.8125H15.3159L18.4275 15.345C18.7388 15.6516 19.1394 15.8513 19.5716 15.9155C20.0037 15.9797 20.4451 15.905 20.8321 15.7022C21.219 15.4994 21.5316 15.1789 21.7247 14.787C21.9178 14.3951 21.9815 13.952 21.9065 13.5216Z" fill="#D1CBD8"/>
</svg>
