<svg width="23" height="17" viewBox="0 0 23 17" fill="none" xmlns="http://www.w3.org/2000/svg">
<path d="M15.5604 6.375H13.3104C13.1612 6.375 13.0181 6.31574 12.9127 6.21025C12.8072 6.10476 12.7479 5.96168 12.7479 5.8125C12.7479 5.66332 12.8072 5.52024 12.9127 5.41475C13.0181 5.30926 13.1612 5.25 13.3104 5.25H15.5604C15.7096 5.25 15.8527 5.30926 15.9581 5.41475C16.0636 5.52024 16.1229 5.66332 16.1229 5.8125C16.1229 5.96168 16.0636 6.10476 15.9581 6.21025C15.8527 6.31574 15.7096 6.375 15.5604 6.375ZM8.8104 5.25H7.8729V4.3125C7.8729 4.16332 7.81364 4.02024 7.70815 3.91475C7.60266 3.80926 7.45958 3.75 7.3104 3.75C7.16122 3.75 7.01814 3.80926 6.91265 3.91475C6.80716 4.02024 6.7479 4.16332 6.7479 4.3125V5.25H5.8104C5.66121 5.25 5.51814 5.30926 5.41265 5.41475C5.30716 5.52024 5.2479 5.66332 5.2479 5.8125C5.2479 5.96168 5.30716 6.10476 5.41265 6.21025C5.51814 6.31574 5.66121 6.375 5.8104 6.375H6.7479V7.3125C6.7479 7.46168 6.80716 7.60476 6.91265 7.71025C7.01814 7.81574 7.16122 7.875 7.3104 7.875C7.45958 7.875 7.60266 7.81574 7.70815 7.71025C7.81364 7.60476 7.8729 7.46168 7.8729 7.3125V6.375H8.8104C8.95958 6.375 9.10266 6.31574 9.20815 6.21025C9.31364 6.10476 9.3729 5.96168 9.3729 5.8125C9.3729 5.66332 9.31364 5.52024 9.20815 5.41475C9.10266 5.30926 8.95958 5.25 8.8104 5.25ZM21.5454 14.7656C21.2516 15.1853 20.861 15.5279 20.4067 15.7645C19.9523 16.0012 19.4477 16.1248 18.9354 16.125C18.0917 16.123 17.283 15.7878 16.6854 15.1922L16.661 15.1659L12.8773 10.875H9.24352L5.46446 15.165L5.4354 15.1875C4.83922 15.7857 4.02998 16.1229 3.1854 16.125C2.72008 16.1247 2.26047 16.0225 1.83885 15.8256C1.41723 15.6287 1.04383 15.3419 0.744876 14.9854C0.445922 14.6288 0.228665 14.2111 0.108365 13.7616C-0.0119344 13.3121 -0.0323598 12.8417 0.0485241 12.3834C0.0485241 12.3834 0.0485241 12.3778 0.0485241 12.3741L1.58227 4.48875C1.80295 3.23178 2.45951 2.09278 3.43663 1.27186C4.41374 0.450945 5.6489 0.000617226 6.92509 0H15.1854C16.4583 0.00161842 17.6904 0.449218 18.6675 1.265C19.6446 2.08078 20.305 3.21316 20.5338 4.46531V4.48312L22.0723 12.375V12.3853C22.1462 12.7972 22.1377 13.2197 22.0473 13.6283C21.9569 14.0368 21.7863 14.4234 21.5454 14.7656ZM15.1854 9.75C16.3291 9.75 17.426 9.29565 18.2348 8.4869C19.0435 7.67815 19.4979 6.58125 19.4979 5.4375C19.4979 4.29375 19.0435 3.19685 18.2348 2.3881C17.426 1.57935 16.3291 1.125 15.1854 1.125H6.92509C5.91282 1.12577 4.93323 1.48338 4.15855 2.13495C3.38387 2.78652 2.86369 3.69034 2.68946 4.6875C2.68903 4.69061 2.68903 4.69377 2.68946 4.69687L1.15384 12.5841C1.07888 13.0145 1.14254 13.4576 1.33565 13.8495C1.52875 14.2414 1.84133 14.5619 2.2283 14.7647C2.61527 14.9675 3.05666 15.0422 3.48882 14.978C3.92098 14.9138 4.32159 14.7141 4.6329 14.4075L8.5704 9.94031C8.62345 9.88099 8.68849 9.83361 8.76121 9.80129C8.83394 9.76897 8.91269 9.75244 8.99227 9.75281L15.1854 9.75ZM20.967 12.5841L20.0491 7.86375C19.5978 8.76761 18.9037 9.52801 18.0447 10.0598C17.1858 10.5916 16.1957 10.8739 15.1854 10.875H14.3763L17.4879 14.4075C17.7992 14.7141 18.1998 14.9138 18.632 14.978C19.0641 15.0422 19.5055 14.9675 19.8925 14.7647C20.2795 14.5619 20.592 14.2414 20.7851 13.8495C20.9783 13.4576 21.0419 13.0145 20.967 12.5841Z" fill="#212B36"/>
</svg>
