<svg width="24" height="24" viewBox="0 0 24 24" fill="none" xmlns="http://www.w3.org/2000/svg">
<g clip-path="url(#clip0_514_11278)">
<path d="M8.35909 0.789921C5.96112 1.6218 3.89311 3.20073 2.45882 5.2948C1.02454 7.38887 0.299573 9.88769 0.390418 12.4242C0.481264 14.9608 1.38313 17.4013 2.96355 19.3874C4.54396 21.3735 6.71962 22.8005 9.17096 23.4587C11.1583 23.9715 13.2405 23.994 15.2385 23.5243C17.0484 23.1177 18.7218 22.2481 20.0947 21.0005C21.5236 19.6624 22.5608 17.9602 23.0947 16.0768C23.6749 14.0286 23.7781 11.8748 23.3966 9.78055H12.2366V14.4099H18.6997C18.5705 15.1483 18.2937 15.853 17.8859 16.4819C17.478 17.1107 16.9474 17.6509 16.326 18.0699C15.5368 18.5922 14.6471 18.9435 13.7141 19.1012C12.7784 19.2752 11.8186 19.2752 10.8828 19.1012C9.93438 18.9053 9.03716 18.5138 8.24846 17.9518C6.98124 17.0548 6.02973 15.7804 5.52971 14.3105C5.02138 12.8131 5.02138 11.1898 5.52971 9.69242C5.88564 8.64283 6.47403 7.68717 7.25096 6.89679C8.14007 5.9757 9.26571 5.31729 10.5044 4.99381C11.743 4.67034 13.0469 4.69429 14.2728 5.06305C15.2306 5.3569 16.1064 5.87057 16.8303 6.56305C17.5591 5.83805 18.2866 5.11117 19.0128 4.38242C19.3878 3.99055 19.7966 3.61742 20.166 3.21617C19.0607 2.18777 17.7634 1.38749 16.3485 0.861171C13.7717 -0.0744733 10.9522 -0.0996178 8.35909 0.789921Z" fill="white"/>
<path d="M8.36266 0.790832C10.9555 -0.0993112 13.775 -0.0748285 16.352 0.860207C17.7673 1.3901 19.0639 2.19423 20.1677 3.22646C19.7927 3.62771 19.397 4.00271 19.0145 4.39271C18.287 5.11896 17.5602 5.84271 16.8339 6.56396C16.11 5.87148 15.2342 5.35781 14.2764 5.06396C13.0509 4.69391 11.7471 4.66857 10.5081 4.99072C9.26907 5.31288 8.14274 5.97007 7.25266 6.89021C6.47572 7.68059 5.88733 8.63624 5.53141 9.68583L1.64453 6.67646C3.0358 3.91751 5.44469 1.80713 8.36266 0.790832Z" fill="#E33629"/>
<path d="M0.611401 9.65508C0.820163 8.61965 1.16701 7.61694 1.64265 6.67383L5.52953 9.6907C5.02119 11.1881 5.02119 12.8114 5.52953 14.3088C4.23453 15.3088 2.9389 16.3138 1.64265 17.3238C0.452308 14.9544 0.0892746 12.2548 0.611401 9.65508Z" fill="#F8BD00"/>
<path d="M12.2391 9.7793H23.3991C23.7807 11.8736 23.6774 14.0274 23.0972 16.0755C22.5633 17.9589 21.5261 19.6612 20.0972 20.9993C18.8429 20.0205 17.5829 19.0493 16.3285 18.0705C16.9504 17.6511 17.4812 17.1103 17.8891 16.4808C18.297 15.8512 18.5735 15.1458 18.7022 14.4068H12.2391C12.2372 12.8655 12.2391 11.3224 12.2391 9.7793Z" fill="#587DBD"/>
<path d="M1.64062 17.3236C2.93687 16.3236 4.2325 15.3186 5.5275 14.3086C6.02851 15.779 6.98138 17.0534 8.25 17.9498C9.04116 18.5093 9.9403 18.8975 10.89 19.0898C11.8257 19.2639 12.7855 19.2639 13.7212 19.0898C14.6543 18.9321 15.544 18.5808 16.3331 18.0586C17.5875 19.0373 18.8475 20.0086 20.1019 20.9873C18.7292 22.2356 17.0558 23.1059 15.2456 23.513C13.2476 23.9827 11.1655 23.9601 9.17812 23.4473C7.60632 23.0277 6.13814 22.2878 4.86562 21.2742C3.51886 20.2048 2.41882 18.8572 1.64062 17.3236Z" fill="#319F43"/>
</g>
<defs>
<clipPath id="clip0_514_11278">
<rect width="24" height="24" fill="white"/>
</clipPath>
</defs>
</svg>
