<svg width="14" height="17" viewBox="0 0 14 17" fill="none" xmlns="http://www.w3.org/2000/svg">
<path d="M6.07501 10.5403C5.92105 10.6955 5.83426 10.905 5.83334 11.1236C5.83355 11.2353 5.85622 11.3459 5.9 11.4486C5.97523 11.6252 6.10911 11.7704 6.27902 11.8597C6.44893 11.949 6.64445 11.9769 6.83256 11.9387C7.02066 11.9005 7.1898 11.7985 7.31141 11.65C7.43302 11.5015 7.49964 11.3156 7.50001 11.1236C7.49908 10.905 7.41229 10.6955 7.25834 10.5403C7.18087 10.4622 7.0887 10.4002 6.98715 10.3579C6.8856 10.3156 6.77668 10.2938 6.66667 10.2938C6.55666 10.2938 6.44774 10.3156 6.34619 10.3579C6.24464 10.4002 6.15247 10.4622 6.07501 10.5403ZM13.025 1.37363C12.9282 1.29531 12.8151 1.23969 12.6939 1.21085C12.5728 1.18201 12.4467 1.18068 12.325 1.20696C11.4345 1.39358 10.5153 1.39596 9.62387 1.21395C8.73244 1.03194 7.88771 0.669391 7.14167 0.14863C7.00218 0.0518567 6.83645 0 6.66667 0C6.49689 0 6.33117 0.0518567 6.19167 0.14863C5.44501 0.667964 4.59998 1.02903 3.70858 1.2096C2.81717 1.39017 1.89825 1.38644 1.00834 1.19863C0.88662 1.17235 0.760559 1.17367 0.639422 1.20252C0.518285 1.23136 0.405151 1.28698 0.308338 1.3653C0.211654 1.44373 0.133772 1.54283 0.0804151 1.65531C0.0270579 1.76779 -0.000418492 1.8908 4.8179e-06 2.0153V8.22363C-0.000736046 9.41842 0.283982 10.5961 0.830451 11.6586C1.37692 12.7211 2.16932 13.6377 3.14167 14.332L6.18334 16.4986C6.32447 16.5991 6.49342 16.6531 6.66667 16.6531C6.83992 16.6531 7.00887 16.5991 7.15001 16.4986L10.1917 14.332C11.164 13.6377 11.9564 12.7211 12.5029 11.6586C13.0494 10.5961 13.3341 9.41842 13.3333 8.22363V2.0153C13.3338 1.8908 13.3063 1.76779 13.2529 1.65531C13.1996 1.54283 13.1217 1.44373 13.025 1.3653V1.37363ZM11.6667 8.22363C11.6673 9.1526 11.4461 10.0683 11.0214 10.8945C10.5967 11.7207 9.98081 12.4335 9.225 12.9736L6.66667 14.7986L4.10834 12.9736C3.35254 12.4335 2.73666 11.7207 2.31196 10.8945C1.88727 10.0683 1.66603 9.1526 1.66667 8.22363V2.97363C3.4137 3.12316 5.16337 2.71782 6.66667 1.8153C8.16997 2.71782 9.91965 3.12316 11.6667 2.97363V8.22363ZM6.66667 4.45696C6.22756 4.45668 5.79612 4.57206 5.41576 4.7915C5.03541 5.01093 4.71956 5.32668 4.5 5.70696C4.40038 5.89741 4.37819 6.11899 4.43807 6.32542C4.49796 6.53184 4.63529 6.70714 4.82137 6.81471C5.00746 6.92227 5.2279 6.95378 5.43667 6.90264C5.64543 6.8515 5.82636 6.72168 5.94167 6.5403C6.01474 6.41374 6.11981 6.30862 6.24634 6.23549C6.37286 6.16235 6.51639 6.12378 6.66253 6.12364C6.80867 6.12349 6.95228 6.16178 7.07895 6.23466C7.20562 6.30755 7.31089 6.41246 7.38421 6.53887C7.45754 6.66529 7.49632 6.80876 7.49669 6.9549C7.49705 7.10104 7.45897 7.2447 7.38628 7.37148C7.31359 7.49826 7.20884 7.60369 7.08253 7.6772C6.95623 7.75071 6.81281 7.78972 6.66667 7.7903C6.44566 7.7903 6.2337 7.87809 6.07742 8.03437C5.92114 8.19066 5.83334 8.40262 5.83334 8.62363C5.83334 8.84464 5.92114 9.05661 6.07742 9.21289C6.2337 9.36917 6.44566 9.45696 6.66667 9.45696C7.32971 9.45696 7.9656 9.19357 8.43444 8.72473C8.90328 8.25589 9.16667 7.62 9.16667 6.95696C9.16667 6.29392 8.90328 5.65804 8.43444 5.1892C7.9656 4.72036 7.32971 4.45696 6.66667 4.45696V4.45696Z" fill="#212B36"/>
</svg>
