<svg width="14" height="17" viewBox="0 0 14 17" fill="none" xmlns="http://www.w3.org/2000/svg">
<path d="M6.40801 10.7161C6.25406 10.8713 6.16727 11.0808 6.16635 11.2994C6.16656 11.4111 6.18923 11.5216 6.23301 11.6244C6.30824 11.801 6.44212 11.9462 6.61203 12.0355C6.78194 12.1248 6.97746 12.1527 7.16556 12.1145C7.35367 12.0763 7.52281 11.9743 7.64442 11.8258C7.76603 11.6773 7.83265 11.4914 7.83301 11.2994C7.83209 11.0808 7.7453 10.8713 7.59135 10.7161C7.51388 10.638 7.42171 10.576 7.32016 10.5337C7.21861 10.4914 7.10969 10.4696 6.99968 10.4696C6.88967 10.4696 6.78075 10.4914 6.6792 10.5337C6.57765 10.576 6.48548 10.638 6.40801 10.7161ZM13.358 1.54941C13.2612 1.4711 13.1481 1.41547 13.0269 1.38663C12.9058 1.35779 12.7797 1.35646 12.658 1.38274C11.7675 1.56936 10.8483 1.57174 9.95687 1.38973C9.06545 1.20772 8.22072 0.845173 7.47468 0.324411C7.33518 0.227638 7.16946 0.175781 6.99968 0.175781C6.8299 0.175781 6.66418 0.227638 6.52468 0.324411C5.77802 0.843745 4.93299 1.20481 4.04159 1.38538C3.15018 1.56595 2.23125 1.56222 1.34135 1.37441C1.21963 1.34813 1.09357 1.34945 0.97243 1.3783C0.851293 1.40714 0.738159 1.46276 0.641346 1.54108C0.544662 1.61951 0.46678 1.71861 0.413423 1.83109C0.360066 1.94357 0.332589 2.06658 0.333013 2.19108V8.39941C0.332272 9.5942 0.61699 10.7719 1.16346 11.8344C1.70993 12.8969 2.50233 13.8134 3.47468 14.5077L6.51635 16.6744C6.65748 16.7749 6.82643 16.8289 6.99968 16.8289C7.17293 16.8289 7.34188 16.7749 7.48301 16.6744L10.5247 14.5077C11.497 13.8134 12.2894 12.8969 12.8359 11.8344C13.3824 10.7719 13.6671 9.5942 13.6663 8.39941V2.19108C13.6668 2.06658 13.6393 1.94357 13.5859 1.83109C13.5326 1.71861 13.4547 1.61951 13.358 1.54108V1.54941ZM11.9997 8.39941C12.0003 9.32838 11.7791 10.2441 11.3544 11.0703C10.9297 11.8965 10.3138 12.6093 9.55801 13.1494L6.99968 14.9744L4.44135 13.1494C3.68554 12.6093 3.06967 11.8965 2.64497 11.0703C2.22027 10.2441 1.99904 9.32838 1.99968 8.39941V3.14941C3.7467 3.29894 5.49638 2.8936 6.99968 1.99108C8.50298 2.8936 10.2527 3.29894 11.9997 3.14941V8.39941ZM6.99968 4.63274C6.56057 4.63246 6.12912 4.74785 5.74877 4.96728C5.36842 5.18672 5.05257 5.50246 4.83301 5.88274C4.73338 6.0732 4.7112 6.29478 4.77108 6.5012C4.83097 6.70762 4.9683 6.88293 5.15438 6.99049C5.34046 7.09805 5.56091 7.12956 5.76968 7.07842C5.97844 7.02729 6.15937 6.89747 6.27468 6.71608C6.34775 6.58952 6.45282 6.4844 6.57934 6.41127C6.70587 6.33814 6.8494 6.29956 6.99554 6.29942C7.14168 6.29927 7.28529 6.33756 7.41196 6.41045C7.53863 6.48333 7.6439 6.58824 7.71722 6.71465C7.79054 6.84107 7.82933 6.98454 7.82969 7.13068C7.83006 7.27682 7.79198 7.42049 7.71929 7.54726C7.6466 7.67404 7.54185 7.77948 7.41554 7.85299C7.28923 7.9265 7.14582 7.9655 6.99968 7.96608C6.77867 7.96608 6.5667 8.05388 6.41042 8.21016C6.25414 8.36644 6.16635 8.5784 6.16635 8.79941C6.16635 9.02043 6.25414 9.23239 6.41042 9.38867C6.5667 9.54495 6.77867 9.63274 6.99968 9.63274C7.66272 9.63274 8.29861 9.36935 8.76745 8.90051C9.23629 8.43167 9.49968 7.79579 9.49968 7.13274C9.49968 6.4697 9.23629 5.83382 8.76745 5.36498C8.29861 4.89614 7.66272 4.63274 6.99968 4.63274Z" fill="#D1CBD8"/>
</svg>
