<svg width="21" height="24" viewBox="0 0 21 24" fill="none" xmlns="http://www.w3.org/2000/svg">
<path d="M19.8334 7.02792L12.8334 0.891254C12.1917 0.317307 11.361 0 10.5001 0C9.63919 0 8.80847 0.317307 8.16678 0.891254L1.16678 7.02792C0.796207 7.35934 0.500494 7.76591 0.299328 8.22054C0.0981616 8.67518 -0.00384132 9.16745 0.000110593 9.66459V19.8613C0.000110593 20.7895 0.36886 21.6798 1.02524 22.3361C1.68161 22.9925 2.57185 23.3613 3.50011 23.3613H17.5001C18.4284 23.3613 19.3186 22.9925 19.975 22.3361C20.6314 21.6798 21.0001 20.7895 21.0001 19.8613V9.65292C21.0024 9.15775 20.8996 8.66772 20.6985 8.21522C20.4974 7.76271 20.2025 7.35804 19.8334 7.02792ZM12.8334 21.0279H8.16678V15.1946C8.16678 14.8852 8.28969 14.5884 8.50848 14.3696C8.72728 14.1508 9.02402 14.0279 9.33344 14.0279H11.6668C11.9762 14.0279 12.2729 14.1508 12.4917 14.3696C12.7105 14.5884 12.8334 14.8852 12.8334 15.1946V21.0279ZM18.6668 19.8613C18.6668 20.1707 18.5439 20.4674 18.3251 20.6862C18.1063 20.905 17.8095 21.0279 17.5001 21.0279H15.1668V15.1946C15.1668 14.2663 14.798 13.3761 14.1416 12.7197C13.4853 12.0633 12.595 11.6946 11.6668 11.6946H9.33344C8.40518 11.6946 7.51495 12.0633 6.85857 12.7197C6.20219 13.3761 5.83344 14.2663 5.83344 15.1946V21.0279H3.50011C3.19069 21.0279 2.89394 20.905 2.67515 20.6862C2.45636 20.4674 2.33344 20.1707 2.33344 19.8613V9.65292C2.33365 9.48727 2.36914 9.32357 2.43753 9.1727C2.50592 9.02183 2.60566 8.88725 2.73011 8.77792L9.73011 2.65292C9.94301 2.46588 10.2167 2.36273 10.5001 2.36273C10.7835 2.36273 11.0572 2.46588 11.2701 2.65292L18.2701 8.77792C18.3946 8.88725 18.4943 9.02183 18.5627 9.1727C18.6311 9.32357 18.6666 9.48727 18.6668 9.65292V19.8613Z" fill="#261D37"/>
</svg>
