<svg width="22" height="24" viewBox="0 0 22 24" fill="none" xmlns="http://www.w3.org/2000/svg">
<path d="M20.3334 7.33359L13.3334 1.19692C12.6917 0.622971 11.861 0.305664 11.0001 0.305664C10.1392 0.305664 9.30847 0.622971 8.66678 1.19692L1.66678 7.33359C1.29621 7.66501 1.00049 8.07157 0.799328 8.52621C0.598162 8.98084 0.496159 9.47312 0.500111 9.97025V20.1669C0.500111 21.0952 0.86886 21.9854 1.52524 22.6418C2.18161 23.2982 3.07185 23.6669 4.00011 23.6669H18.0001C18.9284 23.6669 19.8186 23.2982 20.475 22.6418C21.1314 21.9854 21.5001 21.0952 21.5001 20.1669V9.95859C21.5024 9.46341 21.3996 8.97338 21.1985 8.52088C20.9974 8.06838 20.7025 7.6637 20.3334 7.33359ZM13.3334 21.3336H8.66678V15.5003C8.66678 15.1908 8.78969 14.8941 9.00848 14.6753C9.22728 14.4565 9.52402 14.3336 9.83344 14.3336H12.1668C12.4762 14.3336 12.7729 14.4565 12.9917 14.6753C13.2105 14.8941 13.3334 15.1908 13.3334 15.5003V21.3336ZM19.1668 20.1669C19.1668 20.4763 19.0439 20.7731 18.8251 20.9919C18.6063 21.2107 18.3095 21.3336 18.0001 21.3336H15.6668V15.5003C15.6668 14.572 15.298 13.6818 14.6416 13.0254C13.9853 12.369 13.095 12.0003 12.1668 12.0003H9.83344C8.90518 12.0003 8.01495 12.369 7.35857 13.0254C6.70219 13.6818 6.33344 14.572 6.33344 15.5003V21.3336H4.00011C3.69069 21.3336 3.39394 21.2107 3.17515 20.9919C2.95636 20.7731 2.83344 20.4763 2.83344 20.1669V9.95859C2.83365 9.79294 2.86914 9.62923 2.93753 9.47836C3.00592 9.32749 3.10566 9.19292 3.23011 9.08359L10.2301 2.95859C10.443 2.77155 10.7167 2.6684 11.0001 2.6684C11.2835 2.6684 11.5572 2.77155 11.7701 2.95859L18.7701 9.08359C18.8946 9.19292 18.9943 9.32749 19.0627 9.47836C19.1311 9.62923 19.1666 9.79294 19.1668 9.95859V20.1669Z" fill="#D1CBD8"/>
</svg>
