<svg width="14" height="14" viewBox="0 0 14 14" fill="none" xmlns="http://www.w3.org/2000/svg">
<path fill-rule="evenodd" clip-rule="evenodd" d="M7.00016 0.333008C3.31826 0.333008 0.333496 3.31778 0.333496 6.99967C0.333496 10.6816 3.31826 13.6663 7.00016 13.6663C10.6821 13.6663 13.6668 10.6816 13.6668 6.99967C13.6668 5.23156 12.9645 3.53587 11.7142 2.28563C10.464 1.03539 8.76827 0.333008 7.00016 0.333008ZM7.66683 9.66634C7.66683 10.0345 7.36835 10.333 7.00016 10.333C6.63197 10.333 6.3335 10.0345 6.3335 9.66634V6.33301C6.3335 5.96482 6.63197 5.66634 7.00016 5.66634C7.36835 5.66634 7.66683 5.96482 7.66683 6.33301V9.66634ZM6.3335 4.33301C6.3335 4.7012 6.63197 4.99967 7.00016 4.99967C7.36835 4.99967 7.66683 4.7012 7.66683 4.33301C7.66683 3.96482 7.36835 3.66634 7.00016 3.66634C6.63197 3.66634 6.3335 3.96482 6.3335 4.33301Z" fill="#FFC107"/>
</svg>
