<svg width="25" height="25" viewBox="0 0 25 25" fill="none" xmlns="http://www.w3.org/2000/svg">
<path d="M12.63 17.4758C15.3063 17.4758 17.4758 15.3063 17.4758 12.63C17.4758 9.95373 15.3063 7.78418 12.63 7.78418C9.95373 7.78418 7.78418 9.95373 7.78418 12.63C7.78418 15.3063 9.95373 17.4758 12.63 17.4758Z" fill="#D1CBD8" stroke="#D1CBD8" stroke-linecap="round" stroke-linejoin="round"/>
<path d="M12.63 2.93833V1ZM12.63 24.26V22.3217ZM2.93833 12.63H1ZM24.26 12.63H22.3217ZM5.77799 19.482L4.40178 20.8582ZM20.8582 4.40178L19.482 5.77799ZM19.482 19.482L20.8582 20.8582ZM4.40178 4.40178L5.77799 5.77799Z" fill="#D1CBD8"/>
<path d="M12.63 2.93833V1M12.63 24.26V22.3217M2.93833 12.63H1M24.26 12.63H22.3217M5.77799 19.482L4.40178 20.8582M20.8582 4.40178L19.482 5.77799M19.482 19.482L20.8582 20.8582M4.40178 4.40178L5.77799 5.77799" stroke="#D1CBD8" stroke-linecap="round" stroke-linejoin="round"/>
</svg>
