<svg width="32" height="32" viewBox="0 0 32 32" fill="none" xmlns="http://www.w3.org/2000/svg">
<path d="M6.66602 15.9993C6.66602 15.6457 6.52554 15.3066 6.27549 15.0565C6.02544 14.8065 5.6863 14.666 5.33268 14.666H3.99935C3.64573 14.666 3.30659 14.8065 3.05654 15.0565C2.80649 15.3066 2.66602 15.6457 2.66602 15.9993C2.66602 16.353 2.80649 16.6921 3.05654 16.9422C3.30659 17.1922 3.64573 17.3327 3.99935 17.3327H5.33268C5.6863 17.3327 6.02544 17.1922 6.27549 16.9422C6.52554 16.6921 6.66602 16.353 6.66602 15.9993ZM7.51935 22.666L6.57268 23.6127C6.32435 23.8625 6.18496 24.2004 6.18496 24.5527C6.18496 24.9049 6.32435 25.2429 6.57268 25.4927C6.8225 25.741 7.16043 25.8804 7.51268 25.8804C7.86493 25.8804 8.20287 25.741 8.45268 25.4927L9.39935 24.546C9.61778 24.2909 9.73193 23.9628 9.71896 23.6273C9.706 23.2917 9.56689 22.9734 9.32943 22.7359C9.09197 22.4985 8.77365 22.3594 8.43809 22.3464C8.10252 22.3334 7.77442 22.4476 7.51935 22.666ZM15.9993 6.66602C16.353 6.66602 16.6921 6.52554 16.9422 6.27549C17.1922 6.02544 17.3327 5.6863 17.3327 5.33268V3.99935C17.3327 3.64573 17.1922 3.30659 16.9422 3.05654C16.6921 2.80649 16.353 2.66602 15.9993 2.66602C15.6457 2.66602 15.3066 2.80649 15.0565 3.05654C14.8065 3.30659 14.666 3.64573 14.666 3.99935V5.33268C14.666 5.6863 14.8065 6.02544 15.0565 6.27549C15.3066 6.52554 15.6457 6.66602 15.9993 6.66602ZM23.546 9.78602C23.8958 9.78454 24.231 9.64567 24.4793 9.39935L25.426 8.45268C25.5656 8.33315 25.6789 8.18606 25.759 8.02064C25.839 7.85522 25.884 7.67505 25.8911 7.49142C25.8982 7.30779 25.8672 7.12469 25.8002 6.95359C25.7332 6.78249 25.6315 6.62709 25.5015 6.49715C25.3716 6.36721 25.2162 6.26553 25.0451 6.1985C24.874 6.13147 24.6909 6.10052 24.5073 6.10762C24.3237 6.11471 24.1435 6.15968 23.9781 6.23971C23.8126 6.31975 23.6655 6.43311 23.546 6.57268L22.666 7.51935C22.4177 7.76917 22.2783 8.1071 22.2783 8.45935C22.2783 8.8116 22.4177 9.14953 22.666 9.39935C22.9011 9.63316 23.2148 9.77102 23.546 9.78602ZM7.54602 9.39935C7.79436 9.64567 8.12956 9.78454 8.47935 9.78602C8.65482 9.78703 8.82877 9.7534 8.99122 9.68704C9.15367 9.62069 9.30143 9.52292 9.42602 9.39935C9.67435 9.14953 9.81374 8.8116 9.81374 8.45935C9.81374 8.1071 9.67435 7.76917 9.42602 7.51935L8.47935 6.57268C8.35591 6.44749 8.20901 6.34783 8.04706 6.27941C7.8851 6.21099 7.71126 6.17513 7.53544 6.17389C7.35963 6.17266 7.1853 6.20606 7.02239 6.27219C6.85949 6.33833 6.71121 6.43591 6.58602 6.55935C6.46082 6.68279 6.36117 6.82968 6.29274 6.99164C6.22432 7.15359 6.18846 7.32744 6.18723 7.50325C6.18473 7.85832 6.32338 8.19984 6.57268 8.45268L7.54602 9.39935ZM27.9993 14.666H26.666C26.3124 14.666 25.9733 14.8065 25.7232 15.0565C25.4732 15.3066 25.3327 15.6457 25.3327 15.9993C25.3327 16.353 25.4732 16.6921 25.7232 16.9422C25.9733 17.1922 26.3124 17.3327 26.666 17.3327H27.9993C28.353 17.3327 28.6921 17.1922 28.9422 16.9422C29.1922 16.6921 29.3327 16.353 29.3327 15.9993C29.3327 15.6457 29.1922 15.3066 28.9422 15.0565C28.6921 14.8065 28.353 14.666 27.9993 14.666ZM24.4793 22.666C24.226 22.5251 23.9337 22.4706 23.6466 22.5107C23.3596 22.5509 23.0934 22.6834 22.8884 22.8884C22.6834 23.0934 22.5509 23.3596 22.5107 23.6466C22.4706 23.9337 22.5251 24.226 22.666 24.4793L23.6127 25.426C23.8625 25.6743 24.2004 25.8137 24.5527 25.8137C24.9049 25.8137 25.2429 25.6743 25.4927 25.426C25.741 25.1762 25.8804 24.8383 25.8804 24.486C25.8804 24.1338 25.741 23.7958 25.4927 23.546L24.4793 22.666ZM15.9993 8.66602C14.549 8.66602 13.1311 9.09611 11.9252 9.9019C10.7192 10.7077 9.77927 11.853 9.22423 13.193C8.66919 14.533 8.52396 16.0075 8.80692 17.43C9.08988 18.8525 9.78831 20.1592 10.8139 21.1848C11.8395 22.2104 13.1462 22.9088 14.5687 23.1918C15.9912 23.4747 17.4657 23.3295 18.8057 22.7745C20.1457 22.2194 21.291 21.2795 22.0968 20.0735C22.9026 18.8676 23.3327 17.4497 23.3327 15.9993C23.3292 14.0555 22.5554 12.1923 21.1809 10.8178C19.8064 9.44329 17.9432 8.66954 15.9993 8.66602ZM15.9993 20.666C15.0764 20.666 14.1741 20.3923 13.4067 19.8795C12.6393 19.3668 12.0411 18.6379 11.6879 17.7852C11.3347 16.9325 11.2423 15.9942 11.4223 15.0889C11.6024 14.1837 12.0469 13.3522 12.6995 12.6995C13.3522 12.0469 14.1837 11.6024 15.0889 11.4223C15.9942 11.2423 16.9325 11.3347 17.7852 11.6879C18.6379 12.0411 19.3668 12.6393 19.8795 13.4067C20.3923 14.1741 20.666 15.0764 20.666 15.9993C20.666 17.237 20.1743 18.424 19.2992 19.2992C18.424 20.1743 17.237 20.666 15.9993 20.666ZM15.9993 25.3327C15.6457 25.3327 15.3066 25.4732 15.0565 25.7232C14.8065 25.9733 14.666 26.3124 14.666 26.666V27.9993C14.666 28.353 14.8065 28.6921 15.0565 28.9422C15.3066 29.1922 15.6457 29.3327 15.9993 29.3327C16.353 29.3327 16.6921 29.1922 16.9422 28.9422C17.1922 28.6921 17.3327 28.353 17.3327 27.9993V26.666C17.3327 26.3124 17.1922 25.9733 16.9422 25.7232C16.6921 25.4732 16.353 25.3327 15.9993 25.3327Z" fill="#D1CBD8"/>
</svg>
