<svg width="20" height="20" viewBox="0 0 20 20" fill="none" xmlns="http://www.w3.org/2000/svg">
<path d="M7.99984 15.5501L6.22984 17.2701C5.76571 17.7342 5.13621 17.995 4.47984 17.995C3.82346 17.995 3.19397 17.7342 2.72984 17.2701C2.26571 16.806 2.00496 16.1765 2.00496 15.5201C2.00496 14.8637 2.26571 14.2342 2.72984 13.7701L7.26984 9.22009C7.71545 8.77304 8.31586 8.51437 8.94685 8.49762C9.57784 8.48087 10.1911 8.70731 10.6598 9.13009L10.7798 9.23009C10.9695 9.41575 11.2251 9.51846 11.4904 9.51565C11.7558 9.51284 12.0092 9.40472 12.1948 9.21509C12.3805 9.02547 12.4832 8.76985 12.4804 8.50449C12.4776 8.23912 12.3695 7.98575 12.1798 7.80009C12.1234 7.72712 12.0633 7.65703 11.9998 7.59009C11.1462 6.84741 10.0422 6.45694 8.9114 6.49779C7.78064 6.53864 6.70767 7.00775 5.90984 7.81009L1.30984 12.3601C0.528193 13.2109 0.105457 14.3308 0.129911 15.4858C0.154365 16.6409 0.624118 17.7419 1.44107 18.5589C2.25802 19.3758 3.359 19.8456 4.51408 19.87C5.66917 19.8945 6.78904 19.4717 7.63984 18.6901L9.36984 17.0001C9.54065 16.8137 9.63455 16.5696 9.63265 16.3168C9.63074 16.064 9.53316 15.8214 9.35955 15.6376C9.18594 15.4539 8.94917 15.3427 8.6969 15.3264C8.44463 15.3102 8.19557 15.3901 7.99984 15.5501ZM18.6898 1.31009C17.8486 0.474102 16.7108 0.00488281 15.5248 0.00488281C14.3389 0.00488281 13.2011 0.474102 12.3598 1.31009L10.6298 3.00009C10.459 3.18644 10.3651 3.43057 10.367 3.68336C10.3689 3.93615 10.4665 4.17883 10.6401 4.36258C10.8137 4.54633 11.0505 4.65751 11.3028 4.67375C11.555 4.68998 11.8041 4.61007 11.9998 4.45009L13.7298 2.73009C14.194 2.26597 14.8235 2.00522 15.4798 2.00522C16.1362 2.00522 16.7657 2.26597 17.2298 2.73009C17.694 3.19422 17.9547 3.82372 17.9547 4.48009C17.9547 5.13647 17.694 5.76596 17.2298 6.23009L12.6898 10.7801C12.2442 11.2272 11.6438 11.4858 11.0128 11.5026C10.3818 11.5193 9.76854 11.2929 9.29984 10.8701L9.17984 10.7701C8.99021 10.5844 8.73459 10.4817 8.46923 10.4845C8.20387 10.4874 7.95049 10.5955 7.76484 10.7851C7.57919 10.9747 7.47647 11.2303 7.47928 11.4957C7.48209 11.7611 7.59021 12.0144 7.77984 12.2001C7.85247 12.2744 7.92926 12.3445 8.00984 12.4101C8.86451 13.1505 9.96806 13.5395 11.0981 13.4987C12.2282 13.4579 13.3008 12.9903 14.0998 12.1901L18.6498 7.64009C19.4912 6.80417 19.9676 5.66932 19.9751 4.48334C19.9826 3.29736 19.5205 2.15659 18.6898 1.31009Z" fill="#D1CBD8"/>
</svg>
