<svg width="20" height="24" viewBox="0 0 20 24" fill="none" xmlns="http://www.w3.org/2000/svg">
<path d="M9.6 13.2C9.28174 13.2 8.97652 13.3264 8.75147 13.5515C8.52643 13.7765 8.4 14.0817 8.4 14.4V18C8.4 18.3183 8.52643 18.6235 8.75147 18.8485C8.97652 19.0736 9.28174 19.2 9.6 19.2C9.91826 19.2 10.2235 19.0736 10.4485 18.8485C10.6736 18.6235 10.8 18.3183 10.8 18V14.4C10.8 14.0817 10.6736 13.7765 10.4485 13.5515C10.2235 13.3264 9.91826 13.2 9.6 13.2ZM15.6 8.4V6C15.6 4.4087 14.9679 2.88258 13.8426 1.75736C12.7174 0.632141 11.1913 0 9.6 0C8.0087 0 6.48258 0.632141 5.35736 1.75736C4.23214 2.88258 3.6 4.4087 3.6 6V8.4C2.64522 8.4 1.72955 8.77928 1.05442 9.45442C0.379285 10.1295 0 11.0452 0 12V20.4C0 21.3548 0.379285 22.2705 1.05442 22.9456C1.72955 23.6207 2.64522 24 3.6 24H15.6C16.5548 24 17.4705 23.6207 18.1456 22.9456C18.8207 22.2705 19.2 21.3548 19.2 20.4V12C19.2 11.0452 18.8207 10.1295 18.1456 9.45442C17.4705 8.77928 16.5548 8.4 15.6 8.4ZM6 6C6 5.04522 6.37928 4.12955 7.05442 3.45442C7.72955 2.77928 8.64522 2.4 9.6 2.4C10.5548 2.4 11.4705 2.77928 12.1456 3.45442C12.8207 4.12955 13.2 5.04522 13.2 6V8.4H6V6ZM16.8 20.4C16.8 20.7183 16.6736 21.0235 16.4485 21.2485C16.2235 21.4736 15.9183 21.6 15.6 21.6H3.6C3.28174 21.6 2.97652 21.4736 2.75147 21.2485C2.52643 21.0235 2.4 20.7183 2.4 20.4V12C2.4 11.6817 2.52643 11.3765 2.75147 11.1515C2.97652 10.9264 3.28174 10.8 3.6 10.8H15.6C15.9183 10.8 16.2235 10.9264 16.4485 11.1515C16.6736 11.3765 16.8 11.6817 16.8 12V20.4Z" fill="#D1CBD8"/>
</svg>
