<svg width="16" height="16" viewBox="0 0 16 16" fill="none" xmlns="http://www.w3.org/2000/svg">
<path d="M6.00098 4.66634C6.00898 3.21634 6.07364 2.43101 6.58564 1.91901C7.17164 1.33301 8.11431 1.33301 9.99964 1.33301H10.6663C12.5523 1.33301 13.495 1.33301 14.081 1.91901C14.6663 2.50434 14.6663 3.44767 14.6663 5.33301V10.6663C14.6663 12.5517 14.6663 13.495 14.081 14.0803C13.4943 14.6663 12.5523 14.6663 10.6663 14.6663H9.99964C8.11431 14.6663 7.17164 14.6663 6.58564 14.0803C6.07364 13.5683 6.00898 12.783 6.00098 11.333" stroke="#D1CBD8" stroke-width="1.5" stroke-linecap="round"/>
<path d="M9.99967 8H1.33301M1.33301 8L3.66634 6M1.33301 8L3.66634 10" stroke="#D1CBD8" stroke-width="1.5" stroke-linecap="round" stroke-linejoin="round"/>
</svg>
