<svg width="148" height="39" viewBox="0 0 148 39" fill="none" xmlns="http://www.w3.org/2000/svg">
<mask id="mask0_514_11298" style="mask-type:luminance" maskUnits="userSpaceOnUse" x="6" y="1" width="35" height="37">
<path d="M6.38672 19.2254C6.38672 29.115 14.0536 37.1288 23.515 37.1288C32.9764 37.1288 40.6433 29.115 40.6433 19.2254C40.6433 9.33589 32.9764 1.31445 23.515 1.31445C14.0536 1.31445 6.38672 9.33589 6.38672 19.2254Z" fill="white"/>
</mask>
<g mask="url(#mask0_514_11298)">
<path d="M40.6506 1.31445H6.38672V37.1288H40.6506V1.31445Z" fill="url(#paint0_linear_514_11298)"/>
</g>
<mask id="mask1_514_11298" style="mask-type:luminance" maskUnits="userSpaceOnUse" x="7" y="2" width="33" height="34">
<path d="M8.09726 19.038C8.09726 10.1092 15.0419 2.85023 23.5842 2.85023C32.1264 2.85023 39.0711 10.1092 39.0711 19.038C39.0711 27.9668 32.1264 35.2257 23.5842 35.2257C15.0419 35.2333 8.09726 27.9668 8.09726 19.038ZM7.51367 19.038C7.51367 28.3023 14.721 35.8357 23.5842 35.8357C32.4474 35.8357 39.6547 28.3023 39.6547 19.038C39.6547 9.77367 32.4474 2.24023 23.5842 2.24023C14.721 2.24786 7.51367 9.78129 7.51367 19.038Z" fill="white"/>
</mask>
<g mask="url(#mask1_514_11298)">
<path d="M7.51944 36.2418L7.13281 2.24983L39.6459 1.8457L40.0325 35.8377L7.51944 36.2418Z" fill="url(#paint1_linear_514_11298)"/>
</g>
<path d="M36.0226 14.6175C35.8548 13.7787 35.6068 12.6274 35.3515 11.4836C34.819 9.08176 32.7765 7.38903 30.4203 7.38903C30.3474 7.08403 30.0848 6.85528 29.7711 6.85528H27.9547C27.6411 6.85528 27.3785 7.08403 27.3055 7.38903H24.074C24.074 7.38903 24.074 7.38903 24.074 7.39665C24.0813 7.4119 24.0959 7.41953 24.1032 7.43478C24.1397 7.49578 23.5123 9.91288 22.8558 12.3681L22.8412 12.3605C22.7902 12.3452 22.7391 12.3224 22.688 12.3071C22.4984 12.2461 22.3014 12.1851 22.1118 12.1089C21.7908 11.9869 22.7391 7.81602 22.8339 7.41953V7.4119C22.8339 7.40428 22.8412 7.38903 22.8412 7.3814H19.938C19.865 7.0764 19.6024 6.84766 19.2887 6.84766H17.4724C17.1587 6.84766 16.8961 7.0764 16.8231 7.3814H16.7064C14.3503 7.3814 12.3005 9.08176 11.7753 11.476C11.52 12.6197 11.2719 13.7711 11.1042 14.6098C10.3455 18.3689 10.1923 22.372 12.4464 23.8208C14.1022 24.4918 14.3357 24.1105 14.8463 22.5626C15.3569 21.0148 16.1885 17.0269 18.8729 17.2709C18.8729 17.2709 18.8729 17.2709 18.8802 17.2709C19.7118 17.3853 20.5726 17.4616 21.4625 17.5149C21.4625 17.5149 21.4625 17.5149 21.4698 17.5149C21.4844 17.5149 21.5063 17.5149 21.5209 17.5149C21.5209 17.5149 21.5209 17.5149 21.5209 17.5073C22.1701 17.4921 27.7432 17.3319 28.2684 17.2633H28.2757C30.9601 17.0117 31.7917 20.9995 32.3023 22.555C32.813 24.1029 33.3455 24.4841 35.0086 23.8131C37.2408 22.3796 36.7812 18.3766 36.0226 14.6175ZM15.8384 10.1645C15.8384 9.9205 16.028 9.71463 16.2615 9.71463H17.2827C17.5161 9.71463 17.7131 9.91288 17.7131 10.1645V11.1939C17.7131 11.3235 17.662 11.4531 17.5672 11.537L16.969 12.1012C16.8596 12.208 16.6918 12.208 16.5897 12.1012L15.9916 11.537C15.8967 11.4455 15.8457 11.3235 15.8457 11.1939V10.1645H15.8384ZM15.2475 13.7711H14.2627C14.0293 13.7711 13.8323 13.5729 13.8323 13.3212V12.2537C13.8323 12.0097 14.022 11.8039 14.2627 11.8039H15.2475C15.3715 11.8039 15.4955 11.8572 15.5758 11.9564L16.1156 12.5816C16.2177 12.696 16.2177 12.8714 16.1156 12.9781L15.5758 13.6033C15.4882 13.7177 15.3715 13.7711 15.2475 13.7711ZM17.7131 15.4257C17.7131 15.6697 17.5234 15.8756 17.2827 15.8756H16.2615C16.028 15.8756 15.8384 15.6773 15.8384 15.4257V14.3963C15.8384 14.2667 15.8894 14.1371 15.9843 14.0532L16.5824 13.489C16.6918 13.3822 16.8596 13.3822 16.9617 13.489L17.5599 14.0532C17.6547 14.1447 17.7058 14.2667 17.7058 14.3963V15.4257H17.7131ZM19.7191 13.3289C19.7191 13.5728 19.5295 13.7787 19.2887 13.7787H18.3112C18.1872 13.7787 18.0632 13.7253 17.983 13.6262L17.4432 13.001C17.3411 12.8866 17.3411 12.7112 17.4432 12.6045L17.983 11.9792C18.0705 11.8801 18.1872 11.8267 18.3112 11.8267H19.296C19.5295 11.8267 19.7264 12.025 19.7264 12.2766V13.3289H19.7191ZM21.6376 16.8439C21.6376 16.7448 21.6376 16.6457 21.6303 16.5389C21.5865 16.0662 21.696 15.6316 21.9659 15.2503C22.0388 15.1436 22.0607 14.9987 22.0899 14.831V14.8157C22.1045 14.7395 22.119 14.6632 22.1336 14.587C22.1555 14.4955 22.1774 14.404 22.2066 14.3125L22.2358 14.1981C22.316 13.8778 22.4035 13.5195 22.5202 13.1764C22.5859 12.9629 22.6807 12.7646 22.7756 12.5664L22.7829 12.5511C22.8047 12.513 22.8193 12.4749 22.8339 12.4367C22.3671 14.1828 21.8929 15.9137 21.6376 16.8439ZM30.9091 9.66888C31.4562 9.66888 31.9084 10.134 31.9084 10.7135C31.9084 11.2854 31.4635 11.7581 30.9091 11.7581C30.3547 11.7581 29.9097 11.293 29.9097 10.7135C29.9097 10.134 30.362 9.66888 30.9091 9.66888ZM28.9176 13.8321C28.3632 13.8321 27.9183 13.367 27.9183 12.7875C27.9183 12.2156 28.3632 11.7429 28.9176 11.7429C29.4647 11.7429 29.917 12.208 29.917 12.7875C29.917 13.367 29.472 13.8321 28.9176 13.8321ZM30.9091 15.9137C30.3547 15.9137 29.9097 15.4486 29.9097 14.8691C29.9097 14.2896 30.3547 13.8245 30.9091 13.8245C31.4562 13.8245 31.9084 14.2896 31.9084 14.8691C31.9084 15.4486 31.4635 15.9137 30.9091 15.9137ZM32.9005 13.8321C32.3534 13.8321 31.9011 13.367 31.9011 12.7875C31.9011 12.2156 32.3534 11.7429 32.9005 11.7429C33.4549 11.7429 33.8999 12.208 33.8999 12.7875C33.8999 13.367 33.4476 13.8321 32.9005 13.8321ZM16.7794 10.2865L16.4365 10.6449H17.1149L16.7794 10.2865ZM14.7223 13.1459V12.4367L14.3794 12.7951L14.7223 13.1459ZM16.7794 15.2961L17.1222 14.9377H16.4438L16.7794 15.2961ZM18.8292 13.1459L19.172 12.7875L18.8292 12.4291V13.1459Z" fill="white"/>
<mask id="mask2_514_11298" style="mask-type:luminance" maskUnits="userSpaceOnUse" x="20" y="4" width="8" height="15">
<path d="M22.432 4.41639C22.3226 4.45452 22.2278 4.51552 22.1621 4.59176C22.1038 4.66039 22.06 4.72901 22.0454 4.81289C22.0454 4.82051 22.0454 4.82051 22.0454 4.82814C21.9287 5.32376 21.8631 5.84225 22.184 6.315C22.3883 6.61237 22.381 6.68862 22.0819 6.95549C22.0308 7.00124 21.9871 7.04699 21.9287 7.09274L21.9141 7.10799C21.6807 7.31387 21.44 7.52736 21.3233 7.80949C21.1263 8.28986 20.995 8.80835 20.8637 9.30397V9.3116C20.8199 9.47935 20.7835 9.63947 20.7397 9.79197C20.6303 10.2037 20.7616 10.4706 21.1555 10.6231C21.3889 10.7146 21.6296 10.7908 21.8631 10.8671C21.9214 10.89 21.9871 10.9052 22.0527 10.9281L22.0819 10.9357L22.0454 11.012C22.0235 11.0577 22.0017 11.1035 21.9798 11.1492L21.9725 11.1645C21.8558 11.4085 21.7391 11.6601 21.6588 11.9193C21.5202 12.3387 21.4108 12.7886 21.3087 13.1851L21.2795 13.3071C21.2503 13.4214 21.2211 13.5434 21.192 13.6578C21.1701 13.7493 21.1482 13.8484 21.1336 13.9399L21.1263 13.9628C21.0971 14.1534 21.0607 14.3364 20.9731 14.4661C20.6449 14.9464 20.5063 15.4802 20.5646 16.0673C20.6157 16.5858 20.5281 17.0585 20.302 17.5618C20.2947 17.5694 20.2947 17.5847 20.2874 17.5923C20.2801 17.5999 20.2801 17.6152 20.2728 17.6228V17.6304C20.2218 17.7295 20.1561 17.8591 20.1999 17.9964C20.2291 18.0803 20.302 18.1489 20.4187 18.1946C20.6011 18.2709 20.8126 18.2709 20.9877 18.1946C21.119 18.1336 21.2138 18.0345 21.2576 17.9049L21.2649 17.8896C21.3233 17.7295 21.3743 17.5923 21.4108 17.4398L21.4181 17.4093L21.44 17.4322C21.4765 17.4703 21.5202 17.4932 21.5713 17.5084C21.688 17.5389 21.8193 17.4932 21.9214 17.3712C21.9579 17.333 21.9944 17.2873 22.0308 17.2339C22.0965 17.1348 22.1549 17.0357 22.2132 16.9365L22.2205 16.9289C22.2643 16.845 22.3153 16.7612 22.3664 16.6773C22.4029 16.6239 22.4393 16.5629 22.4758 16.5019L22.4977 16.4714C22.5998 16.296 22.7019 16.1207 22.8405 16.0063C23.4898 15.4954 24.0223 14.9159 24.4818 14.2449C24.5475 14.1534 24.6131 14.0619 24.6934 13.9704C24.9195 13.6883 25.1529 13.3986 25.1602 12.9487C25.1602 12.8267 25.1894 12.7047 25.2186 12.5827C25.2332 12.5141 25.2478 12.4454 25.2624 12.3692C25.277 12.2777 25.2915 12.1938 25.3134 12.11L25.328 12.0413C25.4156 11.622 25.5031 11.195 25.3353 10.7146C25.1894 10.2723 25.1165 9.78434 25.0508 9.31922V9.30397C25.0289 9.14385 25.0071 8.98373 24.9779 8.8236C24.9633 8.72448 24.9633 8.61773 24.9706 8.49573V8.42711L24.9998 8.44236C25.0071 8.44998 25.0143 8.44998 25.0216 8.45761L25.0289 8.46523C25.1456 8.5186 25.2405 8.57198 25.277 8.63298C25.452 8.93035 25.5833 9.26585 25.6927 9.5861C25.7 9.6166 25.7146 9.6471 25.7219 9.6776L25.7292 9.70047C25.8386 9.99784 25.9408 10.2876 25.8313 10.6002C25.773 10.7603 25.7584 10.9281 25.7365 11.0882L25.7292 11.1492C25.7219 11.2026 25.7146 11.256 25.7073 11.3093L25.6927 11.3856L25.9116 11.5152L26.2253 11.0958L26.6775 12.0108L26.7796 11.8355C26.8161 11.7668 26.8599 11.7135 26.8964 11.6601C26.9839 11.5305 27.0641 11.4237 27.0641 11.2941C27.0641 11.1873 27.0568 10.8061 26.8672 10.6078C26.5462 10.2647 26.466 9.85297 26.4368 9.3421C26.4076 8.65585 26.1377 8.00011 25.6125 7.35199C25.4666 7.16899 25.2769 6.99362 25.0289 6.803C24.8903 6.70387 24.708 6.62762 24.5329 6.59712C24.3068 6.559 24.0806 6.53612 23.8253 6.52087C23.767 6.51325 23.7086 6.51325 23.6503 6.50562H23.6284V6.48275C23.6357 6.44462 23.6357 6.4065 23.643 6.376L23.6503 6.33787C23.6648 6.20062 23.6794 6.07863 23.6794 5.95663C23.6794 5.86513 23.6721 5.78125 23.6648 5.70501V5.69738C23.6502 5.58301 23.643 5.46863 23.6648 5.37713C23.7159 5.17126 23.7013 5.00351 23.6065 4.85101C23.5554 4.76714 23.4898 4.69089 23.4022 4.61464C23.3803 4.59176 23.3585 4.57652 23.3366 4.56127C23.1907 4.44689 22.9791 4.37827 22.7676 4.37827C22.6582 4.35539 22.5415 4.37827 22.432 4.41639Z" fill="white"/>
</mask>
<g mask="url(#mask2_514_11298)">
<path d="M27.0632 4.35156H20.1406V18.2594H27.0632V4.35156Z" fill="url(#paint2_linear_514_11298)"/>
</g>
<mask id="mask3_514_11298" style="mask-type:luminance" maskUnits="userSpaceOnUse" x="22" y="15" width="3" height="4">
<path d="M22.9074 16.1656C22.7032 16.3791 22.5938 16.6688 22.5938 16.9738C22.5938 17.0348 22.601 17.1034 22.6156 17.1721C22.6229 17.2254 22.6375 17.2636 22.6521 17.3093C22.7907 17.7744 23.2211 18.0947 23.6879 18.0947H23.7025C24.1913 18.0871 24.6217 17.7211 24.7384 17.2254C24.7457 17.2178 24.7457 17.2102 24.7457 17.2026C24.7457 17.1949 24.7457 17.1949 24.7457 17.1873C24.7603 17.1111 24.7675 17.0424 24.7675 16.9662C24.7675 16.6612 24.6581 16.3791 24.4539 16.1656C24.2496 15.9521 23.9724 15.8301 23.6734 15.8301C23.3816 15.8377 23.1117 15.9521 22.9074 16.1656Z" fill="white"/>
</mask>
<g mask="url(#mask3_514_11298)">
<path d="M24.7748 15.8301H22.5938V18.0947H24.7748V15.8301Z" fill="url(#paint3_linear_514_11298)"/>
</g>
<path d="M22.009 9.61709C22.0017 9.51797 21.9579 9.42647 21.9141 9.2816C21.8193 9.45697 21.7463 9.59422 21.6296 9.80772C21.7536 9.89159 21.8704 9.98309 21.9944 10.067C22.0017 9.91447 22.0162 9.76197 22.009 9.61709ZM21.8777 9.81534L21.8047 9.76197L21.8777 9.61709V9.62472C21.8849 9.68572 21.8849 9.74672 21.8777 9.81534ZM22.009 9.61709C22.0017 9.51797 21.9579 9.42647 21.9141 9.2816C21.8193 9.45697 21.7463 9.59422 21.6296 9.80772C21.7536 9.89159 21.8704 9.98309 21.9944 10.067C22.0017 9.91447 22.0162 9.76197 22.009 9.61709ZM21.8777 9.81534L21.8047 9.76197L21.8777 9.61709V9.62472C21.8849 9.68572 21.8849 9.74672 21.8777 9.81534ZM22.009 9.61709C22.0017 9.51797 21.9579 9.42647 21.9141 9.2816C21.8193 9.45697 21.7463 9.59422 21.6296 9.80772C21.7536 9.89159 21.8704 9.98309 21.9944 10.067C22.0017 9.91447 22.0162 9.76197 22.009 9.61709ZM21.8777 9.81534L21.8047 9.76197L21.8777 9.61709V9.62472C21.8849 9.68572 21.8849 9.74672 21.8777 9.81534ZM22.009 9.61709C22.0017 9.51797 21.9579 9.42647 21.9141 9.2816C21.8193 9.45697 21.7463 9.59422 21.6296 9.80772C21.7536 9.89159 21.8704 9.98309 21.9944 10.067C22.0017 9.91447 22.0162 9.76197 22.009 9.61709ZM21.8777 9.81534L21.8047 9.76197L21.8777 9.61709V9.62472C21.8849 9.68572 21.8849 9.74672 21.8777 9.81534ZM22.009 9.61709C22.0017 9.51797 21.9579 9.42647 21.9141 9.2816C21.8193 9.45697 21.7463 9.59422 21.6296 9.80772C21.7536 9.89159 21.8704 9.98309 21.9944 10.067C22.0017 9.91447 22.0162 9.76197 22.009 9.61709ZM21.8777 9.81534L21.8047 9.76197L21.8777 9.61709V9.62472C21.8849 9.68572 21.8849 9.74672 21.8777 9.81534ZM22.009 9.61709C22.0017 9.51797 21.9579 9.42647 21.9141 9.2816C21.8193 9.45697 21.7463 9.59422 21.6296 9.80772C21.7536 9.89159 21.8704 9.98309 21.9944 10.067C22.0017 9.91447 22.0162 9.76197 22.009 9.61709ZM21.8777 9.81534L21.8047 9.76197L21.8777 9.61709V9.62472C21.8849 9.68572 21.8849 9.74672 21.8777 9.81534ZM22.009 9.61709C22.0017 9.51797 21.9579 9.42647 21.9141 9.2816C21.8193 9.45697 21.7463 9.59422 21.6296 9.80772C21.7536 9.89159 21.8704 9.98309 21.9944 10.067C22.0017 9.91447 22.0162 9.76197 22.009 9.61709ZM21.8777 9.81534L21.8047 9.76197L21.8777 9.61709V9.62472C21.8849 9.68572 21.8849 9.74672 21.8777 9.81534ZM22.009 9.61709C22.0017 9.51797 21.9579 9.42647 21.9141 9.2816C21.8193 9.45697 21.7463 9.59422 21.6296 9.80772C21.7536 9.89159 21.8704 9.98309 21.9944 10.067C22.0017 9.91447 22.0162 9.76197 22.009 9.61709ZM21.8777 9.81534L21.8047 9.76197L21.8777 9.61709V9.62472C21.8849 9.68572 21.8849 9.74672 21.8777 9.81534ZM22.009 9.61709C22.0017 9.51797 21.9579 9.42647 21.9141 9.2816C21.8193 9.45697 21.7463 9.59422 21.6296 9.80772C21.7536 9.89159 21.8704 9.98309 21.9944 10.067C22.0017 9.91447 22.0162 9.76197 22.009 9.61709ZM21.8777 9.81534L21.8047 9.76197L21.8777 9.61709V9.62472C21.8849 9.68572 21.8849 9.74672 21.8777 9.81534ZM22.009 9.61709C22.0017 9.51797 21.9579 9.42647 21.9141 9.2816C21.8193 9.45697 21.7463 9.59422 21.6296 9.80772C21.7536 9.89159 21.8704 9.98309 21.9944 10.067C22.0017 9.91447 22.0162 9.76197 22.009 9.61709ZM21.8777 9.81534L21.8047 9.76197L21.8777 9.61709V9.62472C21.8849 9.68572 21.8849 9.74672 21.8777 9.81534ZM22.009 9.61709C22.0017 9.51797 21.9579 9.42647 21.9141 9.2816C21.8193 9.45697 21.7463 9.59422 21.6296 9.80772C21.7536 9.89159 21.8704 9.98309 21.9944 10.067C22.0017 9.91447 22.0162 9.76197 22.009 9.61709ZM21.8777 9.81534L21.8047 9.76197L21.8777 9.61709V9.62472C21.8849 9.68572 21.8849 9.74672 21.8777 9.81534ZM22.009 9.61709C22.0017 9.51797 21.9579 9.42647 21.9141 9.2816C21.8193 9.45697 21.7463 9.59422 21.6296 9.80772C21.7536 9.89159 21.8704 9.98309 21.9944 10.067C22.0017 9.91447 22.0162 9.76197 22.009 9.61709ZM21.8777 9.81534L21.8047 9.76197L21.8777 9.61709V9.62472C21.8849 9.68572 21.8849 9.74672 21.8777 9.81534ZM22.009 9.61709C22.0017 9.51797 21.9579 9.42647 21.9141 9.2816C21.8193 9.45697 21.7463 9.59422 21.6296 9.80772C21.7536 9.89159 21.8704 9.98309 21.9944 10.067C22.0017 9.91447 22.0162 9.76197 22.009 9.61709ZM21.8777 9.81534L21.8047 9.76197L21.8777 9.61709V9.62472C21.8849 9.68572 21.8849 9.74672 21.8777 9.81534ZM22.009 9.61709C22.0017 9.51797 21.9579 9.42647 21.9141 9.2816C21.8193 9.45697 21.7463 9.59422 21.6296 9.80772C21.7536 9.89159 21.8704 9.98309 21.9944 10.067C22.0017 9.91447 22.0162 9.76197 22.009 9.61709ZM21.8777 9.81534L21.8047 9.76197L21.8777 9.61709V9.62472C21.8849 9.68572 21.8849 9.74672 21.8777 9.81534ZM22.009 9.61709C22.0017 9.51797 21.9579 9.42647 21.9141 9.2816C21.8193 9.45697 21.7463 9.59422 21.6296 9.80772C21.7536 9.89159 21.8704 9.98309 21.9944 10.067C22.0017 9.91447 22.0162 9.76197 22.009 9.61709ZM21.8777 9.81534L21.8047 9.76197L21.8777 9.61709V9.62472C21.8849 9.68572 21.8849 9.74672 21.8777 9.81534ZM22.009 9.61709C22.0017 9.51797 21.9579 9.42647 21.9141 9.2816C21.8193 9.45697 21.7463 9.59422 21.6296 9.80772C21.7536 9.89159 21.8704 9.98309 21.9944 10.067C22.0017 9.91447 22.0162 9.76197 22.009 9.61709ZM21.8777 9.81534L21.8047 9.76197L21.8777 9.61709V9.62472C21.8849 9.68572 21.8849 9.74672 21.8777 9.81534ZM22.009 9.61709C22.0017 9.51797 21.9579 9.42647 21.9141 9.2816C21.8193 9.45697 21.7463 9.59422 21.6296 9.80772C21.7536 9.89159 21.8704 9.98309 21.9944 10.067C22.0017 9.91447 22.0162 9.76197 22.009 9.61709ZM21.8777 9.81534L21.8047 9.76197L21.8777 9.61709V9.62472C21.8849 9.68572 21.8849 9.74672 21.8777 9.81534ZM22.009 9.61709C22.0017 9.51797 21.9579 9.42647 21.9141 9.2816C21.8193 9.45697 21.7463 9.59422 21.6296 9.80772C21.7536 9.89159 21.8704 9.98309 21.9944 10.067C22.0017 9.91447 22.0162 9.76197 22.009 9.61709ZM21.8777 9.81534L21.8047 9.76197L21.8777 9.61709V9.62472C21.8849 9.68572 21.8849 9.74672 21.8777 9.81534ZM22.009 9.61709C22.0017 9.51797 21.9579 9.42647 21.9141 9.2816C21.8193 9.45697 21.7463 9.59422 21.6296 9.80772C21.7536 9.89159 21.8704 9.98309 21.9944 10.067C22.0017 9.91447 22.0162 9.76197 22.009 9.61709ZM21.8777 9.81534L21.8047 9.76197L21.8777 9.61709V9.62472C21.8849 9.68572 21.8849 9.74672 21.8777 9.81534ZM22.009 9.61709C22.0017 9.51797 21.9579 9.42647 21.9141 9.2816C21.8193 9.45697 21.7463 9.59422 21.6296 9.80772C21.7536 9.89159 21.8704 9.98309 21.9944 10.067C22.0017 9.91447 22.0162 9.76197 22.009 9.61709ZM21.8777 9.81534L21.8047 9.76197L21.8777 9.61709V9.62472C21.8849 9.68572 21.8849 9.74672 21.8777 9.81534ZM26.5535 11.4776C26.5973 11.5615 26.641 11.6453 26.6848 11.7445C26.7359 11.653 26.7942 11.5767 26.8453 11.5081C26.7651 11.6072 26.6119 11.592 26.5535 11.4776ZM25.9189 11.1955C26.0356 11.1497 26.0939 11.043 26.218 10.8828C26.1085 11.0277 25.9918 11.1497 25.9189 11.1955ZM25.8678 11.2107C25.8313 11.2031 25.8095 11.1802 25.7949 11.1573C25.7949 11.165 25.7949 11.165 25.8022 11.1726C25.8095 11.1955 25.8386 11.2183 25.8678 11.2107ZM25.897 10.6617C25.8313 10.8218 25.7292 10.9438 25.7657 11.0963C25.7584 10.9743 25.8386 10.799 25.897 10.6617ZM22.009 9.61709C22.0017 9.51797 21.9579 9.42647 21.9141 9.2816C21.8193 9.45697 21.7463 9.59422 21.6296 9.80772C21.7536 9.89159 21.8704 9.98309 21.9944 10.067C22.0017 9.91447 22.0162 9.76197 22.009 9.61709ZM21.8777 9.81534L21.8047 9.76197L21.8777 9.61709V9.62472C21.8849 9.68572 21.8849 9.74672 21.8777 9.81534ZM22.009 9.61709C22.0017 9.51797 21.9579 9.42647 21.9141 9.2816C21.8193 9.45697 21.7463 9.59422 21.6296 9.80772C21.7536 9.89159 21.8704 9.98309 21.9944 10.067C22.0017 9.91447 22.0162 9.76197 22.009 9.61709ZM21.8777 9.81534L21.8047 9.76197L21.8777 9.61709V9.62472C21.8849 9.68572 21.8849 9.74672 21.8777 9.81534ZM26.5535 11.4776C26.5973 11.5615 26.641 11.6453 26.6848 11.7445C26.7359 11.653 26.7942 11.5767 26.8453 11.5081C26.7651 11.6072 26.6119 11.592 26.5535 11.4776ZM25.9189 11.1955C26.0356 11.1497 26.0939 11.043 26.218 10.8828C26.1085 11.0277 25.9918 11.1497 25.9189 11.1955ZM25.8678 11.2107C25.8313 11.2031 25.8095 11.1802 25.7949 11.1573C25.7949 11.165 25.7949 11.165 25.8022 11.1726C25.8095 11.1955 25.8386 11.2183 25.8678 11.2107ZM25.897 10.6617C25.8313 10.8218 25.7292 10.9438 25.7657 11.0963C25.7584 10.9743 25.8386 10.799 25.897 10.6617ZM22.009 9.61709C22.0017 9.51797 21.9579 9.42647 21.9141 9.2816C21.8193 9.45697 21.7463 9.59422 21.6296 9.80772C21.7536 9.89159 21.8704 9.98309 21.9944 10.067C22.0017 9.91447 22.0162 9.76197 22.009 9.61709ZM21.8777 9.81534L21.8047 9.76197L21.8777 9.61709V9.62472C21.8849 9.68572 21.8849 9.74672 21.8777 9.81534ZM22.009 9.61709C22.0017 9.51797 21.9579 9.42647 21.9141 9.2816C21.8193 9.45697 21.7463 9.59422 21.6296 9.80772C21.7536 9.89159 21.8704 9.98309 21.9944 10.067C22.0017 9.91447 22.0162 9.76197 22.009 9.61709ZM21.8777 9.81534L21.8047 9.76197L21.8777 9.61709V9.62472C21.8849 9.68572 21.8849 9.74672 21.8777 9.81534ZM26.5535 11.4776C26.5973 11.5615 26.641 11.6453 26.6848 11.7445C26.7359 11.653 26.7942 11.5767 26.8453 11.5081C26.7651 11.6072 26.6119 11.592 26.5535 11.4776ZM25.9189 11.1955C26.0356 11.1497 26.0939 11.043 26.218 10.8828C26.1085 11.0277 25.9918 11.1497 25.9189 11.1955ZM25.8678 11.2107C25.8313 11.2031 25.8095 11.1802 25.7949 11.1573C25.7949 11.165 25.7949 11.165 25.8022 11.1726C25.8095 11.1955 25.8386 11.2183 25.8678 11.2107ZM25.897 10.6617C25.8313 10.8218 25.7292 10.9438 25.7657 11.0963C25.7584 10.9743 25.8386 10.799 25.897 10.6617ZM22.009 9.61709C22.0017 9.51797 21.9579 9.42647 21.9141 9.2816C21.8193 9.45697 21.7463 9.59422 21.6296 9.80772C21.7536 9.89159 21.8704 9.98309 21.9944 10.067C22.0017 9.91447 22.0162 9.76197 22.009 9.61709ZM21.8777 9.81534L21.8047 9.76197L21.8777 9.61709V9.62472C21.8849 9.68572 21.8849 9.74672 21.8777 9.81534ZM22.009 9.61709C22.0017 9.51797 21.9579 9.42647 21.9141 9.2816C21.8193 9.45697 21.7463 9.59422 21.6296 9.80772C21.7536 9.89159 21.8704 9.98309 21.9944 10.067C22.0017 9.91447 22.0162 9.76197 22.009 9.61709ZM21.8777 9.81534L21.8047 9.76197L21.8777 9.61709V9.62472C21.8849 9.68572 21.8849 9.74672 21.8777 9.81534ZM26.5535 11.4776C26.5973 11.5615 26.641 11.6453 26.6848 11.7445C26.7359 11.653 26.7942 11.5767 26.8453 11.5081C26.7651 11.6072 26.6119 11.592 26.5535 11.4776ZM25.9189 11.1955C26.0356 11.1497 26.0939 11.043 26.218 10.8828C26.1085 11.0277 25.9918 11.1497 25.9189 11.1955ZM25.8678 11.2107C25.8313 11.2031 25.8095 11.1802 25.7949 11.1573C25.7949 11.165 25.7949 11.165 25.8022 11.1726C25.8095 11.1955 25.8386 11.2183 25.8678 11.2107ZM25.897 10.6617C25.8313 10.8218 25.7292 10.9438 25.7657 11.0963C25.7584 10.9743 25.8386 10.799 25.897 10.6617ZM22.009 9.61709C22.0017 9.51797 21.9579 9.42647 21.9141 9.2816C21.8193 9.45697 21.7463 9.59422 21.6296 9.80772C21.7536 9.89159 21.8704 9.98309 21.9944 10.067C22.0017 9.91447 22.0162 9.76197 22.009 9.61709ZM21.8777 9.81534L21.8047 9.76197L21.8777 9.61709V9.62472C21.8849 9.68572 21.8849 9.74672 21.8777 9.81534ZM22.009 9.61709C22.0017 9.51797 21.9579 9.42647 21.9141 9.2816C21.8193 9.45697 21.7463 9.59422 21.6296 9.80772C21.7536 9.89159 21.8704 9.98309 21.9944 10.067C22.0017 9.91447 22.0162 9.76197 22.009 9.61709ZM21.8777 9.81534L21.8047 9.76197L21.8777 9.61709V9.62472C21.8849 9.68572 21.8849 9.74672 21.8777 9.81534ZM26.5535 11.4776C26.5973 11.5615 26.641 11.6453 26.6848 11.7445C26.7359 11.653 26.7942 11.5767 26.8453 11.5081C26.7651 11.6072 26.6119 11.592 26.5535 11.4776ZM25.9189 11.1955C26.0356 11.1497 26.0939 11.043 26.218 10.8828C26.1085 11.0277 25.9918 11.1497 25.9189 11.1955ZM25.8678 11.2107C25.8313 11.2031 25.8095 11.1802 25.7949 11.1573C25.7949 11.165 25.7949 11.165 25.8022 11.1726C25.8095 11.1955 25.8386 11.2183 25.8678 11.2107ZM25.897 10.6617C25.8313 10.8218 25.7292 10.9438 25.7657 11.0963C25.7584 10.9743 25.8386 10.799 25.897 10.6617ZM22.009 9.61709C22.0017 9.51797 21.9579 9.42647 21.9141 9.2816C21.8193 9.45697 21.7463 9.59422 21.6296 9.80772C21.7536 9.89159 21.8704 9.98309 21.9944 10.067C22.0017 9.91447 22.0162 9.76197 22.009 9.61709ZM21.8777 9.81534L21.8047 9.76197L21.8777 9.61709V9.62472C21.8849 9.68572 21.8849 9.74672 21.8777 9.81534ZM22.009 9.61709C22.0017 9.51797 21.9579 9.42647 21.9141 9.2816C21.8193 9.45697 21.7463 9.59422 21.6296 9.80772C21.7536 9.89159 21.8704 9.98309 21.9944 10.067C22.0017 9.91447 22.0162 9.76197 22.009 9.61709ZM21.8777 9.81534L21.8047 9.76197L21.8777 9.61709V9.62472C21.8849 9.68572 21.8849 9.74672 21.8777 9.81534ZM26.5535 11.4776C26.5973 11.5615 26.641 11.6453 26.6848 11.7445C26.7359 11.653 26.7942 11.5767 26.8453 11.5081C26.7651 11.6072 26.6119 11.592 26.5535 11.4776ZM25.9189 11.1955C26.0356 11.1497 26.0939 11.043 26.218 10.8828C26.1085 11.0277 25.9918 11.1497 25.9189 11.1955ZM25.7876 11.1573C25.7876 11.165 25.7876 11.165 25.7949 11.1726C25.8095 11.1955 25.8386 11.2183 25.8678 11.2183C25.8313 11.1955 25.8095 11.1802 25.7876 11.1573ZM25.773 11.0963C25.7584 10.982 25.8459 10.8066 25.9043 10.6617C25.8313 10.8142 25.7365 10.9438 25.773 11.0963ZM21.9141 9.2816C21.8193 9.45697 21.7463 9.59422 21.6296 9.80772C21.7536 9.89159 21.8704 9.98309 21.9944 10.067C22.0017 9.91447 22.0235 9.76959 22.009 9.61709C22.0017 9.51797 21.9579 9.41885 21.9141 9.2816ZM21.8777 9.81534L21.8047 9.76197L21.8777 9.61709V9.62472C21.8849 9.68572 21.8849 9.74672 21.8777 9.81534ZM26.8891 10.555C26.5681 10.2195 26.4879 9.81534 26.466 9.30447C26.4368 8.6106 26.1596 7.95486 25.6344 7.29912C25.4885 7.11612 25.2915 6.93312 25.0508 6.75012C24.9122 6.64337 24.7299 6.56712 24.5475 6.53662C24.3141 6.4985 24.0879 6.47562 23.8399 6.46037C23.7815 6.45275 23.7232 6.45275 23.6648 6.44512C23.6721 6.407 23.6721 6.36887 23.6794 6.33837C23.694 6.18588 23.7086 6.05625 23.7159 5.919C23.7159 5.83513 23.7086 5.74363 23.7013 5.66738C23.6867 5.553 23.6721 5.43863 23.7013 5.34713C23.7597 5.11838 23.7232 4.94301 23.643 4.80576C23.5919 4.71426 23.5116 4.63801 23.4314 4.56939C23.4095 4.55414 23.3876 4.53127 23.3658 4.51602C23.1323 4.32539 22.7457 4.27964 22.432 4.39402C22.3153 4.43977 22.2205 4.50076 22.1548 4.56939C22.0892 4.63801 22.0527 4.71426 22.0308 4.79814C22.0308 4.80576 22.0308 4.80576 22.0308 4.80576C21.9141 5.30901 21.8485 5.83513 22.1767 6.30787C22.3737 6.59762 22.3664 6.65862 22.0819 6.92549C22.0308 6.97124 21.9725 7.02462 21.9214 7.07037C21.6807 7.28387 21.4327 7.49736 21.316 7.78711C21.119 8.27511 20.9804 8.7936 20.8564 9.28922C20.8126 9.44935 20.7762 9.60947 20.7324 9.76959C20.6157 10.1966 20.7543 10.4711 21.1628 10.6236C21.3962 10.7151 21.6223 10.7913 21.8704 10.8676C21.936 10.8905 22.0017 10.9133 22.06 10.9286C22.0308 10.9896 22.0017 11.0582 21.9725 11.1192C21.8558 11.3632 21.7391 11.6225 21.6515 11.8893C21.5202 12.3087 21.4108 12.7357 21.3014 13.1551C21.2576 13.3152 21.2211 13.4677 21.1774 13.6278C21.1482 13.7269 21.1336 13.8261 21.119 13.9252C21.0898 14.1158 21.0534 14.2988 20.9731 14.4284C20.6376 14.9088 20.499 15.4502 20.5573 16.0449C20.6084 16.5634 20.5281 17.0285 20.2947 17.5318C20.2874 17.5394 20.2874 17.547 20.2801 17.5623C20.2728 17.5699 20.2728 17.5852 20.2655 17.5928C20.2145 17.6995 20.1415 17.8368 20.1853 17.9816C20.2145 18.0731 20.2947 18.1494 20.4114 18.1951C20.5063 18.2333 20.6084 18.2561 20.7105 18.2561C20.8126 18.2561 20.9075 18.2333 20.995 18.1951C21.1336 18.1341 21.2284 18.0274 21.2795 17.8978L21.2868 17.8825C21.3378 17.7376 21.3962 17.5852 21.4327 17.4327C21.4764 17.4708 21.5202 17.5013 21.5713 17.5089C21.6953 17.5394 21.8339 17.4937 21.9433 17.364C21.9798 17.3183 22.0162 17.2725 22.0527 17.2268C22.1184 17.1277 22.184 17.0209 22.2424 16.9218C22.2934 16.8303 22.3372 16.754 22.3883 16.6702C22.432 16.6015 22.4758 16.5329 22.5196 16.4567C22.6217 16.2813 22.7238 16.1059 22.8624 15.9992C23.5116 15.4807 24.0514 14.9012 24.5037 14.2302C24.5694 14.1387 24.635 14.0472 24.7153 13.9557C24.9414 13.6736 25.1821 13.3762 25.1821 12.9187C25.1821 12.8043 25.2113 12.6823 25.2332 12.5603C25.2478 12.4917 25.2624 12.4154 25.2769 12.3468C25.2915 12.2324 25.3207 12.1257 25.3426 12.0113C25.4301 11.592 25.5177 11.1573 25.3499 10.6693C25.204 10.2271 25.1311 9.74672 25.0727 9.27397C25.0508 9.10622 25.0289 8.93848 24.9998 8.77835C24.9852 8.6716 24.9852 8.55723 24.9925 8.42761C24.9925 8.42761 24.9925 8.4276 24.9925 8.41998C24.9997 8.4276 25.007 8.42761 25.0216 8.43523C25.1383 8.48861 25.2332 8.54198 25.2697 8.60298C25.452 8.90035 25.576 9.2511 25.6854 9.54847C25.7 9.5866 25.7146 9.62472 25.7292 9.66285C25.8386 9.96022 25.9408 10.2423 25.8313 10.5473C25.773 10.7075 25.7584 10.8828 25.7365 11.0506C25.7292 11.1192 25.7219 11.1878 25.7146 11.2641L25.7 11.3556L25.9481 11.5005L26.2544 11.0887L26.7067 12.0037L26.8234 11.7978C26.8599 11.7292 26.9036 11.6758 26.9401 11.6225C27.0277 11.4928 27.1079 11.3861 27.1079 11.2488C27.086 11.1421 27.0787 10.7608 26.8891 10.555ZM26.9328 11.3556C26.9109 11.4013 26.8818 11.4471 26.8526 11.4928L26.8453 11.5005C26.7723 11.6072 26.6119 11.592 26.5608 11.4776C26.4514 11.2565 26.3566 11.0658 26.2471 10.8447C26.2398 10.86 26.2325 10.8676 26.218 10.8828C26.1085 11.0277 25.9918 11.1497 25.9189 11.1955C25.897 11.2031 25.8824 11.2107 25.8678 11.2107C25.8313 11.2031 25.8095 11.1802 25.7949 11.1573V11.1497C25.7876 11.1345 25.7803 11.1192 25.7803 11.0963V11.0887C25.7657 10.9743 25.8532 10.799 25.9116 10.6541C25.9189 10.6312 25.9262 10.616 25.9335 10.5931C26.0794 10.189 25.9116 9.84584 25.7876 9.4951C25.6709 9.1596 25.5396 8.8241 25.3645 8.5191C25.2769 8.37423 25.0654 8.32086 24.8539 8.19123C24.8539 8.4276 24.832 8.6106 24.8612 8.78598C24.9633 9.42647 25.0143 10.0898 25.2186 10.6998C25.4155 11.2793 25.2259 11.775 25.1383 12.3087C25.1092 12.5069 25.0435 12.7052 25.0362 12.9034C25.0362 13.4448 24.6423 13.7498 24.3797 14.1387C23.9274 14.8097 23.3876 15.3815 22.7676 15.8772C22.5561 16.0449 22.4247 16.3347 22.2716 16.5787C22.133 16.7922 22.0235 17.0362 21.8631 17.2268L21.8412 17.2573C21.7172 17.4022 21.5713 17.4022 21.4837 17.2802C21.4546 17.242 21.4327 17.1887 21.4181 17.12C21.3962 17.0285 21.367 16.9065 21.4035 16.8379C21.6515 16.3804 21.615 15.7399 22.1913 15.473C22.3372 15.4044 22.432 15.1985 22.5342 15.046C22.826 14.6114 23.1469 14.1921 23.3876 13.7269C23.4898 13.5287 23.4241 13.2389 23.4387 12.9797C23.3585 12.9873 23.322 12.9797 23.3147 12.9873C23.0959 13.4906 22.6874 13.8337 22.3518 14.2302C21.7974 14.8859 21.6442 15.7628 21.3087 16.5405C21.2941 16.5787 21.2795 16.6397 21.2941 16.6778C21.3597 16.8913 21.3597 17.1048 21.316 17.303C21.2795 17.4784 21.2138 17.6538 21.1555 17.8368C21.0679 18.0731 20.7543 18.1799 20.4552 18.0579C20.1707 17.9435 20.3385 17.73 20.4041 17.5852C20.4187 17.5547 20.426 17.5318 20.4406 17.5013C20.6449 17.0285 20.7324 16.5558 20.6813 16.0297C20.6303 15.4883 20.747 14.9774 21.0752 14.5047C21.2284 14.2836 21.2284 13.9404 21.3014 13.6583C21.4546 13.0788 21.5859 12.4917 21.7682 11.9274C21.8849 11.5538 22.0819 11.2031 22.2351 10.8371C21.8704 10.7151 21.5275 10.6083 21.1993 10.4863C20.8564 10.3567 20.7543 10.1508 20.8491 9.80009C21.0315 9.13672 21.1701 8.45811 21.4327 7.83286C21.564 7.51261 21.8995 7.26862 22.1621 7.01699C22.4904 6.712 22.5269 6.58237 22.2789 6.21637C21.9725 5.77413 22.0454 5.27851 22.1548 4.81339C22.1548 4.80576 22.1621 4.79814 22.1621 4.79051C22.1913 4.69139 22.2716 4.60751 22.3664 4.55414C22.5998 4.42452 22.9573 4.40927 23.2053 4.55414C23.2345 4.56939 23.2563 4.58464 23.2855 4.60751C23.3585 4.66851 23.4241 4.72951 23.4752 4.79051C23.5773 4.92013 23.6284 5.08026 23.57 5.30138C23.5189 5.48438 23.5846 5.7055 23.5846 5.90375C23.5773 6.09438 23.5481 6.285 23.5262 6.5595C23.8764 6.59762 24.2046 6.61287 24.5256 6.66625C24.6861 6.69674 24.8466 6.75774 24.9779 6.85687C25.1821 7.00937 25.3791 7.18474 25.5396 7.38299C25.9845 7.93961 26.3055 8.56485 26.342 9.30447C26.3638 9.80009 26.4441 10.2576 26.8015 10.6465C26.9255 10.7761 26.9693 11.043 26.962 11.2488C26.962 11.2717 26.9547 11.3022 26.9474 11.3251C26.9401 11.3403 26.9328 11.348 26.9328 11.3556ZM21.7755 15.6179C21.9433 15.1452 22.1184 14.7029 22.4393 14.3293C22.5269 14.2226 22.6217 14.1234 22.7165 14.0243C22.9281 13.7956 23.1396 13.5668 23.3074 13.2847C23.3147 13.4372 23.3147 13.5744 23.2709 13.6659C23.0886 14.0091 22.8624 14.3369 22.6436 14.6496C22.5706 14.7563 22.4977 14.863 22.4247 14.9698C22.3956 15.0079 22.3737 15.0537 22.3445 15.0994C22.2789 15.2062 22.2059 15.3205 22.133 15.3587C21.9798 15.4273 21.8631 15.5188 21.7755 15.6179ZM21.9141 9.2816C21.8193 9.45697 21.7463 9.59422 21.6296 9.80772C21.7536 9.89159 21.8704 9.98309 21.9944 10.067C22.0017 9.91447 22.0235 9.76959 22.009 9.61709C22.0017 9.51797 21.9579 9.41885 21.9141 9.2816ZM21.8777 9.81534L21.8047 9.76197L21.8777 9.61709V9.62472C21.8849 9.68572 21.8849 9.74672 21.8777 9.81534ZM22.009 9.61709C22.0017 9.51797 21.9579 9.42647 21.9141 9.2816C21.8193 9.45697 21.7463 9.59422 21.6296 9.80772C21.7536 9.89159 21.8704 9.98309 21.9944 10.067C22.0017 9.91447 22.0162 9.76197 22.009 9.61709ZM21.8777 9.81534L21.8047 9.76197L21.8777 9.61709V9.62472C21.8849 9.68572 21.8849 9.74672 21.8777 9.81534ZM25.897 10.6617C25.8313 10.8218 25.7292 10.9438 25.7657 11.0963C25.7584 10.9743 25.8386 10.799 25.897 10.6617ZM25.8678 11.2107C25.8313 11.2031 25.8095 11.1802 25.7949 11.1573C25.7949 11.165 25.7949 11.165 25.8022 11.1726C25.8095 11.1955 25.8386 11.2183 25.8678 11.2107ZM25.9189 11.1955C26.0356 11.1497 26.0939 11.043 26.218 10.8828C26.1085 11.0277 25.9918 11.1497 25.9189 11.1955ZM26.5535 11.4776C26.5973 11.5615 26.641 11.6453 26.6848 11.7445C26.7359 11.653 26.7942 11.5767 26.8453 11.5081C26.7651 11.6072 26.6119 11.592 26.5535 11.4776ZM22.009 9.61709C22.0017 9.51797 21.9579 9.42647 21.9141 9.2816C21.8193 9.45697 21.7463 9.59422 21.6296 9.80772C21.7536 9.89159 21.8704 9.98309 21.9944 10.067C22.0017 9.91447 22.0162 9.76197 22.009 9.61709ZM21.8777 9.81534L21.8047 9.76197L21.8777 9.61709V9.62472C21.8849 9.68572 21.8849 9.74672 21.8777 9.81534ZM22.009 9.61709C22.0017 9.51797 21.9579 9.42647 21.9141 9.2816C21.8193 9.45697 21.7463 9.59422 21.6296 9.80772C21.7536 9.89159 21.8704 9.98309 21.9944 10.067C22.0017 9.91447 22.0162 9.76197 22.009 9.61709ZM21.8777 9.81534L21.8047 9.76197L21.8777 9.61709V9.62472C21.8849 9.68572 21.8849 9.74672 21.8777 9.81534ZM25.897 10.6617C25.8313 10.8218 25.7292 10.9438 25.7657 11.0963C25.7584 10.9743 25.8386 10.799 25.897 10.6617ZM25.8678 11.2107C25.8313 11.2031 25.8095 11.1802 25.7949 11.1573C25.7949 11.165 25.7949 11.165 25.8022 11.1726C25.8095 11.1955 25.8386 11.2183 25.8678 11.2107ZM25.9189 11.1955C26.0356 11.1497 26.0939 11.043 26.218 10.8828C26.1085 11.0277 25.9918 11.1497 25.9189 11.1955ZM26.5535 11.4776C26.5973 11.5615 26.641 11.6453 26.6848 11.7445C26.7359 11.653 26.7942 11.5767 26.8453 11.5081C26.7651 11.6072 26.6119 11.592 26.5535 11.4776ZM22.009 9.61709C22.0017 9.51797 21.9579 9.42647 21.9141 9.2816C21.8193 9.45697 21.7463 9.59422 21.6296 9.80772C21.7536 9.89159 21.8704 9.98309 21.9944 10.067C22.0017 9.91447 22.0162 9.76197 22.009 9.61709ZM21.8777 9.81534L21.8047 9.76197L21.8777 9.61709V9.62472C21.8849 9.68572 21.8849 9.74672 21.8777 9.81534ZM22.009 9.61709C22.0017 9.51797 21.9579 9.42647 21.9141 9.2816C21.8193 9.45697 21.7463 9.59422 21.6296 9.80772C21.7536 9.89159 21.8704 9.98309 21.9944 10.067C22.0017 9.91447 22.0162 9.76197 22.009 9.61709ZM21.8777 9.81534L21.8047 9.76197L21.8777 9.61709V9.62472C21.8849 9.68572 21.8849 9.74672 21.8777 9.81534ZM25.897 10.6617C25.8313 10.8218 25.7292 10.9438 25.7657 11.0963C25.7584 10.9743 25.8386 10.799 25.897 10.6617ZM25.8678 11.2107C25.8313 11.2031 25.8095 11.1802 25.7949 11.1573C25.7949 11.165 25.7949 11.165 25.8022 11.1726C25.8095 11.1955 25.8386 11.2183 25.8678 11.2107ZM25.9189 11.1955C26.0356 11.1497 26.0939 11.043 26.218 10.8828C26.1085 11.0277 25.9918 11.1497 25.9189 11.1955ZM26.5535 11.4776C26.5973 11.5615 26.641 11.6453 26.6848 11.7445C26.7359 11.653 26.7942 11.5767 26.8453 11.5081C26.7651 11.6072 26.6119 11.592 26.5535 11.4776ZM22.009 9.61709C22.0017 9.51797 21.9579 9.42647 21.9141 9.2816C21.8193 9.45697 21.7463 9.59422 21.6296 9.80772C21.7536 9.89159 21.8704 9.98309 21.9944 10.067C22.0017 9.91447 22.0162 9.76197 22.009 9.61709ZM21.8777 9.81534L21.8047 9.76197L21.8777 9.61709V9.62472C21.8849 9.68572 21.8849 9.74672 21.8777 9.81534ZM22.009 9.61709C22.0017 9.51797 21.9579 9.42647 21.9141 9.2816C21.8193 9.45697 21.7463 9.59422 21.6296 9.80772C21.7536 9.89159 21.8704 9.98309 21.9944 10.067C22.0017 9.91447 22.0162 9.76197 22.009 9.61709ZM21.8777 9.81534L21.8047 9.76197L21.8777 9.61709V9.62472C21.8849 9.68572 21.8849 9.74672 21.8777 9.81534ZM25.897 10.6617C25.8313 10.8218 25.7292 10.9438 25.7657 11.0963C25.7584 10.9743 25.8386 10.799 25.897 10.6617ZM25.8678 11.2107C25.8313 11.2031 25.8095 11.1802 25.7949 11.1573C25.7949 11.165 25.7949 11.165 25.8022 11.1726C25.8095 11.1955 25.8386 11.2183 25.8678 11.2107ZM25.9189 11.1955C26.0356 11.1497 26.0939 11.043 26.218 10.8828C26.1085 11.0277 25.9918 11.1497 25.9189 11.1955ZM26.5535 11.4776C26.5973 11.5615 26.641 11.6453 26.6848 11.7445C26.7359 11.653 26.7942 11.5767 26.8453 11.5081C26.7651 11.6072 26.6119 11.592 26.5535 11.4776ZM22.009 9.61709C22.0017 9.51797 21.9579 9.42647 21.9141 9.2816C21.8193 9.45697 21.7463 9.59422 21.6296 9.80772C21.7536 9.89159 21.8704 9.98309 21.9944 10.067C22.0017 9.91447 22.0162 9.76197 22.009 9.61709ZM21.8777 9.81534L21.8047 9.76197L21.8777 9.61709V9.62472C21.8849 9.68572 21.8849 9.74672 21.8777 9.81534ZM22.009 9.61709C22.0017 9.51797 21.9579 9.42647 21.9141 9.2816C21.8193 9.45697 21.7463 9.59422 21.6296 9.80772C21.7536 9.89159 21.8704 9.98309 21.9944 10.067C22.0017 9.91447 22.0162 9.76197 22.009 9.61709ZM21.8777 9.81534L21.8047 9.76197L21.8777 9.61709V9.62472C21.8849 9.68572 21.8849 9.74672 21.8777 9.81534ZM25.897 10.6617C25.8313 10.8218 25.7292 10.9438 25.7657 11.0963C25.7584 10.9743 25.8386 10.799 25.897 10.6617ZM25.8678 11.2107C25.8313 11.2031 25.8095 11.1802 25.7949 11.1573C25.7949 11.165 25.7949 11.165 25.8022 11.1726C25.8095 11.1955 25.8386 11.2183 25.8678 11.2107ZM25.9189 11.1955C26.0356 11.1497 26.0939 11.043 26.218 10.8828C26.1085 11.0277 25.9918 11.1497 25.9189 11.1955ZM26.5535 11.4776C26.5973 11.5615 26.641 11.6453 26.6848 11.7445C26.7359 11.653 26.7942 11.5767 26.8453 11.5081C26.7651 11.6072 26.6119 11.592 26.5535 11.4776ZM22.009 9.61709C22.0017 9.51797 21.9579 9.42647 21.9141 9.2816C21.8193 9.45697 21.7463 9.59422 21.6296 9.80772C21.7536 9.89159 21.8704 9.98309 21.9944 10.067C22.0017 9.91447 22.0162 9.76197 22.009 9.61709ZM21.8777 9.81534L21.8047 9.76197L21.8777 9.61709V9.62472C21.8849 9.68572 21.8849 9.74672 21.8777 9.81534ZM22.009 9.61709C22.0017 9.51797 21.9579 9.42647 21.9141 9.2816C21.8193 9.45697 21.7463 9.59422 21.6296 9.80772C21.7536 9.89159 21.8704 9.98309 21.9944 10.067C22.0017 9.91447 22.0162 9.76197 22.009 9.61709ZM21.8777 9.81534L21.8047 9.76197L21.8777 9.61709V9.62472C21.8849 9.68572 21.8849 9.74672 21.8777 9.81534ZM25.897 10.6617C25.8313 10.8218 25.7292 10.9438 25.7657 11.0963C25.7584 10.9743 25.8386 10.799 25.897 10.6617ZM25.8678 11.2107C25.8313 11.2031 25.8095 11.1802 25.7949 11.1573C25.7949 11.165 25.7949 11.165 25.8022 11.1726C25.8095 11.1955 25.8386 11.2183 25.8678 11.2107ZM25.9189 11.1955C26.0356 11.1497 26.0939 11.043 26.218 10.8828C26.1085 11.0277 25.9918 11.1497 25.9189 11.1955ZM26.5535 11.4776C26.5973 11.5615 26.641 11.6453 26.6848 11.7445C26.7359 11.653 26.7942 11.5767 26.8453 11.5081C26.7651 11.6072 26.6119 11.592 26.5535 11.4776Z" fill="white"/>
<path d="M24.4611 16.14C24.2495 15.9189 23.9723 15.7969 23.6659 15.7969C23.0459 15.7969 22.5645 16.3154 22.5645 16.9635C22.5645 17.0321 22.5717 17.1007 22.5863 17.1617C22.5936 17.2075 22.6082 17.2532 22.6228 17.299C22.7614 17.7641 23.1845 18.0996 23.6805 18.0996H23.6951C24.1984 18.092 24.6361 17.7031 24.7528 17.2151C24.7601 17.1999 24.7601 17.1922 24.7601 17.177C24.7747 17.1007 24.782 17.0321 24.782 16.9559C24.7893 16.6509 24.6726 16.3611 24.4611 16.14ZM23.6951 17.97C23.2647 17.9776 22.8927 17.6955 22.7541 17.299C22.7395 17.2532 22.7249 17.2075 22.7176 17.1617C22.7031 17.1007 22.6958 17.0321 22.6958 16.9635C22.6958 16.3916 23.1188 15.9341 23.6659 15.9341C24.2057 15.9341 24.6507 16.3916 24.6507 16.9559C24.6507 17.0321 24.6434 17.1007 24.6288 17.1694C24.6288 17.1922 24.6215 17.2075 24.6142 17.2304C24.5048 17.6497 24.1328 17.97 23.6951 17.97Z" fill="white"/>
<mask id="mask4_514_11298" style="mask-type:luminance" maskUnits="userSpaceOnUse" x="5" y="0" width="37" height="39">
<path d="M5.82963 19.0471C5.82963 8.81442 13.7956 0.495621 23.578 0.495621C33.3603 0.495621 41.3263 8.82205 41.3263 19.0471C41.3263 29.2797 33.3603 37.5985 23.578 37.5985C13.7956 37.5985 5.82963 29.2797 5.82963 19.0471ZM5.35547 19.0471C5.35547 29.5542 13.533 38.0942 23.578 38.0942C33.6302 38.0942 41.8005 29.5466 41.8005 19.0471C41.8005 8.54755 33.6229 0 23.578 0C13.5257 0 5.35547 8.54755 5.35547 19.0471Z" fill="white"/>
</mask>
<g mask="url(#mask4_514_11298)">
<path d="M5.35371 38.5523L4.91602 0.00827736L41.7987 -0.449219L42.2364 38.0948L5.35371 38.5523Z" fill="url(#paint4_linear_514_11298)"/>
</g>
<path d="M48 26.0228H41.4419V24.7266H6.33921V26.1372H0L3.12219 29.4235L0 32.7099H6.90091V31.3374H40.8729V32.7861H48L44.7611 29.4006L48 26.0228Z" fill="white"/>
<mask id="mask5_514_11298" style="mask-type:luminance" maskUnits="userSpaceOnUse" x="1" y="26" width="6" height="7">
<path d="M1.11133 26.6172L3.77387 29.4232L1.11133 32.2215H6.4437V26.6172H1.11133Z" fill="white"/>
</mask>
<g mask="url(#mask5_514_11298)">
<path d="M6.43641 26.6172H1.11133V32.2215H6.43641V26.6172Z" fill="url(#paint5_linear_514_11298)"/>
</g>
<mask id="mask6_514_11298" style="mask-type:luminance" maskUnits="userSpaceOnUse" x="41" y="26" width="6" height="7">
<path d="M41.332 26.5098V32.3047H46.8759L44.104 29.4072L46.8759 26.5098H41.332Z" fill="white"/>
</mask>
<g mask="url(#mask6_514_11298)">
<path d="M46.8759 26.5098H41.332V32.3123H46.8759V26.5098Z" fill="url(#paint6_linear_514_11298)"/>
</g>
<path d="M40.9805 25.2148H6.79688V30.8573H40.9805V25.2148Z" fill="url(#paint7_linear_514_11298)"/>
<path d="M15.5911 28.1838H16.6415V27.7797H15.5911V27.2459H17.3856V26.8418H15.0586V29.2132H17.4075V28.7709H15.5911V28.1838Z" fill="white"/>
<path d="M20.0137 29.2132H20.5462V28.1838H21.5966V27.7797H20.5462V27.2459H22.3407V26.8418H20.0137V29.2132Z" fill="white"/>
<path d="M25.765 26.9638C25.6848 26.8875 25.5389 26.8418 25.32 26.8418H23.6496C23.4307 26.8418 23.2776 26.8799 23.2046 26.9638C23.1244 27.04 23.0879 27.1925 23.0879 27.406V28.6565C23.0879 28.8777 23.1244 29.0225 23.2046 29.0988C23.2848 29.175 23.4307 29.2132 23.6496 29.2132H25.3128C25.5316 29.2132 25.6848 29.175 25.7577 29.0988C25.838 29.0225 25.8744 28.87 25.8744 28.6565V27.406C25.8817 27.1849 25.838 27.04 25.765 26.9638ZM25.3492 28.7709H23.6058V27.2688H25.3492V28.7709Z" fill="white"/>
<path d="M29.2885 26.9638C29.2082 26.8875 29.0623 26.8418 28.8435 26.8418H27.173C26.9542 26.8418 26.801 26.8799 26.728 26.9638C26.6478 27.04 26.6113 27.1925 26.6113 27.406V28.6565C26.6113 28.8777 26.6478 29.0225 26.728 29.0988C26.8083 29.175 26.9542 29.2132 27.173 29.2132H28.8435C29.0623 29.2132 29.2155 29.175 29.2885 29.0988C29.3687 29.0225 29.4052 28.87 29.4052 28.6565V27.406C29.4052 27.1849 29.3614 27.04 29.2885 26.9638ZM28.88 28.7709H27.1365V27.2688H28.88V28.7709Z" fill="white"/>
<path d="M30.1191 27.2688H31.1623V29.2132H31.6875V27.2688H32.7379V26.8418H30.1191V27.2688Z" fill="white"/>
<path d="M19.0674 27.6699H18.3088C18.2213 27.6699 18.1702 27.6775 18.1483 27.7004C18.1264 27.7233 18.1191 27.769 18.1191 27.8377V28.2113C18.1191 28.2799 18.1264 28.318 18.141 28.3485C18.1556 28.3714 18.1848 28.3867 18.2213 28.3867H18.9799C19.0674 28.3867 19.1258 28.379 19.1404 28.3562C19.155 28.3333 19.1696 28.2875 19.1696 28.2189V27.8453C19.1696 27.7767 19.1623 27.7309 19.1477 27.708C19.1331 27.6852 19.1039 27.6699 19.0674 27.6699Z" fill="white"/>
<path d="M66.5297 19.3751H71.5197V17.4553H66.5297V14.9198H75.0543V13H64V24.2651H75.1583V22.1642H66.5297V19.3751Z" fill="white"/>
<path d="M87.5508 24.2651H90.0805V19.3751H95.0705V17.4553H90.0805V14.9198H98.6051V13H87.5508V24.2651Z" fill="white"/>
<path d="M114.876 13.5796C114.495 13.2173 113.802 13 112.762 13H104.826C103.787 13 103.059 13.1811 102.713 13.5796C102.331 13.9418 102.158 14.6662 102.158 15.6804V21.6209C102.158 22.6713 102.331 23.3595 102.713 23.7218C103.094 24.084 103.787 24.2651 104.826 24.2651H112.727C113.767 24.2651 114.495 24.084 114.841 23.7218C115.222 23.3595 115.396 22.6351 115.396 21.6209V15.6804C115.43 14.63 115.222 13.9418 114.876 13.5796ZM112.901 22.1642H104.619V15.0285H112.901V22.1642Z" fill="white"/>
<path d="M131.587 13.5796C131.206 13.2173 130.513 13 129.473 13H121.537C120.498 13 119.77 13.1811 119.424 13.5796C119.042 13.9418 118.869 14.6662 118.869 15.6804V21.6209C118.869 22.6713 119.042 23.3595 119.424 23.7218C119.805 24.084 120.498 24.2651 121.537 24.2651H129.473C130.513 24.2651 131.24 24.084 131.587 23.7218C131.968 23.3595 132.141 22.6351 132.141 21.6209V15.6804C132.141 14.63 131.933 13.9418 131.587 13.5796ZM129.646 22.1642H121.364V15.0285H129.646V22.1642Z" fill="white"/>
<path d="M135.559 15.0285H140.514V24.2651H143.009V15.0285H147.999V13H135.559V15.0285Z" fill="white"/>
<path d="M83.0596 16.9414H79.4557C79.0398 16.9414 78.7973 16.9776 78.6933 17.0863C78.5893 17.195 78.5547 17.4123 78.5547 17.7383V19.5132C78.5547 19.8392 78.5893 20.0203 78.6587 20.1652C78.728 20.2739 78.8666 20.3463 79.0398 20.3463H82.6438C83.0596 20.3463 83.3368 20.3101 83.4061 20.2014C83.4754 20.0927 83.5447 19.8754 83.5447 19.5494V17.7745C83.5447 17.4485 83.5101 17.2312 83.4408 17.1225C83.3715 17.0139 83.2328 16.9414 83.0596 16.9414Z" fill="white"/>
<defs>
<linearGradient id="paint0_linear_514_11298" x1="23.5186" y1="1.31445" x2="23.5186" y2="37.1288" gradientUnits="userSpaceOnUse">
<stop stop-color="#4A00E8"/>
<stop offset="1" stop-color="#3B3EFF"/>
</linearGradient>
<linearGradient id="paint1_linear_514_11298" x1="23.5827" y1="1.8457" x2="23.5827" y2="36.2418" gradientUnits="userSpaceOnUse">
<stop stop-color="#4A00E8"/>
<stop offset="1" stop-color="#3B3EFF"/>
</linearGradient>
<linearGradient id="paint2_linear_514_11298" x1="23.6019" y1="4.35156" x2="23.6019" y2="18.2594" gradientUnits="userSpaceOnUse">
<stop stop-color="#4A00E8"/>
<stop offset="1" stop-color="#3B3EFF"/>
</linearGradient>
<linearGradient id="paint3_linear_514_11298" x1="23.6843" y1="15.8301" x2="23.6843" y2="18.0947" gradientUnits="userSpaceOnUse">
<stop stop-color="#4A00E8"/>
<stop offset="1" stop-color="#3B3EFF"/>
</linearGradient>
<linearGradient id="paint4_linear_514_11298" x1="23.5762" y1="-0.449219" x2="23.5762" y2="38.5523" gradientUnits="userSpaceOnUse">
<stop stop-color="#4A00E8"/>
<stop offset="1" stop-color="#3B3EFF"/>
</linearGradient>
<linearGradient id="paint5_linear_514_11298" x1="3.77387" y1="26.6172" x2="3.77387" y2="32.2215" gradientUnits="userSpaceOnUse">
<stop stop-color="#4A00E8"/>
<stop offset="1" stop-color="#3B3EFF"/>
</linearGradient>
<linearGradient id="paint6_linear_514_11298" x1="44.104" y1="26.5098" x2="44.104" y2="32.3123" gradientUnits="userSpaceOnUse">
<stop stop-color="#4A00E8"/>
<stop offset="1" stop-color="#3B3EFF"/>
</linearGradient>
<linearGradient id="paint7_linear_514_11298" x1="23.8887" y1="25.2148" x2="23.8887" y2="30.8573" gradientUnits="userSpaceOnUse">
<stop stop-color="#4A00E8"/>
<stop offset="1" stop-color="#3B3EFF"/>
</linearGradient>
</defs>
</svg>
