<svg width="28" height="20" viewBox="0 0 28 20" fill="none" xmlns="http://www.w3.org/2000/svg">
<path d="M17.9976 0.666993C20.446 0.665799 22.7969 1.62676 24.5434 3.34273C26.2899 5.0587 27.2921 7.39224 27.3341 9.8403C27.3761 12.2884 26.4544 14.6549 24.7678 16.4297C23.0811 18.2046 20.7646 19.2456 18.3176 19.3283L17.9976 19.3337H10.0029C7.5545 19.3349 5.20365 18.3739 3.45716 16.6579C1.71066 14.942 0.708391 12.6084 0.666413 10.1603C0.624434 7.71228 1.54611 5.34575 3.23274 3.57091C4.91938 1.79608 7.2359 0.755078 9.68293 0.672327L10.0016 0.666993H17.9963H17.9976ZM17.9976 2.66699H10.0029C8.08085 2.66294 6.23402 3.41367 4.8599 4.75761C3.48578 6.10155 2.69423 7.93126 2.65561 9.85295C2.61699 11.7746 3.33438 13.6347 4.65339 15.0327C5.9724 16.4308 7.78758 17.2551 9.70826 17.3283L10.0029 17.3337H17.9976C19.9197 17.3377 21.7665 16.587 23.1406 15.243C24.5147 13.8991 25.3063 12.0694 25.3449 10.1477C25.3835 8.22601 24.6661 6.36597 23.3471 4.96791C22.0281 3.56984 20.2129 2.74551 18.2923 2.67233L17.9976 2.66699ZM8.66693 6.00033C8.93214 6.00033 9.1865 6.10568 9.37403 6.29322C9.56157 6.48076 9.66693 6.73511 9.66693 7.00033V8.99766H11.6669C11.9321 8.99766 12.1865 9.10302 12.374 9.29055C12.5616 9.47809 12.6669 9.73244 12.6669 9.99766C12.6669 10.2629 12.5616 10.5172 12.374 10.7048C12.1865 10.8923 11.9321 10.9977 11.6669 10.9977H9.66693V13.0003C9.66693 13.2655 9.56157 13.5199 9.37403 13.7074C9.1865 13.895 8.93214 14.0003 8.66693 14.0003C8.40171 14.0003 8.14736 13.895 7.95982 13.7074C7.77228 13.5199 7.66693 13.2655 7.66693 13.0003V10.9977H5.66693C5.5356 10.9977 5.40557 10.9718 5.28424 10.9215C5.16292 10.8713 5.05268 10.7976 4.95982 10.7048C4.86696 10.6119 4.7933 10.5017 4.74305 10.3803C4.69279 10.259 4.66693 10.129 4.66693 9.99766C4.66693 9.86634 4.69279 9.7363 4.74305 9.61498C4.7933 9.49365 4.86696 9.38341 4.95982 9.29055C5.05268 9.19769 5.16292 9.12403 5.28424 9.07378C5.40557 9.02353 5.5356 8.99766 5.66693 8.99766H7.66693V7.00033C7.66693 6.73511 7.77228 6.48076 7.95982 6.29322C8.14736 6.10568 8.40171 6.00033 8.66693 6.00033ZM17.6669 10.667C18.109 10.667 18.5329 10.8426 18.8454 11.1551C19.158 11.4677 19.3336 11.8916 19.3336 12.3337C19.3336 12.7757 19.158 13.1996 18.8454 13.5122C18.5329 13.8247 18.109 14.0003 17.6669 14.0003C17.2249 14.0003 16.801 13.8247 16.4884 13.5122C16.1759 13.1996 16.0003 12.7757 16.0003 12.3337C16.0003 11.8916 16.1759 11.4677 16.4884 11.1551C16.801 10.8426 17.2249 10.667 17.6669 10.667ZM20.3336 6.00033C20.7756 6.00033 21.1995 6.17592 21.5121 6.48848C21.8247 6.80104 22.0003 7.22497 22.0003 7.66699C22.0003 8.10902 21.8247 8.53294 21.5121 8.8455C21.1995 9.15807 20.7756 9.33366 20.3336 9.33366C19.8916 9.33366 19.4676 9.15807 19.1551 8.8455C18.8425 8.53294 18.6669 8.10902 18.6669 7.66699C18.6669 7.22497 18.8425 6.80104 19.1551 6.48848C19.4676 6.17592 19.8916 6.00033 20.3336 6.00033Z" fill="#D1CBD8"/>
</svg>
