<svg width="24" height="18" viewBox="0 0 24 18" fill="none" xmlns="http://www.w3.org/2000/svg">
<path d="M15.498 0.833985C17.6404 0.83294 19.6974 1.67378 21.2256 3.17526C22.7537 4.67673 23.6307 6.71857 23.6675 8.86063C23.7042 11.0027 22.8977 13.0734 21.4219 14.6264C19.9461 16.1794 17.9192 17.0902 15.778 17.1627L15.498 17.1673H8.50268C6.36031 17.1684 4.30332 16.3275 2.77513 14.826C1.24695 13.3246 0.369965 11.2827 0.333233 9.14067C0.296502 6.99861 1.10296 4.9279 2.57877 3.37492C4.05458 1.82193 6.08153 0.91106 8.22268 0.838652L8.50152 0.833985H15.4968H15.498ZM15.498 2.58399H8.50268C6.82087 2.58044 5.20489 3.23733 4.00254 4.41328C2.80018 5.58923 2.10758 7.19022 2.07378 8.8717C2.03999 10.5532 2.66771 12.1807 3.82184 13.404C4.97597 14.6273 6.56425 15.3486 8.24485 15.4127L8.50268 15.4173H15.498C17.1798 15.4209 18.7958 14.764 19.9982 13.588C21.2005 12.4121 21.8931 10.8111 21.9269 9.1296C21.9607 7.44812 21.333 5.82059 20.1789 4.59728C19.0247 3.37397 17.4364 2.65268 15.7558 2.58865L15.498 2.58399ZM7.33368 5.50065C7.56575 5.50065 7.78831 5.59284 7.9524 5.75693C8.11649 5.92103 8.20868 6.14359 8.20868 6.37565V8.12332H9.95868C10.1907 8.12332 10.4133 8.2155 10.5774 8.3796C10.7415 8.54369 10.8337 8.76625 10.8337 8.99832C10.8337 9.23038 10.7415 9.45294 10.5774 9.61704C10.4133 9.78113 10.1907 9.87332 9.95868 9.87332H8.20868V11.6257C8.20868 11.8577 8.11649 12.0803 7.9524 12.2444C7.78831 12.4085 7.56575 12.5007 7.33368 12.5007C7.10162 12.5007 6.87906 12.4085 6.71496 12.2444C6.55087 12.0803 6.45868 11.8577 6.45868 11.6257V9.87332H4.70868C4.59378 9.87332 4.47999 9.85069 4.37383 9.80671C4.26767 9.76274 4.17122 9.69829 4.08996 9.61704C4.00871 9.53578 3.94426 9.43933 3.90029 9.33317C3.85632 9.22701 3.83368 9.11322 3.83368 8.99832C3.83368 8.88341 3.85632 8.76963 3.90029 8.66347C3.94426 8.55731 4.00871 8.46085 4.08996 8.3796C4.17122 8.29835 4.26767 8.2339 4.37383 8.18992C4.47999 8.14595 4.59378 8.12332 4.70868 8.12332H6.45868V6.37565C6.45868 6.14359 6.55087 5.92103 6.71496 5.75693C6.87906 5.59284 7.10162 5.50065 7.33368 5.50065ZM15.2087 9.58398C15.5955 9.58398 15.9664 9.73763 16.2399 10.0111C16.5134 10.2846 16.667 10.6555 16.667 11.0423C16.667 11.4291 16.5134 11.8 16.2399 12.0735C15.9664 12.347 15.5955 12.5007 15.2087 12.5007C14.8219 12.5007 14.451 12.347 14.1775 12.0735C13.904 11.8 13.7503 11.4291 13.7503 11.0423C13.7503 10.6555 13.904 10.2846 14.1775 10.0111C14.451 9.73763 14.8219 9.58398 15.2087 9.58398ZM17.542 5.50065C17.9288 5.50065 18.2997 5.6543 18.5732 5.92779C18.8467 6.20128 19.0003 6.57221 19.0003 6.95898C19.0003 7.34576 18.8467 7.71669 18.5732 7.99018C18.2997 8.26367 17.9288 8.41732 17.542 8.41732C17.1552 8.41732 16.7843 8.26367 16.5108 7.99018C16.2373 7.71669 16.0837 7.34576 16.0837 6.95898C16.0837 6.57221 16.2373 6.20128 16.5108 5.92779C16.7843 5.6543 17.1552 5.50065 17.542 5.50065Z" fill="#D1CBD8"/>
</svg>
