<svg width="27" height="19" viewBox="0 0 27 19" fill="none" xmlns="http://www.w3.org/2000/svg">
<path d="M17.3326 1.11239e-06C19.781 -0.00119346 22.1318 0.959771 23.8783 2.67574C25.6248 4.39171 26.6271 6.72524 26.6691 9.17331C26.711 11.6214 25.7894 13.9879 24.1027 15.7627C22.4161 17.5376 20.0996 18.5786 17.6526 18.6613L17.3326 18.6667H9.33789C6.88946 18.6679 4.53861 17.7069 2.79212 15.9909C1.04562 14.275 0.0433524 11.9414 0.00137358 9.49336C-0.0406053 7.04529 0.881066 4.67876 2.5677 2.90392C4.25434 1.12908 6.57086 0.0880862 9.01789 0.0053347L9.33655 1.11239e-06H17.3312H17.3326ZM17.3326 2H9.33789C7.41581 1.99595 5.56898 2.74668 4.19486 4.09062C2.82074 5.43456 2.0292 7.26427 1.99057 9.18596C1.95195 11.1077 2.66934 12.9677 3.98835 14.3658C5.30736 15.7638 7.12254 16.5882 9.04322 16.6613L9.33789 16.6667H17.3326C19.2546 16.6707 21.1015 15.92 22.4756 14.576C23.8497 13.2321 24.6412 11.4024 24.6799 9.48071C24.7185 7.55902 24.0011 5.69898 22.6821 4.30091C21.3631 2.90284 19.5479 2.07851 17.6272 2.00533L17.3326 2ZM8.00189 5.33333C8.2671 5.33333 8.52146 5.43869 8.70899 5.62623C8.89653 5.81376 9.00189 6.06812 9.00189 6.33333V8.33067H11.0019C11.2671 8.33067 11.5215 8.43602 11.709 8.62356C11.8965 8.8111 12.0019 9.06545 12.0019 9.33067C12.0019 9.59588 11.8965 9.85024 11.709 10.0378C11.5215 10.2253 11.2671 10.3307 11.0019 10.3307H9.00189V12.3333C9.00189 12.5986 8.89653 12.8529 8.70899 13.0404C8.52146 13.228 8.2671 13.3333 8.00189 13.3333C7.73667 13.3333 7.48232 13.228 7.29478 13.0404C7.10724 12.8529 7.00189 12.5986 7.00189 12.3333V10.3307H5.00189C4.87057 10.3307 4.74053 10.3048 4.6192 10.2545C4.49788 10.2043 4.38764 10.1306 4.29478 10.0378C4.20192 9.94492 4.12826 9.83468 4.07801 9.71335C4.02775 9.59203 4.00189 9.46199 4.00189 9.33067C4.00189 9.19935 4.02775 9.06931 4.07801 8.94798C4.12826 8.82666 4.20192 8.71642 4.29478 8.62356C4.38764 8.5307 4.49788 8.45704 4.6192 8.40679C4.74053 8.35653 4.87057 8.33067 5.00189 8.33067H7.00189V6.33333C7.00189 6.06812 7.10724 5.81376 7.29478 5.62623C7.48232 5.43869 7.73667 5.33333 8.00189 5.33333ZM17.0019 10C17.4439 10 17.8678 10.1756 18.1804 10.4882C18.493 10.8007 18.6686 11.2246 18.6686 11.6667C18.6686 12.1087 18.493 12.5326 18.1804 12.8452C17.8678 13.1577 17.4439 13.3333 17.0019 13.3333C16.5599 13.3333 16.1359 13.1577 15.8234 12.8452C15.5108 12.5326 15.3352 12.1087 15.3352 11.6667C15.3352 11.2246 15.5108 10.8007 15.8234 10.4882C16.1359 10.1756 16.5599 10 17.0019 10ZM19.6686 5.33333C20.1106 5.33333 20.5345 5.50893 20.8471 5.82149C21.1596 6.13405 21.3352 6.55797 21.3352 7C21.3352 7.44203 21.1596 7.86595 20.8471 8.17851C20.5345 8.49107 20.1106 8.66667 19.6686 8.66667C19.2265 8.66667 18.8026 8.49107 18.49 8.17851C18.1775 7.86595 18.0019 7.44203 18.0019 7C18.0019 6.55797 18.1775 6.13405 18.49 5.82149C18.8026 5.50893 19.2265 5.33333 19.6686 5.33333Z" fill="#212B36"/>
</svg>
