<svg width="27" height="27" viewBox="0 0 27 27" fill="none" xmlns="http://www.w3.org/2000/svg">
<path d="M13.308 0C10.722 0.00491338 8.19318 0.761748 6.02965 2.17832C3.86611 3.59489 2.1612 5.61005 1.1226 7.97836C0.0839899 10.3467 -0.243491 12.9659 0.180043 15.517C0.603576 18.0681 1.75984 20.441 3.50801 22.3467V22.3467C4.75657 23.7001 6.27193 24.7802 7.95859 25.5189C9.64525 26.2577 11.4666 26.6391 13.308 26.6391C15.1494 26.6391 16.9708 26.2577 18.6574 25.5189C20.3441 24.7802 21.8594 23.7001 23.108 22.3467V22.3467C24.8562 20.441 26.0124 18.0681 26.436 15.517C26.8595 12.9659 26.532 10.3467 25.4934 7.97836C24.4548 5.61005 22.7499 3.59489 20.5864 2.17832C18.4228 0.761748 15.894 0.00491338 13.308 0V0ZM13.308 24C10.546 23.9958 7.89323 22.9204 5.90801 21C6.51073 19.5327 7.53605 18.2777 8.85368 17.3945C10.1713 16.5113 11.7218 16.0397 13.308 16.0397C14.8943 16.0397 16.4447 16.5113 17.7623 17.3945C19.08 18.2777 20.1053 19.5327 20.708 21C18.7228 22.9204 16.0701 23.9958 13.308 24ZM10.6413 10.6667C10.6413 10.1393 10.7977 9.62368 11.0908 9.18515C11.3838 8.74662 11.8002 8.40482 12.2875 8.20299C12.7748 8.00115 13.311 7.94835 13.8282 8.05124C14.3455 8.15413 14.8207 8.40811 15.1936 8.78105C15.5666 9.15399 15.8205 9.62914 15.9234 10.1464C16.0263 10.6637 15.9735 11.1999 15.7717 11.6872C15.5699 12.1744 15.2281 12.5909 14.7895 12.8839C14.351 13.1769 13.8354 13.3333 13.308 13.3333C12.6008 13.3333 11.9225 13.0524 11.4224 12.5523C10.9223 12.0522 10.6413 11.3739 10.6413 10.6667ZM22.5213 18.6667C21.33 16.629 19.4965 15.044 17.308 14.16C17.9869 13.3902 18.4292 12.4409 18.582 11.4259C18.7347 10.411 18.5913 9.37348 18.169 8.438C17.7467 7.50251 17.0635 6.70875 16.2012 6.15195C15.339 5.59516 14.3344 5.299 13.308 5.299C12.2816 5.299 11.277 5.59516 10.4148 6.15195C9.55256 6.70875 8.8693 7.50251 8.44701 8.438C8.02471 9.37348 7.88132 10.411 8.03405 11.4259C8.18677 12.4409 8.62912 13.3902 9.30801 14.16C7.11947 15.044 5.28597 16.629 4.09467 18.6667C3.14527 17.0495 2.64363 15.2086 2.64134 13.3333C2.64134 10.5044 3.76515 7.79125 5.76554 5.79086C7.76592 3.79047 10.479 2.66667 13.308 2.66667C16.137 2.66667 18.8501 3.79047 20.8505 5.79086C22.8509 7.79125 23.9747 10.5044 23.9747 13.3333C23.9724 15.2086 23.4707 17.0495 22.5213 18.6667V18.6667Z" fill="#212B36"/>
</svg>
