<svg width="28" height="28" viewBox="0 0 28 28" fill="none" xmlns="http://www.w3.org/2000/svg">
<path d="M13.9999 0.666992C11.4139 0.671906 8.88508 1.42874 6.72154 2.84531C4.558 4.26188 2.8531 6.27705 1.81449 8.64535C0.775884 11.0137 0.448404 13.6329 0.871937 16.184C1.29547 18.7351 2.45174 21.108 4.1999 23.0137C5.44847 24.3671 6.96382 25.4472 8.65049 26.1859C10.3371 26.9247 12.1585 27.3061 13.9999 27.3061C15.8413 27.3061 17.6627 26.9247 19.3493 26.1859C21.036 25.4472 22.5513 24.3671 23.7999 23.0137C25.5481 21.108 26.7043 18.7351 27.1279 16.184C27.5514 13.6329 27.2239 11.0137 26.1853 8.64535C25.1467 6.27705 23.4418 4.26188 21.2783 2.84531C19.1147 1.42874 16.5859 0.671906 13.9999 0.666992ZM13.9999 24.667C11.2379 24.6628 8.58512 23.5874 6.5999 21.667C7.20263 20.1997 8.22795 18.9447 9.54557 18.0615C10.8632 17.1783 12.4136 16.7067 13.9999 16.7067C15.5862 16.7067 17.1366 17.1783 18.4542 18.0615C19.7719 18.9447 20.7972 20.1997 21.3999 21.667C19.4147 23.5874 16.7619 24.6628 13.9999 24.667ZM11.3332 11.3337C11.3332 10.8062 11.4896 10.2907 11.7826 9.85214C12.0757 9.41361 12.4921 9.07181 12.9794 8.86998C13.4667 8.66815 14.0029 8.61534 14.5201 8.71823C15.0374 8.82113 15.5126 9.0751 15.8855 9.44804C16.2585 9.82098 16.5124 10.2961 16.6153 10.8134C16.7182 11.3307 16.6654 11.8669 16.4636 12.3541C16.2617 12.8414 15.92 13.2579 15.4814 13.5509C15.0429 13.8439 14.5273 14.0003 13.9999 14.0003C13.2927 14.0003 12.6144 13.7194 12.1143 13.2193C11.6142 12.7192 11.3332 12.0409 11.3332 11.3337ZM23.2132 19.3337C22.0219 17.296 20.1884 15.711 17.9999 14.827C18.6788 14.0572 19.1211 13.1079 19.2739 12.0929C19.4266 11.0779 19.2832 10.0405 18.8609 9.10499C18.4386 8.1695 17.7553 7.37574 16.8931 6.81895C16.0309 6.26216 15.0263 5.96599 13.9999 5.96599C12.9735 5.96599 11.9689 6.26216 11.1067 6.81895C10.2445 7.37574 9.5612 8.1695 9.1389 9.10499C8.71661 10.0405 8.57322 11.0779 8.72594 12.0929C8.87866 13.1079 9.32101 14.0572 9.9999 14.827C7.81137 15.711 5.97786 17.296 4.78657 19.3337C3.83716 17.7165 3.33553 15.8756 3.33324 14.0003C3.33324 11.1713 4.45704 8.45824 6.45743 6.45785C8.45782 4.45747 11.1709 3.33366 13.9999 3.33366C16.8289 3.33366 19.542 4.45747 21.5424 6.45785C23.5428 8.45824 24.6666 11.1713 24.6666 14.0003C24.6643 15.8756 24.1626 17.7165 23.2132 19.3337Z" fill="#D1CBD8"/>
</svg>
