<svg width="21" height="20" viewBox="0 0 21 20" fill="none" xmlns="http://www.w3.org/2000/svg">
<path d="M10.0282 0C8.71497 0 7.41461 0.258658 6.20135 0.761205C4.9881 1.26375 3.8857 2.00035 2.95712 2.92893C1.08175 4.8043 0.0281864 7.34784 0.0281864 10C0.0194442 12.3091 0.818979 14.5485 2.28819 16.33L0.288186 18.33C0.149429 18.4706 0.0554325 18.6492 0.0180584 18.8432C-0.0193158 19.0372 0.0016069 19.2379 0.0781863 19.42C0.161244 19.5999 0.29589 19.7511 0.465033 19.8544C0.634176 19.9577 0.830187 20.0083 1.02819 20H10.0282C12.6804 20 15.2239 18.9464 17.0993 17.0711C18.9746 15.1957 20.0282 12.6522 20.0282 10C20.0282 7.34784 18.9746 4.8043 17.0993 2.92893C15.2239 1.05357 12.6804 0 10.0282 0V0ZM10.0282 18H3.43819L4.36819 17.07C4.55444 16.8826 4.65898 16.6292 4.65898 16.365C4.65898 16.1008 4.55444 15.8474 4.36819 15.66C3.05877 14.352 2.24336 12.6305 2.06088 10.7888C1.87839 8.94705 2.34013 7.09901 3.36741 5.55952C4.3947 4.02004 5.92398 2.88436 7.6947 2.34597C9.46543 1.80759 11.368 1.8998 13.0784 2.60691C14.7888 3.31402 16.201 4.59227 17.0746 6.22389C17.9482 7.85551 18.2291 9.73954 17.8693 11.555C17.5096 13.3705 16.5315 15.005 15.1017 16.1802C13.672 17.3554 11.8789 17.9985 10.0282 18V18ZM12.0282 9H11.0282V8C11.0282 7.73478 10.9228 7.48043 10.7353 7.29289C10.5478 7.10536 10.2934 7 10.0282 7C9.76297 7 9.50862 7.10536 9.32108 7.29289C9.13354 7.48043 9.02819 7.73478 9.02819 8V9H8.02819C7.76297 9 7.50862 9.10536 7.32108 9.29289C7.13354 9.48043 7.02819 9.73478 7.02819 10C7.02819 10.2652 7.13354 10.5196 7.32108 10.7071C7.50862 10.8946 7.76297 11 8.02819 11H9.02819V12C9.02819 12.2652 9.13354 12.5196 9.32108 12.7071C9.50862 12.8946 9.76297 13 10.0282 13C10.2934 13 10.5478 12.8946 10.7353 12.7071C10.9228 12.5196 11.0282 12.2652 11.0282 12V11H12.0282C12.2934 11 12.5478 10.8946 12.7353 10.7071C12.9228 10.5196 13.0282 10.2652 13.0282 10C13.0282 9.73478 12.9228 9.48043 12.7353 9.29289C12.5478 9.10536 12.2934 9 12.0282 9Z" fill="#212B36"/>
</svg>
