<svg width="28" height="28" viewBox="0 0 28 28" fill="none" xmlns="http://www.w3.org/2000/svg">
<path d="M8.40033 0.666992H19.6003C23.867 0.666992 27.3337 4.13366 27.3337 8.40033V19.6003C27.3337 21.6513 26.5189 23.6183 25.0686 25.0686C23.6183 26.5189 21.6513 27.3337 19.6003 27.3337H8.40033C4.13366 27.3337 0.666992 23.867 0.666992 19.6003V8.40033C0.666992 6.34932 1.48175 4.38232 2.93203 2.93203C4.38232 1.48175 6.34932 0.666992 8.40033 0.666992ZM8.13366 3.33366C6.86062 3.33366 5.63972 3.83937 4.73955 4.73955C3.83937 5.63972 3.33366 6.86062 3.33366 8.13366V19.867C3.33366 22.5203 5.48033 24.667 8.13366 24.667H19.867C21.14 24.667 22.3609 24.1613 23.2611 23.2611C24.1613 22.3609 24.667 21.14 24.667 19.867V8.13366C24.667 5.48033 22.5203 3.33366 19.867 3.33366H8.13366ZM21.0003 5.33366C21.4424 5.33366 21.8663 5.50925 22.1788 5.82182C22.4914 6.13438 22.667 6.5583 22.667 7.00033C22.667 7.44235 22.4914 7.86628 22.1788 8.17884C21.8663 8.4914 21.4424 8.66699 21.0003 8.66699C20.5583 8.66699 20.1344 8.4914 19.8218 8.17884C19.5093 7.86628 19.3337 7.44235 19.3337 7.00033C19.3337 6.5583 19.5093 6.13438 19.8218 5.82182C20.1344 5.50925 20.5583 5.33366 21.0003 5.33366ZM14.0003 7.33366C15.7684 7.33366 17.4641 8.03604 18.7144 9.28628C19.9646 10.5365 20.667 12.2322 20.667 14.0003C20.667 15.7684 19.9646 17.4641 18.7144 18.7144C17.4641 19.9646 15.7684 20.667 14.0003 20.667C12.2322 20.667 10.5365 19.9646 9.28628 18.7144C8.03604 17.4641 7.33366 15.7684 7.33366 14.0003C7.33366 12.2322 8.03604 10.5365 9.28628 9.28628C10.5365 8.03604 12.2322 7.33366 14.0003 7.33366ZM14.0003 10.0003C12.9395 10.0003 11.922 10.4218 11.1719 11.1719C10.4218 11.922 10.0003 12.9395 10.0003 14.0003C10.0003 15.0612 10.4218 16.0786 11.1719 16.8288C11.922 17.5789 12.9395 18.0003 14.0003 18.0003C15.0612 18.0003 16.0786 17.5789 16.8288 16.8288C17.5789 16.0786 18.0003 15.0612 18.0003 14.0003C18.0003 12.9395 17.5789 11.922 16.8288 11.1719C16.0786 10.4218 15.0612 10.0003 14.0003 10.0003Z" fill="#D1CBD8"/>
</svg>
