<svg width="32" height="26" viewBox="0 0 32 26" fill="none" xmlns="http://www.w3.org/2000/svg">
<path d="M16 0.200195C17.368 0.200195 18.7712 0.235395 20.1312 0.292995L21.7376 0.369795L23.2752 0.460995L24.7152 0.558595L26.0304 0.660995C27.4577 0.770239 28.8007 1.37931 29.8232 2.38106C30.8458 3.38281 31.4823 4.71306 31.6208 6.13779L31.6848 6.81779L31.8048 8.27379C31.9168 9.78259 32 11.4274 32 13.0002C32 14.573 31.9168 16.2178 31.8048 17.7266L31.6848 19.1826C31.664 19.4162 31.6432 19.6418 31.6208 19.8626C31.4822 21.2876 30.8455 22.618 29.8226 23.6198C28.7998 24.6216 27.4564 25.2305 26.0288 25.3394L24.7168 25.4402L23.2768 25.5394L21.7376 25.6306L20.1312 25.7074C18.7549 25.7672 17.3776 25.7981 16 25.8002C14.6224 25.7981 13.2451 25.7672 11.8688 25.7074L10.2624 25.6306L8.7248 25.5394L7.2848 25.4402L5.9696 25.3394C4.54232 25.2301 3.19928 24.6211 2.17676 23.6193C1.15423 22.6176 0.517719 21.2873 0.3792 19.8626L0.3152 19.1826L0.1952 17.7266C0.0728601 16.154 0.00775043 14.5775 0 13.0002C0 11.4274 0.0832 9.78259 0.1952 8.27379L0.3152 6.81779C0.336 6.58419 0.3568 6.35859 0.3792 6.13779C0.517665 4.71331 1.15395 3.38326 2.17615 2.38154C3.19835 1.37983 4.54101 0.770599 5.968 0.660995L7.2816 0.558595L8.7216 0.460995L10.2608 0.369795L11.8672 0.292995C13.244 0.233208 14.6219 0.202268 16 0.200195ZM16 3.40019C14.68 3.40019 13.3216 3.43539 12 3.48979L10.4352 3.56499L8.9328 3.65299L7.5216 3.74899L6.2288 3.84979C5.54933 3.898 4.90887 4.18523 4.42095 4.66056C3.93303 5.13588 3.62916 5.76861 3.5632 6.44659C3.376 8.38099 3.2 10.789 3.2 13.0002C3.2 15.2114 3.376 17.6194 3.5632 19.5538C3.6992 20.949 4.8064 22.0338 6.2288 22.1506L7.5216 22.2498L8.9328 22.3458L10.4352 22.4354L12 22.5106C13.3216 22.565 14.68 22.6002 16 22.6002C17.32 22.6002 18.6784 22.565 20 22.5106L21.5648 22.4354L23.0672 22.3474L24.4784 22.2514L25.7712 22.1506C26.4507 22.1024 27.0911 21.8152 27.5791 21.3398C28.067 20.8645 28.3708 20.2318 28.4368 19.5538C28.624 17.6194 28.8 15.2114 28.8 13.0002C28.8 10.789 28.624 8.38099 28.4368 6.44659C28.3708 5.76861 28.067 5.13588 27.5791 4.66056C27.0911 4.18523 26.4507 3.898 25.7712 3.84979L24.4784 3.75059L23.0672 3.65459L21.5648 3.56499L20 3.48979C18.6674 3.43246 17.3338 3.40259 16 3.40019ZM12.8 9.12019C12.7999 8.96381 12.838 8.80978 12.911 8.67148C12.984 8.53318 13.0896 8.4148 13.2188 8.32665C13.348 8.23849 13.4967 8.18322 13.6521 8.16564C13.8075 8.14807 13.9648 8.16871 14.1104 8.22579L14.24 8.28979L20.96 12.1682C21.0938 12.2454 21.207 12.3538 21.29 12.4841C21.373 12.6144 21.4233 12.7628 21.4366 12.9167C21.45 13.0707 21.426 13.2255 21.3667 13.3682C21.3074 13.5109 21.2145 13.6371 21.096 13.7362L20.96 13.8322L14.24 17.7122C14.1046 17.7906 13.952 17.8347 13.7957 17.8407C13.6393 17.8467 13.4838 17.8144 13.3428 17.7466C13.2018 17.6787 13.0795 17.5774 12.9866 17.4515C12.8936 17.3256 12.8329 17.1789 12.8096 17.0242L12.8 16.8802V9.12019Z" fill="#D1CBD8"/>
</svg>
