<svg width="32" height="32" viewBox="0 0 32 32" fill="none" xmlns="http://www.w3.org/2000/svg">
<path d="M24.0007 17.5737V13.3337C23.9987 11.4445 23.3283 9.61695 22.1081 8.17469C20.888 6.73243 19.1967 5.76852 17.334 5.45366V4.00033C17.334 3.6467 17.1935 3.30756 16.9435 3.05752C16.6934 2.80747 16.3543 2.66699 16.0007 2.66699C15.647 2.66699 15.3079 2.80747 15.0578 3.05752C14.8078 3.30756 14.6673 3.6467 14.6673 4.00033V5.45366C12.8046 5.76852 11.1134 6.73243 9.89317 8.17469C8.67298 9.61695 8.00257 11.4445 8.00065 13.3337V17.5737C7.22259 17.8487 6.54865 18.3578 6.07124 19.0309C5.59382 19.7041 5.3363 20.5084 5.33398 21.3337V24.0003C5.33398 24.3539 5.47446 24.6931 5.72451 24.9431C5.97456 25.1932 6.3137 25.3337 6.66732 25.3337H10.854C11.161 26.4635 11.8313 27.4609 12.7614 28.172C13.6916 28.8831 14.8298 29.2683 16.0007 29.2683C17.1715 29.2683 18.3097 28.8831 19.2399 28.172C20.17 27.4609 20.8403 26.4635 21.1473 25.3337H25.334C25.6876 25.3337 26.0267 25.1932 26.2768 24.9431C26.5268 24.6931 26.6673 24.3539 26.6673 24.0003V21.3337C26.665 20.5084 26.4075 19.7041 25.9301 19.0309C25.4527 18.3578 24.7787 17.8487 24.0007 17.5737ZM10.6673 13.3337C10.6673 11.9192 11.2292 10.5626 12.2294 9.56242C13.2296 8.56223 14.5862 8.00033 16.0007 8.00033C17.4151 8.00033 18.7717 8.56223 19.7719 9.56242C20.7721 10.5626 21.334 11.9192 21.334 13.3337V17.3337H10.6673V13.3337ZM16.0007 26.667C15.5353 26.6642 15.0787 26.5396 14.6764 26.3057C14.2741 26.0718 13.94 25.7367 13.7073 25.3337H18.294C18.0613 25.7367 17.7272 26.0718 17.3249 26.3057C16.9226 26.5396 16.466 26.6642 16.0007 26.667ZM24.0007 22.667H8.00065V21.3337C8.00065 20.98 8.14113 20.6409 8.39118 20.3909C8.64122 20.1408 8.98036 20.0003 9.33398 20.0003H22.6673C23.0209 20.0003 23.3601 20.1408 23.6101 20.3909C23.8602 20.6409 24.0007 20.98 24.0007 21.3337V22.667Z" fill="#D1CBD8"/>
</svg>
