<svg width="22" height="27" viewBox="0 0 22 27" fill="none" xmlns="http://www.w3.org/2000/svg">
<path d="M18.6667 14.9067V10.6667C18.6648 8.7775 17.9943 6.94996 16.7742 5.5077C15.554 4.06544 13.8627 3.10153 12 2.78667V1.33333C12 0.979711 11.8595 0.640573 11.6095 0.390524C11.3594 0.140476 11.0203 0 10.6667 0C10.313 0 9.97391 0.140476 9.72386 0.390524C9.47381 0.640573 9.33333 0.979711 9.33333 1.33333V2.78667C7.47059 3.10153 5.77937 4.06544 4.55918 5.5077C3.339 6.94996 2.66858 8.7775 2.66667 10.6667V14.9067C1.8886 15.1818 1.21466 15.6908 0.737251 16.3639C0.259838 17.0371 0.00231935 17.8414 0 18.6667V21.3333C0 21.687 0.140476 22.0261 0.390525 22.2761C0.640573 22.5262 0.979711 22.6667 1.33333 22.6667H5.52C5.82704 23.7965 6.49734 24.7939 7.42746 25.505C8.35759 26.2161 9.49586 26.6013 10.6667 26.6013C11.8375 26.6013 12.9757 26.2161 13.9059 25.505C14.836 24.7939 15.5063 23.7965 15.8133 22.6667H20C20.3536 22.6667 20.6928 22.5262 20.9428 22.2761C21.1929 22.0261 21.3333 21.687 21.3333 21.3333V18.6667C21.331 17.8414 21.0735 17.0371 20.5961 16.3639C20.1187 15.6908 19.4447 15.1818 18.6667 14.9067V14.9067ZM5.33333 10.6667C5.33333 9.25218 5.89524 7.89562 6.89543 6.89543C7.89562 5.89524 9.25218 5.33333 10.6667 5.33333C12.0812 5.33333 13.4377 5.89524 14.4379 6.89543C15.4381 7.89562 16 9.25218 16 10.6667V14.6667H5.33333V10.6667ZM10.6667 24C10.2013 23.9972 9.74476 23.8726 9.34244 23.6387C8.94012 23.4048 8.60601 23.0697 8.37333 22.6667H12.96C12.7273 23.0697 12.3932 23.4048 11.9909 23.6387C11.5886 23.8726 11.132 23.9972 10.6667 24ZM18.6667 20H2.66667V18.6667C2.66667 18.313 2.80714 17.9739 3.05719 17.7239C3.30724 17.4738 3.64638 17.3333 4 17.3333H17.3333C17.687 17.3333 18.0261 17.4738 18.2761 17.7239C18.5262 17.9739 18.6667 18.313 18.6667 18.6667V20Z" fill="#212B36"/>
</svg>
