<svg width="14" height="14" viewBox="0 0 14 14" fill="none" xmlns="http://www.w3.org/2000/svg">
<path d="M13.6664 3.82928C13.6669 3.74154 13.65 3.65457 13.6169 3.57334C13.5837 3.49212 13.5348 3.41824 13.473 3.35595L10.6464 0.529282C10.5841 0.467494 10.5102 0.418611 10.429 0.385434C10.3477 0.352258 10.2608 0.335441 10.173 0.335949C10.0853 0.335441 9.99831 0.352258 9.91708 0.385434C9.83586 0.418611 9.76198 0.467494 9.69969 0.529282L7.81302 2.41595L0.526352 9.70261C0.464565 9.76491 0.415681 9.83879 0.382505 9.92001C0.349328 10.0012 0.332512 10.0882 0.333019 10.1759V13.0026C0.333019 13.1794 0.403257 13.349 0.528281 13.474C0.653305 13.599 0.822875 13.6693 0.999686 13.6693H3.82635C3.91964 13.6744 4.01295 13.6598 4.10023 13.6265C4.18752 13.5932 4.26683 13.5419 4.33302 13.4759L11.5797 6.18928L13.473 4.33595C13.5339 4.27134 13.5834 4.19697 13.6197 4.11595C13.6261 4.06281 13.6261 4.00909 13.6197 3.95595C13.6228 3.92492 13.6228 3.89365 13.6197 3.86262L13.6664 3.82928ZM3.55302 12.3359H1.66635V10.4493L8.28635 3.82928L10.173 5.71595L3.55302 12.3359ZM11.113 4.77595L9.22635 2.88928L10.173 1.94928L12.053 3.82928L11.113 4.77595Z" fill="url(#paint0_linear_348_9726)"/>
<defs>
<linearGradient id="paint0_linear_348_9726" x1="6.99969" y1="0.335937" x2="6.99969" y2="13.6703" gradientUnits="userSpaceOnUse">
<stop stop-color="#4A00E8"/>
<stop offset="1" stop-color="#3B3EFF"/>
</linearGradient>
</defs>
</svg>
