<svg width="181" height="141" viewBox="0 0 181 141" fill="none" xmlns="http://www.w3.org/2000/svg">
<path fill-rule="evenodd" clip-rule="evenodd" d="M86.1989 115.518C122.179 115.402 159.083 118.565 169.196 124.787C178.672 130.616 153 135.893 124.669 139.186C101.484 141.881 72.6349 141.464 49.8558 138.658C24.501 135.536 3.50389 130.619 11.866 125.294C21.1004 119.414 52.2888 115.627 86.1989 115.518Z" fill="#D1CBD8"/>
<g clip-path="url(#clip0_522_5319)">
<path fill-rule="evenodd" clip-rule="evenodd" d="M138.094 64.1963H43.1268C41.9873 64.1963 41.0625 65.1211 41.0625 66.2634V125.031C41.0625 126.173 41.9873 127.099 43.1268 127.099H138.094C138.365 127.099 138.634 127.045 138.885 126.941C139.136 126.837 139.363 126.685 139.555 126.493C139.747 126.3 139.899 126.073 140.003 125.822C140.106 125.571 140.159 125.302 140.159 125.031V66.2634C140.159 65.9922 140.106 65.7237 140.002 65.473C139.899 65.2224 139.747 64.9945 139.555 64.8026C139.363 64.6106 139.135 64.4583 138.885 64.3543C138.634 64.2502 138.365 64.1966 138.094 64.1963Z" fill="url(#paint0_linear_522_5319)"/>
<path fill-rule="evenodd" clip-rule="evenodd" d="M44.1523 40.4688V125.014C44.1523 126.166 45.0771 127.099 46.2166 127.099H134.982C135.255 127.098 135.524 127.042 135.775 126.937C136.026 126.831 136.254 126.678 136.446 126.484C136.638 126.291 136.789 126.061 136.892 125.809C136.995 125.557 137.047 125.287 137.046 125.015V26.0514C137.047 25.7793 136.995 25.5095 136.892 25.2575C136.789 25.0055 136.638 24.7762 136.446 24.5827C136.254 24.3893 136.026 24.2354 135.775 24.1298C135.524 24.0243 135.255 23.9693 134.982 23.9678L60.6708 23.976L44.1523 40.4688Z" fill="white"/>
<path fill-rule="evenodd" clip-rule="evenodd" d="M41.0586 125.028C41.0586 126.172 41.9824 127.099 43.1229 127.099H138.08C139.22 127.099 140.145 126.172 140.145 125.028V67.3018L90.6016 97.2005L41.0586 67.3018V125.028Z" fill="url(#paint1_linear_522_5319)"/>
<path fill-rule="evenodd" clip-rule="evenodd" d="M44.1523 40.4691L60.6677 40.4794V24L44.1523 40.4691Z" fill="url(#paint2_linear_522_5319)"/>
<path opacity="0.3" fill-rule="evenodd" clip-rule="evenodd" d="M140.145 125.028V122.975L90.6016 97.2002L139.451 126.565C139.873 126.187 140.145 125.641 140.145 125.028ZM41.0586 125.028V122.975L90.6016 97.2002L41.7522 126.565C41.5346 126.372 41.3603 126.135 41.2407 125.87C41.1212 125.606 41.0591 125.318 41.0586 125.028Z" fill="black"/>
<path d="M73.9887 39.0771H63.0859V48.9229H73.9887V39.0771Z" fill="white"/>
<path d="M74.0735 49H63V39H74.0735V49ZM63.1709 48.8458H73.9028V39.1542H63.1707L63.1709 48.8458Z" fill="#292A2E"/>
<path d="M118.997 55H63.1094V55.2401H118.997V55Z" fill="#292A2E"/>
<path d="M118.997 60.752H63.1094V60.992H118.997V60.752Z" fill="#292A2E"/>
<path d="M118.997 66.5039H63.1094V66.744H118.997V66.5039Z" fill="#292A2E"/>
<path d="M118.997 72.2559H63.1094V72.4959H118.997V72.2559Z" fill="#292A2E"/>
<path d="M118.997 78.0078H63.1094V78.2479H118.997V78.0078Z" fill="#292A2E"/>
<path d="M118.997 83.7598H63.1094V83.9998H118.997V83.7598Z" fill="#292A2E"/>
<path d="M140.145 67.3018L90.6016 97.2005L140.145 122.975V67.3018Z" fill="url(#paint3_linear_522_5319)"/>
<path d="M41.0586 67.3018L41.1123 122.975L90.6016 97.2005L41.0586 67.3018Z" fill="url(#paint4_linear_522_5319)"/>
<path opacity="0.1" d="M80.2773 98.2317L137.042 64.209L137.045 71.4053L91.6599 98.2317H80.2773Z" fill="black"/>
</g>
<path d="M24.6628 81.5945C23.992 81.2814 23.328 80.9577 22.6899 80.6329C22.607 80.5907 22.5106 80.5831 22.4221 80.6119C22.3336 80.6407 22.2602 80.7035 22.2179 80.7864C22.1757 80.8693 22.1681 80.9656 22.1969 81.0542C22.2257 81.1427 22.2884 81.2161 22.3714 81.2584C23.0165 81.587 23.6875 81.9138 24.3655 82.2308C24.4495 82.2682 24.5449 82.2711 24.6311 82.2389C24.7173 82.2066 24.7874 82.1419 24.8263 82.0585C24.8653 81.9751 24.8699 81.8798 24.8393 81.793C24.8086 81.7062 24.7451 81.635 24.6625 81.5945H24.6628Z" fill="white"/>
<path d="M34.9267 85.4961L34.8765 85.4809C34.1874 85.2698 33.4998 85.0504 32.8329 84.8285C32.7446 84.7991 32.6482 84.806 32.565 84.8477C32.4817 84.8894 32.4185 84.9624 32.3891 85.0507C32.3597 85.139 32.3666 85.2354 32.4082 85.3187C32.4499 85.4019 32.5229 85.4652 32.6113 85.4946C33.2846 85.7183 33.9766 85.9395 34.6683 86.1511L34.7232 86.1679L34.74 86.1726C34.8292 86.1957 34.9239 86.1829 35.0037 86.1368C35.0835 86.0907 35.142 86.0151 35.1665 85.9263C35.191 85.8375 35.1796 85.7426 35.1347 85.6621C35.0899 85.5816 35.0152 85.522 34.9267 85.4961Z" fill="white"/>
<path d="M19.7982 79.063C19.1611 78.6944 18.5292 78.3119 17.9214 77.9284C17.8824 77.9023 17.8386 77.8843 17.7926 77.8755C17.7465 77.8666 17.6992 77.8671 17.6533 77.8768C17.6075 77.8865 17.564 77.9053 17.5255 77.9321C17.487 77.9589 17.4543 77.9931 17.4293 78.0327C17.4042 78.0724 17.3874 78.1166 17.3797 78.1629C17.3721 78.2091 17.3737 78.2565 17.3846 78.3021C17.3956 78.3477 17.4155 78.3906 17.4433 78.4284C17.4711 78.4661 17.5061 78.498 17.5464 78.522C18.1622 78.9104 18.8016 79.2989 19.4465 79.6708C19.475 79.6871 19.5056 79.6995 19.5374 79.7076C19.6195 79.7279 19.7061 79.718 19.7815 79.6796C19.8568 79.6411 19.9158 79.5768 19.9475 79.4984C19.9792 79.42 19.9816 79.3328 19.9541 79.2528C19.9267 79.1728 19.8713 79.1054 19.7982 79.063Z" fill="white"/>
<path d="M40.2058 87.0641C39.4915 86.8569 38.7853 86.6508 38.0871 86.4457C38.0429 86.4317 37.9963 86.4268 37.9502 86.4313C37.9041 86.4357 37.8593 86.4494 37.8186 86.4716C37.7779 86.4937 37.7421 86.5239 37.7133 86.5602C37.6845 86.5965 37.6633 86.6382 37.651 86.6829C37.6247 86.7722 37.635 86.8683 37.6795 86.9501C37.724 87.0318 37.7992 87.0926 37.8885 87.119C38.5872 87.3252 39.2946 87.5316 40.0108 87.7385L40.0234 87.7418C40.1124 87.7631 40.2061 87.7487 40.2846 87.7019C40.3631 87.6551 40.4203 87.5795 40.4439 87.4912C40.4675 87.4029 40.4557 87.3088 40.4111 87.2291C40.3664 87.1493 40.2924 87.0901 40.2047 87.0641H40.2058Z" fill="white"/>
<path d="M15.1965 76.0868C14.6009 75.6556 14.0151 75.2099 13.4526 74.7611C13.3798 74.7031 13.287 74.6764 13.1945 74.6868C13.102 74.6972 13.0174 74.7439 12.9594 74.8167C12.9014 74.8895 12.8746 74.9823 12.885 75.0748C12.8954 75.1673 12.9422 75.2519 13.0149 75.3099C13.586 75.7654 14.1803 76.2179 14.7845 76.6553C14.8209 76.6816 14.8619 76.7007 14.9055 76.7117C14.9845 76.7314 15.068 76.7229 15.1415 76.6878C15.215 76.6527 15.274 76.5931 15.3084 76.5192C15.3429 76.4454 15.3505 76.3618 15.3301 76.2829C15.3097 76.2041 15.2625 76.1347 15.1965 76.0868Z" fill="white"/>
<path d="M29.7195 83.7237C29.0353 83.4647 28.3469 83.1936 27.6759 82.917C27.6333 82.8995 27.5876 82.8905 27.5415 82.8906C27.4954 82.8907 27.4498 82.8999 27.4073 82.9177C27.3647 82.9354 27.3261 82.9614 27.2936 82.9941C27.2611 83.0267 27.2353 83.0655 27.2178 83.1081C27.2003 83.1508 27.1913 83.1964 27.1914 83.2425C27.1915 83.2886 27.2007 83.3342 27.2185 83.3768C27.2362 83.4193 27.2622 83.4579 27.2948 83.4905C27.3275 83.523 27.3663 83.5487 27.4089 83.5663C28.0869 83.8452 28.7815 84.1192 29.4711 84.3802C29.484 84.3851 29.4971 84.3892 29.5105 84.3924C29.5973 84.4139 29.6891 84.4015 29.767 84.3577C29.845 84.3138 29.9033 84.2419 29.9299 84.1565C29.9566 84.0711 29.9497 83.9788 29.9106 83.8983C29.8715 83.8179 29.8031 83.7554 29.7195 83.7237Z" fill="white"/>
<path d="M10.9698 72.6216C10.4324 72.1223 9.90802 71.6072 9.4082 71.0906C9.37618 71.0574 9.33794 71.0309 9.29566 71.0125C9.25339 70.9941 9.20792 70.9843 9.16183 70.9835C9.11574 70.9826 9.06994 70.9909 9.02706 71.0078C8.98417 71.0247 8.94503 71.0499 8.91187 71.0819C8.87871 71.1139 8.85218 71.1522 8.8338 71.1944C8.81542 71.2367 8.80555 71.2822 8.80474 71.3283C8.80394 71.3744 8.81221 71.4202 8.82911 71.463C8.846 71.5059 8.87118 71.5451 8.9032 71.5782C9.41053 72.1039 9.94531 72.6281 10.492 73.136C10.5258 73.1673 10.5654 73.1917 10.6086 73.2078C10.6518 73.2239 10.6978 73.2313 10.7438 73.2296C10.7899 73.2279 10.8352 73.2171 10.8771 73.1979C10.919 73.1787 10.9567 73.1515 10.9881 73.1177C11.0194 73.0839 11.0439 73.0443 11.0599 73.0011C11.076 72.9579 11.0834 72.9119 11.0817 72.8659C11.08 72.8198 11.0692 72.7745 11.05 72.7326C11.0308 72.6907 11.0036 72.653 10.9698 72.6216Z" fill="white"/>
<path d="M10.9478 29.5634C11.4709 29.0682 12.0189 28.5759 12.576 28.1005C12.6111 28.0705 12.6399 28.034 12.6608 27.9929C12.6818 27.9519 12.6944 27.9071 12.698 27.8611C12.7017 27.8152 12.6962 27.7689 12.682 27.7251C12.6678 27.6812 12.645 27.6406 12.6151 27.6056C12.5852 27.5705 12.5486 27.5417 12.5076 27.5207C12.4665 27.4998 12.4217 27.4871 12.3757 27.4835C12.3298 27.4799 12.2836 27.4853 12.2397 27.4996C12.1959 27.5138 12.1553 27.5365 12.1202 27.5665C11.5541 28.0497 10.9973 28.5506 10.4651 29.0537C10.4316 29.0854 10.4047 29.1234 10.3859 29.1655C10.3672 29.2076 10.3568 29.253 10.3556 29.2991C10.3543 29.3451 10.3622 29.391 10.3787 29.434C10.3951 29.4771 10.4199 29.5165 10.4516 29.5499C10.4833 29.5834 10.5213 29.6103 10.5634 29.6291C10.6055 29.6479 10.6509 29.6582 10.6969 29.6594C10.743 29.6607 10.7889 29.6529 10.8319 29.6364C10.875 29.6199 10.9144 29.5951 10.9478 29.5634Z" fill="white"/>
<path d="M1.58026 43.3229C1.58855 43.3257 1.59684 43.3281 1.60616 43.3301C1.69209 43.3516 1.78295 43.3397 1.86049 43.2969C1.93803 43.2541 1.99649 43.1835 2.02414 43.0994C2.24867 42.4186 2.50506 41.7315 2.78656 41.0576C2.82249 40.9718 2.82283 40.8752 2.78752 40.7891C2.75222 40.703 2.68415 40.6344 2.59829 40.5985C2.51244 40.5626 2.41582 40.5622 2.32971 40.5975C2.24361 40.6328 2.17505 40.7009 2.13913 40.7868C1.85063 41.4774 1.58777 42.1816 1.35755 42.8798C1.32839 42.9681 1.33546 43.0643 1.37722 43.1474C1.41898 43.2305 1.49201 43.2936 1.58026 43.3229Z" fill="white"/>
<path d="M0.844369 48.4066C0.923874 47.6931 1.03575 46.9701 1.1769 46.2571C1.18586 46.2119 1.18582 46.1654 1.1768 46.1202C1.16778 46.075 1.14994 46.032 1.1243 45.9937C1.09867 45.9554 1.06574 45.9225 1.02739 45.8969C0.989049 45.8713 0.946041 45.8535 0.900826 45.8446C0.855611 45.8356 0.809073 45.8357 0.763871 45.8447C0.718668 45.8537 0.675687 45.8715 0.637379 45.8972C0.59907 45.9228 0.566185 45.9557 0.540603 45.9941C0.515021 46.0324 0.497241 46.0754 0.48828 46.1207C0.343254 46.8536 0.229305 47.5968 0.146692 48.3294C0.137291 48.4138 0.158764 48.4987 0.207137 48.5685C0.255509 48.6382 0.327508 48.6881 0.409812 48.7088C0.425202 48.7128 0.440873 48.7156 0.456686 48.7171C0.502543 48.7223 0.548966 48.7183 0.59329 48.7055C0.637615 48.6927 0.678969 48.6712 0.714985 48.6424C0.751001 48.6135 0.780971 48.5778 0.803174 48.5374C0.825376 48.4969 0.839375 48.4525 0.844369 48.4066Z" fill="white"/>
<path d="M5.22852 35.7574C5.15038 35.7069 5.05543 35.6895 4.96445 35.7089C4.87348 35.7283 4.79392 35.783 4.7432 35.861C4.33635 36.4895 3.94996 37.1328 3.59465 37.7738C3.54961 37.8553 3.53874 37.9513 3.56442 38.0408C3.59011 38.1303 3.65025 38.2059 3.73165 38.2511C3.75855 38.2658 3.78717 38.2771 3.81685 38.2848C3.89188 38.3034 3.97095 38.2968 4.04184 38.2659C4.11272 38.2351 4.17145 38.1817 4.20894 38.1141C4.55622 37.4871 4.93407 36.8575 5.33211 36.2425C5.38258 36.1644 5.40001 36.0695 5.38059 35.9785C5.36117 35.8876 5.30648 35.8081 5.22852 35.7574Z" fill="white"/>
<path d="M0.702079 51.6668C0.698552 51.5749 0.659146 51.4881 0.592326 51.425C0.525506 51.3619 0.436601 51.3275 0.344693 51.3292C0.252785 51.3309 0.165205 51.3685 0.100759 51.4341C0.0363122 51.4996 0.000137464 51.5878 0 51.6797C0.0137256 52.4214 0.0605988 53.1725 0.138809 53.9124C0.143655 53.9582 0.15748 54.0026 0.179495 54.0431C0.20151 54.0836 0.231283 54.1193 0.267115 54.1483C0.302946 54.1773 0.344134 54.1989 0.388327 54.212C0.43252 54.225 0.478855 54.2293 0.524682 54.2244C0.570509 54.2196 0.61493 54.2058 0.655414 54.1837C0.695898 54.1617 0.731652 54.132 0.76063 54.0961C0.789608 54.0603 0.811243 54.0191 0.824303 53.9749C0.837363 53.9307 0.841589 53.8844 0.836743 53.8386C0.760863 53.1189 0.715287 52.3883 0.702079 51.6668Z" fill="white"/>
<path d="M6.75023 33.6403C6.78914 33.6715 6.83438 33.694 6.88282 33.7061C6.94829 33.7224 7.01708 33.7195 7.08097 33.6978C7.14486 33.6761 7.20113 33.6364 7.24306 33.5836C7.68875 33.0224 8.16294 32.4599 8.65291 31.9121C8.71206 31.8423 8.74162 31.7522 8.73529 31.6609C8.72897 31.5696 8.68725 31.4844 8.61903 31.4234C8.55081 31.3624 8.46148 31.3304 8.37005 31.3343C8.27862 31.3382 8.19232 31.3776 8.12952 31.4442C7.63048 32.0023 7.14724 32.5751 6.69326 33.1474C6.66459 33.1835 6.64331 33.2249 6.63066 33.2692C6.618 33.3135 6.61421 33.3599 6.61951 33.4057C6.6248 33.4515 6.63907 33.4957 6.6615 33.536C6.68393 33.5763 6.71408 33.6117 6.75023 33.6403Z" fill="white"/>
<path d="M3.18115 62.1847C3.14196 62.1003 3.07084 62.0348 2.98341 62.0028C2.89599 61.9708 2.79944 61.9749 2.71499 62.0141C2.63054 62.0532 2.56512 62.1244 2.53311 62.2118C2.50111 62.2992 2.50514 62.3958 2.54433 62.4802C2.85354 63.1455 3.19539 63.8139 3.56054 64.4676C3.60719 64.5465 3.68288 64.6041 3.77143 64.628C3.85997 64.6519 3.95435 64.6402 4.03439 64.5954C4.11443 64.5506 4.17377 64.4763 4.19972 64.3884C4.22567 64.3004 4.21618 64.2058 4.17328 64.1247C3.81667 63.4868 3.48415 62.8347 3.18115 62.1847Z" fill="white"/>
<path d="M17.0343 24.3106C16.9824 24.2333 16.902 24.1798 16.8106 24.1619C16.7193 24.1439 16.6245 24.1629 16.5472 24.2148C15.928 24.6292 15.3163 25.0601 14.7287 25.4931C14.6916 25.5204 14.6602 25.5548 14.6364 25.5943C14.6126 25.6338 14.5968 25.6775 14.5899 25.7231C14.583 25.7687 14.5851 25.8151 14.5962 25.8599C14.6073 25.9046 14.627 25.9468 14.6544 25.9839C14.6817 26.021 14.7161 26.0523 14.7556 26.0761C14.795 26.1 14.8388 26.1158 14.8844 26.1227C14.9299 26.1296 14.9764 26.1274 15.0212 26.1164C15.0659 26.1053 15.108 26.0855 15.1451 26.0582C15.7245 25.6314 16.3279 25.2072 16.9383 24.7975C17.0156 24.7457 17.0691 24.6653 17.0871 24.574C17.1052 24.4827 17.0862 24.3879 17.0343 24.3106Z" fill="white"/>
<path d="M7.22378 68.6337C6.76436 68.064 6.32178 67.4776 5.90871 66.8913C5.88267 66.8524 5.84911 66.819 5.80999 66.7933C5.77088 66.7675 5.727 66.7498 5.68094 66.7413C5.63489 66.7327 5.58759 66.7334 5.54182 66.7434C5.49606 66.7534 5.45276 66.7725 5.41447 66.7995C5.37619 66.8265 5.34368 66.8609 5.31888 66.9006C5.29408 66.9403 5.27748 66.9846 5.27006 67.0309C5.26264 67.0771 5.26455 67.1244 5.27567 67.1699C5.28679 67.2154 5.3069 67.2582 5.33482 67.2958C5.75643 67.8943 6.20808 68.4928 6.67761 69.0747C6.70599 69.1121 6.74159 69.1434 6.78229 69.1668C6.82299 69.1902 6.86797 69.2052 6.91457 69.2109C6.96116 69.2166 7.00842 69.2128 7.05356 69.1999C7.09869 69.187 7.14078 69.1652 7.17733 69.1358C7.21387 69.1063 7.24414 69.0698 7.26633 69.0284C7.28852 68.9871 7.30218 68.9417 7.30652 68.8949C7.31085 68.8482 7.30576 68.8011 7.29155 68.7563C7.27734 68.7116 7.25429 68.6701 7.22378 68.6345V68.6337Z" fill="white"/>
<path d="M1.38778 57.0529C1.36621 56.9623 1.30955 56.884 1.23027 56.8353C1.15098 56.7865 1.05556 56.7712 0.965003 56.7928C0.874443 56.8143 0.79616 56.871 0.747374 56.9503C0.698589 57.0295 0.683296 57.125 0.704863 57.2155C0.876045 57.9344 1.08038 58.6578 1.31216 59.365C1.34114 59.4535 1.40408 59.5268 1.48713 59.5689C1.57018 59.6109 1.66654 59.6183 1.75501 59.5893C1.84347 59.5603 1.9168 59.4974 1.95885 59.4143C2.00091 59.3313 2.00826 59.2349 1.97928 59.1464C1.75345 58.4578 1.55456 57.7529 1.38778 57.0529Z" fill="white"/>
<path d="M21.7794 21.508C21.7356 21.4259 21.6609 21.3646 21.5718 21.3375C21.4828 21.3104 21.3866 21.3197 21.3044 21.3635C20.6495 21.7129 19.9969 22.0773 19.3652 22.4463C19.3255 22.4696 19.2906 22.5004 19.2628 22.5372C19.2349 22.5739 19.2146 22.6157 19.2029 22.6603C19.1912 22.7049 19.1884 22.7513 19.1947 22.797C19.2009 22.8427 19.2161 22.8867 19.2394 22.9264C19.2627 22.9662 19.2935 23.0011 19.3302 23.0289C19.367 23.0568 19.4088 23.0771 19.4534 23.0888C19.498 23.1005 19.5444 23.1033 19.5901 23.097C19.6358 23.0908 19.6797 23.0756 19.7195 23.0523C20.3434 22.6879 20.9885 22.3272 21.6359 21.983C21.7179 21.939 21.779 21.8642 21.8059 21.7752C21.8328 21.6862 21.8233 21.5901 21.7794 21.508Z" fill="white"/>
<path d="M25.3338 19.4023C24.9916 19.5546 24.6525 19.7087 24.3166 19.8648C24.2747 19.8842 24.2372 19.9117 24.206 19.9456C24.1747 19.9795 24.1505 20.0193 24.1347 20.0625C24.1188 20.1058 24.1117 20.1518 24.1136 20.1979C24.1155 20.2439 24.1265 20.2892 24.1459 20.331C24.1653 20.3728 24.1927 20.4104 24.2267 20.4416C24.2606 20.4728 24.3003 20.497 24.3436 20.5128C24.3869 20.5287 24.4329 20.5359 24.4789 20.5339C24.525 20.532 24.5702 20.521 24.612 20.5016C24.9449 20.3462 25.2806 20.1936 25.6192 20.0438C25.701 20.0039 25.7641 19.9339 25.7952 19.8484C25.8264 19.7629 25.8231 19.6687 25.7862 19.5856C25.7493 19.5025 25.6816 19.4369 25.5973 19.4027C25.513 19.3685 25.4187 19.3684 25.3343 19.4023H25.3338Z" fill="white"/>
<path d="M23.9766 10.3447L24.1467 21.665L65.8053 0L23.9766 10.3447Z" fill="#0CBC8B"/>
<path opacity="0.2" d="M23.9766 10.3447L24.1467 21.665L65.8053 0L23.9766 10.3447Z" fill="#0A0A0A"/>
<path d="M26.1493 13.6882L24.1562 21.6649L56.029 4.46484L26.1493 13.6882Z" fill="#0CBC8B"/>
<path opacity="0.1" d="M26.1493 13.6882L24.1562 21.6649L56.029 4.46484L26.1493 13.6882Z" fill="#0A0A0A"/>
<path d="M20.0938 4.22465L65.8043 0L33.7184 27.4466L26.1387 13.6883L65.8043 0L23.9755 10.3447L20.0938 4.22465Z" fill="#0CBC8B"/>
<path d="M143.948 117.163C143.521 117.454 143.277 117.606 143.275 117.608C143.246 117.626 143.221 117.649 143.201 117.677C143.182 117.704 143.168 117.735 143.16 117.768C143.145 117.835 143.157 117.905 143.193 117.963C143.229 118.021 143.287 118.062 143.354 118.078C143.42 118.093 143.491 118.081 143.549 118.045C143.559 118.039 143.801 117.887 144.238 117.59C144.267 117.571 144.291 117.547 144.31 117.519C144.329 117.49 144.343 117.459 144.349 117.425C144.356 117.392 144.356 117.357 144.349 117.324C144.342 117.29 144.329 117.258 144.31 117.23C144.29 117.202 144.266 117.178 144.237 117.159C144.209 117.14 144.177 117.127 144.143 117.121C144.109 117.115 144.075 117.116 144.042 117.123C144.008 117.13 143.977 117.144 143.948 117.163Z" fill="white"/>
<path d="M165.562 69.2915C165.731 69.8005 165.892 70.3183 166.037 70.8308C166.055 70.8916 166.093 70.9439 166.147 70.9779C166.2 71.0118 166.264 71.0251 166.326 71.0151C166.336 71.0136 166.346 71.0113 166.356 71.0084C166.389 70.9991 166.419 70.9836 166.446 70.9625C166.472 70.9415 166.494 70.9154 166.511 70.8858C166.527 70.8562 166.538 70.8237 166.542 70.79C166.546 70.7563 166.543 70.7222 166.534 70.6896C166.386 70.1697 166.223 69.6444 166.052 69.1278C166.028 69.0658 165.981 69.0154 165.921 68.9871C165.861 68.9587 165.792 68.9547 165.729 68.9757C165.666 68.9967 165.614 69.0412 165.583 69.0999C165.552 69.1587 165.544 69.2271 165.563 69.291L165.562 69.2915Z" fill="white"/>
<path d="M164.728 67.0245C164.75 67.0786 164.789 67.1238 164.84 67.1524C164.891 67.1811 164.95 67.1917 165.008 67.1825C165.027 67.1795 165.045 67.1743 165.063 67.167C165.095 67.1543 165.123 67.1355 165.148 67.1118C165.172 67.088 165.191 67.0597 165.204 67.0285C165.217 66.9973 165.224 66.9637 165.225 66.9298C165.225 66.896 165.218 66.8623 165.206 66.8309C165.004 66.3342 164.788 65.8292 164.562 65.3302C164.534 65.2679 164.482 65.2192 164.418 65.1951C164.354 65.1709 164.283 65.1732 164.221 65.2014C164.158 65.2296 164.11 65.2814 164.086 65.3454C164.061 65.4094 164.064 65.4805 164.092 65.5428C164.316 66.0351 164.529 66.5334 164.728 67.0245Z" fill="white"/>
<path d="M161.273 59.9914C161.315 59.9846 161.355 59.9675 161.389 59.9415C161.423 59.9155 161.45 59.8815 161.467 59.8425C161.485 59.8035 161.492 59.7608 161.489 59.7182C161.486 59.6755 161.472 59.6343 161.45 59.5983C161.161 59.1431 160.859 58.6845 160.554 58.2352C160.515 58.1795 160.456 58.1414 160.389 58.1291C160.323 58.1168 160.254 58.1312 160.198 58.1693C160.142 58.2074 160.103 58.2661 160.09 58.3326C160.076 58.3992 160.09 58.4683 160.127 58.5249C160.429 58.9699 160.727 59.4243 161.014 59.875C161.041 59.9177 161.08 59.9514 161.126 59.9721C161.172 59.9928 161.223 59.9995 161.273 59.9914Z" fill="white"/>
<path d="M165.015 92.7562C164.983 92.7432 164.95 92.7365 164.916 92.7366C164.882 92.7366 164.848 92.7433 164.817 92.7564C164.786 92.7694 164.757 92.7885 164.733 92.8126C164.71 92.8366 164.691 92.8652 164.678 92.8966C164.475 93.3905 164.258 93.8885 164.035 94.3755C164.006 94.4377 164.003 94.5087 164.027 94.5728C164.051 94.637 164.099 94.6891 164.162 94.7176C164.224 94.7461 164.295 94.7488 164.359 94.7249C164.423 94.7011 164.475 94.6528 164.504 94.5906C164.73 94.0977 164.949 93.5936 165.155 93.0929C165.168 93.0616 165.174 93.0281 165.174 92.9942C165.174 92.9603 165.168 92.9268 165.155 92.8955C165.142 92.8642 165.122 92.8358 165.098 92.8119C165.074 92.788 165.046 92.7691 165.015 92.7562Z" fill="white"/>
<path d="M160.918 100.02C160.627 100.467 160.325 100.919 160.017 101.361C159.978 101.417 159.963 101.487 159.975 101.554C159.987 101.622 160.026 101.681 160.082 101.721C160.138 101.76 160.208 101.775 160.275 101.763C160.343 101.75 160.403 101.712 160.442 101.656C160.752 101.209 161.058 100.753 161.351 100.301C161.369 100.272 161.382 100.24 161.388 100.207C161.394 100.174 161.394 100.14 161.387 100.106C161.38 100.073 161.366 100.042 161.347 100.014C161.328 99.986 161.303 99.9622 161.275 99.9438C161.246 99.9253 161.214 99.9127 161.181 99.9065C161.148 99.9004 161.114 99.9009 161.08 99.9079C161.047 99.915 161.016 99.9285 160.988 99.9478C160.96 99.967 160.936 99.9915 160.918 100.02L160.918 100.02Z" fill="white"/>
<path d="M158.725 56.5495C158.745 56.5776 158.77 56.6015 158.799 56.6197C158.829 56.6379 158.861 56.6501 158.895 56.6555C158.929 56.6609 158.964 56.6595 158.997 56.6513C159.031 56.6432 159.062 56.6284 159.09 56.6078C159.118 56.5873 159.141 56.5615 159.158 56.5318C159.176 56.5022 159.187 56.4693 159.192 56.4352C159.196 56.4011 159.194 56.3664 159.185 56.3331C159.176 56.2999 159.161 56.2688 159.139 56.2417C158.819 55.8106 158.486 55.375 158.15 54.9461C158.108 54.8927 158.046 54.8582 157.978 54.8502C157.911 54.8422 157.842 54.8614 157.789 54.9035C157.735 54.9456 157.7 55.0072 157.692 55.0749C157.684 55.1426 157.702 55.2109 157.744 55.2647C158.077 55.6895 158.407 56.1216 158.725 56.5495Z" fill="white"/>
<path d="M152.143 49.4445C152.115 49.4261 152.083 49.4135 152.05 49.4073C152.016 49.4012 151.982 49.4017 151.949 49.4088C151.916 49.4159 151.884 49.4294 151.856 49.4486C151.829 49.4678 151.805 49.4924 151.786 49.5208C151.768 49.5493 151.755 49.5811 151.749 49.6144C151.743 49.6477 151.743 49.6819 151.75 49.7151C151.758 49.7482 151.771 49.7796 151.79 49.8075C151.81 49.8355 151.834 49.8593 151.863 49.8777C152.315 50.1708 152.758 50.4783 153.18 50.792C153.207 50.8131 153.238 50.8285 153.271 50.8374C153.305 50.8463 153.339 50.8485 153.373 50.8438C153.407 50.8392 153.44 50.8278 153.47 50.8103C153.499 50.7928 153.525 50.7696 153.545 50.7421C153.566 50.7145 153.581 50.6831 153.589 50.6498C153.597 50.6164 153.598 50.5818 153.593 50.5478C153.588 50.5139 153.576 50.4814 153.558 50.4522C153.539 50.4231 153.516 50.3978 153.488 50.3779C153.057 50.0576 152.605 49.7437 152.143 49.4445Z" fill="white"/>
<path d="M163.316 96.4346C163.256 96.4027 163.185 96.3962 163.12 96.4164C163.054 96.4366 163 96.4819 162.968 96.5423C162.719 97.0115 162.456 97.4861 162.186 97.9538C162.154 98.0129 162.146 98.0822 162.164 98.147C162.182 98.2117 162.225 98.2667 162.283 98.3004C162.342 98.334 162.411 98.3436 162.476 98.327C162.541 98.3105 162.597 98.2692 162.633 98.2119C162.906 97.7386 163.172 97.2584 163.423 96.7836C163.439 96.7536 163.449 96.7208 163.452 96.6871C163.456 96.6533 163.452 96.6193 163.442 96.5869C163.432 96.5545 163.416 96.5243 163.394 96.4982C163.373 96.4721 163.346 96.4505 163.316 96.4346Z" fill="white"/>
<path d="M155.38 51.9355C155.329 51.8893 155.263 51.8651 155.194 51.8682C155.126 51.8713 155.062 51.9014 155.015 51.9519C154.969 52.0024 154.945 52.0692 154.948 52.1375C154.951 52.2059 154.981 52.2702 155.032 52.3164C155.426 52.6769 155.812 53.0546 156.177 53.4389C156.225 53.4864 156.289 53.5134 156.357 53.5142C156.424 53.515 156.489 53.4895 156.538 53.4431C156.586 53.3967 156.615 53.3332 156.618 53.2659C156.62 53.1987 156.596 53.1331 156.551 53.0832C156.178 52.6902 155.783 52.3041 155.38 51.9355Z" fill="white"/>
<path d="M167.439 76.8788C167.406 76.8817 167.373 76.8912 167.343 76.9068C167.313 76.9224 167.286 76.9438 167.264 76.9698C167.242 76.9957 167.226 77.0256 167.216 77.0579C167.205 77.0902 167.202 77.1242 167.205 77.158C167.25 77.6915 167.284 78.2316 167.302 78.7633C167.305 78.8317 167.334 78.8963 167.385 78.943C167.435 78.9896 167.501 79.0145 167.57 79.0121C167.58 79.0116 167.591 79.0104 167.602 79.0087C167.664 78.9987 167.72 78.9664 167.76 78.9178C167.8 78.8693 167.821 78.8078 167.818 78.7449C167.799 78.2046 167.765 77.6557 167.719 77.1137C167.716 77.0799 167.706 77.047 167.691 77.017C167.675 76.9869 167.654 76.9602 167.628 76.9384C167.602 76.9166 167.572 76.9001 167.539 76.8899C167.507 76.8796 167.473 76.8759 167.439 76.8788Z" fill="white"/>
<path d="M167.125 73.0704C167.119 73.0369 167.106 73.0049 167.087 72.9766C167.068 72.9482 167.043 72.924 167.015 72.9054C166.986 72.8868 166.954 72.8742 166.921 72.8683C166.887 72.8624 166.853 72.8635 166.819 72.8713C166.752 72.8854 166.694 72.9256 166.657 72.9829C166.619 73.0403 166.606 73.1101 166.62 73.177C166.731 73.7024 166.83 74.2351 166.915 74.7601C166.92 74.794 166.931 74.8266 166.949 74.856C166.967 74.8853 166.99 74.9109 167.017 74.9312C167.045 74.9515 167.076 74.9661 167.11 74.9742C167.143 74.9822 167.178 74.9835 167.211 74.9781C167.245 74.9726 167.278 74.9605 167.307 74.9424C167.336 74.9243 167.361 74.9006 167.381 74.8727C167.401 74.8447 167.415 74.8131 167.422 74.7797C167.43 74.7463 167.43 74.7117 167.424 74.678C167.338 74.1448 167.238 73.6039 167.125 73.0704Z" fill="white"/>
<path d="M167.577 80.9249C167.544 80.9234 167.51 80.9287 167.478 80.9403C167.446 80.952 167.417 80.9698 167.392 80.9928C167.367 81.0158 167.347 81.0435 167.333 81.0743C167.319 81.1052 167.311 81.1385 167.309 81.1723C167.288 81.7044 167.253 82.2445 167.206 82.7776C167.202 82.8114 167.206 82.8454 167.216 82.8777C167.226 82.9101 167.243 82.9401 167.264 82.9661C167.286 82.9921 167.313 83.0136 167.343 83.0293C167.373 83.0451 167.406 83.0547 167.439 83.0577C167.473 83.0608 167.507 83.0571 167.54 83.047C167.572 83.0369 167.602 83.0205 167.628 82.9988C167.654 82.977 167.675 82.9504 167.691 82.9204C167.707 82.8904 167.717 82.8575 167.72 82.8238C167.768 82.2821 167.804 81.7334 167.825 81.1927C167.828 81.1243 167.803 81.0577 167.757 81.0075C167.71 80.9573 167.646 80.9275 167.577 80.9249Z" fill="white"/>
<path d="M163.302 63.5028C163.343 63.4962 163.381 63.4801 163.414 63.4559C163.447 63.4317 163.473 63.4 163.492 63.3635C163.51 63.327 163.519 63.2867 163.519 63.2459C163.519 63.2051 163.509 63.1649 163.49 63.1286C163.242 62.6532 162.98 62.171 162.71 61.6955C162.675 61.6371 162.619 61.5945 162.554 61.577C162.489 61.5594 162.419 61.5683 162.36 61.6016C162.301 61.635 162.258 61.6902 162.239 61.7553C162.22 61.8204 162.228 61.8902 162.261 61.9497C162.528 62.4201 162.787 62.8967 163.033 63.3666C163.058 63.4147 163.097 63.4538 163.145 63.4783C163.194 63.5027 163.249 63.5113 163.302 63.5028Z" fill="white"/>
<path d="M166.321 88.9202C166.289 88.9108 166.255 88.9079 166.221 88.9117C166.187 88.9154 166.155 88.9258 166.125 88.9422C166.095 88.9585 166.069 88.9806 166.048 89.0071C166.027 89.0336 166.011 89.0639 166.002 89.0965C165.854 89.6081 165.692 90.1254 165.521 90.6336C165.51 90.6657 165.505 90.6997 165.508 90.7335C165.51 90.7673 165.519 90.8003 165.534 90.8307C165.549 90.8611 165.57 90.8882 165.595 90.9105C165.621 90.9328 165.65 90.9499 165.682 90.9607C165.715 90.9716 165.749 90.976 165.782 90.9737C165.816 90.9715 165.849 90.9625 165.88 90.9475C165.91 90.9325 165.937 90.9116 165.959 90.8861C165.982 90.8606 165.999 90.8309 166.01 90.7988C166.184 90.283 166.348 89.7587 166.498 89.2395C166.508 89.2069 166.51 89.1728 166.507 89.1392C166.503 89.1055 166.492 89.0729 166.476 89.0432C166.46 89.0136 166.437 88.9875 166.411 88.9664C166.384 88.9453 166.354 88.9296 166.321 88.9202Z" fill="white"/>
<path d="M167.188 84.9597C167.154 84.9542 167.12 84.9553 167.087 84.963C167.054 84.9707 167.023 84.9848 166.995 85.0046C166.968 85.0244 166.944 85.0494 166.927 85.0782C166.909 85.1071 166.897 85.1391 166.891 85.1726C166.805 85.6963 166.704 86.2283 166.591 86.7538C166.583 86.7871 166.582 86.8217 166.588 86.8555C166.594 86.8893 166.606 86.9216 166.625 86.9505C166.643 86.9795 166.667 87.0045 166.695 87.0241C166.723 87.0437 166.755 87.0575 166.788 87.0647C166.822 87.0719 166.856 87.0723 166.89 87.066C166.924 87.0597 166.956 87.0468 166.984 87.0279C167.013 87.0091 167.038 86.9848 167.057 86.9563C167.076 86.9279 167.089 86.8959 167.096 86.8623C167.21 86.3285 167.313 85.7882 167.4 85.2564C167.412 85.1889 167.395 85.1197 167.356 85.064C167.316 85.0084 167.255 84.9709 167.188 84.9597Z" fill="white"/>
<path d="M147.202 114.768C146.775 115.105 146.343 115.437 145.917 115.755C145.89 115.776 145.867 115.801 145.85 115.83C145.833 115.859 145.821 115.892 145.816 115.925C145.811 115.959 145.813 115.993 145.822 116.026C145.83 116.058 145.845 116.089 145.865 116.116C145.885 116.144 145.911 116.166 145.94 116.184C145.969 116.201 146.001 116.212 146.035 116.217C146.069 116.222 146.103 116.22 146.136 116.212C146.168 116.203 146.199 116.189 146.226 116.168C146.656 115.847 147.091 115.512 147.521 115.174C147.548 115.153 147.57 115.127 147.587 115.097C147.603 115.067 147.614 115.035 147.618 115.001C147.622 114.968 147.619 114.934 147.61 114.901C147.601 114.868 147.585 114.838 147.564 114.811C147.543 114.785 147.517 114.762 147.488 114.746C147.458 114.729 147.425 114.719 147.392 114.715C147.358 114.711 147.324 114.713 147.291 114.723C147.259 114.732 147.228 114.747 147.202 114.768Z" fill="white"/>
<path d="M138.409 44.9748C138.47 44.965 138.524 44.9342 138.564 44.8878C138.604 44.8414 138.626 44.7825 138.626 44.7214C138.627 44.6603 138.605 44.6011 138.566 44.5543C138.527 44.5074 138.472 44.476 138.412 44.4656C137.885 44.3749 137.343 44.2898 136.801 44.2122C136.733 44.2026 136.665 44.2202 136.61 44.2613C136.555 44.3024 136.519 44.3636 136.509 44.4314C136.499 44.4992 136.517 44.5681 136.558 44.6228C136.599 44.6776 136.661 44.7138 136.728 44.7234C137.265 44.7999 137.803 44.8849 138.325 44.9742C138.353 44.979 138.381 44.9792 138.409 44.9748Z" fill="white"/>
<path d="M150.309 112.168C149.909 112.524 149.497 112.881 149.086 113.23C149.06 113.252 149.039 113.279 149.023 113.309C149.008 113.339 148.998 113.372 148.996 113.406C148.993 113.44 148.997 113.474 149.007 113.506C149.017 113.538 149.034 113.568 149.056 113.594C149.078 113.62 149.105 113.641 149.135 113.657C149.165 113.672 149.198 113.681 149.232 113.684C149.265 113.687 149.299 113.683 149.332 113.673C149.364 113.662 149.394 113.646 149.42 113.624C149.834 113.272 150.249 112.913 150.652 112.555C150.703 112.509 150.734 112.445 150.738 112.377C150.742 112.309 150.719 112.242 150.674 112.19C150.628 112.139 150.564 112.108 150.496 112.104C150.428 112.1 150.36 112.123 150.309 112.169L150.309 112.168Z" fill="white"/>
<path d="M156.014 106.447C155.66 106.849 155.295 107.253 154.929 107.648C154.885 107.698 154.863 107.764 154.866 107.831C154.87 107.897 154.9 107.96 154.949 108.006C154.998 108.051 155.062 108.076 155.129 108.075C155.196 108.073 155.26 108.046 155.307 107.999C155.675 107.601 156.044 107.194 156.401 106.789C156.446 106.737 156.469 106.67 156.464 106.602C156.46 106.534 156.429 106.47 156.377 106.425C156.326 106.379 156.259 106.356 156.191 106.361C156.122 106.365 156.059 106.396 156.013 106.448L156.014 106.447Z" fill="white"/>
<path d="M158.585 103.324C158.262 103.747 157.925 104.175 157.585 104.594C157.542 104.647 157.522 104.716 157.529 104.784C157.536 104.852 157.57 104.914 157.623 104.958C157.676 105.001 157.744 105.021 157.812 105.014C157.88 105.007 157.943 104.973 157.986 104.92C158.329 104.496 158.669 104.065 158.995 103.638C159.037 103.583 159.055 103.515 159.046 103.447C159.037 103.379 159.001 103.318 158.947 103.276C158.892 103.234 158.824 103.216 158.756 103.225C158.688 103.235 158.626 103.27 158.585 103.325L158.585 103.324Z" fill="white"/>
<path d="M149.944 48.6875C149.998 48.6789 150.047 48.6538 150.086 48.6156C150.124 48.5775 150.149 48.5282 150.158 48.4749C150.167 48.4215 150.159 48.3667 150.135 48.3182C150.111 48.2698 150.072 48.2301 150.024 48.2048C149.551 47.9546 149.058 47.711 148.558 47.4805C148.496 47.454 148.426 47.4527 148.364 47.4768C148.301 47.501 148.25 47.5486 148.222 47.6097C148.194 47.6708 148.19 47.7405 148.213 47.8039C148.235 47.8673 148.281 47.9195 148.342 47.9493C148.833 48.1759 149.318 48.4153 149.783 48.6608C149.833 48.6872 149.889 48.6966 149.944 48.6875Z" fill="white"/>
<path d="M153.252 109.392C152.876 109.768 152.487 110.149 152.094 110.523C152.046 110.571 152.019 110.635 152.019 110.702C152.018 110.77 152.043 110.835 152.09 110.883C152.136 110.932 152.2 110.961 152.267 110.963C152.335 110.966 152.4 110.942 152.45 110.897C152.846 110.52 153.238 110.136 153.617 109.757C153.642 109.733 153.662 109.705 153.676 109.673C153.689 109.642 153.697 109.608 153.697 109.573C153.697 109.539 153.691 109.504 153.678 109.473C153.665 109.441 153.646 109.412 153.621 109.387C153.597 109.363 153.568 109.344 153.536 109.331C153.504 109.318 153.47 109.311 153.435 109.312C153.401 109.312 153.367 109.32 153.335 109.334C153.304 109.347 153.275 109.367 153.252 109.392Z" fill="white"/>
<path d="M146.244 47.0387C146.3 47.0299 146.352 47.0026 146.392 46.961C146.431 46.9195 146.455 46.866 146.461 46.8091C146.467 46.7522 146.453 46.695 146.423 46.6465C146.392 46.598 146.347 46.561 146.293 46.5413C145.793 46.3546 145.274 46.1736 144.75 46.0035C144.685 45.9824 144.614 45.988 144.553 46.0192C144.493 46.0503 144.446 46.1043 144.425 46.1694C144.404 46.2346 144.41 46.3054 144.441 46.3663C144.472 46.4273 144.526 46.4734 144.591 46.4945C145.108 46.6621 145.62 46.8404 146.112 47.0242C146.154 47.0405 146.199 47.0454 146.244 47.0387Z" fill="white"/>
<path d="M142.38 45.8215C142.438 45.812 142.492 45.7828 142.531 45.7386C142.57 45.6944 142.593 45.6381 142.596 45.5789C142.599 45.5198 142.582 45.4615 142.546 45.4137C142.511 45.366 142.461 45.3318 142.404 45.3168C141.888 45.1828 141.354 45.0545 140.817 44.9354C140.783 44.9263 140.748 44.9241 140.713 44.929C140.679 44.9338 140.645 44.9456 140.616 44.9637C140.586 44.9817 140.56 45.0056 140.539 45.034C140.519 45.0623 140.505 45.0945 140.497 45.1286C140.489 45.1626 140.489 45.1979 140.495 45.2322C140.502 45.2665 140.515 45.2991 140.534 45.3281C140.554 45.3572 140.579 45.3819 140.608 45.401C140.637 45.42 140.67 45.4329 140.705 45.4389C141.236 45.5567 141.764 45.6834 142.274 45.8157C142.308 45.8249 142.344 45.8269 142.38 45.8215Z" fill="white"/>
<defs>
<linearGradient id="paint0_linear_522_5319" x1="90.6107" y1="64.1963" x2="90.6107" y2="127.099" gradientUnits="userSpaceOnUse">
<stop stop-color="#4A00E8"/>
<stop offset="1" stop-color="#3B3EFF"/>
</linearGradient>
<linearGradient id="paint1_linear_522_5319" x1="90.6016" y1="67.3018" x2="90.6016" y2="127.099" gradientUnits="userSpaceOnUse">
<stop stop-color="#4A00E8"/>
<stop offset="1" stop-color="#3B3EFF"/>
</linearGradient>
<linearGradient id="paint2_linear_522_5319" x1="52.41" y1="24" x2="52.41" y2="40.4794" gradientUnits="userSpaceOnUse">
<stop stop-color="#4A00E8"/>
<stop offset="1" stop-color="#3B3EFF"/>
</linearGradient>
<linearGradient id="paint3_linear_522_5319" x1="115.373" y1="67.3018" x2="115.373" y2="122.975" gradientUnits="userSpaceOnUse">
<stop stop-color="#4A00E8"/>
<stop offset="1" stop-color="#3B3EFF"/>
</linearGradient>
<linearGradient id="paint4_linear_522_5319" x1="65.8301" y1="67.3018" x2="65.8301" y2="122.975" gradientUnits="userSpaceOnUse">
<stop stop-color="#4A00E8"/>
<stop offset="1" stop-color="#3B3EFF"/>
</linearGradient>
<clipPath id="clip0_522_5319">
<rect width="103.215" height="103.099" fill="white" transform="translate(38.9922 24)"/>
</clipPath>
</defs>
</svg>
