<svg width="181" height="141" viewBox="0 0 181 141" fill="none" xmlns="http://www.w3.org/2000/svg">
<path fill-rule="evenodd" clip-rule="evenodd" d="M86.1989 115.518C122.179 115.402 159.083 118.565 169.196 124.787C178.672 130.617 153 135.893 124.669 139.186C101.484 141.881 72.6349 141.464 49.8558 138.659C24.501 135.536 3.50389 130.619 11.866 125.295C21.1004 119.415 52.2888 115.627 86.1989 115.518Z" fill="#D1CBD8"/>
<g clip-path="url(#clip0_151_28)">
<path fill-rule="evenodd" clip-rule="evenodd" d="M138.093 64.196H43.1261C41.9866 64.196 41.0618 65.1208 41.0618 66.2632V125.031C41.0618 126.173 41.9866 127.099 43.1261 127.099H138.093C138.364 127.099 138.633 127.045 138.884 126.941C139.135 126.837 139.363 126.684 139.554 126.492C139.746 126.3 139.898 126.072 140.002 125.822C140.105 125.571 140.159 125.302 140.158 125.031V66.2632C140.158 65.992 140.105 65.7234 140.002 65.4728C139.898 65.2221 139.746 64.9943 139.554 64.8024C139.362 64.6104 139.135 64.4581 138.884 64.354C138.633 64.25 138.364 64.1963 138.093 64.196V64.196Z" fill="url(#paint0_linear_151_28)"/>
<path fill-rule="evenodd" clip-rule="evenodd" d="M44.1492 40.4693V125.015C44.1492 126.166 45.074 127.099 46.2135 127.099H134.979C135.252 127.098 135.521 127.043 135.772 126.937C136.023 126.832 136.251 126.678 136.443 126.485C136.634 126.291 136.786 126.062 136.889 125.81C136.992 125.558 137.044 125.288 137.042 125.016V26.0519C137.044 25.7798 136.992 25.51 136.889 25.258C136.786 25.006 136.634 24.7767 136.443 24.5832C136.251 24.3897 136.023 24.2359 135.772 24.1303C135.521 24.0248 135.252 23.9697 134.979 23.9683L60.6676 23.9765L44.1492 40.4693Z" fill="white"/>
<path fill-rule="evenodd" clip-rule="evenodd" d="M41.0566 125.028C41.0566 126.172 41.9804 127.099 43.1209 127.099H138.078C139.218 127.099 140.143 126.172 140.143 125.028V67.3013L90.5997 97.2001L41.0566 67.3013V125.028Z" fill="url(#paint1_linear_151_28)"/>
<path fill-rule="evenodd" clip-rule="evenodd" d="M44.1492 40.4691L60.6645 40.4794V24L44.1492 40.4691Z" fill="url(#paint2_linear_151_28)"/>
<path opacity="0.3" fill-rule="evenodd" clip-rule="evenodd" d="M140.143 125.028V122.975L90.5997 97.2001L139.449 126.565C139.871 126.186 140.143 125.641 140.143 125.028ZM41.0566 125.028V122.975L90.5997 97.2001L41.7502 126.565C41.5326 126.372 41.3583 126.135 41.2388 125.87C41.1192 125.605 41.0572 125.318 41.0566 125.028V125.028Z" fill="black"/>
<path d="M73.988 39.0773H63.0852V48.923H73.988V39.0773Z" fill="white"/>
<path d="M74.0723 49H62.9988V39H74.0723V49ZM63.1697 48.8458H73.9016V39.1542H63.1695L63.1697 48.8458Z" fill="#292A2E"/>
<path d="M118.996 55H63.1082V55.2401H118.996V55Z" fill="#292A2E"/>
<path d="M118.996 60.7521H63.1082V60.9921H118.996V60.7521Z" fill="#292A2E"/>
<path d="M118.996 66.5037H63.1082V66.7437H118.996V66.5037Z" fill="#292A2E"/>
<path d="M118.996 72.2557H63.1082V72.4958H118.996V72.2557Z" fill="#292A2E"/>
<path d="M118.996 78.0079H63.1082V78.248H118.996V78.0079Z" fill="#292A2E"/>
<path d="M118.996 83.76H63.1082V84.0001H118.996V83.76Z" fill="#292A2E"/>
<path d="M140.142 67.3013L90.5989 97.2L140.142 122.975V67.3013Z" fill="url(#paint3_linear_151_28)"/>
<path d="M41.0566 67.3013L41.1103 122.975L90.5997 97.2001L41.0566 67.3013Z" fill="url(#paint4_linear_151_28)"/>
<path opacity="0.1" d="M80.2751 98.2315L137.04 64.2087L137.043 71.4051L91.6577 98.2315H80.2751Z" fill="black"/>
</g>
<path d="M24.6608 81.5946C23.9901 81.2815 23.326 80.9578 22.6879 80.6331C22.605 80.5908 22.5087 80.5833 22.4202 80.612C22.3317 80.6408 22.2582 80.7036 22.216 80.7865C22.1737 80.8694 22.1662 80.9658 22.1949 81.0543C22.2237 81.1428 22.2865 81.2163 22.3694 81.2585C23.0145 81.5871 23.6855 81.914 24.3635 82.2309C24.4476 82.2683 24.543 82.2712 24.6292 82.239C24.7154 82.2068 24.7855 82.142 24.8244 82.0586C24.8633 81.9752 24.8679 81.8799 24.8373 81.7931C24.8067 81.7064 24.7432 81.6351 24.6605 81.5946H24.6608Z" fill="#212B36"/>
<path d="M34.928 85.4968L34.8777 85.4815C34.1886 85.2704 33.501 85.0511 32.8342 84.8291C32.7458 84.7997 32.6494 84.8066 32.5662 84.8483C32.483 84.89 32.4197 84.963 32.3903 85.0513C32.3609 85.1396 32.3678 85.236 32.4094 85.3193C32.4511 85.4025 32.5241 85.4658 32.6125 85.4952C33.2858 85.719 33.9778 85.9401 34.6695 86.1517L34.7244 86.1685L34.7412 86.1732C34.8304 86.1964 34.9251 86.1835 35.0049 86.1374C35.0847 86.0913 35.1432 86.0157 35.1677 85.9269C35.1922 85.8381 35.1808 85.7432 35.136 85.6627C35.0911 85.5822 35.0164 85.5226 34.928 85.4968Z" fill="#212B36"/>
<path d="M19.7984 79.0637C19.1613 78.6952 18.5294 78.3127 17.9216 77.9291C17.8827 77.9031 17.8389 77.8851 17.7928 77.8762C17.7468 77.8673 17.6994 77.8678 17.6536 77.8775C17.6077 77.8872 17.5642 77.906 17.5258 77.9328C17.4873 77.9596 17.4546 77.9938 17.4295 78.0335C17.4045 78.0731 17.3876 78.1174 17.38 78.1636C17.3723 78.2099 17.374 78.2572 17.3849 78.3028C17.3958 78.3484 17.4157 78.3913 17.4435 78.4291C17.4713 78.4669 17.5064 78.4987 17.5466 78.5227C18.1625 78.9112 18.8019 79.2996 19.4467 79.6715C19.4752 79.6878 19.5058 79.7002 19.5376 79.7083C19.6197 79.7287 19.7064 79.7187 19.7817 79.6803C19.8571 79.6419 19.916 79.5776 19.9477 79.4992C19.9794 79.4208 19.9818 79.3336 19.9544 79.2536C19.927 79.1736 19.8716 79.1061 19.7984 79.0637Z" fill="#212B36"/>
<path d="M40.2077 87.0644C39.4935 86.8572 38.7872 86.651 38.0891 86.4459C38.0449 86.432 37.9983 86.4271 37.9522 86.4315C37.906 86.436 37.8613 86.4497 37.8206 86.4718C37.7799 86.494 37.744 86.5241 37.7152 86.5604C37.6864 86.5967 37.6652 86.6385 37.6529 86.6831C37.6267 86.7725 37.6369 86.8686 37.6815 86.9503C37.726 87.0321 37.8011 87.0929 37.8904 87.1193C38.5891 87.3254 39.2966 87.5319 40.0127 87.7387L40.0254 87.7421C40.1143 87.7633 40.208 87.749 40.2865 87.7022C40.3651 87.6554 40.4222 87.5798 40.4458 87.4914C40.4695 87.4031 40.4577 87.3091 40.413 87.2293C40.3684 87.1495 40.2943 87.0904 40.2067 87.0644H40.2077Z" fill="#212B36"/>
<path d="M15.1978 76.0876C14.6021 75.6564 14.0163 75.2107 13.4538 74.7619C13.3811 74.7038 13.2882 74.6771 13.1957 74.6875C13.1032 74.6979 13.0187 74.7447 12.9606 74.8174C12.9026 74.8902 12.8758 74.983 12.8862 75.0755C12.8967 75.168 12.9434 75.2526 13.0162 75.3106C13.5872 75.7662 14.1815 76.2186 14.7857 76.656C14.8221 76.6823 14.8632 76.7015 14.9067 76.7125C14.9858 76.7321 15.0692 76.7237 15.1427 76.6885C15.2162 76.6534 15.2753 76.5938 15.3097 76.5199C15.3441 76.4461 15.3517 76.3626 15.3313 76.2837C15.3109 76.2048 15.2637 76.1355 15.1978 76.0876Z" fill="#212B36"/>
<path d="M29.7204 83.7241C29.0362 83.4651 28.3479 83.194 27.6769 82.9174C27.6343 82.8998 27.5886 82.8909 27.5425 82.891C27.4964 82.8911 27.4508 82.9003 27.4082 82.9181C27.3657 82.9358 27.3271 82.9617 27.2946 82.9944C27.262 83.0271 27.2363 83.0659 27.2188 83.1085C27.2012 83.1511 27.1923 83.1968 27.1924 83.2429C27.1925 83.289 27.2017 83.3346 27.2194 83.3771C27.2372 83.4197 27.2631 83.4583 27.2958 83.4908C27.3285 83.5233 27.3673 83.5491 27.4099 83.5666C28.0879 83.8455 28.7824 84.1195 29.4721 84.3806C29.4849 84.3855 29.4981 84.3896 29.5115 84.3927C29.5983 84.4143 29.69 84.4019 29.768 84.358C29.846 84.3142 29.9042 84.2422 29.9309 84.1569C29.9576 84.0715 29.9507 83.9791 29.9116 83.8987C29.8724 83.8183 29.8041 83.7558 29.7204 83.7241Z" fill="#212B36"/>
<path d="M10.9686 72.6222C10.4312 72.1229 9.90679 71.6078 9.40697 71.0912C9.37496 71.058 9.33672 71.0315 9.29444 71.0131C9.25217 70.9947 9.2067 70.9849 9.16061 70.9841C9.11452 70.9833 9.06872 70.9915 9.02584 71.0084C8.98295 71.0253 8.94381 71.0505 8.91065 71.0825C8.87749 71.1145 8.85096 71.1528 8.83258 71.195C8.8142 71.2373 8.80433 71.2828 8.80352 71.3289C8.80271 71.375 8.81099 71.4208 8.82789 71.4636C8.84478 71.5065 8.86996 71.5457 8.90198 71.5788C9.40931 72.1046 9.94409 72.6287 10.4908 73.1366C10.5246 73.1679 10.5642 73.1924 10.6074 73.2084C10.6506 73.2245 10.6965 73.2319 10.7426 73.2302C10.7887 73.2285 10.8339 73.2177 10.8758 73.1985C10.9178 73.1793 10.9555 73.1521 10.9868 73.1183C11.0182 73.0845 11.0426 73.0449 11.0587 73.0017C11.0748 72.9585 11.0822 72.9126 11.0805 72.8665C11.0788 72.8204 11.068 72.7752 11.0488 72.7332C11.0296 72.6913 11.0024 72.6536 10.9686 72.6222Z" fill="#212B36"/>
<path d="M10.9459 29.5639C11.469 29.0687 12.017 28.5764 12.574 28.1009C12.6091 28.071 12.6379 28.0345 12.6589 27.9934C12.6798 27.9523 12.6925 27.9076 12.6961 27.8616C12.6997 27.8156 12.6943 27.7694 12.68 27.7256C12.6658 27.6817 12.6431 27.6411 12.6131 27.6061C12.5832 27.571 12.5467 27.5422 12.5056 27.5212C12.4645 27.5003 12.4198 27.4876 12.3738 27.484C12.3278 27.4804 12.2816 27.4858 12.2378 27.5001C12.1939 27.5143 12.1533 27.537 12.1182 27.5669C11.5521 28.0502 10.9953 28.551 10.4631 29.0542C10.4297 29.0859 10.4028 29.1239 10.384 29.166C10.3652 29.2081 10.3549 29.2535 10.3536 29.2995C10.3524 29.3456 10.3602 29.3915 10.3767 29.4345C10.3932 29.4776 10.418 29.517 10.4497 29.5504C10.4814 29.5839 10.5193 29.6108 10.5614 29.6296C10.6035 29.6484 10.6489 29.6587 10.695 29.6599C10.7411 29.6612 10.7869 29.6533 10.83 29.6369C10.873 29.6204 10.9124 29.5956 10.9459 29.5639Z" fill="#212B36"/>
<path d="M1.57855 43.3231C1.58684 43.326 1.59513 43.3283 1.60445 43.3304C1.69038 43.3518 1.78124 43.3399 1.85878 43.2971C1.93632 43.2543 1.99478 43.1838 2.02243 43.0996C2.24696 42.4188 2.50335 41.7317 2.78485 41.0579C2.82078 40.972 2.82112 40.8754 2.78581 40.7893C2.75051 40.7032 2.68244 40.6346 2.59658 40.5987C2.51073 40.5628 2.41412 40.5625 2.32801 40.5978C2.2419 40.6331 2.17334 40.7011 2.13742 40.787C1.84892 41.4777 1.58606 42.1818 1.35584 42.88C1.32668 42.9683 1.33375 43.0646 1.37551 43.1477C1.41727 43.2307 1.4903 43.2939 1.57855 43.3231Z" fill="#212B36"/>
<path d="M0.84559 48.4072C0.925095 47.6938 1.03698 46.9707 1.17812 46.2577C1.18708 46.2125 1.18705 46.166 1.17802 46.1208C1.169 46.0756 1.15116 46.0326 1.12552 45.9943C1.09989 45.956 1.06696 45.9231 1.02861 45.8975C0.99027 45.8719 0.947262 45.8542 0.902047 45.8452C0.856832 45.8362 0.810294 45.8363 0.765091 45.8453C0.719889 45.8543 0.676908 45.8722 0.638599 45.8978C0.600291 45.9234 0.567406 45.9564 0.541824 45.9947C0.516242 46.033 0.498462 46.076 0.4895 46.1213C0.344475 46.8542 0.230526 47.5974 0.147913 48.3301C0.138512 48.4144 0.159985 48.4993 0.208357 48.5691C0.25673 48.6388 0.328729 48.6887 0.411033 48.7095C0.426423 48.7134 0.442093 48.7162 0.457907 48.7177C0.503764 48.7229 0.550187 48.7189 0.594511 48.7061C0.638836 48.6933 0.680189 48.6718 0.716206 48.643C0.752222 48.6141 0.782192 48.5784 0.804394 48.538C0.826597 48.4975 0.840595 48.4531 0.84559 48.4072Z" fill="#212B36"/>
<path d="M5.22827 35.7582C5.15014 35.7077 5.05518 35.6902 4.96421 35.7096C4.87324 35.7291 4.79367 35.7838 4.74296 35.8617C4.33611 36.4903 3.94972 37.1336 3.59441 37.7745C3.54936 37.856 3.53849 37.952 3.56418 38.0415C3.58986 38.131 3.65 38.2066 3.7314 38.2518C3.75831 38.2665 3.78693 38.2778 3.81661 38.2855C3.89163 38.3041 3.97071 38.2975 4.04159 38.2667C4.11248 38.2358 4.17121 38.1824 4.20869 38.1148C4.55598 37.4878 4.93382 36.8583 5.33187 36.2432C5.38233 36.1651 5.39977 36.0702 5.38035 35.9793C5.36093 35.8883 5.30624 35.8088 5.22827 35.7582Z" fill="#212B36"/>
<path d="M0.702079 51.6669C0.698552 51.5751 0.659146 51.4882 0.592326 51.4251C0.525506 51.362 0.436601 51.3276 0.344693 51.3293C0.252785 51.331 0.165205 51.3686 0.100759 51.4342C0.0363122 51.4997 0.000137464 51.5879 0 51.6799C0.0137256 52.4216 0.0605988 53.1726 0.138809 53.9125C0.143655 53.9583 0.15748 54.0027 0.179495 54.0432C0.20151 54.0837 0.231283 54.1195 0.267115 54.1484C0.302946 54.1774 0.344134 54.199 0.388327 54.2121C0.43252 54.2252 0.478855 54.2294 0.524682 54.2245C0.570509 54.2197 0.61493 54.2059 0.655414 54.1839C0.695898 54.1618 0.731653 54.1321 0.76063 54.0962C0.789608 54.0604 0.811243 54.0192 0.824303 53.975C0.837363 53.9308 0.841589 53.8845 0.836743 53.8387C0.760863 53.119 0.715287 52.3884 0.702079 51.6669Z" fill="#212B36"/>
<path d="M6.75072 33.6404C6.78963 33.6717 6.83487 33.6941 6.88331 33.7062C6.94878 33.7225 7.01757 33.7197 7.08146 33.6979C7.14534 33.6762 7.20162 33.6366 7.24355 33.5837C7.68924 33.0225 8.16342 32.46 8.6534 31.9123C8.71255 31.8424 8.74211 31.7523 8.73578 31.661C8.72945 31.5697 8.68774 31.4845 8.61952 31.4235C8.5513 31.3625 8.46196 31.3305 8.37054 31.3344C8.27911 31.3383 8.19281 31.3777 8.13001 31.4443C7.63097 32.0024 7.14773 32.5752 6.69374 33.1476C6.66507 33.1837 6.6438 33.225 6.63115 33.2693C6.61849 33.3137 6.6147 33.36 6.61999 33.4058C6.62529 33.4516 6.63956 33.4959 6.66199 33.5361C6.68442 33.5764 6.71457 33.6118 6.75072 33.6404Z" fill="#212B36"/>
<path d="M3.17993 62.185C3.14074 62.1005 3.06961 62.0351 2.98219 62.0031C2.89477 61.9711 2.79822 61.9751 2.71377 62.0143C2.62932 62.0535 2.5639 62.1246 2.53189 62.212C2.49989 62.2994 2.50392 62.396 2.54311 62.4805C2.85232 63.1458 3.19417 63.8142 3.55932 64.4678C3.60597 64.5468 3.68166 64.6044 3.7702 64.6283C3.85875 64.6522 3.95313 64.6405 4.03317 64.5957C4.11321 64.5509 4.17255 64.4766 4.1985 64.3886C4.22445 64.3006 4.21496 64.206 4.17205 64.1249C3.81545 63.4871 3.48293 62.835 3.17993 62.185Z" fill="#212B36"/>
<path d="M17.0348 24.3112C16.9829 24.234 16.9025 24.1805 16.8111 24.1625C16.7198 24.1445 16.625 24.1636 16.5477 24.2154C15.9285 24.6298 15.3168 25.0607 14.7292 25.4937C14.6921 25.5211 14.6607 25.5554 14.6369 25.5949C14.6131 25.6344 14.5973 25.6781 14.5904 25.7237C14.5835 25.7693 14.5856 25.8158 14.5967 25.8605C14.6078 25.9052 14.6275 25.9474 14.6549 25.9845C14.6822 26.0216 14.7166 26.0529 14.7561 26.0767C14.7955 26.1006 14.8393 26.1164 14.8848 26.1233C14.9304 26.1302 14.9769 26.128 15.0216 26.117C15.0664 26.1059 15.1085 26.0861 15.1456 26.0588C15.7249 25.632 16.3283 25.2078 16.9388 24.7981C17.0161 24.7463 17.0696 24.6659 17.0876 24.5746C17.1056 24.4833 17.0867 24.3885 17.0348 24.3112Z" fill="#212B36"/>
<path d="M7.22427 68.6346C6.76485 68.0648 6.32226 67.4785 5.9092 66.8922C5.88316 66.8532 5.8496 66.8199 5.81048 66.7941C5.77136 66.7684 5.72749 66.7507 5.68143 66.7421C5.63538 66.7336 5.58807 66.7343 5.54231 66.7443C5.49655 66.7543 5.45325 66.7734 5.41496 66.8003C5.37667 66.8273 5.34417 66.8617 5.31937 66.9014C5.29457 66.9412 5.27797 66.9855 5.27055 67.0317C5.26313 67.078 5.26503 67.1253 5.27616 67.1708C5.28728 67.2163 5.30739 67.2591 5.33531 67.2967C5.75692 67.8952 6.20857 68.4937 6.67809 69.0756C6.70648 69.113 6.74207 69.1443 6.78278 69.1677C6.82348 69.1911 6.86846 69.206 6.91505 69.2117C6.96165 69.2174 7.00891 69.2137 7.05404 69.2008C7.09918 69.1879 7.14127 69.1661 7.17781 69.1366C7.21436 69.1072 7.24463 69.0707 7.26682 69.0293C7.28901 68.9879 7.30267 68.9425 7.307 68.8958C7.31134 68.8491 7.30625 68.8019 7.29204 68.7572C7.27782 68.7124 7.25478 68.671 7.22427 68.6353V68.6346Z" fill="#212B36"/>
<path d="M1.38802 57.053C1.36646 56.9625 1.3098 56.8842 1.23051 56.8354C1.15123 56.7866 1.05581 56.7713 0.965247 56.7929C0.874687 56.8144 0.796404 56.8711 0.747619 56.9504C0.698833 57.0297 0.68354 57.1251 0.705107 57.2156C0.876289 57.9346 1.08062 58.6579 1.3124 59.3651C1.34139 59.4536 1.40433 59.5269 1.48738 59.569C1.57043 59.611 1.66678 59.6184 1.75525 59.5894C1.84372 59.5604 1.91704 59.4975 1.9591 59.4144C2.00116 59.3314 2.00851 59.235 1.97952 59.1466C1.7537 58.458 1.5548 57.753 1.38802 57.053Z" fill="#212B36"/>
<path d="M21.7782 21.5082C21.7343 21.426 21.6597 21.3647 21.5706 21.3376C21.4816 21.3105 21.3854 21.3199 21.3032 21.3637C20.6483 21.713 19.9957 22.0774 19.364 22.4464C19.3242 22.4697 19.2894 22.5006 19.2616 22.5373C19.2337 22.574 19.2133 22.6158 19.2017 22.6604C19.19 22.705 19.1872 22.7515 19.1934 22.7971C19.1997 22.8428 19.2149 22.8868 19.2382 22.9266C19.2614 22.9664 19.2923 23.0012 19.329 23.029C19.3657 23.0569 19.4076 23.0773 19.4522 23.0889C19.4967 23.1006 19.5432 23.1034 19.5889 23.0972C19.6345 23.0909 19.6785 23.0757 19.7183 23.0524C20.3422 22.6881 20.9873 22.3273 21.6347 21.9831C21.7167 21.9391 21.7778 21.8644 21.8047 21.7753C21.8316 21.6863 21.8221 21.5902 21.7782 21.5082Z" fill="#212B36"/>
<path d="M25.3326 19.4028C24.9904 19.555 24.6513 19.7092 24.3153 19.8653C24.2735 19.8847 24.2359 19.9121 24.2047 19.9461C24.1735 19.98 24.1493 20.0197 24.1335 20.063C24.1176 20.1063 24.1104 20.1523 24.1124 20.1984C24.1143 20.2444 24.1253 20.2896 24.1447 20.3315C24.1641 20.3733 24.1915 20.4108 24.2254 20.4421C24.2594 20.4733 24.2991 20.4975 24.3424 20.5133C24.3857 20.5292 24.4317 20.5363 24.4777 20.5344C24.5238 20.5325 24.569 20.5215 24.6108 20.5021C24.9437 20.3467 25.2794 20.1941 25.618 20.0443C25.6997 20.0044 25.7628 19.9343 25.794 19.8489C25.8251 19.7634 25.8219 19.6692 25.785 19.5861C25.7481 19.503 25.6804 19.4374 25.5961 19.4032C25.5118 19.369 25.4175 19.3689 25.3331 19.4028H25.3326Z" fill="#212B36"/>
<path d="M23.9756 10.3447L24.1457 21.665L65.8043 0L23.9756 10.3447Z" fill="#0CBC8B"/>
<path opacity="0.2" d="M23.9756 10.3447L24.1457 21.665L65.8043 0L23.9756 10.3447Z" fill="#0A0A0A"/>
<path d="M26.1474 13.6881L24.1543 21.6648L56.027 4.46472L26.1474 13.6881Z" fill="#0CBC8B"/>
<path opacity="0.1" d="M26.1474 13.6881L24.1543 21.6648L56.027 4.46472L26.1474 13.6881Z" fill="#0A0A0A"/>
<path d="M20.0938 4.22465L65.8043 0L33.7184 27.4466L26.1387 13.6883L65.8043 0L23.9755 10.3447L20.0938 4.22465Z" fill="#0CBC8B"/>
<path d="M143.947 117.164C143.519 117.454 143.276 117.607 143.273 117.608C143.245 117.626 143.22 117.65 143.2 117.677C143.18 117.705 143.166 117.736 143.159 117.769C143.143 117.836 143.155 117.906 143.191 117.964C143.228 118.022 143.286 118.063 143.352 118.079C143.419 118.094 143.489 118.082 143.547 118.046C143.557 118.04 143.8 117.888 144.237 117.591C144.265 117.572 144.29 117.548 144.309 117.52C144.328 117.491 144.341 117.459 144.348 117.426C144.354 117.392 144.354 117.358 144.347 117.324C144.341 117.291 144.327 117.259 144.308 117.231C144.289 117.203 144.264 117.178 144.236 117.16C144.207 117.141 144.175 117.128 144.142 117.122C144.108 117.116 144.073 117.116 144.04 117.124C144.007 117.131 143.975 117.145 143.947 117.164Z" fill="#212B36"/>
<path d="M165.562 69.2925C165.732 69.8015 165.892 70.3193 166.038 70.8318C166.055 70.8925 166.094 70.9449 166.147 70.9788C166.201 71.0128 166.265 71.0261 166.327 71.0161C166.337 71.0145 166.347 71.0123 166.357 71.0094C166.389 71.0001 166.42 70.9845 166.446 70.9635C166.473 70.9425 166.495 70.9164 166.512 70.8868C166.528 70.8572 166.539 70.8246 166.543 70.791C166.547 70.7573 166.544 70.7232 166.534 70.6906C166.387 70.1707 166.224 69.6454 166.053 69.1288C166.029 69.0668 165.982 69.0164 165.922 68.9881C165.862 68.9597 165.793 68.9556 165.73 68.9766C165.667 68.9977 165.614 69.0422 165.583 69.1009C165.552 69.1596 165.545 69.2281 165.563 69.292L165.562 69.2925Z" fill="#212B36"/>
<path d="M164.727 67.025C164.749 67.0791 164.789 67.1242 164.84 67.1529C164.89 67.1816 164.949 67.1922 165.007 67.183C165.026 67.18 165.045 67.1748 165.063 67.1675C165.094 67.1548 165.123 67.136 165.147 67.1122C165.171 67.0885 165.19 67.0602 165.203 67.029C165.217 66.9977 165.224 66.9642 165.224 66.9303C165.224 66.8964 165.218 66.8628 165.205 66.8314C165.004 66.3347 164.787 65.8297 164.561 65.3307C164.533 65.2683 164.481 65.2197 164.417 65.1956C164.353 65.1714 164.282 65.1737 164.22 65.2019C164.158 65.2301 164.109 65.2819 164.085 65.3459C164.061 65.4099 164.063 65.4809 164.091 65.5433C164.315 66.0356 164.528 66.5339 164.727 67.025Z" fill="#212B36"/>
<path d="M161.272 59.9918C161.314 59.985 161.354 59.9678 161.388 59.9418C161.422 59.9158 161.449 59.8818 161.467 59.8429C161.484 59.8039 161.492 59.7612 161.489 59.7185C161.486 59.6759 161.472 59.6347 161.449 59.5986C161.16 59.1435 160.859 58.6848 160.554 58.2355C160.515 58.1799 160.456 58.1418 160.389 58.1294C160.322 58.1171 160.253 58.1316 160.197 58.1697C160.141 58.2078 160.102 58.2665 160.089 58.333C160.076 58.3996 160.089 58.4686 160.127 58.5253C160.429 58.9703 160.727 59.4246 161.013 59.8754C161.04 59.918 161.079 59.9518 161.125 59.9725C161.171 59.9932 161.222 59.9999 161.272 59.9918Z" fill="#212B36"/>
<path d="M165.016 92.7567C164.984 92.7437 164.951 92.737 164.917 92.7371C164.883 92.7371 164.85 92.7438 164.818 92.7569C164.787 92.7699 164.759 92.789 164.735 92.8131C164.711 92.8371 164.692 92.8657 164.679 92.8971C164.476 93.391 164.259 93.889 164.036 94.3759C164.007 94.4382 164.005 94.5092 164.028 94.5733C164.052 94.6375 164.101 94.6895 164.163 94.7181C164.225 94.7466 164.296 94.7492 164.36 94.7254C164.424 94.7016 164.476 94.6533 164.505 94.591C164.731 94.0981 164.95 93.5941 165.156 93.0934C165.169 93.0621 165.176 93.0285 165.176 92.9947C165.176 92.9608 165.169 92.9273 165.156 92.896C165.143 92.8647 165.124 92.8363 165.1 92.8124C165.076 92.7885 165.047 92.7696 165.016 92.7567Z" fill="#212B36"/>
<path d="M160.918 100.02C160.628 100.468 160.325 100.919 160.018 101.362C159.978 101.418 159.963 101.487 159.976 101.555C159.988 101.622 160.026 101.682 160.082 101.721C160.139 101.76 160.208 101.775 160.276 101.763C160.343 101.751 160.403 101.713 160.442 101.656C160.752 101.21 161.058 100.754 161.351 100.301C161.37 100.273 161.382 100.241 161.388 100.208C161.394 100.174 161.394 100.14 161.387 100.107C161.38 100.074 161.366 100.043 161.347 100.015C161.328 99.9868 161.303 99.9629 161.275 99.9445C161.246 99.9261 161.215 99.9134 161.181 99.9073C161.148 99.9011 161.114 99.9016 161.081 99.9087C161.048 99.9157 161.016 99.9293 160.988 99.9485C160.96 99.9677 160.936 99.9922 160.918 100.021L160.918 100.02Z" fill="#212B36"/>
<path d="M158.724 56.5499C158.744 56.5781 158.769 56.602 158.799 56.6202C158.828 56.6384 158.86 56.6506 158.894 56.656C158.928 56.6614 158.963 56.66 158.997 56.6518C159.03 56.6436 159.062 56.6289 159.089 56.6083C159.117 56.5878 159.14 56.5619 159.158 56.5323C159.175 56.5027 159.186 56.4698 159.191 56.4357C159.196 56.4016 159.193 56.3669 159.184 56.3336C159.175 56.3004 159.16 56.2693 159.139 56.2422C158.818 55.8111 158.485 55.3755 158.149 54.9466C158.107 54.8931 158.045 54.8587 157.978 54.8507C157.91 54.8427 157.842 54.8619 157.788 54.904C157.734 54.9461 157.7 55.0077 157.691 55.0754C157.683 55.1431 157.702 55.2114 157.744 55.2652C158.076 55.6899 158.406 56.1221 158.724 56.5499Z" fill="#212B36"/>
<path d="M152.143 49.4451C152.115 49.4267 152.083 49.4141 152.05 49.4079C152.016 49.4018 151.982 49.4023 151.949 49.4094C151.916 49.4165 151.885 49.43 151.857 49.4492C151.829 49.4685 151.805 49.493 151.786 49.5214C151.768 49.5499 151.755 49.5817 151.749 49.615C151.743 49.6483 151.744 49.6825 151.751 49.7157C151.758 49.7488 151.771 49.7803 151.791 49.8082C151.81 49.8361 151.834 49.8599 151.863 49.8783C152.315 50.1714 152.758 50.479 153.18 50.7926C153.207 50.8137 153.238 50.8291 153.272 50.838C153.305 50.8469 153.339 50.8491 153.373 50.8444C153.407 50.8398 153.44 50.8284 153.47 50.8109C153.499 50.7934 153.525 50.7702 153.546 50.7427C153.566 50.7151 153.581 50.6837 153.589 50.6504C153.597 50.617 153.599 50.5824 153.593 50.5485C153.588 50.5145 153.576 50.482 153.558 50.4529C153.54 50.4237 153.516 50.3984 153.488 50.3785C153.057 50.0582 152.605 49.7443 152.143 49.4451Z" fill="#212B36"/>
<path d="M163.315 96.4352C163.254 96.4033 163.184 96.3968 163.118 96.417C163.053 96.4372 162.998 96.4825 162.966 96.5429C162.718 97.0121 162.455 97.4867 162.184 97.9544C162.152 98.0135 162.145 98.0828 162.163 98.1476C162.181 98.2123 162.224 98.2673 162.282 98.301C162.341 98.3346 162.41 98.3442 162.475 98.3277C162.54 98.3111 162.596 98.2698 162.631 98.2125C162.905 97.7392 163.171 97.259 163.422 96.7842C163.438 96.7542 163.448 96.7214 163.451 96.6877C163.454 96.6539 163.451 96.6199 163.441 96.5875C163.431 96.5551 163.415 96.5249 163.393 96.4988C163.371 96.4727 163.345 96.4511 163.315 96.4352Z" fill="#212B36"/>
<path d="M155.381 51.9357C155.331 51.8896 155.264 51.8654 155.196 51.8684C155.127 51.8715 155.063 51.9016 155.017 51.9521C154.971 52.0026 154.947 52.0694 154.95 52.1378C154.953 52.2061 154.983 52.2705 155.033 52.3166C155.428 52.6772 155.813 53.0548 156.179 53.4391C156.226 53.4866 156.291 53.5136 156.358 53.5144C156.425 53.5152 156.49 53.4897 156.539 53.4433C156.588 53.397 156.616 53.3334 156.619 53.2662C156.622 53.199 156.598 53.1334 156.553 53.0834C156.179 52.6904 155.785 52.3043 155.381 51.9357Z" fill="#212B36"/>
<path d="M167.439 76.8789C167.406 76.8818 167.373 76.8913 167.343 76.9069C167.313 76.9226 167.286 76.9439 167.264 76.9699C167.242 76.9958 167.226 77.0258 167.216 77.0581C167.205 77.0904 167.202 77.1244 167.205 77.1581C167.25 77.6917 167.284 78.2317 167.302 78.7634C167.305 78.8318 167.334 78.8965 167.385 78.9431C167.435 78.9897 167.501 79.0146 167.57 79.0122C167.58 79.0117 167.591 79.0106 167.602 79.0089C167.664 78.9989 167.72 78.9665 167.76 78.918C167.8 78.8694 167.821 78.8079 167.818 78.745C167.799 78.2047 167.765 77.6558 167.719 77.1138C167.716 77.08 167.706 77.0472 167.691 77.0171C167.675 76.987 167.654 76.9603 167.628 76.9385C167.602 76.9167 167.572 76.9002 167.539 76.89C167.507 76.8798 167.473 76.876 167.439 76.8789Z" fill="#212B36"/>
<path d="M167.126 73.0704C167.12 73.0369 167.107 73.0049 167.088 72.9766C167.069 72.9482 167.044 72.924 167.016 72.9054C166.987 72.8868 166.955 72.8742 166.921 72.8683C166.888 72.8624 166.853 72.8635 166.82 72.8713C166.753 72.8854 166.695 72.9256 166.657 72.9829C166.62 73.0403 166.607 73.1101 166.621 73.177C166.732 73.7024 166.831 74.2351 166.916 74.7601C166.921 74.794 166.932 74.8266 166.95 74.856C166.967 74.8853 166.991 74.9109 167.018 74.9312C167.046 74.9515 167.077 74.9661 167.11 74.9742C167.144 74.9822 167.178 74.9835 167.212 74.9781C167.246 74.9726 167.278 74.9605 167.307 74.9424C167.336 74.9243 167.362 74.9006 167.381 74.8727C167.401 74.8447 167.415 74.8131 167.423 74.7797C167.43 74.7463 167.431 74.7117 167.425 74.678C167.339 74.1448 167.239 73.6039 167.126 73.0704Z" fill="#212B36"/>
<path d="M167.576 80.9255C167.542 80.924 167.508 80.9293 167.476 80.9409C167.444 80.9526 167.415 80.9704 167.39 80.9934C167.365 81.0164 167.345 81.0441 167.331 81.075C167.317 81.1058 167.309 81.1391 167.308 81.173C167.287 81.705 167.252 82.2452 167.204 82.7782C167.201 82.812 167.204 82.846 167.215 82.8783C167.225 82.9107 167.241 82.9407 167.263 82.9667C167.285 82.9927 167.311 83.0142 167.341 83.0299C167.371 83.0457 167.404 83.0553 167.438 83.0583C167.472 83.0614 167.506 83.0577 167.538 83.0476C167.57 83.0375 167.6 83.0211 167.626 82.9994C167.652 82.9777 167.674 82.951 167.689 82.921C167.705 82.891 167.715 82.8581 167.718 82.8244C167.767 82.2827 167.802 81.734 167.823 81.1933C167.826 81.1249 167.802 81.0583 167.755 81.0081C167.709 80.9579 167.644 80.9282 167.576 80.9255Z" fill="#212B36"/>
<path d="M163.301 63.5034C163.341 63.4968 163.379 63.4807 163.412 63.4565C163.445 63.4323 163.472 63.4007 163.49 63.3642C163.508 63.3277 163.518 63.2874 163.517 63.2465C163.517 63.2057 163.507 63.1655 163.488 63.1292C163.24 62.6538 162.978 62.1716 162.708 61.6961C162.674 61.6377 162.618 61.5951 162.552 61.5776C162.487 61.56 162.417 61.5689 162.358 61.6022C162.299 61.6356 162.256 61.6908 162.237 61.7559C162.219 61.821 162.226 61.8908 162.259 61.9503C162.526 62.4207 162.786 62.8973 163.031 63.3672C163.056 63.4154 163.095 63.4544 163.144 63.4789C163.192 63.5033 163.247 63.5119 163.301 63.5034Z" fill="#212B36"/>
<path d="M166.322 88.9212C166.29 88.9118 166.255 88.9089 166.222 88.9127C166.188 88.9164 166.156 88.9268 166.126 88.9432C166.096 88.9595 166.07 88.9816 166.049 89.0081C166.028 89.0345 166.012 89.0649 166.003 89.0975C165.855 89.6091 165.693 90.1264 165.521 90.6346C165.51 90.6667 165.506 90.7006 165.508 90.7345C165.511 90.7683 165.519 90.8013 165.535 90.8317C165.55 90.8621 165.57 90.8892 165.596 90.9115C165.621 90.9338 165.651 90.9509 165.683 90.9617C165.715 90.9725 165.749 90.977 165.783 90.9747C165.817 90.9724 165.85 90.9635 165.88 90.9485C165.911 90.9335 165.938 90.9126 165.96 90.8871C165.982 90.8616 165.999 90.8319 166.01 90.7998C166.184 90.284 166.349 89.7597 166.499 89.2405C166.508 89.2079 166.511 89.1738 166.507 89.1401C166.503 89.1065 166.493 89.0739 166.477 89.0442C166.46 89.0146 166.438 88.9884 166.412 88.9673C166.385 88.9462 166.355 88.9306 166.322 88.9212Z" fill="#212B36"/>
<path d="M167.189 84.9606C167.155 84.955 167.121 84.9562 167.088 84.9639C167.055 84.9716 167.024 84.9857 166.996 85.0055C166.968 85.0252 166.945 85.0503 166.927 85.0791C166.909 85.1079 166.897 85.14 166.892 85.1734C166.805 85.6971 166.705 86.2291 166.592 86.7546C166.584 86.788 166.583 86.8226 166.589 86.8564C166.594 86.8901 166.607 86.9224 166.625 86.9514C166.644 86.9803 166.668 87.0053 166.696 87.0249C166.724 87.0445 166.755 87.0583 166.789 87.0655C166.823 87.0727 166.857 87.0732 166.891 87.0669C166.924 87.0606 166.957 87.0476 166.985 87.0288C167.014 87.01 167.038 86.9856 167.058 86.9572C167.077 86.9287 167.09 86.8968 167.097 86.8632C167.211 86.3293 167.314 85.7891 167.401 85.2573C167.412 85.1897 167.396 85.1205 167.356 85.0649C167.316 85.0093 167.256 84.9717 167.189 84.9606Z" fill="#212B36"/>
<path d="M147.203 114.769C146.776 115.105 146.344 115.437 145.918 115.755C145.891 115.776 145.868 115.801 145.851 115.83C145.833 115.859 145.822 115.892 145.817 115.925C145.812 115.959 145.814 115.993 145.823 116.026C145.831 116.059 145.846 116.089 145.866 116.117C145.886 116.144 145.912 116.167 145.941 116.184C145.97 116.201 146.002 116.213 146.036 116.217C146.07 116.222 146.104 116.22 146.137 116.212C146.169 116.204 146.2 116.189 146.227 116.168C146.657 115.847 147.092 115.513 147.522 115.174C147.549 115.153 147.571 115.127 147.588 115.097C147.604 115.068 147.615 115.035 147.619 115.001C147.623 114.968 147.62 114.934 147.611 114.901C147.602 114.868 147.586 114.838 147.565 114.811C147.544 114.785 147.518 114.763 147.488 114.746C147.459 114.729 147.426 114.719 147.393 114.715C147.359 114.711 147.325 114.714 147.292 114.723C147.26 114.732 147.229 114.748 147.203 114.769Z" fill="#212B36"/>
<path d="M138.41 44.9754C138.47 44.9656 138.525 44.9348 138.565 44.8884C138.605 44.842 138.627 44.7831 138.627 44.722C138.627 44.6609 138.606 44.6017 138.567 44.5549C138.528 44.5081 138.473 44.4766 138.413 44.4662C137.886 44.3755 137.344 44.2904 136.802 44.2128C136.734 44.2032 136.665 44.2208 136.61 44.2619C136.556 44.3031 136.52 44.3642 136.51 44.432C136.5 44.4998 136.518 44.5687 136.559 44.6234C136.6 44.6782 136.661 44.7144 136.729 44.7241C137.266 44.8005 137.804 44.8856 138.325 44.9748C138.353 44.9797 138.382 44.9798 138.41 44.9754Z" fill="#212B36"/>
<path d="M150.31 112.169C149.91 112.524 149.498 112.881 149.087 113.23C149.061 113.252 149.04 113.279 149.024 113.309C149.009 113.339 149 113.372 148.997 113.406C148.994 113.44 148.998 113.474 149.008 113.506C149.019 113.538 149.035 113.568 149.057 113.594C149.079 113.62 149.106 113.641 149.136 113.657C149.166 113.672 149.199 113.681 149.233 113.684C149.267 113.687 149.301 113.683 149.333 113.673C149.365 113.662 149.395 113.646 149.421 113.624C149.836 113.273 150.25 112.913 150.653 112.555C150.704 112.509 150.735 112.445 150.739 112.377C150.743 112.309 150.72 112.242 150.675 112.19C150.629 112.139 150.565 112.108 150.497 112.104C150.429 112.1 150.362 112.124 150.31 112.169L150.31 112.169Z" fill="#212B36"/>
<path d="M156.013 106.448C155.66 106.85 155.295 107.254 154.929 107.648C154.885 107.699 154.863 107.764 154.866 107.831C154.87 107.898 154.899 107.961 154.948 108.006C154.997 108.052 155.062 108.077 155.129 108.075C155.196 108.074 155.259 108.047 155.307 107.999C155.675 107.602 156.044 107.195 156.4 106.789C156.446 106.738 156.469 106.671 156.464 106.602C156.46 106.534 156.429 106.47 156.377 106.425C156.326 106.38 156.259 106.357 156.19 106.361C156.122 106.366 156.058 106.397 156.013 106.448L156.013 106.448Z" fill="#212B36"/>
<path d="M158.584 103.324C158.261 103.747 157.924 104.175 157.584 104.594C157.541 104.648 157.521 104.716 157.528 104.784C157.535 104.852 157.569 104.914 157.622 104.958C157.675 105.001 157.743 105.021 157.812 105.014C157.88 105.007 157.942 104.973 157.985 104.92C158.329 104.496 158.668 104.065 158.994 103.638C159.036 103.583 159.054 103.515 159.045 103.447C159.036 103.379 159 103.318 158.946 103.276C158.891 103.235 158.823 103.216 158.755 103.226C158.687 103.235 158.626 103.27 158.584 103.325L158.584 103.324Z" fill="#212B36"/>
<path d="M149.946 48.6879C150 48.6793 150.049 48.6541 150.088 48.616C150.126 48.5778 150.151 48.5286 150.16 48.4752C150.169 48.4219 150.161 48.3671 150.137 48.3186C150.113 48.2701 150.074 48.2304 150.026 48.2051C149.553 47.955 149.06 47.7114 148.56 47.4809C148.498 47.4544 148.428 47.4531 148.365 47.4772C148.303 47.5013 148.252 47.549 148.224 47.6101C148.195 47.6712 148.192 47.7409 148.215 47.8043C148.237 47.8677 148.283 47.9199 148.344 47.9497C148.835 48.1763 149.32 48.4157 149.785 48.6612C149.834 48.6876 149.891 48.6969 149.946 48.6879Z" fill="#212B36"/>
<path d="M153.252 109.393C152.876 109.769 152.487 110.149 152.094 110.523C152.046 110.571 152.019 110.635 152.019 110.703C152.018 110.77 152.043 110.835 152.09 110.884C152.136 110.933 152.2 110.961 152.267 110.964C152.335 110.966 152.4 110.942 152.45 110.897C152.846 110.521 153.238 110.136 153.617 109.757C153.642 109.734 153.662 109.705 153.676 109.674C153.689 109.642 153.697 109.608 153.697 109.573C153.697 109.539 153.691 109.505 153.678 109.473C153.665 109.441 153.646 109.412 153.621 109.388C153.597 109.363 153.568 109.344 153.536 109.331C153.504 109.318 153.47 109.312 153.435 109.312C153.401 109.313 153.367 109.32 153.335 109.334C153.304 109.348 153.275 109.368 153.252 109.393Z" fill="#212B36"/>
<path d="M146.242 47.0393C146.299 47.0305 146.351 47.0032 146.39 46.9616C146.43 46.9201 146.454 46.8666 146.46 46.8097C146.465 46.7528 146.452 46.6956 146.422 46.6471C146.391 46.5986 146.346 46.5616 146.292 46.5419C145.792 46.3552 145.273 46.1742 144.749 46.0041C144.684 45.983 144.613 45.9887 144.552 46.0198C144.491 46.0509 144.445 46.1049 144.424 46.1701C144.403 46.2352 144.409 46.306 144.44 46.367C144.471 46.4279 144.525 46.474 144.59 46.4951C145.107 46.6627 145.618 46.841 146.111 47.0248C146.153 47.0411 146.198 47.0461 146.242 47.0393Z" fill="#212B36"/>
<path d="M142.38 45.8217C142.439 45.8123 142.492 45.783 142.531 45.7388C142.571 45.6947 142.594 45.6383 142.597 45.5792C142.6 45.52 142.582 45.4617 142.547 45.414C142.512 45.3663 142.462 45.3321 142.404 45.3171C141.888 45.183 141.354 45.0548 140.817 44.9357C140.783 44.9265 140.748 44.9243 140.714 44.9292C140.679 44.9341 140.646 44.9459 140.616 44.9639C140.586 44.982 140.56 45.0059 140.54 45.0342C140.52 45.0626 140.505 45.0948 140.498 45.1288C140.49 45.1629 140.489 45.1981 140.496 45.2324C140.502 45.2667 140.516 45.2994 140.535 45.3284C140.554 45.3574 140.579 45.3822 140.609 45.4012C140.638 45.4203 140.671 45.4332 140.705 45.4392C141.236 45.5569 141.764 45.6836 142.275 45.816C142.309 45.8252 142.345 45.8271 142.38 45.8217Z" fill="#212B36"/>
<defs>
<linearGradient id="paint0_linear_151_28" x1="90.61" y1="64.196" x2="90.61" y2="127.099" gradientUnits="userSpaceOnUse">
<stop stop-color="#4A00E8"/>
<stop offset="1" stop-color="#3B3EFF"/>
</linearGradient>
<linearGradient id="paint1_linear_151_28" x1="90.5997" y1="67.3013" x2="90.5997" y2="127.099" gradientUnits="userSpaceOnUse">
<stop stop-color="#4A00E8"/>
<stop offset="1" stop-color="#3B3EFF"/>
</linearGradient>
<linearGradient id="paint2_linear_151_28" x1="52.4069" y1="24" x2="52.4069" y2="40.4794" gradientUnits="userSpaceOnUse">
<stop stop-color="#4A00E8"/>
<stop offset="1" stop-color="#3B3EFF"/>
</linearGradient>
<linearGradient id="paint3_linear_151_28" x1="115.37" y1="67.3013" x2="115.37" y2="122.975" gradientUnits="userSpaceOnUse">
<stop stop-color="#4A00E8"/>
<stop offset="1" stop-color="#3B3EFF"/>
</linearGradient>
<linearGradient id="paint4_linear_151_28" x1="65.8281" y1="67.3013" x2="65.8281" y2="122.975" gradientUnits="userSpaceOnUse">
<stop stop-color="#4A00E8"/>
<stop offset="1" stop-color="#3B3EFF"/>
</linearGradient>
<clipPath id="clip0_151_28">
<rect width="103.215" height="103.099" fill="white" transform="translate(38.991 24)"/>
</clipPath>
</defs>
</svg>
