<svg width="24" height="24" viewBox="0 0 24 24" fill="none" xmlns="http://www.w3.org/2000/svg">
<path d="M12 0.333008C9.7372 0.337307 7.52451 0.999537 5.63141 2.23904C3.73831 3.47854 2.24652 5.24181 1.33774 7.31407C0.42896 9.38634 0.142414 11.6782 0.513006 13.9104C0.883598 16.1426 1.89533 18.2189 3.42498 19.8863C4.51747 21.0706 5.84341 22.0157 7.31924 22.6621C8.79506 23.3085 10.3888 23.6422 12 23.6422C13.6112 23.6422 15.2049 23.3085 16.6807 22.6621C18.1565 22.0157 19.4825 21.0706 20.575 19.8863C22.1046 18.2189 23.1164 16.1426 23.4869 13.9104C23.8575 11.6782 23.571 9.38634 22.6622 7.31407C21.7534 5.24181 20.2616 3.47854 18.3685 2.23904C16.4754 0.999537 14.2627 0.337307 12 0.333008ZM12 21.333C9.58318 21.3293 7.26204 20.3883 5.52497 18.708C6.05236 17.4241 6.94951 16.326 8.10244 15.5532C9.25536 14.7804 10.612 14.3678 12 14.3678C13.3879 14.3678 14.7446 14.7804 15.8975 15.5532C17.0504 16.326 17.9476 17.4241 18.475 18.708C16.7379 20.3883 14.4168 21.3293 12 21.333ZM9.66664 9.66634C9.66664 9.20485 9.80349 8.75373 10.0599 8.37001C10.3163 7.9863 10.6807 7.68723 11.107 7.51062C11.5334 7.33402 12.0026 7.28781 12.4552 7.37784C12.9078 7.46787 13.3236 7.6901 13.6499 8.01643C13.9762 8.34275 14.1984 8.75851 14.2885 9.21113C14.3785 9.66375 14.3323 10.1329 14.1557 10.5593C13.9791 10.9856 13.68 11.35 13.2963 11.6064C12.9126 11.8628 12.4615 11.9997 12 11.9997C11.3811 11.9997 10.7876 11.7538 10.3501 11.3163C9.91247 10.8787 9.66664 10.2852 9.66664 9.66634ZM20.0616 16.6663C19.0193 14.8834 17.4149 13.4965 15.5 12.723C16.094 12.0494 16.4811 11.2188 16.6147 10.3307C16.7483 9.44259 16.6229 8.53481 16.2533 7.71625C15.8838 6.8977 15.286 6.20316 14.5315 5.71597C13.7771 5.22878 12.8981 4.96963 12 4.96963C11.1019 4.96963 10.2229 5.22878 9.46842 5.71597C8.71396 6.20316 8.11611 6.8977 7.7466 7.71625C7.37709 8.53481 7.25163 9.44259 7.38526 10.3307C7.51889 11.2188 7.90595 12.0494 8.49998 12.723C6.58501 13.4965 4.98069 14.8834 3.93831 16.6663C3.10758 15.2513 2.66865 13.6406 2.66664 11.9997C2.66664 9.52432 3.64997 7.15035 5.40031 5.40001C7.15065 3.64967 9.52462 2.66634 12 2.66634C14.4753 2.66634 16.8493 3.64967 18.5996 5.40001C20.35 7.15035 21.3333 9.52432 21.3333 11.9997C21.3313 13.6406 20.8924 15.2513 20.0616 16.6663Z" fill="#D1CBD8"/>
</svg>
