<svg width="24" height="25" viewBox="0 0 24 25" fill="none" xmlns="http://www.w3.org/2000/svg">
<path d="M11.6307 12.4061C10.4039 12.4061 9.20457 12.0423 8.18448 11.3607C7.1644 10.6791 6.36934 9.71031 5.89984 8.57685C5.43035 7.44339 5.30751 6.19617 5.54685 4.99289C5.7862 3.78962 6.37698 2.68434 7.2445 1.81683C8.11201 0.949322 9.21728 0.358538 10.4206 0.119193C11.6238 -0.120153 12.8711 0.00268765 14.0045 0.472182C15.138 0.941675 16.1068 1.73674 16.7884 2.75682C17.47 3.77691 17.8338 4.9762 17.8338 6.20305C17.8319 7.84764 17.1778 9.42435 16.0149 10.5872C14.852 11.7502 13.2753 12.4043 11.6307 12.4061ZM11.6307 1.72307C10.7447 1.72307 9.8785 1.98582 9.14177 2.47808C8.40504 2.97035 7.83083 3.67003 7.49175 4.48864C7.15267 5.30725 7.06395 6.20802 7.23681 7.07705C7.40968 7.94608 7.83635 8.74434 8.46289 9.37087C9.08942 9.99741 9.88768 10.4241 10.7567 10.5969C11.6257 10.7698 12.5265 10.6811 13.3451 10.342C14.1637 10.0029 14.8634 9.42872 15.3557 8.69199C15.8479 7.95526 16.1107 7.08911 16.1107 6.20305C16.1093 5.01531 15.6369 3.8766 14.797 3.03674C13.9572 2.19688 12.8185 1.72444 11.6307 1.72307ZM22.3999 25C22.1714 25 21.9523 24.9092 21.7907 24.7477C21.6291 24.5861 21.5384 24.367 21.5384 24.1385V22.0088C21.5365 20.3728 20.8859 18.8045 19.7291 17.6477C18.5723 16.4909 17.004 15.8403 15.368 15.8384H7.89338C6.25747 15.8403 4.68909 16.4909 3.53232 17.6477C2.37556 18.8045 1.72489 20.3728 1.72307 22.0088V24.1385C1.72307 24.367 1.6323 24.5861 1.47073 24.7477C1.30916 24.9092 1.09003 25 0.861534 25C0.633041 25 0.413906 24.9092 0.252337 24.7477C0.0907685 24.5861 0 24.367 0 24.1385V22.0088C0.00250799 19.9161 0.834934 17.9098 2.31469 16.4301C3.79444 14.9503 5.80069 14.1179 7.89338 14.1154H15.3672C17.46 14.1177 19.4665 14.95 20.9464 16.4298C22.4264 17.9095 23.2589 19.9159 23.2614 22.0088V24.1385C23.2614 24.367 23.1707 24.5861 23.0091 24.7477C22.8475 24.9092 22.6284 25 22.3999 25Z" fill="#212B36"/>
</svg>
