<svg width="20" height="20" viewBox="0 0 20 20" fill="none" xmlns="http://www.w3.org/2000/svg">
<path d="M18.87 15.25L16.16 10.57C16.7145 9.5515 17.0034 8.40967 17 7.25C17 5.39348 16.2625 3.61301 14.9497 2.30025C13.6369 0.987498 11.8565 0.25 9.99995 0.25C8.14344 0.25 6.36296 0.987498 5.0502 2.30025C3.73745 3.61301 2.99995 5.39348 2.99995 7.25C2.99651 8.40967 3.28541 9.5515 3.83995 10.57L1.12995 15.25C1.04201 15.4023 0.995798 15.5751 0.995972 15.751C0.996146 15.9269 1.0427 16.0996 1.13094 16.2517C1.21918 16.4039 1.34598 16.53 1.49856 16.6175C1.65113 16.705 1.82408 16.7507 1.99995 16.75H4.86995L6.32995 19.21C6.37917 19.2915 6.43978 19.3656 6.50995 19.43C6.69533 19.6087 6.94248 19.709 7.19995 19.71H7.33995C7.49092 19.6893 7.63518 19.6344 7.76169 19.5495C7.88821 19.4646 7.99365 19.3519 8.06995 19.22L9.99995 15.9L11.93 19.25C12.0074 19.38 12.1133 19.4908 12.2398 19.5739C12.3662 19.6571 12.5099 19.7104 12.66 19.73H12.8C13.0609 19.7316 13.3121 19.6311 13.5 19.45C13.5672 19.3893 13.6246 19.3184 13.67 19.24L15.13 16.78H18C18.1762 16.7807 18.3494 16.7348 18.5022 16.647C18.655 16.5592 18.7819 16.4326 18.87 16.28C18.9634 16.1245 19.0128 15.9464 19.0128 15.765C19.0128 15.5836 18.9634 15.4055 18.87 15.25ZM7.18995 16.78L6.29995 15.29C6.21232 15.1422 6.08806 15.0194 5.93918 14.9336C5.79029 14.8478 5.6218 14.8018 5.44995 14.8H3.71995L5.14995 12.32C6.13468 13.2689 7.37577 13.9085 8.71995 14.16L7.18995 16.78ZM9.99995 12.25C9.01105 12.25 8.04435 11.9568 7.2221 11.4073C6.39986 10.8579 5.75899 10.077 5.38055 9.16341C5.00212 8.24978 4.9031 7.24445 5.09603 6.27455C5.28895 5.30464 5.76516 4.41373 6.46442 3.71447C7.16368 3.0152 8.0546 2.539 9.0245 2.34607C9.99441 2.15315 10.9997 2.25216 11.9134 2.6306C12.827 3.00904 13.6079 3.6499 14.1573 4.47215C14.7067 5.29439 15 6.26109 15 7.25C15 8.57608 14.4732 9.84785 13.5355 10.7855C12.5978 11.7232 11.326 12.25 9.99995 12.25ZM14.55 14.8C14.3781 14.8018 14.2096 14.8478 14.0607 14.9336C13.9118 15.0194 13.7876 15.1422 13.7 15.29L12.81 16.78L11.29 14.13C12.6294 13.8734 13.8659 13.2343 14.85 12.29L16.28 14.77L14.55 14.8Z" fill="#1890FF"/>
</svg>
