<svg width="21" height="21" viewBox="0 0 21 21" fill="none" xmlns="http://www.w3.org/2000/svg">
<path d="M20.71 19.2904L17 15.6104C18.4401 13.8148 19.1375 11.5357 18.9488 9.24169C18.7601 6.94769 17.6997 4.81317 15.9855 3.27704C14.2714 1.7409 12.0338 0.919903 9.73295 0.982863C7.43207 1.04582 5.24275 1.98795 3.61517 3.61553C1.98759 5.24311 1.04546 7.43243 0.982497 9.73331C0.919537 12.0342 1.74053 14.2718 3.27667 15.9859C4.81281 17.7001 6.94733 18.7605 9.24133 18.9492C11.5353 19.1379 13.8144 18.4405 15.61 17.0004L19.29 20.6804C19.383 20.7741 19.4936 20.8485 19.6155 20.8993C19.7373 20.9501 19.868 20.9762 20 20.9762C20.132 20.9762 20.2627 20.9501 20.3846 20.8993C20.5065 20.8485 20.6171 20.7741 20.71 20.6804C20.8903 20.4939 20.991 20.2447 20.991 19.9854C20.991 19.7261 20.8903 19.4769 20.71 19.2904ZM10 17.0004C8.61556 17.0004 7.26218 16.5898 6.11104 15.8207C4.95989 15.0515 4.06268 13.9583 3.53287 12.6792C3.00306 11.4001 2.86443 9.99263 3.13453 8.63476C3.40463 7.27689 4.07131 6.02961 5.05028 5.05064C6.02925 4.07168 7.27653 3.40499 8.6344 3.1349C9.99226 2.8648 11.3997 3.00342 12.6788 3.53324C13.9579 4.06305 15.0511 4.96026 15.8203 6.1114C16.5895 7.26254 17 8.61592 17 10.0004C17 11.8569 16.2625 13.6374 14.9498 14.9501C13.637 16.2629 11.8565 17.0004 10 17.0004Z" fill="#D1CBD8"/>
</svg>
