<svg width="14" height="14" viewBox="0 0 14 14" fill="none" xmlns="http://www.w3.org/2000/svg">
<path d="M12.5599 5.21309L3.22659 0.546427C2.85825 0.363099 2.44233 0.297834 2.03554 0.359528C1.62876 0.421222 1.25089 0.606873 0.953475 0.891171C0.656056 1.17547 0.453556 1.54457 0.373583 1.94817C0.293609 2.35176 0.340055 2.7702 0.506587 3.14643L2.10659 6.72643C2.14289 6.81298 2.16159 6.9059 2.16159 6.99976C2.16159 7.09362 2.14289 7.18654 2.10659 7.27309L0.506587 10.8531C0.371054 11.1576 0.313758 11.4911 0.339906 11.8233C0.366053 12.1556 0.474816 12.476 0.656309 12.7556C0.837802 13.0351 1.08627 13.2648 1.37914 13.4239C1.672 13.583 1.99998 13.6663 2.33325 13.6664C2.64541 13.6633 2.95291 13.5904 3.23325 13.4531L12.5666 8.78643C12.8977 8.61988 13.1759 8.36463 13.3704 8.04915C13.5648 7.73366 13.6678 7.37035 13.6678 6.99976C13.6678 6.62917 13.5648 6.26586 13.3704 5.95037C13.1759 5.63489 12.8977 5.37964 12.5666 5.21309H12.5599ZM11.9666 7.59309L2.63325 12.2598C2.5107 12.3186 2.37308 12.3386 2.23885 12.317C2.10462 12.2954 1.98019 12.2333 1.88226 12.139C1.78433 12.0447 1.71757 11.9227 1.69094 11.7894C1.66431 11.6561 1.67907 11.5178 1.73325 11.3931L3.32659 7.81309C3.34721 7.76529 3.36502 7.71631 3.37992 7.66643H7.97325C8.15006 7.66643 8.31963 7.59619 8.44466 7.47116C8.56968 7.34614 8.63992 7.17657 8.63992 6.99976C8.63992 6.82295 8.56968 6.65338 8.44466 6.52836C8.31963 6.40333 8.15006 6.33309 7.97325 6.33309H3.37992C3.36502 6.28321 3.34721 6.23423 3.32659 6.18643L1.73325 2.60643C1.67907 2.48174 1.66431 2.34346 1.69094 2.21014C1.71757 2.07682 1.78433 1.95483 1.88226 1.86053C1.98019 1.76622 2.10462 1.70411 2.23885 1.68253C2.37308 1.66094 2.5107 1.68091 2.63325 1.73976L11.9666 6.40643C12.0758 6.46237 12.1674 6.54737 12.2314 6.65206C12.2954 6.75674 12.3293 6.87706 12.3293 6.99976C12.3293 7.12246 12.2954 7.24278 12.2314 7.34746C12.1674 7.45215 12.0758 7.53715 11.9666 7.59309Z" fill="#D1CBD8"/>
</svg>
