<svg width="273" height="397" viewBox="0 0 273 397" fill="none" xmlns="http://www.w3.org/2000/svg">
<path d="M1 343.07V54.5158C1 52.3207 2.49942 50.3847 4.61678 49.8057C109.576 21.1013 168.659 20.3803 268.479 49.7573C270.55 50.3668 272 52.2803 272 54.4391V342.983C272 345.366 270.286 347.395 267.944 347.833C210.855 358.512 144.686 392.112 138.173 395.161C131.635 398.222 71.1897 361.492 4.96472 347.896C2.66805 347.424 1 345.415 1 343.07Z" fill="url(#paint0_linear_1040_3738)" stroke="url(#paint1_linear_1040_3738)" stroke-width="1.33827"/>
<path d="M16 334.337V57.1145C16 55.061 17.5613 53.352 19.5963 53.0774C37.7144 50.6327 44.8253 44.1849 47.6938 23.8534C47.898 22.4058 48.8664 21.1493 50.2256 20.6109C116.717 -5.72809 155.092 -5.3134 221.49 20.515C222.996 21.1011 224.009 22.5606 224.088 24.1752C224.927 41.2635 231.111 48.5789 253.656 52.8988C255.574 53.2665 257 54.9293 257 56.883V334.123C257 336.073 255.576 337.74 253.656 338.078C200.797 347.386 174.486 359.037 137.332 388.629C135.951 389.729 133.991 389.807 132.531 388.815C93.849 362.543 68.6628 350.264 19.0908 338.24C17.29 337.803 16 336.19 16 334.337Z" fill="#261D37" stroke="#261D37"/>
<defs>
<linearGradient id="paint0_linear_1040_3738" x1="136.5" y1="28" x2="136.5" y2="395.342" gradientUnits="userSpaceOnUse">
<stop stop-color="#4A00E8"/>
<stop offset="1" stop-color="#3B3EFF"/>
</linearGradient>
<linearGradient id="paint1_linear_1040_3738" x1="136.5" y1="28" x2="136.5" y2="395.342" gradientUnits="userSpaceOnUse">
<stop stop-color="#4A00E8"/>
<stop offset="1" stop-color="#3B3EFF"/>
</linearGradient>
</defs>
</svg>
