<svg width="150" height="165" viewBox="0 0 150 165" fill="none" xmlns="http://www.w3.org/2000/svg">
<g clip-path="url(#clip0_348_9369)">
<path d="M149.005 106.067L138.82 99.3535V107.021L149.005 109.859V106.067Z" fill="#B78103"/>
<path d="M0 106.067L10.1854 99.3535V107.021L0 109.859V106.067Z" fill="#B78103"/>
<path d="M10.1855 41.25V123.75L74.5025 165L138.82 123.75V41.25L74.5025 0L10.1855 41.25Z" fill="#ECB20C"/>
<path d="M51.1509 68.258L74.5025 17.7911V0L10.1855 41.25L51.1509 68.258Z" fill="url(#paint0_linear_348_9369)"/>
<path d="M104.93 99.3535L74.502 147.211V165.002L138.819 123.752L124.948 114.856L104.93 99.3535Z" fill="url(#paint1_linear_348_9369)"/>
<path d="M73.3904 126.08L24.0554 114.854L10.1855 123.749L74.5025 164.999V147.208L73.3904 126.08Z" fill="url(#paint2_linear_348_9369)"/>
<path d="M75.6009 39.6701L124.948 50.146L138.819 41.25L74.502 0V17.7911L75.6009 39.6701Z" fill="url(#paint3_linear_348_9369)"/>
<path d="M53.3743 97.1674L26.1377 51.5968L10.1855 41.248V123.748L24.0554 114.852L53.3743 97.1674Z" fill="url(#paint4_linear_348_9369)"/>
<path d="M95.6299 97.1674L122.866 51.5968L138.819 41.248V123.748L124.949 114.852L95.6299 97.1674Z" fill="url(#paint5_linear_348_9369)"/>
<path d="M24.0566 50.1478V114.856L74.5037 147.211L124.95 114.856V50.1478L74.5037 17.793L24.0566 50.1478Z" fill="url(#paint6_linear_348_9369)"/>
<path d="M48.2493 128.307H6.40695C2.86852 128.307 0 125.439 0 121.9V105.602H41.3234C45.1481 105.602 48.2493 108.702 48.2493 112.527V128.307Z" fill="#FFE16A"/>
<path d="M142.596 129.721H100.754V113.942C100.754 110.117 103.854 107.016 107.68 107.016H149.003V123.314C149.003 126.853 146.135 129.721 142.596 129.721Z" fill="#FFE16A"/>
<path d="M113.593 141.075H35.4122C33.4891 141.075 31.9307 139.516 31.9307 137.594V113.337C31.9307 111.414 33.4899 109.855 35.4122 109.855H113.594C115.517 109.855 117.076 111.415 117.076 113.337V137.594C117.076 139.517 115.516 141.075 113.593 141.075Z" fill="#FFC107"/>
<path d="M74.5025 148.173C87.0425 148.173 97.2082 138.007 97.2082 125.467C97.2082 112.927 87.0425 102.762 74.5025 102.762C61.9625 102.762 51.7969 112.927 51.7969 125.467C51.7969 138.007 61.9625 148.173 74.5025 148.173Z" fill="#F6F6F8"/>
<path d="M74.5034 143.872C84.6686 143.872 92.9092 135.632 92.9092 125.466C92.9092 115.301 84.6686 107.061 74.5034 107.061C64.3382 107.061 56.0977 115.301 56.0977 125.466C56.0977 135.632 64.3382 143.872 74.5034 143.872Z" fill="url(#paint7_linear_348_9369)"/>
<path d="M74.5016 111.719L78.9681 120.77L88.9572 122.221L81.7294 129.266L83.4355 139.214L74.5016 134.518L65.5668 139.214L67.2737 129.266L60.0459 122.221L70.0342 120.77L74.5016 111.719Z" fill="url(#paint8_linear_348_9369)"/>
<path d="M74.5016 111.719L75.0824 125.175L78.9681 120.77L83.9627 121.495L88.9572 122.221L75.0824 125.175L81.7294 129.266L82.5824 134.24L83.4355 139.214L75.0824 125.175L74.5016 134.518L70.0342 136.866L65.5668 139.214L75.0824 125.175L67.2737 129.266L63.6594 125.744L60.0459 122.221L75.0824 125.175L70.0342 120.77L72.2675 116.244L74.5016 111.719Z" fill="#5483F7"/>
<path d="M37.9329 50.3692L39.1497 45.5009C39.3057 44.8764 39.6291 44.3055 40.0845 43.8501C40.5399 43.3947 41.1108 43.0713 41.7353 42.9154L46.6036 41.6985C46.7348 41.6655 46.7348 41.479 46.6036 41.4469L41.7353 40.23C41.1108 40.0741 40.5399 39.7507 40.0845 39.2953C39.6291 38.8399 39.3057 38.269 39.1497 37.6444L37.9329 32.7761C37.8999 32.6449 37.7134 32.6449 37.6812 32.7761L36.4644 37.6444C36.3084 38.269 35.985 38.8399 35.5296 39.2953C35.0742 39.7507 34.5033 40.0741 33.8788 40.23L29.0105 41.4469C28.8793 41.4799 28.8793 41.6663 29.0105 41.6985L33.8788 42.9154C34.5033 43.0713 35.0742 43.3947 35.5296 43.8501C35.985 44.3055 36.3084 44.8764 36.4644 45.5009L37.6812 50.3692C37.7142 50.5004 37.9007 50.5004 37.9329 50.3692Z" fill="white"/>
<path d="M124.635 103.765L125.548 100.114C125.665 99.6452 125.907 99.2171 126.249 98.8755C126.59 98.534 127.019 98.2914 127.487 98.1743L131.139 97.261C131.237 97.2362 131.237 97.0968 131.139 97.0721L127.487 96.1588C127.019 96.0416 126.59 95.7991 126.249 95.4575C125.907 95.116 125.665 94.6878 125.548 94.2192L124.635 90.5678C124.61 90.4696 124.471 90.4696 124.446 90.5678L123.534 94.2192C123.417 94.6878 123.174 95.116 122.833 95.4575C122.491 95.7991 122.063 96.0416 121.594 96.1588L117.943 97.0721C117.845 97.0968 117.845 97.2362 117.943 97.261L121.594 98.1743C122.063 98.2914 122.491 98.534 122.833 98.8755C123.174 99.2171 123.417 99.6452 123.534 100.114L124.446 103.765C124.471 103.863 124.61 103.863 124.635 103.765Z" fill="white"/>
<path d="M63.784 66.896C63.784 65.168 64.264 63.664 65.224 62.384C66.184 61.104 67.432 60.128 68.968 59.456C70.184 58.912 71.608 58.368 73.24 57.824C74.872 57.28 76.136 56.704 77.032 56.096C77.928 55.488 78.376 54.768 78.376 53.936V49.952C78.376 48.96 77.976 48.304 77.176 47.984C76.312 47.632 74.968 47.456 73.144 47.456C70.936 47.456 68.024 47.856 64.408 48.656V43.376C67.608 42.704 70.952 42.368 74.44 42.368C78.216 42.368 81.016 42.944 82.84 44.096C84.696 45.248 85.624 47.168 85.624 49.856V54.176C85.624 55.808 85.128 57.232 84.136 58.448C83.176 59.632 81.928 60.528 80.392 61.136C78.952 61.744 77.48 62.288 75.976 62.768C74.344 63.344 73.048 63.984 72.088 64.688C71.16 65.392 70.696 66.224 70.696 67.184V68.768H85.672V74H63.784V66.896Z" fill="#5271E5"/>
<path d="M60.176 84.914H63.368C64.1707 84.914 64.796 84.9653 65.244 85.068C65.7013 85.1613 66.0327 85.334 66.238 85.586C66.4527 85.838 66.56 86.2067 66.56 86.692V88.26C66.56 88.8013 66.336 89.2213 65.888 89.52C65.4493 89.8093 64.8893 89.954 64.208 89.954L67.12 94H65.454L62.85 90.122H61.534V94H60.176V84.914ZM63.312 89.226C63.984 89.226 64.4647 89.1467 64.754 88.988C65.0527 88.82 65.202 88.5213 65.202 88.092V86.832C65.202 86.1507 64.614 85.81 63.438 85.81H61.534V89.226H63.312ZM71.0237 94.14C70.3797 94.14 69.8804 94.0793 69.5257 93.958C69.1804 93.8367 68.9284 93.622 68.7697 93.314C68.6204 93.006 68.5457 92.5627 68.5457 91.984C68.5457 91.4707 68.6157 91.074 68.7557 90.794C68.905 90.5047 69.1524 90.2993 69.4977 90.178C69.8524 90.0567 70.3517 89.996 70.9957 89.996H73.0257V88.918C73.0257 88.666 72.9744 88.4747 72.8717 88.344C72.7784 88.204 72.615 88.106 72.3817 88.05C72.1577 87.994 71.8264 87.966 71.3877 87.966C70.6877 87.966 69.913 88.022 69.0637 88.134V87.21C69.9877 87.126 70.823 87.084 71.5697 87.084C72.3537 87.084 72.9324 87.1447 73.3057 87.266C73.679 87.378 73.9357 87.5787 74.0757 87.868C74.2157 88.1573 74.2857 88.6053 74.2857 89.212V94H73.0677V93.356C72.965 93.8787 72.2837 94.14 71.0237 94.14ZM71.2337 93.314C71.691 93.314 72.0784 93.2813 72.3957 93.216C72.8157 93.132 73.0257 92.936 73.0257 92.628V90.78H71.0797C70.6784 90.78 70.389 90.8127 70.2117 90.878C70.0344 90.934 69.9177 91.046 69.8617 91.214C69.8057 91.382 69.7777 91.6527 69.7777 92.026C69.7777 92.362 69.8104 92.6233 69.8757 92.81C69.941 92.9873 70.0577 93.118 70.2257 93.202C70.3937 93.2767 70.6457 93.314 70.9817 93.314H71.2337ZM76.4709 87.224H77.7309V88.05C77.8616 87.406 78.6036 87.084 79.9569 87.084C80.8249 87.084 81.4316 87.2427 81.7769 87.56C82.1316 87.868 82.3089 88.358 82.3089 89.03V94H81.0489V89.1C81.0489 88.9227 81.0349 88.778 81.0069 88.666C80.9789 88.554 80.9229 88.442 80.8389 88.33C80.6522 88.0967 80.2369 87.98 79.5929 87.98C79.0982 87.98 78.7156 88.0173 78.4449 88.092C78.1836 88.1573 77.9969 88.2693 77.8849 88.428C77.7822 88.5867 77.7309 88.8107 77.7309 89.1V94H76.4709V87.224ZM84.4963 84.2H85.7563V94H84.4963V84.2ZM85.9103 90.29L88.7663 87.224H90.3063L87.3663 90.29L90.5723 94H89.0043L85.9103 90.29Z" fill="#5271E5"/>
</g>
<defs>
<linearGradient id="paint0_linear_348_9369" x1="42.5472" y1="20.8765" x2="52.1354" y2="32.7238" gradientUnits="userSpaceOnUse">
<stop stop-color="#98EEFF"/>
<stop offset="1" stop-color="#5EA9D3"/>
</linearGradient>
<linearGradient id="paint1_linear_348_9369" x1="104.681" y1="141.526" x2="97.7564" y2="130.892" gradientUnits="userSpaceOnUse">
<stop stop-color="#98EEFF"/>
<stop offset="1" stop-color="#5EA9D3"/>
</linearGradient>
<linearGradient id="paint2_linear_348_9369" x1="41.4722" y1="145.294" x2="53.0077" y2="133.126" gradientUnits="userSpaceOnUse">
<stop stop-color="#4F7EEF"/>
<stop offset="1" stop-color="#5C9AFA"/>
</linearGradient>
<linearGradient id="paint3_linear_348_9369" x1="106.66" y1="0" x2="106.66" y2="50.146" gradientUnits="userSpaceOnUse">
<stop stop-color="#4A00E8"/>
<stop offset="1" stop-color="#3B3EFF"/>
</linearGradient>
<linearGradient id="paint4_linear_348_9369" x1="31.7799" y1="41.248" x2="31.7799" y2="123.748" gradientUnits="userSpaceOnUse">
<stop stop-color="#4A00E8"/>
<stop offset="1" stop-color="#3B3EFF"/>
</linearGradient>
<linearGradient id="paint5_linear_348_9369" x1="138.819" y1="82.498" x2="122.931" y2="82.498" gradientUnits="userSpaceOnUse">
<stop stop-color="#376CD2"/>
<stop offset="1" stop-color="#4D8CE0"/>
</linearGradient>
<linearGradient id="paint6_linear_348_9369" x1="74.5034" y1="147.21" x2="74.5034" y2="17.7932" gradientUnits="userSpaceOnUse">
<stop stop-color="#80BDE4"/>
<stop offset="1" stop-color="#C5EAFA"/>
</linearGradient>
<linearGradient id="paint7_linear_348_9369" x1="74.5031" y1="143.872" x2="74.5031" y2="107.06" gradientUnits="userSpaceOnUse">
<stop stop-color="#80BDE4"/>
<stop offset="1" stop-color="#C5EAFA"/>
</linearGradient>
<linearGradient id="paint8_linear_348_9369" x1="74.5016" y1="111.719" x2="74.5016" y2="139.214" gradientUnits="userSpaceOnUse">
<stop stop-color="#4A00E8"/>
<stop offset="1" stop-color="#3B3EFF"/>
</linearGradient>
<clipPath id="clip0_348_9369">
<rect width="149.004" height="165" fill="white"/>
</clipPath>
</defs>
</svg>
