<svg width="50" height="40" viewBox="0 0 50 40" fill="none" xmlns="http://www.w3.org/2000/svg">
<mask id="mask0_446_9429" style="mask-type:luminance" maskUnits="userSpaceOnUse" x="6" y="1" width="37" height="38">
<path d="M6.66016 19.8286C6.66016 30.0275 14.6465 38.292 24.5021 38.292C34.3577 38.292 42.344 30.0275 42.344 19.8286C42.344 9.62976 34.3577 1.35742 24.5021 1.35742C14.6465 1.35742 6.66016 9.62976 6.66016 19.8286Z" fill="white"/>
</mask>
<g mask="url(#mask0_446_9429)">
<path d="M42.3516 1.35742H6.66016V38.292H42.3516V1.35742Z" fill="url(#paint0_linear_446_9429)"/>
</g>
<mask id="mask1_446_9429" style="mask-type:luminance" maskUnits="userSpaceOnUse" x="7" y="2" width="35" height="35">
<path d="M8.43993 19.6376C8.43993 10.4295 15.674 2.94353 24.5721 2.94353C33.4703 2.94353 40.7044 10.4295 40.7044 19.6376C40.7044 28.8457 33.4703 36.3317 24.5721 36.3317C15.674 36.3395 8.43993 28.8457 8.43993 19.6376ZM7.83203 19.6376C7.83203 29.1917 15.3396 36.9607 24.5721 36.9607C33.8047 36.9607 41.3123 29.1917 41.3123 19.6376C41.3123 10.0835 33.8047 2.31445 24.5721 2.31445C15.3396 2.32232 7.83203 10.0914 7.83203 19.6376Z" fill="white"/>
</mask>
<g mask="url(#mask1_446_9429)">
<path d="M7.84024 37.3802L7.4375 2.32497L41.3053 1.9082L41.708 36.9634L7.84024 37.3802Z" fill="url(#paint1_linear_446_9429)"/>
</g>
<path d="M37.5221 15.0734C37.3473 14.2084 37.089 13.021 36.823 11.8415C36.2683 9.36453 34.1406 7.61885 31.6862 7.61885C31.6102 7.30431 31.3367 7.06841 31.0099 7.06841H29.1178C28.7911 7.06841 28.5175 7.30431 28.4415 7.61885H25.0753C25.0753 7.61885 25.0753 7.61885 25.0753 7.62672C25.0829 7.64244 25.0981 7.65031 25.1057 7.66603C25.1437 7.72894 24.4902 10.2216 23.8063 12.7537L23.7911 12.7458C23.7379 12.7301 23.6847 12.7065 23.6315 12.6908C23.4339 12.6279 23.2288 12.5649 23.0312 12.4863C22.6969 12.3605 23.6847 8.0592 23.7835 7.6503V7.64244C23.7835 7.63458 23.7911 7.61885 23.7911 7.61099H20.7668C20.6908 7.29645 20.4172 7.06055 20.0905 7.06055H18.1984C17.8716 7.06055 17.5981 7.29645 17.5221 7.61099H17.4005C14.9461 7.61099 12.8108 9.36453 12.2637 11.8337C11.9978 13.0132 11.7394 14.2005 11.5646 15.0655C10.7744 18.9422 10.6148 23.0705 12.9628 24.5646C14.6877 25.2565 14.9309 24.8634 15.4628 23.2671C15.9947 21.6708 16.861 17.5582 19.6574 17.8099C19.6574 17.8099 19.6574 17.8099 19.665 17.8099C20.5312 17.9278 21.4279 18.0064 22.3549 18.0615C22.3549 18.0615 22.3549 18.0615 22.3625 18.0615C22.3777 18.0615 22.4005 18.0615 22.4157 18.0615C22.4157 18.0615 22.4157 18.0615 22.4157 18.0536C23.092 18.0379 28.8975 17.8728 29.4446 17.802H29.4522C32.2485 17.5425 33.1148 21.6551 33.6467 23.2592C34.1786 24.8555 34.7333 25.2487 36.4659 24.5567C38.7911 23.0784 38.3124 18.9501 37.5221 15.0734ZM16.4963 10.4811C16.4963 10.2295 16.6938 10.0172 16.937 10.0172H18.0008C18.244 10.0172 18.4491 10.2216 18.4491 10.4811V11.5427C18.4491 11.6764 18.396 11.8101 18.2972 11.8966L17.6741 12.4785C17.5601 12.5885 17.3853 12.5885 17.2789 12.4785L16.6558 11.8966C16.557 11.8022 16.5039 11.6764 16.5039 11.5427V10.4811H16.4963ZM15.8808 14.2005H14.8549C14.6118 14.2005 14.4066 13.9961 14.4066 13.7366V12.6357C14.4066 12.3841 14.6042 12.1718 14.8549 12.1718H15.8808C16.0099 12.1718 16.1391 12.2268 16.2227 12.329L16.785 12.9738C16.8914 13.0918 16.8914 13.2727 16.785 13.3827L16.2227 14.0275C16.1315 14.1455 16.0099 14.2005 15.8808 14.2005ZM18.4491 15.9069C18.4491 16.1585 18.2516 16.3709 18.0008 16.3709H16.937C16.6938 16.3709 16.4963 16.1664 16.4963 15.9069V14.8453C16.4963 14.7117 16.5495 14.578 16.6482 14.4915L17.2713 13.9096C17.3853 13.7995 17.5601 13.7995 17.6665 13.9096L18.2896 14.4915C18.3884 14.5859 18.4415 14.7117 18.4415 14.8453V15.9069H18.4491ZM20.5388 13.7445C20.5388 13.9961 20.3412 14.2084 20.0905 14.2084H19.0722C18.9431 14.2084 18.8139 14.1534 18.7303 14.0511L18.168 13.4063C18.0616 13.2884 18.0616 13.1075 18.168 12.9974L18.7303 12.3526C18.8215 12.2504 18.9431 12.1954 19.0722 12.1954H20.0981C20.3412 12.1954 20.5464 12.3998 20.5464 12.6593V13.7445H20.5388ZM22.5373 17.3695C22.5373 17.2673 22.5373 17.1651 22.5297 17.055C22.4841 16.5674 22.5981 16.1192 22.8792 15.7261C22.9552 15.616 22.978 15.4666 23.0084 15.2936V15.2778C23.0236 15.1992 23.0388 15.1206 23.054 15.0419C23.0768 14.9476 23.0996 14.8532 23.13 14.7588L23.1604 14.6409C23.244 14.3106 23.3352 13.9411 23.4567 13.5872C23.5251 13.367 23.6239 13.1626 23.7227 12.9581L23.7303 12.9424C23.7531 12.9031 23.7683 12.8638 23.7835 12.8244C23.2972 14.6252 22.8032 16.4102 22.5373 17.3695ZM32.1953 9.97002C32.7653 9.97002 33.2364 10.4497 33.2364 11.0473C33.2364 11.6371 32.7729 12.1246 32.1953 12.1246C31.6178 12.1246 31.1543 11.6449 31.1543 11.0473C31.1543 10.4497 31.6254 9.97002 32.1953 9.97002ZM30.1209 14.2635C29.5434 14.2635 29.0798 13.7838 29.0798 13.1862C29.0798 12.5964 29.5434 12.1089 30.1209 12.1089C30.6908 12.1089 31.1619 12.5885 31.1619 13.1862C31.1619 13.7838 30.6984 14.2635 30.1209 14.2635ZM32.1953 16.4102C31.6178 16.4102 31.1543 15.9305 31.1543 15.3329C31.1543 14.7353 31.6178 14.2556 32.1953 14.2556C32.7653 14.2556 33.2364 14.7353 33.2364 15.3329C33.2364 15.9305 32.7729 16.4102 32.1953 16.4102ZM34.2698 14.2635C33.6999 14.2635 33.2288 13.7838 33.2288 13.1862C33.2288 12.5964 33.6999 12.1089 34.2698 12.1089C34.8473 12.1089 35.3108 12.5885 35.3108 13.1862C35.3108 13.7838 34.8397 14.2635 34.2698 14.2635ZM17.4765 10.607L17.1194 10.9765H17.826L17.4765 10.607ZM15.3336 13.5557V12.8244L14.9765 13.194L15.3336 13.5557ZM17.4765 15.7732L17.8336 15.4036H17.127L17.4765 15.7732ZM19.6118 13.5557L19.9689 13.1862L19.6118 12.8166V13.5557Z" fill="white"/>
<mask id="mask2_446_9429" style="mask-type:luminance" maskUnits="userSpaceOnUse" x="21" y="4" width="8" height="15">
<path d="M23.3753 4.54092C23.2613 4.58023 23.1626 4.64314 23.0942 4.72177C23.0334 4.79255 22.9878 4.86332 22.9726 4.94981C22.9726 4.95768 22.9726 4.95768 22.9726 4.96554C22.851 5.47666 22.7826 6.01138 23.117 6.49891C23.3297 6.80559 23.3221 6.88422 23.0106 7.15944C22.9574 7.20662 22.9118 7.2538 22.851 7.30098L22.8358 7.31671C22.5927 7.52902 22.3419 7.7492 22.2203 8.04014C22.0151 8.53554 21.8784 9.07025 21.7416 9.58138V9.58924C21.696 9.76224 21.658 9.92737 21.6124 10.0846C21.4984 10.5093 21.6352 10.7845 22.0455 10.9418C22.2887 11.0361 22.5395 11.1147 22.7826 11.1934C22.8434 11.217 22.9118 11.2327 22.9802 11.2563L23.0106 11.2642L22.9726 11.3428C22.9498 11.39 22.927 11.4371 22.9042 11.4843L22.8966 11.5001C22.775 11.7517 22.6534 12.0112 22.5699 12.2785C22.4255 12.711 22.3115 13.175 22.2051 13.5839L22.1747 13.7097C22.1443 13.8276 22.1139 13.9534 22.0835 14.0714C22.0607 14.1658 22.0379 14.268 22.0227 14.3623L22.0151 14.3859C21.9847 14.5825 21.9468 14.7712 21.8556 14.9049C21.5136 15.4003 21.3692 15.9508 21.43 16.5562C21.4832 17.091 21.392 17.5785 21.1565 18.0975C21.1489 18.1053 21.1489 18.1211 21.1413 18.1289C21.1337 18.1368 21.1337 18.1525 21.1261 18.1604V18.1682C21.0729 18.2705 21.0045 18.4041 21.0501 18.5457C21.0805 18.6322 21.1565 18.703 21.2781 18.7501C21.468 18.8288 21.6884 18.8288 21.8708 18.7501C22.0075 18.6872 22.1063 18.585 22.1519 18.4513L22.1595 18.4356C22.2203 18.2705 22.2735 18.1289 22.3115 17.9717L22.3191 17.9402L22.3419 17.9638C22.3799 18.0031 22.4255 18.0267 22.4787 18.0424C22.6003 18.0739 22.737 18.0267 22.8434 17.9009C22.8814 17.8616 22.9194 17.8144 22.9574 17.7593C23.0258 17.6571 23.0866 17.5549 23.1474 17.4527L23.155 17.4448C23.2006 17.3583 23.2537 17.2718 23.3069 17.1853C23.3449 17.1303 23.3829 17.0674 23.4209 17.0045L23.4437 16.973C23.5501 16.7921 23.6565 16.6113 23.8009 16.4933C24.4772 15.9665 25.0319 15.3689 25.5106 14.6769C25.579 14.5825 25.6474 14.4882 25.7309 14.3938C25.9665 14.1029 26.2097 13.804 26.2173 13.3401C26.2173 13.2143 26.2477 13.0885 26.2781 12.9627C26.2933 12.8919 26.3085 12.8211 26.3237 12.7425C26.3389 12.6481 26.354 12.5616 26.3768 12.4751L26.392 12.4044C26.4832 11.9719 26.5744 11.5315 26.3996 11.0361C26.2477 10.58 26.1717 10.0768 26.1033 9.5971V9.58138C26.0805 9.41624 26.0577 9.25111 26.0273 9.08598C26.0121 8.98376 26.0121 8.87367 26.0197 8.74785V8.67708L26.0501 8.69281C26.0577 8.70067 26.0653 8.70067 26.0729 8.70854L26.0805 8.7164C26.2021 8.77144 26.3009 8.82649 26.3389 8.88939C26.5212 9.19607 26.658 9.54206 26.772 9.87232C26.7796 9.90378 26.7948 9.93523 26.8024 9.96669L26.81 9.99028C26.924 10.2969 27.0303 10.5958 26.9164 10.9182C26.8556 11.0833 26.8404 11.2563 26.8176 11.4214L26.81 11.4843C26.8024 11.5394 26.7948 11.5944 26.7872 11.6495L26.772 11.7281L26.9999 11.8618L27.3267 11.4293L27.7978 12.3729L27.9042 12.192C27.9422 12.1213 27.9878 12.0662 28.0258 12.0112C28.117 11.8775 28.2006 11.7674 28.2006 11.6337C28.2006 11.5236 28.193 11.1305 27.9954 10.926C27.661 10.5722 27.5775 10.1475 27.5471 9.62069C27.5167 8.91298 27.2355 8.23673 26.6884 7.56834C26.5364 7.37962 26.3389 7.19876 26.0805 7.00217C25.9361 6.89995 25.7461 6.82131 25.5638 6.78986C25.3282 6.75054 25.0927 6.72695 24.8267 6.71122C24.7659 6.70336 24.7051 6.70336 24.6443 6.6955H24.6215V6.67191C24.6291 6.63259 24.6291 6.59327 24.6367 6.56182L24.6443 6.5225C24.6595 6.38096 24.6747 6.25514 24.6747 6.12933C24.6747 6.03497 24.6671 5.94847 24.6595 5.86984V5.86197C24.6443 5.74402 24.6367 5.62607 24.6595 5.53171C24.7127 5.31939 24.6975 5.1464 24.5987 4.98913C24.5455 4.90263 24.4771 4.824 24.386 4.74536C24.3632 4.72177 24.3404 4.70605 24.3176 4.69032C24.1656 4.57237 23.9452 4.5016 23.7249 4.5016C23.6109 4.47801 23.4893 4.5016 23.3753 4.54092Z" fill="white"/>
</mask>
<g mask="url(#mask2_446_9429)">
<path d="M28.1956 4.47656H20.9844V18.8195H28.1956V4.47656Z" fill="url(#paint2_linear_446_9429)"/>
</g>
<mask id="mask3_446_9429" style="mask-type:luminance" maskUnits="userSpaceOnUse" x="23" y="16" width="3" height="3">
<path d="M23.8619 16.6643C23.6491 16.8845 23.5352 17.1833 23.5352 17.4979C23.5352 17.5608 23.5428 17.6316 23.558 17.7023C23.5656 17.7574 23.5807 17.7967 23.5959 17.8439C23.7403 18.3235 24.1887 18.6538 24.675 18.6538H24.6902C25.1993 18.6459 25.6476 18.2685 25.7692 17.7574C25.7768 17.7495 25.7768 17.7416 25.7768 17.7338C25.7768 17.7259 25.7768 17.7259 25.7768 17.718C25.792 17.6394 25.7996 17.5686 25.7996 17.49C25.7996 17.1755 25.6856 16.8845 25.4728 16.6643C25.2601 16.4442 24.9713 16.3184 24.6598 16.3184C24.3558 16.3262 24.0747 16.4442 23.8619 16.6643Z" fill="white"/>
</mask>
<g mask="url(#mask3_446_9429)">
<path d="M25.8072 16.3184H23.5352V18.6538H25.8072V16.3184Z" fill="url(#paint3_linear_446_9429)"/>
</g>
<path d="M22.9254 9.91717C22.9178 9.81495 22.8722 9.72059 22.8266 9.57118C22.7278 9.75204 22.6518 9.89358 22.5303 10.1138C22.6594 10.2003 22.781 10.2946 22.9102 10.3811C22.9178 10.2238 22.933 10.0666 22.9254 9.91717ZM22.7886 10.1216L22.7126 10.0666L22.7886 9.91717V9.92504C22.7962 9.98794 22.7962 10.0509 22.7886 10.1216ZM22.9254 9.91717C22.9178 9.81495 22.8722 9.72059 22.8266 9.57118C22.7278 9.75204 22.6518 9.89358 22.5303 10.1138C22.6594 10.2003 22.781 10.2946 22.9102 10.3811C22.9178 10.2238 22.933 10.0666 22.9254 9.91717ZM22.7886 10.1216L22.7126 10.0666L22.7886 9.91717V9.92504C22.7962 9.98794 22.7962 10.0509 22.7886 10.1216ZM22.9254 9.91717C22.9178 9.81495 22.8722 9.72059 22.8266 9.57118C22.7278 9.75204 22.6518 9.89358 22.5303 10.1138C22.6594 10.2003 22.781 10.2946 22.9102 10.3811C22.9178 10.2238 22.933 10.0666 22.9254 9.91717ZM22.7886 10.1216L22.7126 10.0666L22.7886 9.91717V9.92504C22.7962 9.98794 22.7962 10.0509 22.7886 10.1216ZM22.9254 9.91717C22.9178 9.81495 22.8722 9.72059 22.8266 9.57118C22.7278 9.75204 22.6518 9.89358 22.5303 10.1138C22.6594 10.2003 22.781 10.2946 22.9102 10.3811C22.9178 10.2238 22.933 10.0666 22.9254 9.91717ZM22.7886 10.1216L22.7126 10.0666L22.7886 9.91717V9.92504C22.7962 9.98794 22.7962 10.0509 22.7886 10.1216ZM22.9254 9.91717C22.9178 9.81495 22.8722 9.72059 22.8266 9.57118C22.7278 9.75204 22.6518 9.89358 22.5303 10.1138C22.6594 10.2003 22.781 10.2946 22.9102 10.3811C22.9178 10.2238 22.933 10.0666 22.9254 9.91717ZM22.7886 10.1216L22.7126 10.0666L22.7886 9.91717V9.92504C22.7962 9.98794 22.7962 10.0509 22.7886 10.1216ZM22.9254 9.91717C22.9178 9.81495 22.8722 9.72059 22.8266 9.57118C22.7278 9.75204 22.6518 9.89358 22.5303 10.1138C22.6594 10.2003 22.781 10.2946 22.9102 10.3811C22.9178 10.2238 22.933 10.0666 22.9254 9.91717ZM22.7886 10.1216L22.7126 10.0666L22.7886 9.91717V9.92504C22.7962 9.98794 22.7962 10.0509 22.7886 10.1216ZM22.9254 9.91717C22.9178 9.81495 22.8722 9.72059 22.8266 9.57118C22.7278 9.75204 22.6518 9.89358 22.5303 10.1138C22.6594 10.2003 22.781 10.2946 22.9102 10.3811C22.9178 10.2238 22.933 10.0666 22.9254 9.91717ZM22.7886 10.1216L22.7126 10.0666L22.7886 9.91717V9.92504C22.7962 9.98794 22.7962 10.0509 22.7886 10.1216ZM22.9254 9.91717C22.9178 9.81495 22.8722 9.72059 22.8266 9.57118C22.7278 9.75204 22.6518 9.89358 22.5303 10.1138C22.6594 10.2003 22.781 10.2946 22.9102 10.3811C22.9178 10.2238 22.933 10.0666 22.9254 9.91717ZM22.7886 10.1216L22.7126 10.0666L22.7886 9.91717V9.92504C22.7962 9.98794 22.7962 10.0509 22.7886 10.1216ZM22.9254 9.91717C22.9178 9.81495 22.8722 9.72059 22.8266 9.57118C22.7278 9.75204 22.6518 9.89358 22.5303 10.1138C22.6594 10.2003 22.781 10.2946 22.9102 10.3811C22.9178 10.2238 22.933 10.0666 22.9254 9.91717ZM22.7886 10.1216L22.7126 10.0666L22.7886 9.91717V9.92504C22.7962 9.98794 22.7962 10.0509 22.7886 10.1216ZM22.9254 9.91717C22.9178 9.81495 22.8722 9.72059 22.8266 9.57118C22.7278 9.75204 22.6518 9.89358 22.5303 10.1138C22.6594 10.2003 22.781 10.2946 22.9102 10.3811C22.9178 10.2238 22.933 10.0666 22.9254 9.91717ZM22.7886 10.1216L22.7126 10.0666L22.7886 9.91717V9.92504C22.7962 9.98794 22.7962 10.0509 22.7886 10.1216ZM22.9254 9.91717C22.9178 9.81495 22.8722 9.72059 22.8266 9.57118C22.7278 9.75204 22.6518 9.89358 22.5303 10.1138C22.6594 10.2003 22.781 10.2946 22.9102 10.3811C22.9178 10.2238 22.933 10.0666 22.9254 9.91717ZM22.7886 10.1216L22.7126 10.0666L22.7886 9.91717V9.92504C22.7962 9.98794 22.7962 10.0509 22.7886 10.1216ZM22.9254 9.91717C22.9178 9.81495 22.8722 9.72059 22.8266 9.57118C22.7278 9.75204 22.6518 9.89358 22.5303 10.1138C22.6594 10.2003 22.781 10.2946 22.9102 10.3811C22.9178 10.2238 22.933 10.0666 22.9254 9.91717ZM22.7886 10.1216L22.7126 10.0666L22.7886 9.91717V9.92504C22.7962 9.98794 22.7962 10.0509 22.7886 10.1216ZM22.9254 9.91717C22.9178 9.81495 22.8722 9.72059 22.8266 9.57118C22.7278 9.75204 22.6518 9.89358 22.5303 10.1138C22.6594 10.2003 22.781 10.2946 22.9102 10.3811C22.9178 10.2238 22.933 10.0666 22.9254 9.91717ZM22.7886 10.1216L22.7126 10.0666L22.7886 9.91717V9.92504C22.7962 9.98794 22.7962 10.0509 22.7886 10.1216ZM22.9254 9.91717C22.9178 9.81495 22.8722 9.72059 22.8266 9.57118C22.7278 9.75204 22.6518 9.89358 22.5303 10.1138C22.6594 10.2003 22.781 10.2946 22.9102 10.3811C22.9178 10.2238 22.933 10.0666 22.9254 9.91717ZM22.7886 10.1216L22.7126 10.0666L22.7886 9.91717V9.92504C22.7962 9.98794 22.7962 10.0509 22.7886 10.1216ZM22.9254 9.91717C22.9178 9.81495 22.8722 9.72059 22.8266 9.57118C22.7278 9.75204 22.6518 9.89358 22.5303 10.1138C22.6594 10.2003 22.781 10.2946 22.9102 10.3811C22.9178 10.2238 22.933 10.0666 22.9254 9.91717ZM22.7886 10.1216L22.7126 10.0666L22.7886 9.91717V9.92504C22.7962 9.98794 22.7962 10.0509 22.7886 10.1216ZM22.9254 9.91717C22.9178 9.81495 22.8722 9.72059 22.8266 9.57118C22.7278 9.75204 22.6518 9.89358 22.5303 10.1138C22.6594 10.2003 22.781 10.2946 22.9102 10.3811C22.9178 10.2238 22.933 10.0666 22.9254 9.91717ZM22.7886 10.1216L22.7126 10.0666L22.7886 9.91717V9.92504C22.7962 9.98794 22.7962 10.0509 22.7886 10.1216ZM22.9254 9.91717C22.9178 9.81495 22.8722 9.72059 22.8266 9.57118C22.7278 9.75204 22.6518 9.89358 22.5303 10.1138C22.6594 10.2003 22.781 10.2946 22.9102 10.3811C22.9178 10.2238 22.933 10.0666 22.9254 9.91717ZM22.7886 10.1216L22.7126 10.0666L22.7886 9.91717V9.92504C22.7962 9.98794 22.7962 10.0509 22.7886 10.1216ZM22.9254 9.91717C22.9178 9.81495 22.8722 9.72059 22.8266 9.57118C22.7278 9.75204 22.6518 9.89358 22.5303 10.1138C22.6594 10.2003 22.781 10.2946 22.9102 10.3811C22.9178 10.2238 22.933 10.0666 22.9254 9.91717ZM22.7886 10.1216L22.7126 10.0666L22.7886 9.91717V9.92504C22.7962 9.98794 22.7962 10.0509 22.7886 10.1216ZM22.9254 9.91717C22.9178 9.81495 22.8722 9.72059 22.8266 9.57118C22.7278 9.75204 22.6518 9.89358 22.5303 10.1138C22.6594 10.2003 22.781 10.2946 22.9102 10.3811C22.9178 10.2238 22.933 10.0666 22.9254 9.91717ZM22.7886 10.1216L22.7126 10.0666L22.7886 9.91717V9.92504C22.7962 9.98794 22.7962 10.0509 22.7886 10.1216ZM22.9254 9.91717C22.9178 9.81495 22.8722 9.72059 22.8266 9.57118C22.7278 9.75204 22.6518 9.89358 22.5303 10.1138C22.6594 10.2003 22.781 10.2946 22.9102 10.3811C22.9178 10.2238 22.933 10.0666 22.9254 9.91717ZM22.7886 10.1216L22.7126 10.0666L22.7886 9.91717V9.92504C22.7962 9.98794 22.7962 10.0509 22.7886 10.1216ZM27.6594 11.8358C27.705 11.9223 27.7506 12.0088 27.7962 12.1111C27.8494 12.0167 27.9102 11.9381 27.9634 11.8673C27.8798 11.9695 27.7202 11.9538 27.6594 11.8358ZM26.9983 11.5449C27.1199 11.4977 27.1807 11.3876 27.3099 11.2225C27.1959 11.3719 27.0743 11.4977 26.9983 11.5449ZM26.9452 11.5606C26.9072 11.5528 26.8844 11.5292 26.8692 11.5056C26.8692 11.5134 26.8692 11.5134 26.8768 11.5213C26.8844 11.5449 26.9148 11.5685 26.9452 11.5606ZM26.9755 10.9945C26.9072 11.1596 26.8008 11.2854 26.8388 11.4427C26.8312 11.3169 26.9148 11.136 26.9755 10.9945ZM22.9254 9.91717C22.9178 9.81495 22.8722 9.72059 22.8266 9.57118C22.7278 9.75204 22.6518 9.89358 22.5303 10.1138C22.6594 10.2003 22.781 10.2946 22.9102 10.3811C22.9178 10.2238 22.933 10.0666 22.9254 9.91717ZM22.7886 10.1216L22.7126 10.0666L22.7886 9.91717V9.92504C22.7962 9.98794 22.7962 10.0509 22.7886 10.1216ZM22.9254 9.91717C22.9178 9.81495 22.8722 9.72059 22.8266 9.57118C22.7278 9.75204 22.6518 9.89358 22.5303 10.1138C22.6594 10.2003 22.781 10.2946 22.9102 10.3811C22.9178 10.2238 22.933 10.0666 22.9254 9.91717ZM22.7886 10.1216L22.7126 10.0666L22.7886 9.91717V9.92504C22.7962 9.98794 22.7962 10.0509 22.7886 10.1216ZM27.6594 11.8358C27.705 11.9223 27.7506 12.0088 27.7962 12.1111C27.8494 12.0167 27.9102 11.9381 27.9634 11.8673C27.8798 11.9695 27.7202 11.9538 27.6594 11.8358ZM26.9983 11.5449C27.1199 11.4977 27.1807 11.3876 27.3099 11.2225C27.1959 11.3719 27.0743 11.4977 26.9983 11.5449ZM26.9452 11.5606C26.9072 11.5528 26.8844 11.5292 26.8692 11.5056C26.8692 11.5134 26.8692 11.5134 26.8768 11.5213C26.8844 11.5449 26.9148 11.5685 26.9452 11.5606ZM26.9755 10.9945C26.9072 11.1596 26.8008 11.2854 26.8388 11.4427C26.8312 11.3169 26.9148 11.136 26.9755 10.9945ZM22.9254 9.91717C22.9178 9.81495 22.8722 9.72059 22.8266 9.57118C22.7278 9.75204 22.6518 9.89358 22.5303 10.1138C22.6594 10.2003 22.781 10.2946 22.9102 10.3811C22.9178 10.2238 22.933 10.0666 22.9254 9.91717ZM22.7886 10.1216L22.7126 10.0666L22.7886 9.91717V9.92504C22.7962 9.98794 22.7962 10.0509 22.7886 10.1216ZM22.9254 9.91717C22.9178 9.81495 22.8722 9.72059 22.8266 9.57118C22.7278 9.75204 22.6518 9.89358 22.5303 10.1138C22.6594 10.2003 22.781 10.2946 22.9102 10.3811C22.9178 10.2238 22.933 10.0666 22.9254 9.91717ZM22.7886 10.1216L22.7126 10.0666L22.7886 9.91717V9.92504C22.7962 9.98794 22.7962 10.0509 22.7886 10.1216ZM27.6594 11.8358C27.705 11.9223 27.7506 12.0088 27.7962 12.1111C27.8494 12.0167 27.9102 11.9381 27.9634 11.8673C27.8798 11.9695 27.7202 11.9538 27.6594 11.8358ZM26.9983 11.5449C27.1199 11.4977 27.1807 11.3876 27.3099 11.2225C27.1959 11.3719 27.0743 11.4977 26.9983 11.5449ZM26.9452 11.5606C26.9072 11.5528 26.8844 11.5292 26.8692 11.5056C26.8692 11.5134 26.8692 11.5134 26.8768 11.5213C26.8844 11.5449 26.9148 11.5685 26.9452 11.5606ZM26.9755 10.9945C26.9072 11.1596 26.8008 11.2854 26.8388 11.4427C26.8312 11.3169 26.9148 11.136 26.9755 10.9945ZM22.9254 9.91717C22.9178 9.81495 22.8722 9.72059 22.8266 9.57118C22.7278 9.75204 22.6518 9.89358 22.5303 10.1138C22.6594 10.2003 22.781 10.2946 22.9102 10.3811C22.9178 10.2238 22.933 10.0666 22.9254 9.91717ZM22.7886 10.1216L22.7126 10.0666L22.7886 9.91717V9.92504C22.7962 9.98794 22.7962 10.0509 22.7886 10.1216ZM22.9254 9.91717C22.9178 9.81495 22.8722 9.72059 22.8266 9.57118C22.7278 9.75204 22.6518 9.89358 22.5303 10.1138C22.6594 10.2003 22.781 10.2946 22.9102 10.3811C22.9178 10.2238 22.933 10.0666 22.9254 9.91717ZM22.7886 10.1216L22.7126 10.0666L22.7886 9.91717V9.92504C22.7962 9.98794 22.7962 10.0509 22.7886 10.1216ZM27.6594 11.8358C27.705 11.9223 27.7506 12.0088 27.7962 12.1111C27.8494 12.0167 27.9102 11.9381 27.9634 11.8673C27.8798 11.9695 27.7202 11.9538 27.6594 11.8358ZM26.9983 11.5449C27.1199 11.4977 27.1807 11.3876 27.3099 11.2225C27.1959 11.3719 27.0743 11.4977 26.9983 11.5449ZM26.9452 11.5606C26.9072 11.5528 26.8844 11.5292 26.8692 11.5056C26.8692 11.5134 26.8692 11.5134 26.8768 11.5213C26.8844 11.5449 26.9148 11.5685 26.9452 11.5606ZM26.9755 10.9945C26.9072 11.1596 26.8008 11.2854 26.8388 11.4427C26.8312 11.3169 26.9148 11.136 26.9755 10.9945ZM22.9254 9.91717C22.9178 9.81495 22.8722 9.72059 22.8266 9.57118C22.7278 9.75204 22.6518 9.89358 22.5303 10.1138C22.6594 10.2003 22.781 10.2946 22.9102 10.3811C22.9178 10.2238 22.933 10.0666 22.9254 9.91717ZM22.7886 10.1216L22.7126 10.0666L22.7886 9.91717V9.92504C22.7962 9.98794 22.7962 10.0509 22.7886 10.1216ZM22.9254 9.91717C22.9178 9.81495 22.8722 9.72059 22.8266 9.57118C22.7278 9.75204 22.6518 9.89358 22.5303 10.1138C22.6594 10.2003 22.781 10.2946 22.9102 10.3811C22.9178 10.2238 22.933 10.0666 22.9254 9.91717ZM22.7886 10.1216L22.7126 10.0666L22.7886 9.91717V9.92504C22.7962 9.98794 22.7962 10.0509 22.7886 10.1216ZM27.6594 11.8358C27.705 11.9223 27.7506 12.0088 27.7962 12.1111C27.8494 12.0167 27.9102 11.9381 27.9634 11.8673C27.8798 11.9695 27.7202 11.9538 27.6594 11.8358ZM26.9983 11.5449C27.1199 11.4977 27.1807 11.3876 27.3099 11.2225C27.1959 11.3719 27.0743 11.4977 26.9983 11.5449ZM26.9452 11.5606C26.9072 11.5528 26.8844 11.5292 26.8692 11.5056C26.8692 11.5134 26.8692 11.5134 26.8768 11.5213C26.8844 11.5449 26.9148 11.5685 26.9452 11.5606ZM26.9755 10.9945C26.9072 11.1596 26.8008 11.2854 26.8388 11.4427C26.8312 11.3169 26.9148 11.136 26.9755 10.9945ZM22.9254 9.91717C22.9178 9.81495 22.8722 9.72059 22.8266 9.57118C22.7278 9.75204 22.6518 9.89358 22.5303 10.1138C22.6594 10.2003 22.781 10.2946 22.9102 10.3811C22.9178 10.2238 22.933 10.0666 22.9254 9.91717ZM22.7886 10.1216L22.7126 10.0666L22.7886 9.91717V9.92504C22.7962 9.98794 22.7962 10.0509 22.7886 10.1216ZM22.9254 9.91717C22.9178 9.81495 22.8722 9.72059 22.8266 9.57118C22.7278 9.75204 22.6518 9.89358 22.5303 10.1138C22.6594 10.2003 22.781 10.2946 22.9102 10.3811C22.9178 10.2238 22.933 10.0666 22.9254 9.91717ZM22.7886 10.1216L22.7126 10.0666L22.7886 9.91717V9.92504C22.7962 9.98794 22.7962 10.0509 22.7886 10.1216ZM27.6594 11.8358C27.705 11.9223 27.7506 12.0088 27.7962 12.1111C27.8494 12.0167 27.9102 11.9381 27.9634 11.8673C27.8798 11.9695 27.7202 11.9538 27.6594 11.8358ZM26.9983 11.5449C27.1199 11.4977 27.1807 11.3876 27.3099 11.2225C27.1959 11.3719 27.0743 11.4977 26.9983 11.5449ZM26.8616 11.5056C26.8616 11.5134 26.8616 11.5134 26.8692 11.5213C26.8844 11.5449 26.9148 11.5685 26.9452 11.5685C26.9072 11.5449 26.8844 11.5292 26.8616 11.5056ZM26.8464 11.4427C26.8312 11.3247 26.9224 11.1439 26.9831 10.9945C26.9072 11.1517 26.8084 11.2854 26.8464 11.4427ZM22.8266 9.57118C22.7278 9.75204 22.6518 9.89358 22.5303 10.1138C22.6594 10.2003 22.781 10.2946 22.9102 10.3811C22.9178 10.2238 22.9406 10.0744 22.9254 9.91717C22.9178 9.81495 22.8722 9.71272 22.8266 9.57118ZM22.7886 10.1216L22.7126 10.0666L22.7886 9.91717V9.92504C22.7962 9.98794 22.7962 10.0509 22.7886 10.1216ZM28.009 10.8844C27.6746 10.5384 27.591 10.1216 27.5683 9.59477C27.5379 8.8792 27.2491 8.20294 26.702 7.52669C26.55 7.33797 26.3449 7.14924 26.0941 6.96052C25.9497 6.85043 25.7597 6.7718 25.5698 6.74035C25.3266 6.70103 25.091 6.67744 24.8327 6.66171C24.7719 6.65385 24.7111 6.65385 24.6503 6.64598C24.6579 6.60667 24.6579 6.56735 24.6655 6.5359C24.6807 6.37863 24.6959 6.24495 24.7035 6.10341C24.7035 6.01691 24.6959 5.92255 24.6883 5.84391C24.6731 5.72596 24.6579 5.60801 24.6883 5.51365C24.7491 5.27775 24.7111 5.09689 24.6275 4.95535C24.5743 4.86098 24.4907 4.78235 24.4072 4.71158C24.3844 4.69585 24.3616 4.67226 24.3388 4.65654C24.0956 4.45995 23.6929 4.41277 23.3661 4.53072C23.2445 4.5779 23.1458 4.64081 23.0774 4.71158C23.009 4.78235 22.971 4.86098 22.9482 4.94748C22.9482 4.95534 22.9482 4.95535 22.9482 4.95535C22.8266 5.47433 22.7582 6.01691 23.1002 6.50444C23.3053 6.80325 23.2977 6.86616 23.0014 7.14138C22.9482 7.18856 22.8874 7.24361 22.8342 7.29079C22.5835 7.51096 22.3251 7.73114 22.2035 8.02995C21.9983 8.53321 21.854 9.06792 21.7248 9.57904C21.6792 9.74418 21.6412 9.90931 21.5956 10.0744C21.474 10.5148 21.6184 10.7979 22.0439 10.9551C22.2871 11.0495 22.5227 11.1281 22.781 11.2068C22.8494 11.2304 22.9178 11.254 22.9786 11.2697C22.9482 11.3326 22.9178 11.4034 22.8874 11.4663C22.7658 11.7179 22.6442 11.9853 22.5531 12.2605C22.4163 12.693 22.3023 13.1333 22.1883 13.5658C22.1427 13.7309 22.1047 13.8882 22.0591 14.0533C22.0287 14.1556 22.0135 14.2578 21.9983 14.36C21.9679 14.5566 21.93 14.7453 21.8464 14.879C21.4968 15.3744 21.3524 15.9327 21.4132 16.546C21.4664 17.0808 21.3828 17.5604 21.1397 18.0794C21.1321 18.0873 21.1321 18.0951 21.1245 18.1109C21.1169 18.1187 21.1169 18.1345 21.1093 18.1423C21.0561 18.2524 20.9801 18.394 21.0257 18.5434C21.0561 18.6377 21.1397 18.7164 21.2613 18.7635C21.36 18.8029 21.4664 18.8264 21.5728 18.8264C21.6792 18.8264 21.778 18.8029 21.8692 18.7635C22.0135 18.7006 22.1123 18.5905 22.1655 18.4569L22.1731 18.4411C22.2263 18.2917 22.2871 18.1345 22.3251 17.9772C22.3707 18.0165 22.4163 18.048 22.4695 18.0558C22.5986 18.0873 22.743 18.0401 22.857 17.9064C22.895 17.8592 22.933 17.8121 22.971 17.7649C23.0394 17.6627 23.1078 17.5526 23.1686 17.4503C23.2217 17.356 23.2673 17.2773 23.3205 17.1908C23.3661 17.1201 23.4117 17.0493 23.4573 16.9707C23.5637 16.7898 23.6701 16.609 23.8145 16.4989C24.4907 15.9642 25.0531 15.3665 25.5242 14.6746C25.5926 14.5802 25.661 14.4858 25.7445 14.3915C25.9801 14.1005 26.2309 13.7938 26.2309 13.322C26.2309 13.2041 26.2613 13.0783 26.2841 12.9525C26.2993 12.8817 26.3145 12.8031 26.3297 12.7323C26.3448 12.6143 26.3752 12.5042 26.398 12.3863C26.4892 11.9538 26.5804 11.5056 26.4056 11.0023C26.2537 10.5462 26.1777 10.0509 26.1169 9.56332C26.0941 9.39032 26.0713 9.21733 26.0409 9.05219C26.0257 8.94211 26.0257 8.82415 26.0333 8.69048C26.0333 8.69048 26.0333 8.69048 26.0333 8.68261C26.0409 8.69048 26.0485 8.69048 26.0637 8.69834C26.1853 8.75338 26.2841 8.80843 26.3221 8.87133C26.512 9.17801 26.6412 9.53973 26.7552 9.8464C26.7704 9.88572 26.7856 9.92504 26.8008 9.96435C26.9148 10.271 27.0211 10.562 26.9072 10.8765C26.8464 11.0416 26.8312 11.2225 26.8084 11.3955C26.8008 11.4663 26.7932 11.537 26.7856 11.6157L26.7704 11.71L27.0287 11.8594L27.3479 11.4348L27.819 12.3784L27.9406 12.1661C27.9786 12.0953 28.0242 12.0403 28.0622 11.9853C28.1534 11.8516 28.2369 11.7415 28.2369 11.5999C28.2141 11.4899 28.2065 11.0967 28.009 10.8844ZM28.0546 11.71C28.0318 11.7572 28.0014 11.8044 27.971 11.8516L27.9634 11.8594C27.8874 11.9695 27.7202 11.9538 27.667 11.8358C27.5531 11.6078 27.4543 11.4112 27.3403 11.1832C27.3327 11.1989 27.3251 11.2068 27.3099 11.2225C27.1959 11.3719 27.0743 11.4977 26.9983 11.5449C26.9755 11.5528 26.9603 11.5606 26.9452 11.5606C26.9072 11.5528 26.8844 11.5292 26.8692 11.5056V11.4977C26.8616 11.482 26.854 11.4663 26.854 11.4427V11.4348C26.8388 11.3169 26.93 11.136 26.9907 10.9866C26.9983 10.963 27.0059 10.9473 27.0135 10.9237C27.1655 10.5069 26.9907 10.1531 26.8616 9.79136C26.74 9.44537 26.6032 9.09938 26.4208 8.78484C26.3297 8.63543 26.1093 8.58039 25.8889 8.44671C25.8889 8.69048 25.8661 8.8792 25.8965 9.06006C26.0029 9.72059 26.0561 10.4047 26.2689 11.0338C26.474 11.6314 26.2765 12.1425 26.1853 12.693C26.1549 12.8974 26.0865 13.1019 26.0789 13.3063C26.0789 13.8646 25.6686 14.1792 25.395 14.5802C24.9239 15.2722 24.3616 15.8619 23.7157 16.3731C23.4953 16.546 23.3585 16.8449 23.199 17.0965C23.0546 17.3167 22.9406 17.5683 22.7734 17.7649L22.7506 17.7963C22.6214 17.9457 22.4695 17.9457 22.3783 17.8199C22.3479 17.7806 22.3251 17.7256 22.3099 17.6548C22.2871 17.5604 22.2567 17.4346 22.2947 17.3638C22.5531 16.892 22.5151 16.2315 23.1154 15.9563C23.2673 15.8855 23.3661 15.6732 23.4725 15.5159C23.7765 15.0677 24.1108 14.6352 24.3616 14.1556C24.4679 13.9511 24.3996 13.6523 24.4148 13.3849C24.3312 13.3928 24.2932 13.3849 24.2856 13.3928C24.0576 13.9118 23.6321 14.2657 23.2825 14.6746C22.705 15.3508 22.5455 16.2551 22.1959 17.0572C22.1807 17.0965 22.1655 17.1594 22.1807 17.1987C22.2491 17.4189 22.2491 17.6391 22.2035 17.8435C22.1655 18.0244 22.0971 18.2052 22.0363 18.394C21.9452 18.6377 21.6184 18.7478 21.3069 18.622C21.0105 18.504 21.1853 18.2839 21.2537 18.1345C21.2689 18.103 21.2765 18.0794 21.2917 18.048C21.5044 17.5604 21.5956 17.0729 21.5424 16.5303C21.4892 15.972 21.6108 15.4452 21.9528 14.9576C22.1123 14.7296 22.1123 14.3757 22.1883 14.0848C22.3479 13.4872 22.4847 12.8817 22.6746 12.2998C22.7962 11.9145 23.0014 11.5528 23.161 11.1753C22.781 11.0495 22.4239 10.9394 22.0819 10.8136C21.7248 10.6799 21.6184 10.4676 21.7172 10.1059C21.9072 9.42178 22.0515 8.72193 22.3251 8.07713C22.4619 7.74687 22.8114 7.49523 23.085 7.23574C23.4269 6.9212 23.4649 6.78753 23.2066 6.41008C22.8874 5.954 22.9634 5.44288 23.0774 4.96321C23.0774 4.95535 23.085 4.94748 23.085 4.93962C23.1154 4.83739 23.199 4.7509 23.2977 4.69585C23.5409 4.56217 23.9132 4.54645 24.1716 4.69585C24.202 4.71158 24.2248 4.72731 24.2552 4.7509C24.3312 4.8138 24.3996 4.87671 24.4528 4.93962C24.5591 5.0733 24.6123 5.23843 24.5515 5.46647C24.4983 5.65519 24.5667 5.88323 24.5667 6.08768C24.5591 6.28427 24.5287 6.48085 24.5059 6.76394C24.8707 6.80325 25.2126 6.81898 25.547 6.87402C25.7142 6.90548 25.8813 6.96838 26.0181 7.07061C26.2309 7.22788 26.436 7.40874 26.6032 7.61318C27.0667 8.18722 27.4011 8.83202 27.4391 9.59477C27.4619 10.1059 27.5455 10.5777 27.9178 10.9787C28.047 11.1124 28.0926 11.3876 28.085 11.5999C28.085 11.6235 28.0774 11.655 28.0698 11.6786C28.0622 11.6943 28.0546 11.7022 28.0546 11.71ZM22.6822 16.1057C22.857 15.6182 23.0394 15.1621 23.3737 14.7768C23.4649 14.6667 23.5637 14.5645 23.6625 14.4622C23.8828 14.2263 24.1032 13.9904 24.278 13.6995C24.2856 13.8568 24.2856 13.9983 24.24 14.0927C24.05 14.4465 23.8145 14.7846 23.5865 15.107C23.5105 15.2171 23.4345 15.3272 23.3585 15.4373C23.3281 15.4766 23.3053 15.5238 23.2749 15.571C23.2066 15.6811 23.1306 15.799 23.0546 15.8383C22.895 15.9091 22.7734 16.0035 22.6822 16.1057ZM22.8266 9.57118C22.7278 9.75204 22.6518 9.89358 22.5303 10.1138C22.6594 10.2003 22.781 10.2946 22.9102 10.3811C22.9178 10.2238 22.9406 10.0744 22.9254 9.91717C22.9178 9.81495 22.8722 9.71272 22.8266 9.57118ZM22.7886 10.1216L22.7126 10.0666L22.7886 9.91717V9.92504C22.7962 9.98794 22.7962 10.0509 22.7886 10.1216ZM22.9254 9.91717C22.9178 9.81495 22.8722 9.72059 22.8266 9.57118C22.7278 9.75204 22.6518 9.89358 22.5303 10.1138C22.6594 10.2003 22.781 10.2946 22.9102 10.3811C22.9178 10.2238 22.933 10.0666 22.9254 9.91717ZM22.7886 10.1216L22.7126 10.0666L22.7886 9.91717V9.92504C22.7962 9.98794 22.7962 10.0509 22.7886 10.1216ZM26.9755 10.9945C26.9072 11.1596 26.8008 11.2854 26.8388 11.4427C26.8312 11.3169 26.9148 11.136 26.9755 10.9945ZM26.9452 11.5606C26.9072 11.5528 26.8844 11.5292 26.8692 11.5056C26.8692 11.5134 26.8692 11.5134 26.8768 11.5213C26.8844 11.5449 26.9148 11.5685 26.9452 11.5606ZM26.9983 11.5449C27.1199 11.4977 27.1807 11.3876 27.3099 11.2225C27.1959 11.3719 27.0743 11.4977 26.9983 11.5449ZM27.6594 11.8358C27.705 11.9223 27.7506 12.0088 27.7962 12.1111C27.8494 12.0167 27.9102 11.9381 27.9634 11.8673C27.8798 11.9695 27.7202 11.9538 27.6594 11.8358ZM22.9254 9.91717C22.9178 9.81495 22.8722 9.72059 22.8266 9.57118C22.7278 9.75204 22.6518 9.89358 22.5303 10.1138C22.6594 10.2003 22.781 10.2946 22.9102 10.3811C22.9178 10.2238 22.933 10.0666 22.9254 9.91717ZM22.7886 10.1216L22.7126 10.0666L22.7886 9.91717V9.92504C22.7962 9.98794 22.7962 10.0509 22.7886 10.1216ZM22.9254 9.91717C22.9178 9.81495 22.8722 9.72059 22.8266 9.57118C22.7278 9.75204 22.6518 9.89358 22.5303 10.1138C22.6594 10.2003 22.781 10.2946 22.9102 10.3811C22.9178 10.2238 22.933 10.0666 22.9254 9.91717ZM22.7886 10.1216L22.7126 10.0666L22.7886 9.91717V9.92504C22.7962 9.98794 22.7962 10.0509 22.7886 10.1216ZM26.9755 10.9945C26.9072 11.1596 26.8008 11.2854 26.8388 11.4427C26.8312 11.3169 26.9148 11.136 26.9755 10.9945ZM26.9452 11.5606C26.9072 11.5528 26.8844 11.5292 26.8692 11.5056C26.8692 11.5134 26.8692 11.5134 26.8768 11.5213C26.8844 11.5449 26.9148 11.5685 26.9452 11.5606ZM26.9983 11.5449C27.1199 11.4977 27.1807 11.3876 27.3099 11.2225C27.1959 11.3719 27.0743 11.4977 26.9983 11.5449ZM27.6594 11.8358C27.705 11.9223 27.7506 12.0088 27.7962 12.1111C27.8494 12.0167 27.9102 11.9381 27.9634 11.8673C27.8798 11.9695 27.7202 11.9538 27.6594 11.8358ZM22.9254 9.91717C22.9178 9.81495 22.8722 9.72059 22.8266 9.57118C22.7278 9.75204 22.6518 9.89358 22.5303 10.1138C22.6594 10.2003 22.781 10.2946 22.9102 10.3811C22.9178 10.2238 22.933 10.0666 22.9254 9.91717ZM22.7886 10.1216L22.7126 10.0666L22.7886 9.91717V9.92504C22.7962 9.98794 22.7962 10.0509 22.7886 10.1216ZM22.9254 9.91717C22.9178 9.81495 22.8722 9.72059 22.8266 9.57118C22.7278 9.75204 22.6518 9.89358 22.5303 10.1138C22.6594 10.2003 22.781 10.2946 22.9102 10.3811C22.9178 10.2238 22.933 10.0666 22.9254 9.91717ZM22.7886 10.1216L22.7126 10.0666L22.7886 9.91717V9.92504C22.7962 9.98794 22.7962 10.0509 22.7886 10.1216ZM26.9755 10.9945C26.9072 11.1596 26.8008 11.2854 26.8388 11.4427C26.8312 11.3169 26.9148 11.136 26.9755 10.9945ZM26.9452 11.5606C26.9072 11.5528 26.8844 11.5292 26.8692 11.5056C26.8692 11.5134 26.8692 11.5134 26.8768 11.5213C26.8844 11.5449 26.9148 11.5685 26.9452 11.5606ZM26.9983 11.5449C27.1199 11.4977 27.1807 11.3876 27.3099 11.2225C27.1959 11.3719 27.0743 11.4977 26.9983 11.5449ZM27.6594 11.8358C27.705 11.9223 27.7506 12.0088 27.7962 12.1111C27.8494 12.0167 27.9102 11.9381 27.9634 11.8673C27.8798 11.9695 27.7202 11.9538 27.6594 11.8358ZM22.9254 9.91717C22.9178 9.81495 22.8722 9.72059 22.8266 9.57118C22.7278 9.75204 22.6518 9.89358 22.5303 10.1138C22.6594 10.2003 22.781 10.2946 22.9102 10.3811C22.9178 10.2238 22.933 10.0666 22.9254 9.91717ZM22.7886 10.1216L22.7126 10.0666L22.7886 9.91717V9.92504C22.7962 9.98794 22.7962 10.0509 22.7886 10.1216ZM22.9254 9.91717C22.9178 9.81495 22.8722 9.72059 22.8266 9.57118C22.7278 9.75204 22.6518 9.89358 22.5303 10.1138C22.6594 10.2003 22.781 10.2946 22.9102 10.3811C22.9178 10.2238 22.933 10.0666 22.9254 9.91717ZM22.7886 10.1216L22.7126 10.0666L22.7886 9.91717V9.92504C22.7962 9.98794 22.7962 10.0509 22.7886 10.1216ZM26.9755 10.9945C26.9072 11.1596 26.8008 11.2854 26.8388 11.4427C26.8312 11.3169 26.9148 11.136 26.9755 10.9945ZM26.9452 11.5606C26.9072 11.5528 26.8844 11.5292 26.8692 11.5056C26.8692 11.5134 26.8692 11.5134 26.8768 11.5213C26.8844 11.5449 26.9148 11.5685 26.9452 11.5606ZM26.9983 11.5449C27.1199 11.4977 27.1807 11.3876 27.3099 11.2225C27.1959 11.3719 27.0743 11.4977 26.9983 11.5449ZM27.6594 11.8358C27.705 11.9223 27.7506 12.0088 27.7962 12.1111C27.8494 12.0167 27.9102 11.9381 27.9634 11.8673C27.8798 11.9695 27.7202 11.9538 27.6594 11.8358ZM22.9254 9.91717C22.9178 9.81495 22.8722 9.72059 22.8266 9.57118C22.7278 9.75204 22.6518 9.89358 22.5303 10.1138C22.6594 10.2003 22.781 10.2946 22.9102 10.3811C22.9178 10.2238 22.933 10.0666 22.9254 9.91717ZM22.7886 10.1216L22.7126 10.0666L22.7886 9.91717V9.92504C22.7962 9.98794 22.7962 10.0509 22.7886 10.1216ZM22.9254 9.91717C22.9178 9.81495 22.8722 9.72059 22.8266 9.57118C22.7278 9.75204 22.6518 9.89358 22.5303 10.1138C22.6594 10.2003 22.781 10.2946 22.9102 10.3811C22.9178 10.2238 22.933 10.0666 22.9254 9.91717ZM22.7886 10.1216L22.7126 10.0666L22.7886 9.91717V9.92504C22.7962 9.98794 22.7962 10.0509 22.7886 10.1216ZM26.9755 10.9945C26.9072 11.1596 26.8008 11.2854 26.8388 11.4427C26.8312 11.3169 26.9148 11.136 26.9755 10.9945ZM26.9452 11.5606C26.9072 11.5528 26.8844 11.5292 26.8692 11.5056C26.8692 11.5134 26.8692 11.5134 26.8768 11.5213C26.8844 11.5449 26.9148 11.5685 26.9452 11.5606ZM26.9983 11.5449C27.1199 11.4977 27.1807 11.3876 27.3099 11.2225C27.1959 11.3719 27.0743 11.4977 26.9983 11.5449ZM27.6594 11.8358C27.705 11.9223 27.7506 12.0088 27.7962 12.1111C27.8494 12.0167 27.9102 11.9381 27.9634 11.8673C27.8798 11.9695 27.7202 11.9538 27.6594 11.8358ZM22.9254 9.91717C22.9178 9.81495 22.8722 9.72059 22.8266 9.57118C22.7278 9.75204 22.6518 9.89358 22.5303 10.1138C22.6594 10.2003 22.781 10.2946 22.9102 10.3811C22.9178 10.2238 22.933 10.0666 22.9254 9.91717ZM22.7886 10.1216L22.7126 10.0666L22.7886 9.91717V9.92504C22.7962 9.98794 22.7962 10.0509 22.7886 10.1216ZM22.9254 9.91717C22.9178 9.81495 22.8722 9.72059 22.8266 9.57118C22.7278 9.75204 22.6518 9.89358 22.5303 10.1138C22.6594 10.2003 22.781 10.2946 22.9102 10.3811C22.9178 10.2238 22.933 10.0666 22.9254 9.91717ZM22.7886 10.1216L22.7126 10.0666L22.7886 9.91717V9.92504C22.7962 9.98794 22.7962 10.0509 22.7886 10.1216ZM26.9755 10.9945C26.9072 11.1596 26.8008 11.2854 26.8388 11.4427C26.8312 11.3169 26.9148 11.136 26.9755 10.9945ZM26.9452 11.5606C26.9072 11.5528 26.8844 11.5292 26.8692 11.5056C26.8692 11.5134 26.8692 11.5134 26.8768 11.5213C26.8844 11.5449 26.9148 11.5685 26.9452 11.5606ZM26.9983 11.5449C27.1199 11.4977 27.1807 11.3876 27.3099 11.2225C27.1959 11.3719 27.0743 11.4977 26.9983 11.5449ZM27.6594 11.8358C27.705 11.9223 27.7506 12.0088 27.7962 12.1111C27.8494 12.0167 27.9102 11.9381 27.9634 11.8673C27.8798 11.9695 27.7202 11.9538 27.6594 11.8358Z" fill="white"/>
<path d="M25.4835 16.6468C25.2631 16.4188 24.9744 16.293 24.6552 16.293C24.0093 16.293 23.5078 16.8277 23.5078 17.4961C23.5078 17.5668 23.5154 17.6376 23.5306 17.7005C23.5382 17.7477 23.5534 17.7949 23.5686 17.8421C23.713 18.3217 24.1537 18.6677 24.6704 18.6677H24.6856C25.2099 18.6599 25.6659 18.2588 25.7874 17.7556C25.795 17.7398 25.795 17.732 25.795 17.7162C25.8102 17.6376 25.8178 17.5668 25.8178 17.4882C25.8254 17.1737 25.7039 16.8749 25.4835 16.6468ZM24.6856 18.534C24.2373 18.5419 23.8498 18.251 23.7054 17.8421C23.6902 17.7949 23.675 17.7477 23.6674 17.7005C23.6522 17.6376 23.6446 17.5668 23.6446 17.4961C23.6446 16.9063 24.0853 16.4345 24.6552 16.4345C25.2175 16.4345 25.6811 16.9063 25.6811 17.4882C25.6811 17.5668 25.6735 17.6376 25.6583 17.7084C25.6583 17.732 25.6507 17.7477 25.6431 17.7713C25.5291 18.2038 25.1416 18.534 24.6856 18.534Z" fill="white"/>
<mask id="mask4_446_9429" style="mask-type:luminance" maskUnits="userSpaceOnUse" x="5" y="0" width="39" height="40">
<path d="M6.07986 19.6429C6.07986 9.09013 14.3777 0.511123 24.5677 0.511123C34.7577 0.511123 43.0555 9.09799 43.0555 19.6429C43.0555 30.1956 34.7577 38.7746 24.5677 38.7746C14.3777 38.7746 6.07986 30.1956 6.07986 19.6429ZM5.58594 19.6429C5.58594 30.4787 14.1042 39.2857 24.5677 39.2857C35.0388 39.2857 43.5495 30.4708 43.5495 19.6429C43.5495 8.81491 35.0312 0 24.5677 0C14.0966 0 5.58594 8.81491 5.58594 19.6429Z" fill="white"/>
</mask>
<g mask="url(#mask4_446_9429)">
<path d="M5.58093 39.7566L5.125 0.00696227L43.5444 -0.464844L44.0004 39.2848L5.58093 39.7566Z" fill="url(#paint4_linear_446_9429)"/>
</g>
<path d="M50 26.8387H43.1687V25.502H6.60334V26.9567H0L3.25228 30.3458L0 33.735H7.18845V32.3196H42.576V33.8136H50L46.6261 30.3222L50 26.8387Z" fill="white"/>
<mask id="mask5_446_9429" style="mask-type:luminance" maskUnits="userSpaceOnUse" x="1" y="27" width="6" height="7">
<path d="M1.15234 27.4512L3.9259 30.3449L1.15234 33.2308H6.70705V27.4512H1.15234Z" fill="white"/>
</mask>
<g mask="url(#mask5_446_9429)">
<path d="M6.69946 27.4512H1.15234V33.2308H6.69946V27.4512Z" fill="url(#paint5_linear_446_9429)"/>
</g>
<mask id="mask6_446_9429" style="mask-type:luminance" maskUnits="userSpaceOnUse" x="43" y="27" width="6" height="7">
<path d="M43.0469 27.334V33.3102H48.822L45.9344 30.3221L48.822 27.334H43.0469Z" fill="white"/>
</mask>
<g mask="url(#mask6_446_9429)">
<path d="M48.822 27.334H43.0469V33.3181H48.822V27.334Z" fill="url(#paint6_linear_446_9429)"/>
</g>
<path d="M42.6899 26.0039H7.08203V31.8228H42.6899V26.0039Z" fill="url(#paint7_linear_446_9429)"/>
<path d="M16.2344 29.0715H17.3286V28.6547H16.2344V28.1043H18.1037V27.6875H15.6797V30.133H18.1265V29.677H16.2344V29.0715Z" fill="white"/>
<path d="M20.8438 30.133H21.3985V29.0715H22.4927V28.6547H21.3985V28.1043H23.2678V27.6875H20.8438V30.133Z" fill="white"/>
<path d="M26.8356 27.8133C26.752 27.7347 26.6001 27.6875 26.3721 27.6875H24.632C24.404 27.6875 24.2444 27.7268 24.1685 27.8133C24.0849 27.892 24.0469 28.0492 24.0469 28.2694V29.559C24.0469 29.787 24.0849 29.9364 24.1685 30.0151C24.252 30.0937 24.404 30.133 24.632 30.133H26.3645C26.5925 30.133 26.752 30.0937 26.828 30.0151C26.9116 29.9364 26.9496 29.7792 26.9496 29.559V28.2694C26.9572 28.0414 26.9116 27.892 26.8356 27.8133ZM26.4025 29.677H24.5864V28.1279H26.4025V29.677Z" fill="white"/>
<path d="M30.4997 27.8133C30.4161 27.7347 30.2641 27.6875 30.0362 27.6875H28.296C28.0681 27.6875 27.9085 27.7268 27.8325 27.8133C27.7489 27.892 27.7109 28.0492 27.7109 28.2694V29.559C27.7109 29.787 27.7489 29.9364 27.8325 30.0151C27.9161 30.0937 28.0681 30.133 28.296 30.133H30.0362C30.2641 30.133 30.4237 30.0937 30.4997 30.0151C30.5833 29.9364 30.6213 29.7792 30.6213 29.559V28.2694C30.6213 28.0414 30.5757 27.892 30.4997 27.8133ZM30.0742 29.677H28.2581V28.1279H30.0742V29.677Z" fill="white"/>
<path d="M31.3711 28.1279H32.4577V30.133H33.0048V28.1279H34.0991V27.6875H31.3711V28.1279Z" fill="white"/>
<path d="M19.8589 28.543H19.0687C18.9775 28.543 18.9243 28.5508 18.9015 28.5744C18.8787 28.598 18.8711 28.6452 18.8711 28.716V29.1013C18.8711 29.172 18.8787 29.2114 18.8939 29.2428C18.9091 29.2664 18.9395 29.2821 18.9775 29.2821H19.7678C19.8589 29.2821 19.9197 29.2743 19.9349 29.2507C19.9501 29.2271 19.9653 29.1799 19.9653 29.1091V28.7238C19.9653 28.6531 19.9577 28.6059 19.9425 28.5823C19.9273 28.5587 19.8969 28.543 19.8589 28.543Z" fill="white"/>
<defs>
<linearGradient id="paint0_linear_446_9429" x1="24.5059" y1="1.35742" x2="24.5059" y2="38.292" gradientUnits="userSpaceOnUse">
<stop stop-color="#4A00E8"/>
<stop offset="1" stop-color="#3B3EFF"/>
</linearGradient>
<linearGradient id="paint1_linear_446_9429" x1="24.5728" y1="1.9082" x2="24.5728" y2="37.3802" gradientUnits="userSpaceOnUse">
<stop stop-color="#4A00E8"/>
<stop offset="1" stop-color="#3B3EFF"/>
</linearGradient>
<linearGradient id="paint2_linear_446_9429" x1="24.59" y1="4.47656" x2="24.59" y2="18.8195" gradientUnits="userSpaceOnUse">
<stop stop-color="#4A00E8"/>
<stop offset="1" stop-color="#3B3EFF"/>
</linearGradient>
<linearGradient id="paint3_linear_446_9429" x1="24.6712" y1="16.3184" x2="24.6712" y2="18.6538" gradientUnits="userSpaceOnUse">
<stop stop-color="#4A00E8"/>
<stop offset="1" stop-color="#3B3EFF"/>
</linearGradient>
<linearGradient id="paint4_linear_446_9429" x1="24.5627" y1="-0.464844" x2="24.5627" y2="39.7566" gradientUnits="userSpaceOnUse">
<stop stop-color="#4A00E8"/>
<stop offset="1" stop-color="#3B3EFF"/>
</linearGradient>
<linearGradient id="paint5_linear_446_9429" x1="3.9259" y1="27.4512" x2="3.9259" y2="33.2308" gradientUnits="userSpaceOnUse">
<stop stop-color="#4A00E8"/>
<stop offset="1" stop-color="#3B3EFF"/>
</linearGradient>
<linearGradient id="paint6_linear_446_9429" x1="45.9344" y1="27.334" x2="45.9344" y2="33.3181" gradientUnits="userSpaceOnUse">
<stop stop-color="#4A00E8"/>
<stop offset="1" stop-color="#3B3EFF"/>
</linearGradient>
<linearGradient id="paint7_linear_446_9429" x1="24.886" y1="26.0039" x2="24.886" y2="31.8228" gradientUnits="userSpaceOnUse">
<stop stop-color="#4A00E8"/>
<stop offset="1" stop-color="#3B3EFF"/>
</linearGradient>
</defs>
</svg>
