<svg width="24" height="18" viewBox="0 0 24 18" fill="none" xmlns="http://www.w3.org/2000/svg">
<path d="M23.0458 13.1387C23.0463 13.1343 23.0463 13.1299 23.0458 13.1255L21.5093 5.23461V5.21773C21.2721 3.92216 20.5883 2.75068 19.5769 1.90696C18.5655 1.06325 17.2905 0.600655 15.9733 0.59961H7.71303C6.39223 0.599102 5.11354 1.06432 4.10186 1.91345C3.09018 2.76257 2.4103 3.94123 2.18178 5.24211L0.652717 13.1255C0.652266 13.1299 0.652266 13.1343 0.652717 13.1387C0.528257 13.8454 0.632288 14.5734 0.949704 15.2169C1.26712 15.8605 1.7814 16.3861 2.41788 16.7176C3.05435 17.049 3.77989 17.1689 4.48915 17.0599C5.19841 16.9509 5.85448 16.6187 6.36209 16.1115L6.39491 16.0768L10.1158 11.8496H13.5846L17.3074 16.0768C17.3177 16.089 17.329 16.1002 17.3402 16.1115C17.9729 16.7428 18.8296 17.098 19.7233 17.0996C20.216 17.0993 20.7026 16.9911 21.149 16.7827C21.5953 16.5743 21.9907 16.2707 22.3072 15.8932C22.6238 15.5158 22.8538 15.0736 22.9813 14.5977C23.1087 14.1218 23.1304 13.6238 23.0449 13.1387H23.0458ZM9.59834 7.34961H8.84834V8.09961C8.84834 8.29852 8.76932 8.48929 8.62867 8.62994C8.48802 8.77059 8.29725 8.84961 8.09834 8.84961C7.89943 8.84961 7.70866 8.77059 7.56801 8.62994C7.42736 8.48929 7.34834 8.29852 7.34834 8.09961V7.34961H6.59834C6.39943 7.34961 6.20866 7.27059 6.06801 7.12994C5.92736 6.98929 5.84834 6.79852 5.84834 6.59961C5.84834 6.4007 5.92736 6.20993 6.06801 6.06928C6.20866 5.92863 6.39943 5.84961 6.59834 5.84961H7.34834V5.09961C7.34834 4.9007 7.42736 4.70993 7.56801 4.56928C7.70866 4.42863 7.89943 4.34961 8.09834 4.34961C8.29725 4.34961 8.48802 4.42863 8.62867 4.56928C8.76932 4.70993 8.84834 4.9007 8.84834 5.09961V5.84961H9.59834C9.79725 5.84961 9.98802 5.92863 10.1287 6.06928C10.2693 6.20993 10.3483 6.4007 10.3483 6.59961C10.3483 6.79852 10.2693 6.98929 10.1287 7.12994C9.98802 7.27059 9.79725 7.34961 9.59834 7.34961ZM13.3483 6.59961C13.3483 6.4007 13.4274 6.20993 13.568 6.06928C13.7087 5.92863 13.8994 5.84961 14.0983 5.84961H16.3483C16.5473 5.84961 16.738 5.92863 16.8787 6.06928C17.0193 6.20993 17.0983 6.4007 17.0983 6.59961C17.0983 6.79852 17.0193 6.98929 16.8787 7.12994C16.738 7.27059 16.5473 7.34961 16.3483 7.34961H14.0983C13.8994 7.34961 13.7087 7.27059 13.568 7.12994C13.4274 6.98929 13.3483 6.79852 13.3483 6.59961ZM21.258 14.7999C21.1176 15.0022 20.9383 15.1745 20.7307 15.307C20.5231 15.4394 20.2913 15.5293 20.0487 15.5715C19.7551 15.6228 19.4537 15.6038 19.1689 15.5159C18.8842 15.4281 18.6244 15.2739 18.4108 15.0662L15.5796 11.8496H15.9733C16.9309 11.8497 17.8726 11.6054 18.7093 11.1398C19.546 10.6742 20.25 10.0028 20.7546 9.18898L21.574 13.4077C21.6157 13.6492 21.6093 13.8965 21.555 14.1354C21.5008 14.3743 21.3999 14.6002 21.258 14.7999Z" fill="#D1CBD8"/>
</svg>
