<svg width="12" height="8" viewBox="0 0 12 8" fill="none" xmlns="http://www.w3.org/2000/svg">
<path d="M10.9997 6.8303C10.8123 7.01655 10.5589 7.12109 10.2947 7.12109C10.0305 7.12109 9.77707 7.01655 9.5897 6.8303L5.9997 3.2903L2.4597 6.8303C2.27234 7.01655 2.01889 7.12109 1.7547 7.12109C1.49052 7.12109 1.23707 7.01655 1.0497 6.8303C0.955976 6.73734 0.881582 6.62674 0.830813 6.50488C0.780044 6.38302 0.753906 6.25231 0.753906 6.1203C0.753906 5.98829 0.780044 5.85758 0.830813 5.73572C0.881582 5.61387 0.955976 5.50326 1.0497 5.4103L5.2897 1.1703C5.38267 1.07657 5.49327 1.00218 5.61513 0.95141C5.73699 0.900641 5.86769 0.874503 5.9997 0.874503C6.13172 0.874503 6.26242 0.900641 6.38428 0.95141C6.50614 1.00218 6.61674 1.07657 6.7097 1.1703L10.9997 5.4103C11.0934 5.50326 11.1678 5.61387 11.2186 5.73572C11.2694 5.85758 11.2955 5.98829 11.2955 6.1203C11.2955 6.25231 11.2694 6.38302 11.2186 6.50488C11.1678 6.62674 11.0934 6.73734 10.9997 6.8303Z" fill="#D1CBD8"/>
</svg>
