<svg width="11" height="7" viewBox="0 0 11 7" fill="none" xmlns="http://www.w3.org/2000/svg">
<path d="M0.295706 5.95579C0.483068 6.14204 0.73652 6.24658 1.00071 6.24658C1.26489 6.24658 1.51834 6.14204 1.70571 5.95579L5.29571 2.41579L8.83571 5.95579C9.02307 6.14204 9.27652 6.24658 9.54071 6.24658C9.80489 6.24658 10.0583 6.14204 10.2457 5.95579C10.3394 5.86283 10.4138 5.75223 10.4646 5.63037C10.5154 5.50851 10.5415 5.3778 10.5415 5.24579C10.5415 5.11378 10.5154 4.98307 10.4646 4.86121C10.4138 4.73935 10.3394 4.62875 10.2457 4.53579L6.00571 0.29579C5.91274 0.202061 5.80214 0.127667 5.68028 0.0768986C5.55842 0.0261299 5.42772 -8.58307e-06 5.29571 -8.58307e-06C5.16369 -8.58307e-06 5.03299 0.0261299 4.91113 0.0768986C4.78927 0.127667 4.67867 0.202061 4.58571 0.29579L0.295706 4.53579C0.201977 4.62875 0.127583 4.73935 0.0768147 4.86121C0.026046 4.98307 -9.34601e-05 5.11378 -9.34601e-05 5.24579C-9.34601e-05 5.3778 0.026046 5.50851 0.0768147 5.63037C0.127583 5.75223 0.201977 5.86283 0.295706 5.95579Z" fill="#212B36"/>
</svg>
