<svg width="281" height="30" viewBox="0 0 281 30" fill="none" xmlns="http://www.w3.org/2000/svg">
<rect y="5" width="2.89691" height="20" rx="1.44845" fill="#D1CBD8"/>
<rect x="95.5981" y="5" width="2.89691" height="20" rx="1.44845" fill="#D1CBD8"/>
<rect x="191.196" y="5" width="2.89691" height="20" rx="1.44845" fill="#D1CBD8"/>
<rect x="8.69067" y="7" width="2.89691" height="16" rx="1.44845" fill="#D1CBD8"/>
<rect x="104.289" y="7" width="2.89691" height="16" rx="1.44845" fill="#D1CBD8"/>
<rect x="199.887" y="7" width="2.89691" height="16" rx="1.44845" fill="#D1CBD8"/>
<rect x="26.0723" y="7" width="2.89691" height="16" rx="1.44845" fill="#D1CBD8"/>
<rect x="121.67" y="7" width="2.89691" height="16" rx="1.44845" fill="#D1CBD8"/>
<rect x="217.269" y="7" width="2.89691" height="16" rx="1.44845" fill="#D1CBD8"/>
<rect x="78.2163" y="7" width="2.89691" height="16" rx="1.44845" fill="#D1CBD8"/>
<rect x="173.815" y="7" width="2.89691" height="16" rx="1.44845" fill="#D1CBD8"/>
<rect x="269.413" y="7" width="2.89691" height="16" rx="1.44845" fill="#D1CBD8"/>
<rect x="34.7625" y="7" width="2.89691" height="16" rx="1.44845" fill="#D1CBD8"/>
<rect x="130.361" y="7" width="2.89691" height="16" rx="1.44845" fill="#D1CBD8"/>
<rect x="225.959" y="7" width="2.89691" height="16" rx="1.44845" fill="#D1CBD8"/>
<rect x="86.9075" y="7" width="2.89691" height="16" rx="1.44845" fill="#D1CBD8"/>
<rect x="182.505" y="7" width="2.89691" height="16" rx="1.44845" fill="#D1CBD8"/>
<rect x="278.103" y="7" width="2.89691" height="16" rx="1.44845" fill="#D1CBD8"/>
<rect x="17.3816" y="5" width="2.89691" height="13.3333" rx="1.44845" fill="#D1CBD8"/>
<rect x="112.98" y="5" width="2.89691" height="13.3333" rx="1.44845" fill="#D1CBD8"/>
<rect x="208.578" y="5" width="2.89691" height="13.3333" rx="1.44845" fill="#D1CBD8"/>
<rect x="69.5261" y="5" width="2.89691" height="13.3333" rx="1.44845" fill="#D1CBD8"/>
<rect x="165.124" y="5" width="2.89691" height="13.3333" rx="1.44845" fill="#D1CBD8"/>
<rect x="260.722" y="5" width="2.89691" height="13.3333" rx="1.44845" fill="#D1CBD8"/>
<rect x="43.4539" width="2.89691" height="30" rx="1.44845" fill="#D1CBD8"/>
<rect x="139.052" width="2.89691" height="30" rx="1.44845" fill="#D1CBD8"/>
<rect x="234.65" width="2.89691" height="30" rx="1.44845" fill="#D1CBD8"/>
<rect x="52.144" width="2.89691" height="30" rx="1.44845" fill="#D1CBD8"/>
<rect x="147.743" width="2.89691" height="30" rx="1.44845" fill="#D1CBD8"/>
<rect x="243.341" width="2.89691" height="30" rx="1.44845" fill="#D1CBD8"/>
<rect x="60.8347" width="2.89691" height="30" rx="1.44845" fill="#D1CBD8"/>
<rect x="156.433" width="2.89691" height="30" rx="1.44845" fill="#D1CBD8"/>
<rect x="252.031" width="2.89691" height="30" rx="1.44845" fill="#D1CBD8"/>
</svg>
